<svg width="64" height="64" viewBox="0 0 64 64" fill="none" xmlns="http://www.w3.org/2000/svg">
<g clip-path="url(#clip0_918_131726)">
<path d="M57 15.3739C64.0824 25.8913 63.1807 39.0479 57 48.5314" stroke="#D94625" stroke-linecap="round" stroke-dasharray="3 2"/>
<path d="M15.368 57C25.887 64.0852 39.0468 63.183 48.5314 57" stroke="#D94625" stroke-linecap="round" stroke-dasharray="3 2"/>
<path d="M7 15.4562C0.810007 24.9441 -0.093871 38.1135 7 48.6372" stroke="#EAEAEA" stroke-linecap="round" stroke-dasharray="3 2"/>
<path d="M15.4609 7.00014C24.9461 0.815972 38.1075 -0.0865727 48.6272 7.00014" stroke="#EAEAEA" stroke-linecap="round" stroke-linejoin="round" stroke-dasharray="3 2"/>
<path d="M53 11V10.7487C53.2048 10.694 53.3419 10.6342 53.4113 10.5692C53.4807 10.5009 53.5253 10.4051 53.5451 10.2821C53.5682 10.159 53.5798 9.97094 53.5798 9.71795V5.28205C53.5798 5.04615 53.5715 4.87521 53.555 4.76923C53.5385 4.65983 53.5104 4.57607 53.4708 4.51795C53.4344 4.45641 53.3849 4.40855 53.3221 4.37436C53.2593 4.33675 53.152 4.29573 53 4.25128V4H55.7106C56.2359 4 56.6571 4.05812 56.9742 4.17436C57.2947 4.2906 57.5325 4.46325 57.6878 4.69231C57.8431 4.91795 57.9207 5.21026 57.9207 5.56923C57.9207 5.86667 57.8646 6.12479 57.7522 6.34359C57.6432 6.56239 57.4995 6.74359 57.3211 6.88718C57.1427 7.03077 56.9131 7.1641 56.6323 7.28718V7.33333C57.0816 7.4735 57.4219 7.6906 57.6531 7.98462C57.8844 8.27521 58 8.62222 58 9.02564C58 9.4906 57.8992 9.87009 57.6977 10.1641C57.4995 10.4581 57.2204 10.6718 56.8603 10.8051C56.5002 10.935 56.0641 11 55.552 11H53ZM55.3736 7.13846C55.8758 7.13846 56.259 7.01368 56.5233 6.7641C56.7909 6.51111 56.9247 6.1453 56.9247 5.66667C56.9247 5.43077 56.8867 5.2359 56.8107 5.08205C56.738 4.92479 56.6356 4.8 56.5035 4.70769C56.3746 4.61538 56.221 4.55043 56.0426 4.51282C55.8642 4.47179 55.671 4.45128 55.4628 4.45128C55.3373 4.45128 55.1721 4.4547 54.9673 4.46154C54.7625 4.46838 54.6089 4.47521 54.5064 4.48205V7.13846H55.3736ZM54.5064 10.5128C54.7476 10.5368 55.0168 10.5487 55.3142 10.5487C55.7469 10.5487 56.0823 10.4923 56.3201 10.3795C56.5613 10.2667 56.7347 10.1009 56.8404 9.88205C56.9495 9.65983 57.004 9.38291 57.004 9.05128C57.004 8.71966 56.9445 8.44615 56.8256 8.23077C56.7099 8.01538 56.5299 7.8547 56.2854 7.74872C56.041 7.64274 55.704 7.58974 55.2745 7.58974H54.5064V10.5128Z" fill="#BCBCBC"/>
<path d="M11 4.22548V5.61346H10.4637C10.377 5.32283 10.2669 5.09234 10.1333 4.92198C9.99964 4.74827 9.84435 4.62467 9.66739 4.55118C9.49043 4.47769 9.27736 4.44094 9.02817 4.44094C8.65619 4.44094 8.32394 4.55619 8.03142 4.78669C7.74251 5.01384 7.51499 5.35791 7.34886 5.8189C7.18274 6.27654 7.09968 6.83107 7.09968 7.48246C7.09968 8.1372 7.16829 8.69673 7.30553 9.16106C7.44276 9.62205 7.645 9.97113 7.91224 10.2083C8.17949 10.4421 8.50813 10.5591 8.89816 10.5591C9.19429 10.5591 9.43626 10.5206 9.62405 10.4438C9.81185 10.3636 9.96894 10.2384 10.0953 10.068C10.2254 9.89764 10.3481 9.6471 10.4637 9.31639H11V10.7495C10.6605 10.833 10.312 10.8948 9.9545 10.9349C9.60058 10.9783 9.21055 11 8.7844 11C7.8671 11 7.17371 10.7127 6.70423 10.1382C6.23474 9.56359 6 8.70675 6 7.56764C6 6.85278 6.12098 6.22644 6.36295 5.68862C6.60852 5.1508 6.96786 4.73491 7.44095 4.44094C7.91405 4.14698 8.47923 4 9.13651 4C9.46515 4 9.76851 4.0167 10.0466 4.05011C10.3247 4.08017 10.6425 4.13863 11 4.22548Z" fill="#141414"/>
<g clip-path="url(#clip1_918_131726)">
<path d="M56.0614 53.4982C55.4254 53.4981 54.7707 53.741 54.2844 54.2273C53.7982 54.7135 53.5459 55.3588 53.5554 56.0042C53.5556 56.6403 53.799 57.2951 54.2855 57.7816C54.7721 58.2682 55.4269 58.5116 56.0629 58.5118C56.699 58.512 57.3537 58.269 57.8399 57.7827C58.3261 57.2965 58.5785 56.6512 58.5689 56.0058C58.5687 55.3697 58.3253 54.7149 57.8388 54.2284C57.3523 53.7418 56.7068 53.4891 56.0614 53.4982ZM57.8955 56.0056C57.8956 56.4732 57.7087 56.9409 57.3534 57.2962C56.998 57.6515 56.5304 57.8384 56.0627 57.8383C55.5951 57.8382 55.1273 57.6509 54.7718 57.2954C54.4162 56.9399 54.229 56.4721 54.2289 56.0044C54.2287 55.5368 54.4157 55.0691 54.771 54.7138C55.1263 54.3585 55.5939 54.1716 56.0616 54.1717C56.5293 54.1718 56.997 54.3591 57.3526 54.7146C57.7081 55.0702 57.8953 55.5379 57.8955 56.0056Z" fill="#D94625"/>
<path d="M59.0959 52.4695L58.3759 53.1895C58.245 53.3204 58.2451 53.5449 58.3761 53.6759C58.5071 53.8069 58.7316 53.8069 58.8625 53.676L59.5825 52.956C59.7134 52.8251 59.7133 52.6006 59.5823 52.4696C59.4513 52.3387 59.2268 52.3386 59.0959 52.4695Z" fill="#D94625"/>
<path d="M58.3994 58.3321C58.2685 58.463 58.2685 58.6875 58.3995 58.8185L59.12 59.5389C59.251 59.6699 59.4754 59.67 59.6063 59.5391C59.7373 59.4081 59.7372 59.1837 59.6062 59.0527L58.8858 58.3322C58.7548 58.2012 58.5303 58.2012 58.3994 58.3321Z" fill="#D94625"/>
<path d="M60.7246 55.6706L59.6957 55.6703C59.518 55.6608 59.359 55.8198 59.3591 56.0069C59.3591 56.194 59.5088 56.3437 59.6959 56.3437L60.7248 56.344C60.9118 56.3441 61.0615 56.1945 61.0614 56.0074C61.0613 55.8203 60.9116 55.6706 60.7246 55.6706Z" fill="#D94625"/>
<path d="M52.5322 52.4703C52.4013 52.6012 52.4013 52.8257 52.5323 52.9566L53.2528 53.6771C53.3838 53.8081 53.6083 53.8082 53.7392 53.6772C53.8701 53.5463 53.87 53.3218 53.739 53.1909L53.0186 52.4704C52.8876 52.3394 52.6631 52.3394 52.5322 52.4703Z" fill="#D94625"/>
<path d="M56.0772 51.0017C55.8901 51.0016 55.7405 51.1512 55.7405 51.3383L55.7408 52.3672C55.7409 52.5543 55.8906 52.704 56.0777 52.704C56.2554 52.7134 56.4144 52.5545 56.4143 52.3674L56.414 51.3385C56.4139 51.1514 56.2642 51.0017 56.0772 51.0017Z" fill="#D94625"/>
<path d="M53.26 58.3333L52.54 59.0533C52.4091 59.1842 52.4092 59.4087 52.5401 59.5397C52.6711 59.6706 52.8863 59.6801 53.0265 59.5398L53.7465 58.8198C53.8774 58.6889 53.8774 58.4644 53.7464 58.3334C53.6154 58.2024 53.3909 58.2024 53.26 58.3333Z" fill="#D94625"/>
<path d="M56.0537 59.3073C55.876 59.2979 55.717 59.4569 55.7171 59.644L55.7174 60.6729C55.7175 60.8599 55.8672 61.0096 56.0542 61.0097C56.2413 61.0097 56.3909 60.8601 56.3909 60.6731L56.3905 59.6442C56.3905 59.4571 56.2408 59.3074 56.0537 59.3073Z" fill="#D94625"/>
<path d="M52.4277 55.6774L51.3988 55.6771C51.2117 55.677 51.0621 55.8266 51.0622 56.0137C51.0622 56.2008 51.2119 56.3505 51.399 56.3505L52.4279 56.3509C52.615 56.3509 52.7646 56.2013 52.7645 56.0142C52.7645 55.8272 52.6148 55.6775 52.4277 55.6774Z" fill="#D94625"/>
</g>
<path d="M7 58.7144V57.3114H7.44242C7.59141 57.7857 7.76625 58.1131 7.96693 58.2935C8.17066 58.4705 8.44888 58.5591 8.8016 58.5591C9.20296 58.5591 9.51615 58.4321 9.74116 58.1782C9.96921 57.921 10.0832 57.5536 10.0832 57.0759C10.0832 56.6884 10.0148 56.3894 9.87799 56.179C9.7442 55.9685 9.57697 55.8315 9.37628 55.7681C9.1756 55.7013 8.91106 55.6679 8.58267 55.6679H7.85291V55.0716H8.59179C9.07222 55.0716 9.42037 54.9547 9.63626 54.7208C9.85215 54.4837 9.96009 54.1246 9.96009 53.6435C9.96009 53.266 9.85519 52.9721 9.64538 52.7616C9.43558 52.5478 9.16648 52.4409 8.83808 52.4409C8.50057 52.4409 8.22843 52.5261 8.02166 52.6965C7.81794 52.8669 7.64006 53.1725 7.48803 53.6135H7.04561V52.2956C7.75713 52.0985 8.40479 52 8.9886 52C10.2444 52 10.8723 52.5245 10.8723 53.5734C10.8723 54.3584 10.4709 54.9263 9.66819 55.277V55.3472C10.5561 55.6244 11 56.194 11 57.0558C11 57.6738 10.8084 58.1532 10.4253 58.4939C10.0452 58.8313 9.48119 59 8.73318 59C8.17674 59 7.59901 58.9048 7 58.7144Z" fill="#BCBCBC"/>
<path d="M34.392 30.3136L16.0392 16.0392L30.3136 34.392L34.392 30.3136Z" fill="#D94625"/>
<path d="M34.3898 30.3143L48.6642 48.6671L30.3114 34.3927L34.3898 30.3143Z" fill="#EAEAEA"/>
</g>
<defs>
<clipPath id="clip0_918_131726">
<rect width="64" height="64" fill="white"/>
</clipPath>
<clipPath id="clip1_918_131726">
<rect x="50" y="50" width="12" height="12" rx="6" fill="white"/>
</clipPath>
</defs>
</svg>
