<svg width="191" height="67" viewBox="0 0 191 67" fill="none" xmlns="http://www.w3.org/2000/svg">
<g clip-path="url(#clip0_1525_957)">
<path d="M185.205 23.6851L180.159 29.4363V23.6851H176.496V38.1971H180.159V32.0749L185.571 38.1971H190.291L183.638 30.5907L189.803 23.6851H185.205Z" fill="#EF3124"/>
<path d="M170.026 29.1065H164.98V23.6851H161.317V38.1971H164.98V32.4665H170.026V38.1971H173.688V23.6851H170.026V29.1065Z" fill="#EF3124"/>
<mask id="mask0_1525_957" style="mask-type:luminance" maskUnits="userSpaceOnUse" x="42" y="17" width="149" height="32">
<path d="M190.291 17.7275H42.0441V48.4832H190.291V17.7275Z" fill="white"/>
</mask>
<g mask="url(#mask0_1525_957)">
<path d="M63.7745 31.5389C63.6931 34.2393 63.3472 34.7753 61.8416 34.7753V38.1765H62.3909C66.1347 38.1765 67.03 36.2182 67.1724 31.8687L67.3149 27.0451H70.8145V38.1765H74.4769V23.6851H63.9983L63.7745 31.5389Z" fill="#EF3124"/>
</g>
<mask id="mask1_1525_957" style="mask-type:luminance" maskUnits="userSpaceOnUse" x="42" y="17" width="149" height="32">
<path d="M190.291 17.7275H42.0441V48.4832H190.291V17.7275Z" fill="white"/>
</mask>
<g mask="url(#mask1_1525_957)">
<path d="M83.6127 28.0964H80.9676V23.6851H77.3052V38.1765H83.6534C87.6414 38.1765 89.0657 35.5586 89.0657 33.0849C89.0657 29.8898 87.092 28.0964 83.6127 28.0964ZM83.3278 35.002H80.9676V31.3121H83.3278C84.5893 31.3121 85.3625 31.8687 85.3625 33.0849C85.3625 34.4042 84.63 35.002 83.3278 35.002Z" fill="#EF3124"/>
</g>
<mask id="mask2_1525_957" style="mask-type:luminance" maskUnits="userSpaceOnUse" x="42" y="17" width="149" height="32">
<path d="M190.291 17.7275H42.0441V48.4832H190.291V17.7275Z" fill="white"/>
</mask>
<g mask="url(#mask2_1525_957)">
<path d="M100.989 23.3553V17.9751H97.3264V23.3553C93.135 23.7057 90.3068 26.7359 90.3068 30.9205C90.3068 35.1463 93.135 38.156 97.3264 38.527V43.9896H100.989V38.527C105.18 38.1972 108.009 35.1463 108.009 30.9205C108.009 26.6947 105.18 23.6851 100.989 23.3553ZM97.3264 35.0227C95.2917 34.7341 94.0302 33.188 94.0302 30.9205C94.0302 28.653 95.2917 27.107 97.3264 26.8184V35.0227ZM100.989 35.0227V26.839C103.024 27.107 104.305 28.653 104.305 30.9205C104.305 33.188 103.024 34.7341 100.989 35.0227Z" fill="#EF3124"/>
</g>
<mask id="mask3_1525_957" style="mask-type:luminance" maskUnits="userSpaceOnUse" x="42" y="17" width="149" height="32">
<path d="M190.291 17.7275H42.0441V48.4832H190.291V17.7275Z" fill="white"/>
</mask>
<g mask="url(#mask3_1525_957)">
<path d="M121.743 33.7237V28.8589C121.743 25.3133 119.505 23.0664 115.74 23.0664C111.854 23.0664 109.799 25.437 109.616 27.9106H113.319C113.441 27.3747 114.011 26.4471 115.74 26.4471C117.165 26.4471 118.08 27.1067 118.08 28.8589H114.438C111.183 28.8589 109.25 30.5904 109.25 33.4763C109.25 36.486 111.366 38.5473 114.418 38.5473C116.656 38.5473 117.897 37.4754 118.426 36.6715C118.915 37.6403 119.973 38.1969 121.376 38.1969H122.638V34.8369C121.987 34.8369 121.743 34.5276 121.743 33.7237ZM118.08 32.7755C118.08 34.4452 116.921 35.3934 115.395 35.3934C114.072 35.3934 113.034 34.8987 113.034 33.4557C113.034 32.0334 114.174 31.8066 115.171 31.8066H118.101V32.7755H118.08Z" fill="#EF3124"/>
</g>
<mask id="mask4_1525_957" style="mask-type:luminance" maskUnits="userSpaceOnUse" x="42" y="17" width="149" height="32">
<path d="M190.291 17.7275H42.0441V48.4832H190.291V17.7275Z" fill="white"/>
</mask>
<g mask="url(#mask4_1525_957)">
<path d="M137.41 25.7465H133.32V21.6443H142.802V17.9751H129.474V38.1972H137.41C141.805 38.1972 144.328 35.9915 144.328 31.91C144.328 28.0758 141.825 25.7465 137.41 25.7465ZM137.247 34.5279H133.34V29.2714H137.247C139.282 29.2714 140.421 30.2197 140.421 31.8894C140.421 33.6209 139.282 34.5279 137.247 34.5279Z" fill="#EF3124"/>
</g>
<mask id="mask5_1525_957" style="mask-type:luminance" maskUnits="userSpaceOnUse" x="42" y="17" width="149" height="32">
<path d="M190.291 17.7275H42.0441V48.4832H190.291V17.7275Z" fill="white"/>
</mask>
<g mask="url(#mask5_1525_957)">
<path d="M158.347 33.7237V28.8589C158.347 25.3133 156.108 23.0664 152.344 23.0664C148.458 23.0664 146.403 25.437 146.22 27.9106H149.923C150.045 27.3747 150.615 26.4471 152.344 26.4471C153.769 26.4471 154.684 27.1067 154.684 28.8589H151.042C147.787 28.8589 145.854 30.5904 145.854 33.4763C145.854 36.486 147.97 38.5473 151.022 38.5473C153.26 38.5473 154.501 37.4754 155.03 36.6715C155.518 37.6403 156.576 38.1969 157.98 38.1969H159.242V34.8369C158.591 34.8369 158.347 34.5276 158.347 33.7237ZM154.684 32.7755C154.684 34.4452 153.524 35.3934 151.998 35.3934C150.676 35.3934 149.638 34.8987 149.638 33.4557C149.638 32.0334 150.778 31.8066 151.775 31.8066H154.705V32.7755H154.684Z" fill="#EF3124"/>
</g>
<mask id="mask6_1525_957" style="mask-type:luminance" maskUnits="userSpaceOnUse" x="42" y="17" width="149" height="32">
<path d="M190.291 17.7275H42.0441V48.4832H190.291V17.7275Z" fill="white"/>
</mask>
<g mask="url(#mask6_1525_957)">
<path d="M55.3916 20.7371C54.8219 19.0674 54.1912 17.7275 51.9734 17.7275C49.7759 17.7275 49.1045 19.0468 48.5144 20.7371L42.451 38.197H46.4594L47.8633 34.0536H55.5951L56.8973 38.197H61.1701L55.3916 20.7371ZM49.0434 30.5287L51.7903 22.2626H51.892L54.476 30.5287H49.0434Z" fill="#EF3124"/>
</g>
<mask id="mask7_1525_957" style="mask-type:luminance" maskUnits="userSpaceOnUse" x="0" y="9" width="32" height="49">
<path d="M31.7115 9.21094H0.249878V57.0458H31.7115V9.21094Z" fill="white"/>
</mask>
<g mask="url(#mask7_1525_957)">
<path d="M30.6931 50.6338H0.249878V57.046H30.6931V50.6338Z" fill="#EF3124"/>
</g>
<mask id="mask8_1525_957" style="mask-type:luminance" maskUnits="userSpaceOnUse" x="0" y="9" width="32" height="49">
<path d="M31.7115 9.21094H0.249878V57.0458H31.7115V9.21094Z" fill="white"/>
</mask>
<g mask="url(#mask8_1525_957)">
<path d="M21.0095 13.8918C20.1234 11.2949 19.1424 9.21094 15.693 9.21094C12.2753 9.21094 11.231 11.2628 10.3133 13.8918L0.882812 41.0474H7.11703L9.30059 34.6032H21.326L23.3513 41.0474H29.9969L21.0095 13.8918ZM11.136 29.1207L15.4082 16.2643H15.5665L19.5855 29.1207H11.136Z" fill="#EF3124"/>
</g>
</g>
<defs>
<clipPath id="clip0_1525_957">
<rect width="190" height="67" fill="white" transform="translate(0.249878)"/>
</clipPath>
</defs>
</svg>
