<svg width="165" height="100" viewBox="0 0 165 100" fill="none" xmlns="http://www.w3.org/2000/svg">
<path d="M54.7204 22.2686L49.8441 27.1779V22.2686H44.9987L36.8818 30.4404V51.6314H40.1224V32.0562L46.6035 25.5311V51.6314H49.8441V32.0562L56.3253 25.5311V51.6314H59.5658V22.2686H54.7204Z" fill="#364650"/>
<path d="M4.47617 51.6314H17.4385V22.2686H12.5622L4.44531 30.4404V51.6314H4.47617ZM14.1979 25.5311V48.3689H7.71674V32.0562L14.1979 25.5311Z" fill="#364650"/>
<path d="M33.6415 22.2686H20.6792V51.6314H33.6415V22.2686ZM23.9198 25.5311H30.4009V48.3689H23.9198V25.5311Z" fill="#364650"/>
<path d="M59.566 54.894H4.47632V58.1566H59.566V54.894Z" fill="#364650"/>
<path d="M4.47632 61.4189V77.7316H7.71689V74.4691H27.1603V61.4189H4.47632ZM23.9197 71.2066H7.71689V64.6815H23.9197V71.2066Z" fill="#364650"/>
<path d="M30.4009 61.4189V74.4691H43.3632V77.7316H46.6037V74.4691H59.566V61.4189H30.4009ZM33.6414 64.6815H43.3632V71.2066H33.6414V64.6815ZM56.3254 71.2066H46.6037V64.6815H56.3254V71.2066Z" fill="#364650"/>
<path d="M110.767 58.9642H104.934V44.2983H114.563V46.8462H107.773V49.8291H110.767C113.699 49.8291 115.489 51.7245 115.489 54.3967C115.489 57.0689 113.73 58.9642 110.767 58.9642ZM110.644 52.377H107.804V56.4163H110.644C111.909 56.4163 112.681 55.6085 112.681 54.3967C112.65 53.2159 111.909 52.377 110.644 52.377Z" fill="#364650"/>
<path d="M127.649 58.9642L126.785 56.3542H121.631L120.736 58.9642H117.773L123.05 44.2983H125.273L130.581 58.9642H127.649ZM124.254 48.6173L122.402 53.9617H126.013L124.254 48.6173Z" fill="#364650"/>
<path d="M141.352 58.9642V52.8431H136.414V58.9642H133.575V44.2983H136.414V50.2952H141.352V44.2983H144.191V58.9642H141.352Z" fill="#364650"/>
<path d="M148.635 58.9642V44.2983H151.475V51.2584L156.166 44.2983H159.561L154.685 51.1963L160.055 58.9642H156.567L151.475 51.3206V58.9642H148.635Z" fill="#364650"/>
<path d="M85.4906 22.2686H82.25V77.7318H85.4906V22.2686Z" fill="#95C123"/>
</svg>
