<svg width="261" height="60" viewBox="0 0 261 60" fill="none" xmlns="http://www.w3.org/2000/svg">
<path d="M143.559 6.68701L118.242 9.98497V17.4338L143.559 15.1878V6.68701Z" fill="#E4003A"/>
<path d="M66.2336 33.8098C66.2336 38.3303 67.5796 39.894 71.9327 39.894C76.3145 39.894 77.6032 38.3303 77.6032 33.8098C77.6032 29.2609 76.2859 27.7257 71.9327 27.7257C67.6083 27.7257 66.2336 29.2609 66.2336 33.8098ZM58.587 33.753C58.587 25.4796 63.2265 21.6699 71.9327 21.6699C80.6676 21.6699 85.3071 25.4512 85.3071 33.753C85.3071 42.0263 80.6962 45.9497 71.9327 45.9497C63.1979 45.9497 58.587 42.0263 58.587 33.753Z" fill="#00274F"/>
<path d="M138.776 23.7454L118.27 9.95654V17.4054L124.657 21.6984L125.917 22.4376C123.626 22.466 122.509 22.9209 121.421 23.6033C118.27 25.5081 116.609 28.8345 116.609 33.753C116.609 42.0263 121.22 45.9498 129.955 45.9498C138.719 45.9498 143.329 42.0263 143.329 33.753C143.329 28.9482 141.754 25.6787 138.776 23.7454ZM129.955 39.894C125.602 39.894 124.256 38.3303 124.256 33.8099C124.256 29.261 125.602 27.7257 129.955 27.7257C134.337 27.7257 135.626 29.261 135.626 33.8099C135.626 38.3303 134.337 39.894 129.955 39.894Z" fill="#00274F"/>
<path d="M45.4418 21.6416C41.3178 21.6416 37.9671 24.1719 37.1079 25.2239V22.1818H29.7764V53.3134H37.0506V42.2254C37.9098 43.3058 41.2319 45.7792 45.3846 45.7792C52.2865 45.7792 56.0669 42.0548 56.0669 33.6962C56.0955 25.366 52.3152 21.6416 45.4418 21.6416ZM42.8071 39.7519C38.4539 39.7519 37.1079 38.1882 37.1079 33.6678C37.1079 29.1189 38.4539 27.5836 42.8071 27.5836C47.1888 27.5836 48.4776 29.1189 48.4776 33.6678C48.5062 38.1882 47.1888 39.7519 42.8071 39.7519Z" fill="#00274F"/>
<path d="M193.448 22.1816V30.654H183.796V22.1816H176.465V45.0683H183.796V36.4823H193.448V45.0683H200.779V22.1816H193.448Z" fill="#00274F"/>
<path d="M145.85 33.6962C145.85 42.0548 149.63 45.7792 156.532 45.7792C160.685 45.7792 164.007 43.3058 164.866 42.2254V45.0685H172.14V22.1818H164.809V25.2239C163.978 24.1719 160.627 21.6416 156.475 21.6416C149.63 21.6416 145.85 25.366 145.85 33.6962ZM153.439 33.6678C153.439 29.1189 154.756 27.5836 159.11 27.5836C163.463 27.5836 164.809 29.1189 164.809 33.6678C164.809 38.1882 163.463 39.7519 159.11 39.7519C154.756 39.7519 153.439 38.1882 153.439 33.6678Z" fill="#00274F"/>
<path d="M106.586 36.5959C106.013 38.9841 104.466 39.8939 101.173 39.8939C96.8199 39.8939 95.4738 38.3302 95.4738 33.8097C95.4738 29.2608 96.8199 27.7255 101.173 27.7255C104.495 27.7255 106.042 28.6069 106.586 31.0235L114.232 30.4549C113.087 24.4844 108.619 21.6982 101.173 21.6982C92.4381 21.6982 87.8273 25.4795 87.8273 33.7813C87.8273 42.0546 92.4381 45.978 101.173 45.978C108.619 45.978 113.058 43.135 114.232 37.2214L106.586 36.5959Z" fill="#00274F"/>
<path d="M231.824 45.0683L220.225 33.0422L231.194 22.1816H222.115L212.292 32.1324V22.1816H205.075V45.0683H212.292V37.0509V35.0892V34.5205L222.401 45.0683H231.824Z" fill="#00274F"/>
</svg>
