<svg width="168" height="46" viewBox="0 0 168 46" fill="none" xmlns="http://www.w3.org/2000/svg">
<g clip-path="url(#clip0_1525_938)">
<path d="M132.694 14.0143L138.871 9.44727H118.191V36.8044H138.871V32.2374H124.1V25.2526H136.723V20.6856H124.1V14.0143H132.694Z" fill="#21A038"/>
<path d="M102.569 20.1036H95.4073V14.0143H106.866L113.043 9.44727H89.4988V36.8044H101.808C108.702 36.8044 112.685 33.6702 112.685 28.2077C112.685 22.9691 109.104 20.1036 102.569 20.1036ZM101.584 32.2374H95.4073V24.6706H101.584C105.344 24.6706 107.09 25.9242 107.09 28.4764C107.09 31.0285 105.21 32.2374 101.584 32.2374Z" fill="#21A038"/>
<path d="M155.612 9.44727H144.377V36.8044H150.285V29.0585H155.657C162.819 29.0585 167.295 25.2974 167.295 19.2529C167.295 13.2083 162.819 9.44727 155.612 9.44727ZM155.478 24.4915H150.241V14.0143H155.478C159.282 14.0143 161.341 15.8948 161.341 19.2529C161.341 22.6109 159.282 24.4915 155.478 24.4915Z" fill="#21A038"/>
<path d="M79.3826 30.894C77.816 31.7447 76.0702 32.1925 74.2798 32.1925C68.9531 32.1925 65.1036 28.3866 65.1036 23.148C65.1036 17.9094 68.9531 14.1036 74.2798 14.1036C76.2045 14.0588 78.0845 14.6857 79.6512 15.805L83.9036 12.6708L83.635 12.4022C81.1731 10.2082 77.8607 9.08887 74.1007 9.08887C70.0274 9.08887 66.3122 10.4769 63.6265 12.9842C60.9408 15.5812 59.4189 19.2079 59.5084 22.9689C59.4636 26.7748 60.9408 30.4463 63.6265 33.1327C66.4465 35.7744 70.2065 37.252 74.056 37.1624C78.3083 37.1624 82.0236 35.6849 84.5302 32.9984L80.7255 30.1776L79.3826 30.894Z" fill="#21A038"/>
<path d="M41.0217 9.26807C42.096 10.6561 42.9912 12.1784 43.7522 13.7903L23.0722 29.0584L14.3884 23.5959V17.0588L23.0275 22.4765L41.0217 9.26807Z" fill="#21A038"/>
<path d="M5.57038 23.1485C5.57038 22.8351 5.57038 22.5664 5.61515 22.253L0.378014 21.9844C0.378014 22.3426 0.333252 22.7455 0.333252 23.1037C0.333252 29.3722 2.88468 35.0585 7.00276 39.1778L10.718 35.4615C7.5399 32.3273 5.57038 27.9841 5.57038 23.1485Z" fill="url(#paint0_linear_1525_938)"/>
<path d="M23.0274 5.68636C23.3407 5.68636 23.6093 5.68636 23.9226 5.73113L24.1912 0.492528C23.8331 0.492528 23.4303 0.447754 23.0722 0.447754C16.8055 0.447754 11.1208 2.9999 7.00269 7.11914L10.7179 10.8354C13.8512 7.65643 18.2379 5.68636 23.0274 5.68636Z" fill="url(#paint1_linear_1525_938)"/>
<path d="M23.0276 40.6105C22.7142 40.6105 22.4457 40.6105 22.1323 40.5657L21.8638 45.8043C22.2219 45.8043 22.6247 45.8491 22.9828 45.8491C29.2495 45.8491 34.9342 43.2969 39.0523 39.1777L35.3371 35.4614C32.2037 38.6852 27.8619 40.6105 23.0276 40.6105Z" fill="url(#paint2_linear_1525_938)"/>
<path d="M32.8752 8.73087L37.3066 5.46234C33.4123 2.32813 28.4438 0.402832 23.0276 0.402832V5.64144C26.6981 5.68621 30.1 6.80557 32.8752 8.73087Z" fill="url(#paint3_linear_1525_938)"/>
<path d="M45.7665 23.1482C45.7665 21.7602 45.6322 20.417 45.4084 19.0737L40.5294 22.7005C40.5294 22.8348 40.5294 23.0139 40.5294 23.1482C40.5294 28.2973 38.2913 32.909 34.7551 36.088L38.2913 39.9834C42.857 35.8641 45.7665 29.8196 45.7665 23.1482Z" fill="#21A038"/>
<path d="M23.0275 40.6104C17.8799 40.6104 13.2694 38.3717 10.0913 34.8345L6.19702 38.3717C10.3599 42.9834 16.358 45.849 23.0275 45.849V40.6104Z" fill="url(#paint4_linear_1525_938)"/>
<path d="M11.3447 10.2084L7.80847 6.31299C3.19801 10.477 0.333252 16.4768 0.333252 23.1482H5.57038C5.57038 18.0439 7.80847 13.3873 11.3447 10.2084Z" fill="url(#paint5_linear_1525_938)"/>
</g>
<defs>
<linearGradient id="paint0_linear_1525_938" x1="613.111" y1="1677.59" x2="76.805" y2="132.749" gradientUnits="userSpaceOnUse">
<stop offset="0.1444" stop-color="#F2E913"/>
<stop offset="0.3037" stop-color="#E7E518"/>
<stop offset="0.5823" stop-color="#CADB26"/>
<stop offset="0.891" stop-color="#A3CD39"/>
</linearGradient>
<linearGradient id="paint1_linear_1525_938" x1="156.288" y1="606.85" x2="1515.13" y2="90.8237" gradientUnits="userSpaceOnUse">
<stop offset="0.0592" stop-color="#0FA8E0"/>
<stop offset="0.5385" stop-color="#0099F9"/>
<stop offset="0.9234" stop-color="#0291EB"/>
</linearGradient>
<linearGradient id="paint2_linear_1525_938" x1="-8.8876" y1="627.361" x2="1610.17" y2="262.71" gradientUnits="userSpaceOnUse">
<stop offset="0.1226" stop-color="#A3CD39"/>
<stop offset="0.2846" stop-color="#86C339"/>
<stop offset="0.8693" stop-color="#21A038"/>
</linearGradient>
<linearGradient id="paint3_linear_1525_938" x1="-84.5753" y1="335.579" x2="1262.06" y2="749.629" gradientUnits="userSpaceOnUse">
<stop offset="0.0566" stop-color="#0291EB"/>
<stop offset="0.79" stop-color="#0C8ACB"/>
</linearGradient>
<linearGradient id="paint4_linear_1525_938" x1="139.359" y1="473.641" x2="1585.58" y2="1012.11" gradientUnits="userSpaceOnUse">
<stop offset="0.1324" stop-color="#F2E913"/>
<stop offset="0.2977" stop-color="#EBE716"/>
<stop offset="0.5306" stop-color="#D9E01F"/>
<stop offset="0.8023" stop-color="#BBD62D"/>
<stop offset="0.9829" stop-color="#A3CD39"/>
</linearGradient>
<linearGradient id="paint5_linear_1525_938" x1="398.83" y1="1753.11" x2="978.719" y2="249.855" gradientUnits="userSpaceOnUse">
<stop offset="0.0698" stop-color="#A3CD39"/>
<stop offset="0.2599" stop-color="#81C55F"/>
<stop offset="0.9216" stop-color="#0FA8E0"/>
</linearGradient>
<clipPath id="clip0_1525_938">
<rect width="167" height="46" fill="white" transform="translate(0.25)"/>
</clipPath>
</defs>
</svg>
