<svg width="124" height="44" viewBox="0 0 124 44" fill="none" xmlns="http://www.w3.org/2000/svg">
<g clip-path="url(#clip0_1525_1014)">
<path d="M8.53563 0.594727L6.46211 6.2312H35.1863L37.2599 0.594727H8.53563ZM5.42656 9.04703L3.35304 14.6823H32.0772L34.1508 9.04703H5.42656ZM2.32352 17.4993L0.25 23.1334H28.9743L31.0454 17.4981L2.32352 17.4993Z" fill="#009FDF"/>
<path d="M60.6364 24.9023V25.0193C61.9263 25.4888 63.1595 26.3108 63.8045 26.8388C65.7984 28.4827 66.6797 30.6533 66.6797 33.4704C66.6797 38.1093 64.2156 41.4532 60.1662 42.5105C58.933 42.863 57.643 42.98 55.2379 42.98H42.9777V9.05371H53.8324C56.0626 9.05371 57.5863 9.17079 58.9354 9.52203C62.8666 10.5793 65.4489 13.2793 65.4489 17.5633C65.4489 19.8536 64.6279 21.7913 63.2789 23.0815C62.6917 23.6682 61.8708 24.373 60.6388 24.901L60.6364 24.9023ZM49.783 28.4827V37.4045H54.4773C55.8841 37.4045 57.1765 37.2875 58.1143 36.407C59.0535 35.5265 59.4634 34.4107 59.4634 32.9436C59.4634 31.8302 59.1693 30.7729 58.5833 30.0095C57.5863 28.7766 56.3531 28.4827 54.2422 28.4827H49.783ZM49.7226 22.612H53.5369C54.7099 22.612 55.2971 22.612 55.8829 22.4364C57.4683 21.9657 58.4652 20.5596 58.4652 18.6218C58.4652 16.3329 57.4091 15.3341 55.8829 14.8658C55.2367 14.6889 54.5931 14.6316 53.3019 14.6316H49.7226V22.612ZM76.8881 42.9812V14.7476H67.0908V9.05491H94.3153L92.3793 14.7476H83.6946V42.9812H76.8881ZM96.4275 42.9812V9.05491H118.489L116.553 14.7476H103.176V22.2621H108.634C113.034 22.2621 115.322 23.3192 116.907 24.668C118.14 25.7253 120.251 28.0717 120.251 32.7106C120.251 37.2887 118.081 39.8118 116.261 41.1044C114.149 42.5702 111.92 42.9824 107.4 42.9824H96.4287L96.4275 42.9812ZM103.175 37.2863H108.279C110.215 37.2863 111.388 36.8167 112.209 35.7595C112.619 35.2325 113.206 34.2912 113.206 32.5314C113.206 30.7717 112.619 29.5375 111.446 28.657C110.743 28.1302 109.803 27.8376 108.219 27.8376H103.172V37.2863H103.175Z" fill="#0A2973"/>
</g>
<defs>
<clipPath id="clip0_1525_1014">
<rect width="123" height="44" fill="white" transform="translate(0.25)"/>
</clipPath>
</defs>
</svg>
