<svg width="200" height="202" viewBox="0 0 200 202" fill="none" xmlns="http://www.w3.org/2000/svg">
<path fill-rule="evenodd" clip-rule="evenodd" d="M266.343 0.466309H264.112H197.549L198.2 16.1279V18.4585V33.2812H134.241V19.2043V15.6618C134.241 13.0516 134.334 0.466309 134.334 0.466309H65.5399V2.33079V65.7231C66.1291 65.9693 54.376 65.9294 43.3174 65.892C33.4364 65.8585 24.1092 65.8268 24.6356 66.0028H2.41707V65.257H0.185912V132.751H0.0929565L0.131593 168.819L2.41707 169.948L63.9595 201.364L0.371839 234.831V401.236L65.447 400.957V516.834H67.7711V514.504V399.931H71.0248C71.1178 400.211 71.3967 400.397 71.6756 400.397C71.9545 400.397 72.2333 400.211 72.3263 399.931H75.952C76.0449 400.211 76.3238 400.397 76.6027 400.397C76.8816 400.397 77.1605 400.211 77.2535 399.931H80.8791C80.972 400.211 81.2509 400.397 81.5298 400.397C81.8087 400.397 82.0876 400.211 82.1805 399.931H85.8991C85.9921 400.211 86.271 400.397 86.5499 400.397C86.8288 400.397 87.1077 400.211 87.2006 399.931H90.7333C90.8263 400.211 91.1051 400.397 91.384 400.397C91.6629 400.397 91.9418 400.211 92.0348 399.931H95.7534C95.8463 400.211 96.1252 400.397 96.4041 400.397C96.683 400.397 96.9619 400.211 97.0549 399.931H99.0071V401.609H98.9142C98.5423 401.609 98.2634 401.889 98.2634 402.262C98.2634 402.635 98.5423 402.914 98.9142 402.914H99.0071V406.643H98.9142C98.5423 406.643 98.2634 406.923 98.2634 407.296C98.2634 407.669 98.5423 407.948 98.9142 407.948H99.0071V411.677H98.9142C98.5423 411.677 98.2634 411.957 98.2634 412.33C98.2634 412.703 98.5423 412.983 98.9142 412.983H99.0071V416.712H98.9142C98.5423 416.712 98.2634 416.991 98.2634 417.364C98.2634 417.737 98.5423 418.017 98.9142 418.017H99.0071V421.746H98.9142C98.5423 421.746 98.2634 422.025 98.2634 422.398C98.2634 422.771 98.5423 423.051 98.9142 423.051H99.0071V426.78H98.9142C98.5423 426.78 98.2634 427.059 98.2634 427.432C98.2634 427.805 98.5423 428.085 98.9142 428.085H99.0071V431.814H98.9142C98.5423 431.814 98.2634 432.093 98.2634 432.466C98.2634 432.839 98.5423 433.119 98.9142 433.119H99.0071V436.848H98.9142C98.5423 436.848 98.2634 437.128 98.2634 437.5C98.2634 437.873 98.5423 438.153 98.9142 438.153H99.0071V441.882H98.9142C98.5423 441.882 98.2634 442.162 98.2634 442.535C98.2634 442.907 98.5423 443.187 98.9142 443.187H99.0071V446.916H98.9142C98.5423 446.916 98.2634 447.196 98.2634 447.569C98.2634 447.941 98.5423 448.221 98.9142 448.221H99.0071V451.95H98.9142C98.5423 451.95 98.2634 452.23 98.2634 452.603C98.2634 452.976 98.5423 453.255 98.9142 453.255H99.0071V456.984H98.9142C98.5423 456.984 98.2634 457.264 98.2634 457.637C98.2634 458.01 98.5423 458.289 98.9142 458.289H99.0071V462.018H98.9142C98.5423 462.018 98.2634 462.298 98.2634 462.671C98.2634 463.044 98.5423 463.324 98.9142 463.324H99.0071V467.052H98.9142C98.5423 467.052 98.2634 467.332 98.2634 467.705C98.2634 468.078 98.5423 468.358 98.9142 468.358H99.0071V472.087H98.9142C98.5423 472.087 98.2634 472.366 98.2634 472.739C98.2634 473.112 98.5423 473.392 98.9142 473.392H99.0071V477.121H98.9142C98.5423 477.121 98.2634 477.4 98.2634 477.773C98.2634 478.146 98.5423 478.426 98.9142 478.426H99.0071V482.155H98.9142C98.5423 482.155 98.2634 482.434 98.2634 482.807C98.2634 483.18 98.5423 483.46 98.9142 483.46H99.0071V487.189H98.9142C98.5423 487.189 98.2634 487.469 98.2634 487.841C98.2634 488.214 98.5423 488.494 98.9142 488.494H99.0071V492.223H98.9142C98.5423 492.223 98.2634 492.503 98.2634 492.876C98.2634 493.248 98.5423 493.528 98.9142 493.528H99.0071V497.257H98.9142C98.5423 497.257 98.2634 497.537 98.2634 497.91C98.2634 498.283 98.5423 498.562 98.9142 498.562H99.0071V502.291H98.9142C98.5423 502.291 98.2634 502.571 98.2634 502.944C98.2634 503.317 98.5423 503.596 98.9142 503.596H99.0071V507.325H98.9142C98.5423 507.325 98.2634 507.605 98.2634 507.978C98.2634 508.351 98.5423 508.63 98.9142 508.63H99.0071V512.359H98.9142C98.5423 512.359 98.2634 512.639 98.2634 513.012C98.2634 513.385 98.5423 513.664 98.9142 513.664H99.0071V514.504H98.9142C98.5423 514.504 98.2634 514.783 98.2634 515.156C98.2634 515.529 98.5423 515.809 98.9142 515.809H99.0071V515.995H101.331V514.504V466.213H165.012V515.995H167.336V515.902H264.298V515.995H266.529V464.629H329.652V529.046C347.159 529.046 362.072 519.853 363.956 500.427C365.257 513.851 373.803 523.795 386.167 527.897C389.072 528.697 392.234 529.046 395.192 529.046H399.003L430.425 466.586L461.847 529.046H464.543V508.63C468.076 518.232 475.792 525.784 485.46 529.046H491.773C493.085 529.224 494.422 529.319 495.779 529.326L496.136 529.046H500.242L500.149 529.14C500.366 529.111 500.582 529.08 500.798 529.046H506.935C516.789 525.69 524.598 517.953 528.038 508.071V485.604C524.598 475.816 516.882 467.985 507.121 464.629H528.038V462.298H526.458C526.458 461.925 526.179 461.739 525.807 461.739C525.435 461.739 525.156 462.018 525.156 462.298H521.531C521.531 461.925 521.252 461.739 520.88 461.739C520.508 461.739 520.229 462.018 520.229 462.298H516.789C516.789 461.925 516.51 461.739 516.139 461.739C515.767 461.739 515.488 462.018 515.488 462.298H512.048C512.048 461.925 511.769 461.739 511.397 461.739C511.026 461.739 510.747 462.018 510.747 462.298H507.214C507.214 461.925 506.935 461.739 506.563 461.739C506.191 461.739 505.913 462.018 505.913 462.298H502.008C502.008 461.925 501.729 461.739 501.357 461.739C500.985 461.739 500.706 462.018 500.706 462.298H497.453V399.931H498.103C498.103 400.304 498.382 400.491 498.754 400.491C499.126 400.491 499.405 400.211 499.405 399.931H503.031C503.031 400.304 503.309 400.491 503.681 400.491C504.053 400.491 504.332 400.211 504.332 399.931H507.958C507.958 400.304 508.237 400.491 508.609 400.491C508.98 400.491 509.259 400.211 509.259 399.931H512.792C512.792 400.304 513.071 400.491 513.443 400.491C513.814 400.491 514.093 400.211 514.093 399.931H517.626C517.626 400.304 517.905 400.491 518.277 400.491C518.649 400.491 518.927 400.211 518.927 399.931H522.553C522.553 400.304 522.832 400.491 523.204 400.491C523.576 400.491 523.855 400.211 523.855 399.931H527.48C527.48 400.211 527.666 400.397 527.945 400.491V397.601H431.076V384.363H527.852V382.032H431.076V367.769H527.852V365.438H497.36V267.646H527.852V265.316H505.913L505.914 265.315C506.75 265.036 507.586 264.756 507.586 264.663C517.068 261.214 524.598 253.57 527.945 243.967V221.5C524.505 211.712 516.789 203.881 507.028 200.525H527.945V198.194H526.365C526.365 197.822 526.086 197.635 525.714 197.635C525.342 197.635 525.063 197.915 525.063 198.194H521.438C521.438 197.822 521.159 197.635 520.787 197.635C520.415 197.635 520.136 197.915 520.136 198.194H516.696C516.696 197.822 516.417 197.635 516.046 197.635C515.674 197.635 515.395 197.915 515.395 198.194H511.955C511.955 197.822 511.676 197.635 511.304 197.635C510.933 197.635 510.654 197.915 510.654 198.194H507.121C507.121 197.822 506.842 197.635 506.47 197.635C506.098 197.635 505.82 197.915 505.82 198.194H502.008C502.008 197.822 501.729 197.635 501.357 197.635C500.985 197.635 500.706 197.915 500.706 198.194H497.453V134.989H498.103C498.103 135.361 498.382 135.548 498.754 135.548C499.126 135.548 499.405 135.268 499.405 134.989H503.031C503.031 135.361 503.309 135.548 503.681 135.548C504.053 135.548 504.332 135.268 504.332 134.989H507.958C507.958 135.361 508.237 135.548 508.609 135.548C508.98 135.548 509.259 135.268 509.259 134.989H512.792C512.792 135.361 513.071 135.548 513.443 135.548C513.814 135.548 514.093 135.268 514.093 134.989H517.626C517.626 135.361 517.905 135.548 518.277 135.548C518.649 135.548 518.927 135.268 518.927 134.989H522.553C522.553 135.361 522.832 135.548 523.204 135.548C523.576 135.548 523.855 135.268 523.855 134.989H527.48C527.48 135.268 527.666 135.455 527.945 135.548V132.658H431.076V119.42H527.852V117.09H431.076V102.826H527.852V100.496H497.36V2.70368H527.852V0.466309H332.069H326.305V2.79691L266.343 33.3744V2.79691V0.466309ZM500.798 529.046C515.913 526.713 527.48 513.532 527.48 497.723C527.48 480.943 514.465 467.146 498.011 466.027L504.239 484.299L510.096 500.147C510.654 501.452 510.468 502.944 509.817 504.156C509.073 505.368 507.958 506.207 506.563 506.393L502.845 507.046L503.588 510.588C503.681 511.054 503.495 511.614 503.031 511.893L501.45 512.919L502.38 515.249C502.566 515.715 502.473 516.275 502.101 516.648L500.335 518.232L500.799 518.699C502.287 519.91 503.124 521.775 503.031 523.733C502.938 525.784 501.915 527.835 500.242 529.046H500.798ZM496.136 529.046C498.754 526.995 498.754 526.995 498.754 526.995C499.777 526.156 500.521 524.851 500.521 523.546C500.521 522.334 500.056 521.216 499.126 520.47L497.546 519.165C497.174 518.792 497.081 518.326 497.174 517.86C497.267 517.673 497.36 517.487 497.546 517.3L499.777 515.343L499.126 513.664L496.43 513.851H496.337C495.686 513.851 495.129 513.385 495.129 512.732C495.036 512.08 495.593 511.427 496.244 511.427L497.732 511.334C498.94 511.241 500.056 510.961 500.985 510.308L500.149 506.393C500.056 506.113 500.056 505.834 500.149 505.647C500.335 505.274 500.707 504.995 501.078 504.901L506.099 504.062C506.749 503.969 507.307 503.503 507.679 502.944C508.051 502.291 508.144 501.639 507.865 500.986L502.008 485.138L495.315 465.934C478.302 466.307 464.543 480.384 464.543 497.63C464.543 513.687 476.453 526.976 491.773 529.046H496.136ZM242.637 132.751C252.77 129.395 260.765 121.471 264.205 111.31V132.751H242.637ZM197.735 35.6118C196.527 52.2989 182.861 65.5367 166.22 65.5367C149.58 65.5367 135.914 52.2989 134.705 35.6118H197.735ZM134.148 44.6545C137.494 54.5362 145.21 62.4603 154.972 65.9096H134.148V44.6545ZM84.3188 2.70368H98.9142V65.9096H84.3188V2.70368ZM124.293 68.2402C111.093 71.9691 101.238 83.4357 99.8438 97.326C98.4493 83.3424 88.5951 71.9691 75.3942 68.2402H124.293ZM65.5399 132.751H2.41707V128.649H65.5399V132.751ZM65.5399 126.412H2.41707V122.124H65.5399V126.412ZM65.5399 119.793H2.41707V115.505H65.5399V119.793ZM65.5399 113.174H2.41707V108.886H65.5399V113.174ZM65.5399 106.462H2.41707V102.174H65.5399V106.462ZM65.5399 99.8431H2.41707V85.3002H65.5399V99.8431ZM65.5399 83.0628H2.41707V68.3334H65.5399V83.0628ZM67.864 2.70368H81.9946V65.9096H67.864V2.70368ZM68.5148 69.4521C84.7836 70.664 97.7056 84.1815 97.7056 100.775C97.7056 117.276 84.7836 130.887 68.5148 132.099V69.4521ZM76.6027 132.751C89.1529 128.743 98.5423 117.556 99.8438 104.038C101.145 117.556 110.535 128.743 123.085 132.751H76.6027ZM101.982 100.682C101.982 84.1815 114.904 70.5708 131.173 69.3588V131.912C114.904 130.793 101.982 117.276 101.982 100.682ZM131.824 7.08522C131.545 7.17844 131.266 7.45811 131.266 7.73778C131.266 8.01746 131.452 8.29713 131.824 8.39035V12.1193C131.545 12.2125 131.266 12.4922 131.266 12.7719C131.266 13.0515 131.452 13.3312 131.824 13.4244V17.1534C131.545 17.2466 131.266 17.5263 131.266 17.806C131.266 18.0856 131.452 18.3653 131.824 18.4585V22.1875C131.545 22.2807 131.266 22.5604 131.266 22.8401C131.266 23.1197 131.452 23.3994 131.824 23.4926V27.2216C131.545 27.3148 131.266 27.5945 131.266 27.8742C131.266 28.1538 131.452 28.4335 131.824 28.5267V32.2557C131.545 32.3489 131.266 32.6286 131.266 32.9083C131.266 33.1879 131.452 33.4676 131.824 33.5608V37.2898C131.545 37.383 131.266 37.6627 131.266 37.9424C131.266 38.222 131.452 38.5017 131.824 38.5949V42.3239C131.545 42.4171 131.266 42.6968 131.266 42.9765C131.266 43.2561 131.452 43.5358 131.824 43.629V47.358C131.545 47.4512 131.266 47.7309 131.266 48.0106C131.266 48.2902 131.452 48.5699 131.824 48.6631V52.3921C131.545 52.4853 131.266 52.765 131.266 53.0446C131.266 53.3243 131.452 53.604 131.824 53.6972V57.4262C131.545 57.5194 131.266 57.7991 131.266 58.0788C131.266 58.3584 131.452 58.6381 131.824 58.7313V62.4603C131.545 62.5535 131.266 62.8332 131.266 63.1128C131.266 63.3925 131.452 63.6722 131.824 63.7654V65.5367H130.15C130.15 65.1638 129.871 64.9773 129.499 64.9773C129.128 64.9773 128.849 65.257 128.849 65.5367H125.223C125.223 65.1638 124.944 64.9773 124.572 64.9773C124.2 64.9773 123.922 65.257 123.922 65.5367H120.482C120.482 65.1638 120.203 64.9773 119.831 64.9773C119.459 64.9773 119.18 65.257 119.18 65.5367H115.741C115.741 65.1638 115.462 64.9773 115.09 64.9773C114.718 64.9773 114.439 65.257 114.439 65.5367H110.907C110.907 65.1638 110.628 64.9773 110.256 64.9773C109.884 64.9773 109.605 65.257 109.605 65.5367H106.072C106.072 65.1638 105.794 64.9773 105.422 64.9773C105.05 64.9773 104.771 65.257 104.771 65.5367H101.331V2.33079H102.075C102.075 2.70368 102.354 2.89014 102.726 2.89014C103.098 2.89014 103.376 2.61046 103.376 2.33079H107.002C107.002 2.70368 107.281 2.89014 107.653 2.89014C108.025 2.89014 108.304 2.61046 108.304 2.33079H111.929C111.929 2.70368 112.208 2.89014 112.58 2.89014C112.952 2.89014 113.231 2.61046 113.231 2.33079H116.763C116.763 2.70368 117.042 2.89014 117.414 2.89014C117.786 2.89014 118.065 2.61046 118.065 2.33079H121.597C121.597 2.70368 121.876 2.89014 122.248 2.89014C122.62 2.89014 122.899 2.61046 122.899 2.33079H126.525C126.525 2.70368 126.803 2.89014 127.175 2.89014C127.547 2.89014 127.826 2.61046 127.826 2.33079H131.452C131.452 2.61046 131.731 2.89014 131.917 2.89014V7.08522H131.824ZM134.148 68.2402H164.733L134.148 129.115V68.2402ZM134.891 132.751L166.313 70.1979L197.735 132.751H134.891ZM198.2 128.37L167.987 68.2402H198.2V128.37ZM198.2 65.9096H177.469C187.137 62.4603 194.761 54.7227 198.2 44.8409V65.9096ZM2.41707 135.175H62.3791L2.41707 165.752V135.175ZM2.41707 235.922L58.1957 265.316H2.41707V235.922ZM23.0552 313.699L18.9647 307.639C17.1984 305.029 17.5703 301.58 19.7085 299.342L41.0903 277.808L42.2058 278.926C44.1581 280.884 44.1581 284.054 42.2058 286.011L28.726 299.622C27.2386 301.114 27.0526 303.444 28.2612 305.216L33.2812 312.301C35.1405 315.004 34.9546 318.547 32.9094 320.97L32.4446 321.437C31.9797 321.903 31.9797 322.742 32.4446 323.208C32.7235 323.488 33.0024 323.581 33.2812 323.581C33.5601 323.581 33.7461 323.487 34.025 323.301C34.0605 323.265 34.096 323.243 34.1263 323.225C34.1754 323.194 34.2109 323.172 34.2109 323.115C34.3039 323.021 34.4898 322.835 34.5828 322.648L49.0852 308.012C50.3867 306.707 51.1304 304.936 51.1304 302.978C51.1304 301.114 50.3867 299.342 49.0852 297.944L47.5978 296.453C48.8993 293.842 48.5274 290.579 46.3892 288.435L44.7159 286.757C46.7611 283.867 46.4822 279.765 43.8792 277.155L41.927 275.197C41.4621 274.731 40.6255 274.731 40.1606 275.197L17.8492 297.571C14.7813 300.648 14.4095 305.402 16.7336 308.945L20.824 315.004C21.9396 316.682 21.7537 319.013 20.3592 320.411L16.3617 324.42C13.2009 322.369 10.505 319.665 8.36679 316.682L6.97232 314.538C4.18339 309.877 2.60299 304.47 2.60299 298.69C2.60299 281.63 16.3617 267.833 33.1883 267.833C50.1078 267.833 63.7736 281.63 63.7736 298.69C63.7736 315.75 50.0149 329.547 33.1883 329.547H32.5375L29.6556 329.361C25.6582 328.894 21.9396 327.683 18.5929 325.818L22.2185 322.182C24.5426 320.038 24.8215 316.402 23.0552 313.699ZM35.2335 310.716L34.6757 309.97L46.1104 298.41L47.4118 299.715C48.2485 300.554 48.7134 301.766 48.7134 302.978C48.7134 304.19 48.2485 305.402 47.4118 306.241L36.9998 316.682C37.0928 314.631 36.535 312.58 35.2335 310.716ZM44.7159 296.453L33.2812 307.919L30.3064 303.724C29.7486 302.978 29.8416 301.953 30.4923 301.393L43.1355 288.622L44.7159 290.207C46.3893 291.885 46.3893 294.681 44.7159 296.453ZM2.41707 267.646H22.0326C13.015 271.002 5.76379 278.274 2.41707 287.41V267.646ZM2.41707 310.25C6.04268 320.225 14.3165 327.962 24.6356 330.852H2.41707V310.25ZM65.5399 397.694H2.41707V393.592H65.5399V397.694ZM65.5399 391.261H2.41707V386.973H65.5399V391.261ZM65.5399 384.642H2.41707V380.354H65.5399V384.642ZM65.5399 378.024H2.41707V373.735H65.5399V378.024ZM65.5399 371.405H2.41707V367.116H65.5399V371.405ZM65.5399 364.786H2.41707V350.243H65.5399V364.786ZM65.5399 347.912H2.41707V333.183H65.5399V347.912ZM65.5399 330.852H42.0199C53.9194 327.589 63.0299 317.801 65.5399 305.589V330.852ZM65.5399 292.071C63.2158 280.791 55.2209 271.562 44.6229 267.646H65.5399V292.071ZM65.5399 265.316H63.3088L3.62559 234.831L65.5399 203.229V265.316ZM65.5399 199.593L3.43967 167.897L65.5399 136.2V199.593ZM167.15 230.17C167.336 230.077 167.429 229.891 167.429 229.704C167.429 229.518 167.336 229.331 167.15 229.238V225.229C167.336 225.136 167.429 224.95 167.429 224.763C167.429 224.577 167.336 224.39 167.15 224.297V220.009C167.336 219.916 167.429 219.729 167.429 219.543C167.429 219.356 167.336 219.17 167.15 219.077V215.068C167.336 214.975 167.429 214.788 167.429 214.602C167.429 214.415 167.336 214.229 167.15 214.136V210.127C167.336 210.034 167.429 209.847 167.429 209.661C167.429 209.475 167.336 209.288 167.15 209.195V205.186C167.336 205.093 167.429 204.907 167.429 204.72C167.429 204.534 167.336 204.347 167.15 204.254V200.245C167.336 200.152 167.429 199.966 167.429 199.779C167.429 199.593 167.336 199.406 167.15 199.313V195.304C167.336 195.211 167.429 195.025 167.429 194.838C167.429 194.652 167.336 194.465 167.15 194.372V190.364C167.336 190.27 167.429 190.084 167.429 189.898C167.429 189.711 167.336 189.525 167.15 189.431V185.423C167.336 185.33 167.429 185.143 167.429 184.957C167.429 184.77 167.336 184.584 167.15 184.49V180.109V179.923V179.736V175.075V174.888V174.702V170.041V169.854V169.668V165.007V164.82V164.634V159.973V159.786V159.6V154.939V154.752V154.566V149.904V149.718V149.531V144.87V144.684V144.497V139.836V139.65V139.463V135.175H199.223H231.11V232.967H167.15V230.17ZM101.145 135.175H164.826V139.929H101.145V135.175ZM221.255 333.183C211.68 336.446 203.964 343.997 200.524 353.599V333.183H221.255ZM207.032 330.852V267.646H211.308V330.852H207.032ZM213.632 330.852V267.646H217.909V330.852H213.632ZM231.481 333.742L237.989 352.853L243.846 368.701C244.125 369.354 244.032 370.006 243.66 370.659C243.288 371.218 242.73 371.684 242.079 371.778L237.059 372.617C236.687 372.71 236.316 372.989 236.13 373.362C236.037 373.549 236.037 373.828 236.13 374.108L236.966 378.024C236.037 378.676 234.921 378.956 233.713 379.049L232.225 379.142C231.574 379.142 231.017 379.795 231.11 380.447C231.11 381.1 231.667 381.566 232.318 381.566H232.411L235.107 381.38L235.758 383.058L233.527 385.015C233.341 385.202 233.248 385.388 233.155 385.575C233.062 386.041 233.155 386.507 233.527 386.88L235.107 388.185C236.037 388.931 236.502 390.049 236.502 391.261C236.502 392.566 235.758 393.872 234.735 394.711L231.76 397.041C214.562 396.948 200.524 382.778 200.524 365.345C200.71 348.099 214.469 334.022 231.481 333.742ZM226.74 330.852V267.646H231.11V330.852H226.74ZM236.873 386.32L236.409 385.854L238.175 384.27C238.547 383.897 238.64 383.337 238.454 382.871L237.524 380.541L239.105 379.515C239.569 379.235 239.755 378.676 239.662 378.21L238.919 374.761L242.637 374.108C244.032 373.922 245.147 373.083 245.891 371.871C246.542 370.659 246.728 369.167 246.17 367.862L240.313 352.014L234.084 333.742C250.539 334.768 263.554 348.565 263.554 365.345C263.554 381.38 251.655 394.711 236.223 396.762L236.316 396.668C237.989 395.456 239.012 393.406 239.105 391.355C239.198 389.397 238.361 387.532 236.873 386.32ZM221.72 397.694H200.524V377.185C204.057 386.88 211.866 394.524 221.72 397.694ZM224.509 330.852H220.233V267.646H224.509V330.852ZM204.708 330.852H200.431V267.646H204.708V330.852ZM231.11 400.677V497.816H167.15V495.02C167.336 494.926 167.429 494.74 167.429 494.554C167.429 494.367 167.336 494.181 167.15 494.087V490.079C167.336 489.986 167.429 489.799 167.429 489.613C167.429 489.426 167.336 489.24 167.15 489.147V485.138C167.336 485.045 167.429 484.858 167.429 484.672C167.429 484.485 167.336 484.299 167.15 484.206V480.197C167.336 480.104 167.429 479.917 167.429 479.731C167.429 479.544 167.336 479.358 167.15 479.265V475.256C167.336 475.163 167.429 474.977 167.429 474.79C167.429 474.604 167.336 474.417 167.15 474.324V470.315C167.336 470.222 167.429 470.036 167.429 469.849C167.429 469.663 167.336 469.476 167.15 469.383V465.374C167.336 465.281 167.429 465.095 167.429 464.908C167.429 464.722 167.336 464.535 167.15 464.442V459.595C167.336 459.501 167.429 459.315 167.429 459.128C167.429 458.942 167.336 458.756 167.15 458.662V454.654C167.336 454.56 167.429 454.374 167.429 454.188C167.429 454.001 167.336 453.815 167.15 453.721V449.713C167.336 449.62 167.429 449.433 167.429 449.247C167.429 449.06 167.336 448.874 167.15 448.781V444.399V444.213V444.026V439.365V439.178V438.992V434.331V434.144V433.958V429.297V429.11V428.924V424.263V424.076V423.89V419.229V419.042V418.856V414.194V414.008V413.822V409.16V408.974V408.787V404.126V403.94V403.753V400.677H199.223H231.11ZM163.803 234.552C163.803 240.145 162.316 245.366 159.713 249.841L158.318 251.985C156.273 254.968 153.67 257.578 150.788 259.722L147.163 256.087C145.675 254.595 145.489 252.358 146.698 250.68L150.788 244.62C153.205 241.077 152.741 236.23 149.673 233.247L127.361 210.873C126.896 210.407 126.06 210.407 125.595 210.873L123.643 212.831C121.04 215.441 120.761 219.543 122.806 222.433L121.133 224.111C118.994 226.255 118.53 229.611 119.924 232.128L118.437 233.62C117.135 234.925 116.391 236.696 116.391 238.654C116.391 240.518 117.135 242.289 118.437 243.688L132.939 258.324C132.986 258.417 133.055 258.487 133.125 258.557C133.195 258.627 133.265 258.697 133.311 258.79C133.328 258.807 133.346 258.822 133.363 258.834C133.38 258.846 133.396 258.857 133.412 258.866L133.412 258.866C133.461 258.897 133.497 258.919 133.497 258.976C133.683 259.163 133.962 259.256 134.241 259.256C134.52 259.256 134.891 259.163 135.077 258.883C135.542 258.417 135.542 257.578 135.077 257.112L134.613 256.646C132.474 254.222 132.288 250.586 134.241 247.976L139.261 240.891C140.469 239.213 140.283 236.789 138.796 235.298L125.316 221.687C123.364 219.729 123.364 216.56 125.316 214.602L126.339 213.483L147.72 235.018C149.952 237.255 150.231 240.705 148.464 243.315L144.374 249.374C142.607 252.078 142.886 255.62 145.21 257.951L148.464 261.214C145.117 263.265 141.306 264.57 137.216 265.223L135.356 265.409H130.243C114.625 264.011 102.354 250.773 102.354 234.645C102.354 217.585 116.113 203.788 132.939 203.788C150.045 203.695 163.803 217.585 163.803 234.552ZM140.469 202.203H164.826V225.323C161.479 213.856 152.183 204.907 140.469 202.203ZM164.826 243.781V265.316H145.675C154.879 261.494 162.037 253.569 164.826 243.781ZM130.615 252.264L120.203 241.823C119.366 240.984 118.902 239.772 118.902 238.56C118.902 237.349 119.366 236.137 120.203 235.298L121.505 233.992L132.939 245.552L132.381 246.298C131.08 248.163 130.522 250.213 130.615 252.264ZM122.992 232.035C121.319 230.357 121.319 227.467 122.992 225.789L124.572 224.204L137.216 236.976C137.866 237.628 137.959 238.56 137.401 239.306L134.427 243.501L122.992 232.035ZM134.148 283.308H198.107V298.131H134.148V283.308ZM154.972 330.852H134.148V309.504C137.587 319.479 145.21 327.31 154.972 330.852ZM134.148 333.183H164.733L134.148 394.058V333.183ZM134.705 300.461H197.735C196.527 317.148 182.861 330.386 166.22 330.386C149.58 330.479 135.821 317.241 134.705 300.461ZM198.2 309.784V330.852H177.469C187.137 327.403 194.761 319.572 198.2 309.784ZM198.2 333.183V393.312L167.987 333.183H198.2ZM198.2 280.977H134.241V267.553H198.2V280.977ZM101.145 142.26H164.826V146.548H101.145V142.26ZM101.145 148.879H164.826V153.167H101.145V148.879ZM101.145 155.498H164.826V159.786H101.145V155.498ZM101.145 162.117H164.826V166.405H101.145V162.117ZM101.145 168.736H164.826V173.397H101.145V168.736ZM101.145 175.727H164.826V180.016H101.145V175.727ZM101.145 182.346H164.826V186.635H101.145V182.346ZM101.145 188.965H164.826V193.254H101.145V188.965ZM101.145 195.584H164.826V199.872H101.145V195.584ZM101.145 202.203H125.874C113.696 205 104.027 214.602 101.145 226.814V202.203ZM101.145 242.383C103.655 252.824 111 261.307 120.668 265.316H101.145V242.383ZM101.238 267.646H101.889C101.889 268.019 102.168 268.206 102.54 268.206C102.912 268.206 103.191 267.926 103.191 267.646H106.816C106.816 268.019 107.095 268.206 107.467 268.206C107.839 268.206 108.118 267.926 108.118 267.646H111.743C111.743 268.019 112.022 268.206 112.394 268.206C112.766 268.206 113.045 267.926 113.045 267.646H116.577C116.577 268.019 116.856 268.206 117.228 268.206C117.6 268.206 117.879 267.926 117.879 267.646H121.412C121.412 268.019 121.69 268.206 122.062 268.206C122.434 268.206 122.713 267.926 122.713 267.646H126.339C126.339 268.019 126.618 268.206 126.989 268.206C127.361 268.206 127.64 267.926 127.64 267.646H131.266C131.266 267.926 131.545 268.206 131.731 268.206V271.935C131.452 272.028 131.173 272.308 131.173 272.587C131.173 272.867 131.359 273.147 131.731 273.24V276.969C131.452 277.062 131.173 277.342 131.173 277.621C131.173 277.901 131.359 278.181 131.731 278.274V282.003C131.452 282.096 131.173 282.376 131.173 282.655C131.173 282.935 131.359 283.215 131.731 283.308V287.037C131.452 287.13 131.173 287.41 131.173 287.69C131.173 287.969 131.359 288.249 131.731 288.342V292.071C131.452 292.164 131.173 292.444 131.173 292.724C131.173 293.003 131.359 293.283 131.731 293.376V297.105C131.452 297.198 131.173 297.478 131.173 297.758C131.173 298.037 131.359 298.317 131.731 298.41V302.139C131.452 302.232 131.173 302.512 131.173 302.792C131.173 303.071 131.359 303.351 131.731 303.444V307.173C131.452 307.267 131.173 307.546 131.173 307.826C131.173 308.106 131.359 308.385 131.731 308.478V312.207C131.452 312.301 131.173 312.58 131.173 312.86C131.173 313.14 131.359 313.419 131.731 313.513V317.241C131.452 317.335 131.173 317.614 131.173 317.894C131.173 318.174 131.359 318.453 131.731 318.547V322.276C131.452 322.369 131.173 322.648 131.173 322.928C131.173 323.208 131.359 323.487 131.731 323.581V327.31C131.452 327.403 131.173 327.683 131.173 327.962C131.173 328.242 131.359 328.522 131.731 328.615V330.386H130.057C130.057 330.013 129.778 329.827 129.407 329.827C129.035 329.827 128.756 330.106 128.756 330.386H125.13C125.13 330.013 124.851 329.827 124.479 329.827C124.108 329.827 123.829 330.106 123.829 330.386H120.389C120.389 330.013 120.11 329.827 119.738 329.827C119.366 329.827 119.087 330.106 119.087 330.386H115.648C115.648 330.013 115.369 329.827 114.997 329.827C114.625 329.827 114.346 330.106 114.346 330.386H110.814C110.814 330.013 110.535 329.827 110.163 329.827C109.791 329.827 109.512 330.106 109.512 330.386H105.979C105.979 330.013 105.701 329.827 105.329 329.827C104.957 329.827 104.678 330.106 104.678 330.386H101.238V267.646ZM124.293 333.183C111.093 336.912 101.238 348.378 99.8438 362.269C98.4493 348.285 88.5951 336.912 75.3942 333.183H124.293ZM84.3188 330.852V267.646H98.9142V330.852H84.3188ZM131.266 334.301V396.855C114.997 395.643 102.075 382.125 102.075 365.531C101.982 349.124 114.904 335.513 131.266 334.301ZM71.1178 135.175C71.2108 135.455 71.4897 135.641 71.7686 135.641C72.0474 135.641 72.3263 135.455 72.4193 135.175H76.0449C76.1379 135.455 76.4168 135.641 76.6956 135.641C76.9745 135.641 77.2535 135.455 77.3464 135.175H80.972C81.065 135.455 81.3439 135.641 81.6228 135.641C81.9016 135.641 82.1806 135.455 82.2735 135.175H85.9921C86.0851 135.455 86.364 135.641 86.6429 135.641C86.9218 135.641 87.2006 135.455 87.2936 135.175H90.8263C90.9192 135.455 91.1981 135.641 91.477 135.641C91.7559 135.641 92.0348 135.455 92.1278 135.175H95.8463C95.9393 135.455 96.2182 135.641 96.4971 135.641C96.776 135.641 97.0549 135.455 97.1478 135.175H99.1001V136.853H99.0071C98.6353 136.853 98.3564 137.133 98.3564 137.506C98.3564 137.878 98.6353 138.158 99.0071 138.158H99.1001V141.887H99.0071C98.6353 141.887 98.3564 142.167 98.3564 142.54C98.3564 142.913 98.6353 143.192 99.0071 143.192H99.1001V146.921H99.0071C98.6353 146.921 98.3564 147.201 98.3564 147.574C98.3564 147.947 98.6353 148.226 99.0071 148.226H99.1001V151.955H99.0071C98.6353 151.955 98.3564 152.235 98.3564 152.608C98.3564 152.981 98.6353 153.26 99.0071 153.26H99.1001V156.989H99.0071C98.6353 156.989 98.3564 157.269 98.3564 157.642C98.3564 158.015 98.6353 158.295 99.0071 158.295H99.1001V162.023H99.0071C98.6353 162.023 98.3564 162.303 98.3564 162.676C98.3564 163.049 98.6353 163.329 99.0071 163.329H99.1001V167.058H99.0071C98.6353 167.058 98.3564 167.337 98.3564 167.71C98.3564 168.083 98.6353 168.363 99.0071 168.363H99.1001V172.092H99.0071C98.6353 172.092 98.3564 172.371 98.3564 172.744C98.3564 173.117 98.6353 173.397 99.0071 173.397H99.1001V177.126H99.0071C98.6353 177.126 98.3564 177.405 98.3564 177.778C98.3564 178.151 98.6353 178.431 99.0071 178.431H99.1001V182.16H99.0071C98.6353 182.16 98.3564 182.44 98.3564 182.812C98.3564 183.185 98.6353 183.465 99.0071 183.465H99.1001V187.194H99.0071C98.6353 187.194 98.3564 187.474 98.3564 187.847C98.3564 188.219 98.6353 188.499 99.0071 188.499H99.1001V192.228H99.0071C98.6353 192.228 98.3564 192.508 98.3564 192.881C98.3564 193.254 98.6353 193.533 99.0071 193.533H99.1001V197.262H99.0071C98.6353 197.262 98.3564 197.542 98.3564 197.915C98.3564 198.288 98.6353 198.567 99.0071 198.567H99.1001V202.296H99.0071C98.6353 202.296 98.3564 202.576 98.3564 202.949C98.3564 203.322 98.6353 203.601 99.0071 203.601H99.1001V207.33H99.0071C98.6353 207.33 98.3564 207.61 98.3564 207.983C98.3564 208.356 98.6353 208.636 99.0071 208.636H99.1001V212.364H99.0071C98.6353 212.364 98.3564 212.644 98.3564 213.017C98.3564 213.39 98.6353 213.67 99.0071 213.67H99.1001V217.399H99.0071C98.6353 217.399 98.3564 217.678 98.3564 218.051C98.3564 218.424 98.6353 218.704 99.0071 218.704H99.1001V222.433H99.0071C98.6353 222.433 98.3564 222.712 98.3564 223.085C98.3564 223.458 98.6353 223.738 99.0071 223.738H99.1001V227.467H99.0071C98.6353 227.467 98.3564 227.746 98.3564 228.119C98.3564 228.492 98.6353 228.772 99.0071 228.772H99.1001V232.501H99.0071C98.6353 232.501 98.3564 232.781 98.3564 233.153C98.3564 233.526 98.6353 233.806 99.0071 233.806H99.1001V237.535H99.0071C98.6353 237.535 98.3564 237.815 98.3564 238.188C98.3564 238.56 98.6353 238.84 99.0071 238.84H99.1001V242.569H99.0071C98.6353 242.569 98.3564 242.849 98.3564 243.222C98.3564 243.595 98.6353 243.874 99.0071 243.874H99.1001V247.603H99.0071C98.6353 247.603 98.3564 247.883 98.3564 248.256C98.3564 248.629 98.6353 248.908 99.0071 248.908H99.1001V252.637H99.0071C98.6353 252.637 98.3564 252.917 98.3564 253.29C98.3564 253.663 98.6353 253.942 99.0071 253.942H99.1001V257.671H99.0071C98.6353 257.671 98.3564 257.951 98.3564 258.324C98.3564 258.697 98.6353 258.976 99.0071 258.976H99.1001V262.705H99.0071C98.6353 262.705 98.3564 262.985 98.3564 263.358C98.3564 263.731 98.6353 264.011 99.0071 264.011H99.1001V264.477H67.864V134.243H71.1178V135.175ZM67.864 267.646H81.9946V330.852H67.864V267.646ZM68.5148 396.855V334.301C84.7836 335.513 97.7056 349.031 97.7056 365.625C97.7056 382.125 84.7836 395.736 68.5148 396.855ZM76.6027 397.694C89.1529 393.685 98.5423 382.498 99.8438 368.981C101.145 382.498 110.535 393.685 123.085 397.694H76.6027ZM164.826 464.722H101.145V460.434H164.826V464.722ZM164.826 458.103H101.145V453.815H164.826V458.103ZM164.826 451.484H101.145V447.196H164.826V451.484ZM164.826 444.865H101.145V440.577H164.826V444.865ZM164.826 438.246H101.145V433.585H164.826V438.246ZM164.826 431.254H101.145V426.966H164.826V431.254ZM164.826 424.636H101.145V420.347H164.826V424.636ZM164.826 418.017H101.145V413.728H164.826V418.017ZM164.826 411.398H101.145V407.109H164.826V411.398ZM164.826 404.779H101.145V400.024H164.826V404.779ZM134.891 397.694L166.313 335.141L197.735 397.694H134.891ZM264.112 514.41H167.15V500.147H264.112V514.41ZM264.112 497.816H233.527V400.024H264.112V497.816ZM264.112 397.694H242.544C252.677 394.338 260.672 386.414 264.112 376.252V397.694ZM264.112 354.438C260.765 344.463 252.956 336.539 243.009 333.09H264.112V354.438ZM264.112 271.935C263.833 272.028 263.554 272.214 263.554 272.587C263.554 272.96 263.833 273.24 264.112 273.24V276.969C263.833 277.062 263.554 277.248 263.554 277.621C263.554 277.994 263.833 278.274 264.112 278.274V282.003C263.833 282.096 263.554 282.282 263.554 282.655C263.554 283.028 263.833 283.308 264.112 283.308V287.037C263.833 287.13 263.554 287.317 263.554 287.69C263.554 288.062 263.833 288.342 264.112 288.342V292.071C263.833 292.164 263.554 292.351 263.554 292.724C263.554 293.096 263.833 293.376 264.112 293.376V297.105C263.833 297.198 263.554 297.385 263.554 297.758C263.554 298.131 263.833 298.41 264.112 298.41V302.139C263.833 302.232 263.554 302.419 263.554 302.792C263.554 303.165 263.833 303.444 264.112 303.444V307.173C263.833 307.267 263.554 307.453 263.554 307.826C263.554 308.199 263.833 308.478 264.112 308.478V312.207C263.833 312.301 263.554 312.487 263.554 312.86C263.554 313.233 263.833 313.513 264.112 313.513V317.241C263.833 317.335 263.554 317.521 263.554 317.894C263.554 318.267 263.833 318.547 264.112 318.547V322.276C263.833 322.369 263.554 322.555 263.554 322.928C263.554 323.301 263.833 323.581 264.112 323.581V327.31C263.833 327.403 263.554 327.589 263.554 327.962C263.554 328.335 263.833 328.615 264.112 328.615V330.386H262.439C262.439 330.013 262.16 329.827 261.788 329.827C261.416 329.827 261.137 330.106 261.137 330.386H257.512C257.512 330.013 257.233 329.827 256.861 329.827C256.489 329.827 256.21 330.106 256.21 330.386H252.77C252.77 330.013 252.491 329.827 252.12 329.827C251.748 329.827 251.469 330.106 251.469 330.386H248.029C248.029 330.013 247.75 329.827 247.378 329.827C247.007 329.827 246.728 330.106 246.728 330.386H243.195C243.195 330.013 242.916 329.827 242.544 329.827C242.172 329.827 241.893 330.106 241.893 330.386H238.361C238.361 330.013 238.082 329.827 237.71 329.827C237.338 329.827 237.059 330.106 237.059 330.386H233.806V267.18H234.456C234.456 267.553 234.735 267.74 235.107 267.74C235.479 267.74 235.758 267.46 235.758 267.18H239.383C239.383 267.553 239.662 267.74 240.034 267.74C240.406 267.74 240.685 267.46 240.685 267.18H244.311C244.311 267.553 244.589 267.74 244.961 267.74C245.333 267.74 245.612 267.46 245.612 267.18H249.145C249.145 267.553 249.424 267.74 249.795 267.74C250.167 267.74 250.446 267.46 250.446 267.18H253.979C253.979 267.553 254.258 267.74 254.63 267.74C255.001 267.74 255.28 267.46 255.28 267.18H258.906C258.906 267.553 259.185 267.74 259.557 267.74C259.929 267.74 260.208 267.46 260.208 267.18H263.833C263.833 267.46 264.112 267.74 264.391 267.74V271.935H264.112ZM264.112 265.316H167.15V251.891H264.112V265.316ZM264.112 249.561H167.15V235.298H264.112V249.561ZM264.112 232.874H233.527V135.082H264.112V232.874ZM226.74 2.70368H231.11V65.9096H226.74V2.70368ZM220.233 2.70368H224.509V65.9096H220.233V2.70368ZM221.255 68.2402C211.68 71.503 203.964 79.0542 200.524 88.6562V68.2402H221.255ZM213.632 2.70368H217.909V65.9096H213.632V2.70368ZM207.032 2.70368H211.308V65.9096H207.032V2.70368ZM204.708 2.70368V65.9096H200.431V2.70368H204.708ZM200.524 132.751V112.242C204.057 121.937 211.959 129.582 221.72 132.751H200.524ZM234.921 129.768L231.946 132.099C214.748 132.005 200.71 117.835 200.71 100.402C200.71 83.156 214.469 69.0792 231.481 68.7063L237.989 87.8172L243.846 103.665C244.125 104.318 244.032 104.97 243.66 105.623C243.288 106.182 242.73 106.648 242.079 106.742L237.059 107.581C236.687 107.674 236.316 107.954 236.13 108.326C236.037 108.513 236.037 108.793 236.13 109.072L236.966 112.988C236.037 113.64 234.921 113.92 233.713 114.013L232.225 114.106C231.574 114.106 231.017 114.759 231.11 115.411C231.11 116.064 231.667 116.53 232.318 116.53H232.411L235.107 116.344L235.758 118.022L233.527 119.979C233.341 120.166 233.248 120.352 233.155 120.539C233.062 121.005 233.155 121.471 233.527 121.844L235.107 123.149C236.037 123.895 236.502 125.014 236.502 126.225C236.687 127.717 236.037 129.022 234.921 129.768ZM236.223 131.819L236.316 131.726C237.989 130.514 239.012 128.463 239.105 126.412C239.198 124.454 238.361 122.59 236.873 121.378L236.409 120.912L238.175 119.327C238.547 118.954 238.64 118.395 238.454 117.929L237.524 115.598L239.105 114.572C239.569 114.293 239.755 113.733 239.662 113.267L238.919 109.725L242.637 109.072C244.032 108.886 245.147 108.047 245.891 106.835C246.542 105.623 246.728 104.131 246.17 102.826L240.313 86.9782L234.084 68.7063C250.539 69.7317 263.554 83.5289 263.554 100.309C263.554 116.53 251.562 129.861 236.223 131.819ZM264.112 89.5885C260.765 79.6135 252.956 71.6895 243.009 68.2402H264.112V89.5885ZM264.112 7.08522C263.833 7.17844 263.554 7.36489 263.554 7.73778C263.554 8.11068 263.833 8.39035 264.112 8.39035V12.1193C263.833 12.2125 263.554 12.399 263.554 12.7719C263.554 13.1448 263.833 13.4244 264.112 13.4244V17.1534C263.833 17.2466 263.554 17.4331 263.554 17.806C263.554 18.1789 263.833 18.4585 264.112 18.4585V22.1875C263.833 22.2807 263.554 22.4672 263.554 22.8401C263.554 23.213 263.833 23.4926 264.112 23.4926V27.2216C263.833 27.3148 263.554 27.5013 263.554 27.8742C263.554 28.2471 263.833 28.5267 264.112 28.5267V32.2557C263.833 32.3489 263.554 32.5354 263.554 32.9083C263.554 33.2812 263.833 33.5608 264.112 33.5608V37.2898C263.833 37.383 263.554 37.5695 263.554 37.9424C263.554 38.3153 263.833 38.5949 264.112 38.5949V42.3239C263.833 42.4171 263.554 42.6036 263.554 42.9765C263.554 43.3494 263.833 43.629 264.112 43.629V47.358C263.833 47.4512 263.554 47.6377 263.554 48.0106C263.554 48.3834 263.833 48.6631 264.112 48.6631V52.3921C263.833 52.4853 263.554 52.6717 263.554 53.0446C263.554 53.4175 263.833 53.6972 264.112 53.6972V57.4262C263.833 57.5194 263.554 57.7059 263.554 58.0788C263.554 58.4516 263.833 58.7313 264.112 58.7313V62.4603C263.833 62.5535 263.554 62.7399 263.554 63.1128C263.554 63.4857 263.833 63.7654 264.112 63.7654V65.5367H262.439C262.439 65.1638 262.16 64.9773 261.788 64.9773C261.416 64.9773 261.137 65.257 261.137 65.5367H257.512C257.512 65.1638 257.233 64.9773 256.861 64.9773C256.489 64.9773 256.21 65.257 256.21 65.5367H252.77C252.77 65.1638 252.491 64.9773 252.12 64.9773C251.748 64.9773 251.469 65.257 251.469 65.5367H248.029C248.029 65.1638 247.75 64.9773 247.378 64.9773C247.007 64.9773 246.728 65.257 246.728 65.5367H243.195C243.195 65.1638 242.916 64.9773 242.544 64.9773C242.172 64.9773 241.893 65.257 241.893 65.5367H238.361C238.361 65.1638 238.082 64.9773 237.71 64.9773C237.338 64.9773 237.059 65.257 237.059 65.5367H233.806V2.33079H234.456C234.456 2.70368 234.735 2.89014 235.107 2.89014C235.479 2.89014 235.758 2.61046 235.758 2.33079H239.383C239.383 2.70368 239.662 2.89014 240.034 2.89014C240.406 2.89014 240.685 2.61046 240.685 2.33079H244.311C244.311 2.70368 244.589 2.89014 244.961 2.89014C245.333 2.89014 245.612 2.61046 245.612 2.33079H249.145C249.145 2.70368 249.424 2.89014 249.795 2.89014C250.167 2.89014 250.446 2.61046 250.446 2.33079H253.979C253.979 2.70368 254.258 2.89014 254.63 2.89014C255.001 2.89014 255.28 2.61046 255.28 2.33079H258.906C258.906 2.70368 259.185 2.89014 259.557 2.89014C259.929 2.89014 260.208 2.61046 260.208 2.33079H263.833C263.833 2.61046 264.112 2.89014 264.391 2.89014V7.08522H264.112ZM365.164 2.79691H428.845V7.55134H365.164V2.79691ZM365.164 9.88194H428.845V14.1702H365.164V9.88194ZM365.164 16.5008H428.845V20.7891H365.164V16.5008ZM365.164 23.1197H428.845V27.408H365.164V23.1197ZM365.164 29.7386H428.845V34.027H365.164V29.7386ZM365.164 36.3576H428.845V41.0187H365.164V36.3576ZM365.164 43.3493H428.845V47.6377H365.164V43.3493ZM365.164 49.9683H428.845V54.2566H365.164V49.9683ZM365.164 56.5872H428.845V60.8755H365.164V56.5872ZM365.164 63.2061H428.845V67.4944H365.164V63.2061ZM392.682 397.694C377.9 395.456 366.559 382.685 366.559 367.21C366.559 350.15 380.318 336.352 397.144 336.352C414.064 336.352 427.729 350.15 427.729 367.21C427.729 372.803 426.242 378.024 423.639 382.498L422.245 384.642C420.199 387.626 417.596 390.236 414.714 392.38L411.089 388.744C409.601 387.253 409.415 385.015 410.624 383.337L414.714 377.278C417.131 373.735 416.667 368.888 413.599 365.904L391.287 343.531C390.823 343.065 389.986 343.065 389.521 343.531L387.569 345.488C384.966 348.099 384.687 352.201 386.732 355.09L385.059 356.768C382.921 358.913 382.456 362.269 383.85 364.786L382.363 366.277C381.061 367.582 380.318 369.354 380.318 371.311C380.318 373.176 381.061 374.947 382.363 376.346L396.865 390.982C396.912 391.075 396.981 391.145 397.051 391.215C397.121 391.285 397.191 391.355 397.237 391.448C397.251 391.462 397.265 391.474 397.278 391.484C397.299 391.5 397.32 391.513 397.338 391.524C397.387 391.555 397.423 391.577 397.423 391.634C397.609 391.821 397.888 391.914 398.167 391.914C398.446 391.914 398.817 391.821 399.003 391.541C399.468 391.075 399.468 390.236 399.003 389.77L398.539 389.304C396.4 386.88 396.214 383.244 398.167 380.634L403.187 373.549C404.395 371.871 404.209 369.447 402.722 367.955L389.242 354.345C387.29 352.387 387.29 349.217 389.242 347.26L390.358 346.141L411.74 367.676C413.971 369.913 414.25 373.362 412.483 375.973L408.393 382.032C406.626 384.736 406.905 388.278 409.229 390.609L412.483 393.872C409.137 395.829 405.418 397.228 401.42 397.787H392.682V397.694ZM398.167 441.882C401.513 451.764 409.23 459.688 418.991 463.137H398.167V441.882ZM388.312 200.618C375.112 204.347 365.257 215.814 363.863 229.704C362.468 215.721 352.614 204.347 339.413 200.618H388.312ZM348.245 135.082H362.84V198.288H348.245V135.082ZM395.192 201.737V264.29C378.923 263.078 366.001 249.561 366.001 232.967C366.001 216.56 378.83 202.949 395.192 201.737ZM361.632 233.06C361.632 249.561 348.71 263.172 332.441 264.383V201.83C348.71 202.949 361.632 216.56 361.632 233.06ZM363.77 236.416C365.071 249.934 374.461 261.121 387.011 265.129H340.436C353.079 261.121 362.468 249.934 363.77 236.416ZM365.164 334.768H389.893C377.715 337.564 368.046 347.166 365.164 359.379V334.768ZM365.164 374.947C367.581 385.202 374.74 393.592 384.222 397.694H365.164V374.947ZM394.634 384.829L384.222 374.388C383.385 373.549 382.921 372.337 382.921 371.125C382.921 369.913 383.385 368.701 384.222 367.862L385.524 366.557L396.958 378.117L396.4 378.863C395.099 380.634 394.541 382.778 394.634 384.829ZM386.918 364.506C385.245 362.828 385.245 359.938 386.918 358.26L388.498 356.675L401.142 369.447C401.792 370.099 401.885 371.032 401.328 371.778L398.353 375.973L386.918 364.506ZM428.752 376.346V397.601H410.066C419.084 393.778 426.056 385.948 428.752 376.346ZM404.395 334.768H428.752V357.887C425.498 346.327 416.109 337.378 404.395 334.768ZM365.164 332.437V328.149H428.845V332.437H365.164ZM365.164 325.818V321.53H428.845V325.818H365.164ZM365.164 319.199V314.911H428.845V319.199H365.164ZM365.164 312.487V308.199H428.845V312.487H365.164ZM365.164 305.868V301.207H428.845V305.868H365.164ZM365.164 298.97V294.681H428.845V298.97H365.164ZM365.164 292.351V288.062H428.845V292.351H365.164ZM365.164 285.732V281.443H428.845V285.732H365.164ZM365.164 279.02V274.731H428.845V279.02H365.164ZM365.164 272.401V267.646H428.845V272.401H365.164ZM428.659 200.618L398.074 261.494V200.618H428.659ZM398.167 198.288V177.033C401.513 186.914 409.23 194.838 418.991 198.288H398.167ZM398.632 167.897H461.661C460.453 184.584 446.787 197.822 430.147 197.822C413.506 197.915 399.84 184.677 398.632 167.897ZM441.395 198.288C451.063 194.838 458.687 187.101 462.126 177.219V198.288H441.395ZM462.126 200.618V260.748L431.913 200.618H462.126ZM398.167 165.566V150.743H462.126V165.566H398.167ZM392.682 132.751C377.9 130.514 366.559 117.742 366.559 102.267C366.559 85.2069 380.318 71.4098 397.144 71.4098C414.064 71.4098 427.729 85.2069 427.729 102.267C427.729 107.86 426.242 113.081 423.639 117.556L422.245 119.7C420.199 122.683 417.596 125.293 414.714 127.437L411.089 123.802C409.601 122.31 409.415 120.073 410.624 118.395L414.714 112.335C417.131 108.793 416.667 103.945 413.599 100.962L391.287 78.588C390.823 78.1219 389.986 78.1219 389.521 78.588L387.569 80.5457C384.966 83.156 384.687 87.2579 386.732 90.1478L385.059 91.8258C382.921 93.97 382.456 97.3261 383.85 99.8431L382.363 101.335C381.061 102.64 380.318 104.411 380.318 106.369C380.318 108.233 381.061 110.005 382.363 111.403L396.958 125.853C397.005 125.946 397.074 126.016 397.144 126.086C397.214 126.156 397.284 126.225 397.33 126.319C397.366 126.354 397.401 126.376 397.431 126.395C397.48 126.426 397.516 126.448 397.516 126.505C397.702 126.692 397.981 126.785 398.26 126.785C398.539 126.785 398.91 126.692 399.096 126.412C399.561 125.946 399.561 125.107 399.096 124.641L398.632 124.175C396.493 121.751 396.307 118.115 398.26 115.505L403.28 108.42C404.488 106.742 404.302 104.318 402.815 102.826L389.335 89.2156C387.383 87.2579 387.383 84.0882 389.335 82.1305L390.451 81.0118L411.832 102.547C414.064 104.784 414.343 108.233 412.576 110.844L408.486 116.903C406.719 119.607 406.998 123.149 409.322 125.48L412.576 128.743C409.229 130.7 405.511 132.099 401.513 132.658H392.682V132.751ZM394.634 119.886L384.222 109.445C383.385 108.606 382.921 107.394 382.921 106.182C382.921 104.97 383.385 103.758 384.222 102.919L385.524 101.614L396.958 113.174L396.4 113.92C395.099 115.784 394.541 117.835 394.634 119.886ZM386.918 99.6566C385.245 97.9786 385.245 95.0887 386.918 93.4107L388.498 91.8258L401.142 104.598C401.792 105.25 401.885 106.182 401.328 106.928L398.353 111.123L386.918 99.6566ZM428.752 111.496V132.751H410.066C419.084 128.929 426.056 121.098 428.752 111.496ZM404.395 69.825H428.752V92.9445C425.498 81.478 416.109 72.5285 404.395 69.825ZM365.164 69.825H389.893C377.715 72.6217 368.046 82.2237 365.164 94.4361V69.825ZM365.164 110.005C367.581 120.259 374.74 128.649 384.222 132.751H365.164V110.005ZM365.35 135.082H365.908C365.908 135.455 366.187 135.641 366.559 135.641C366.931 135.641 367.21 135.361 367.21 135.082H370.835C370.835 135.455 371.114 135.641 371.486 135.641C371.858 135.641 372.137 135.361 372.137 135.082H375.762C375.762 135.455 376.041 135.641 376.413 135.641C376.785 135.641 377.064 135.361 377.064 135.082H380.596C380.596 135.455 380.875 135.641 381.247 135.641C381.619 135.641 381.898 135.361 381.898 135.082H385.431C385.431 135.455 385.71 135.641 386.081 135.641C386.453 135.641 386.732 135.361 386.732 135.082H390.358C390.358 135.455 390.637 135.641 391.008 135.641C391.38 135.641 391.659 135.361 391.659 135.082H395.285C395.285 135.361 395.564 135.641 395.75 135.641V139.37C395.471 139.463 395.192 139.743 395.192 140.023C395.192 140.302 395.378 140.582 395.75 140.675V144.404C395.471 144.497 395.192 144.777 395.192 145.057C395.192 145.336 395.378 145.616 395.75 145.709V149.438C395.471 149.531 395.192 149.811 395.192 150.091C395.192 150.371 395.378 150.65 395.75 150.743V154.472C395.471 154.566 395.192 154.845 395.192 155.125C395.192 155.405 395.378 155.684 395.75 155.778V159.506C395.471 159.6 395.192 159.879 395.192 160.159C395.192 160.439 395.378 160.718 395.75 160.812V164.541C395.471 164.634 395.192 164.913 395.192 165.193C395.192 165.473 395.378 165.752 395.75 165.846V169.575C395.471 169.668 395.192 169.948 395.192 170.227C395.192 170.507 395.378 170.787 395.75 170.88V174.609C395.471 174.702 395.192 174.982 395.192 175.261C395.192 175.541 395.378 175.821 395.75 175.914V179.643C395.471 179.736 395.192 180.016 395.192 180.295C395.192 180.575 395.378 180.855 395.75 180.948V184.677C395.471 184.77 395.192 185.05 395.192 185.329C395.192 185.609 395.378 185.889 395.75 185.982V189.711C395.471 189.804 395.192 190.084 395.192 190.364C395.192 190.643 395.378 190.923 395.75 191.016V194.745C395.471 194.838 395.192 195.118 395.192 195.398C395.192 195.677 395.378 195.957 395.75 196.05V197.822H394.169C394.169 197.449 393.89 197.262 393.518 197.262C393.147 197.262 392.868 197.542 392.868 197.822H389.242C389.242 197.449 388.963 197.262 388.591 197.262C388.22 197.262 387.941 197.542 387.941 197.822H384.501C384.501 197.449 384.222 197.262 383.85 197.262C383.478 197.262 383.199 197.542 383.199 197.822H379.76C379.76 197.449 379.481 197.262 379.109 197.262C378.737 197.262 378.458 197.542 378.458 197.822H374.926C374.926 197.449 374.647 197.262 374.275 197.262C373.903 197.262 373.624 197.542 373.624 197.822H370.091C370.091 197.449 369.813 197.262 369.441 197.262C369.069 197.262 368.79 197.542 368.79 197.822H365.35V135.082ZM335.137 2.79691C335.23 3.07658 335.509 3.26303 335.788 3.26303C336.066 3.26303 336.345 3.07658 336.438 2.79691H340.064C340.157 3.07658 340.436 3.26303 340.715 3.26303C340.994 3.26303 341.272 3.07658 341.365 2.79691H344.991C345.084 3.07658 345.363 3.26303 345.642 3.26303C345.921 3.26303 346.2 3.07658 346.293 2.79691H350.011C350.104 3.07658 350.383 3.26303 350.662 3.26303C350.941 3.26303 351.22 3.07658 351.313 2.79691H354.845C354.938 3.07658 355.217 3.26303 355.496 3.26303C355.775 3.26303 356.054 3.07658 356.147 2.79691H359.865C359.958 3.07658 360.237 3.26303 360.516 3.26303C360.795 3.26303 361.074 3.07658 361.167 2.79691H363.119V4.47494H363.026C362.654 4.47494 362.375 4.75461 362.375 5.12751C362.375 5.50041 362.654 5.78007 363.026 5.78007H363.119V9.50903H363.026C362.654 9.50903 362.375 9.7887 362.375 10.1616C362.375 10.5345 362.654 10.8142 363.026 10.8142H363.119V14.5431H363.026C362.654 14.5431 362.375 14.8228 362.375 15.1957C362.375 15.5686 362.654 15.8483 363.026 15.8483H363.119V19.5772H363.026C362.654 19.5772 362.375 19.8569 362.375 20.2298C362.375 20.6027 362.654 20.8824 363.026 20.8824H363.119V24.6113H363.026C362.654 24.6113 362.375 24.891 362.375 25.2639C362.375 25.6368 362.654 25.9165 363.026 25.9165H363.119V29.6454H363.026C362.654 29.6454 362.375 29.9251 362.375 30.298C362.375 30.6709 362.654 30.9506 363.026 30.9506H363.119V34.6795H363.026C362.654 34.6795 362.375 34.9592 362.375 35.3321C362.375 35.705 362.654 35.9847 363.026 35.9847H363.119V39.7136H363.026C362.654 39.7136 362.375 39.9933 362.375 40.3662C362.375 40.7391 362.654 41.0187 363.026 41.0187H363.119V44.7477H363.026C362.654 44.7477 362.375 45.0274 362.375 45.4003C362.375 45.7732 362.654 46.0528 363.026 46.0528H363.119V49.7818H363.026C362.654 49.7818 362.375 50.0615 362.375 50.4344C362.375 50.8073 362.654 51.0869 363.026 51.0869H363.119V54.8159H363.026C362.654 54.8159 362.375 55.0956 362.375 55.4685C362.375 55.8414 362.654 56.121 363.026 56.121H363.119V59.85H363.026C362.654 59.85 362.375 60.1297 362.375 60.5026C362.375 60.8755 362.654 61.1551 363.026 61.1551H363.119V64.8841H363.026C362.654 64.8841 362.375 65.1638 362.375 65.5367C362.375 65.9096 362.654 66.1892 363.026 66.1892H363.119V69.9182H363.026C362.654 69.9182 362.375 70.1979 362.375 70.5708C362.375 70.9437 362.654 71.2233 363.026 71.2233H363.119V74.9523H363.026C362.654 74.9523 362.375 75.232 362.375 75.6049C362.375 75.9778 362.654 76.2574 363.026 76.2574H363.119V79.9864H363.026C362.654 79.9864 362.375 80.2661 362.375 80.639C362.375 81.0119 362.654 81.2915 363.026 81.2915H363.119V85.0205H363.026C362.654 85.0205 362.375 85.3001 362.375 85.673C362.375 86.0459 362.654 86.3256 363.026 86.3256H363.119V90.0546H363.026C362.654 90.0546 362.375 90.3342 362.375 90.7071C362.375 91.08 362.654 91.3597 363.026 91.3597H363.119V95.0887H363.026C362.654 95.0887 362.375 95.3684 362.375 95.7413C362.375 96.1142 362.654 96.3938 363.026 96.3938H363.119V100.123H363.026C362.654 100.123 362.375 100.402 362.375 100.775C362.375 101.148 362.654 101.428 363.026 101.428H363.119V105.157H363.026C362.654 105.157 362.375 105.437 362.375 105.809C362.375 106.182 362.654 106.462 363.026 106.462H363.119V110.191H363.026C362.654 110.191 362.375 110.471 362.375 110.844C362.375 111.216 362.654 111.496 363.026 111.496H363.119V115.225H363.026C362.654 115.225 362.375 115.505 362.375 115.878C362.375 116.251 362.654 116.53 363.026 116.53H363.119V120.259H363.026C362.654 120.259 362.375 120.539 362.375 120.912C362.375 121.285 362.654 121.564 363.026 121.564H363.119V125.293H363.026C362.654 125.293 362.375 125.573 362.375 125.946C362.375 126.319 362.654 126.598 363.026 126.598H363.119V130.327H363.026C362.654 130.327 362.375 130.607 362.375 130.98C362.375 131.353 362.654 131.632 363.026 131.632H363.119V131.912H332.069V1.9579H335.137V2.79691ZM331.79 135.082H345.921V198.288H331.79V135.082ZM335.137 267.646C335.23 267.926 335.509 268.112 335.788 268.112C336.066 268.112 336.345 267.926 336.438 267.646H340.064C340.157 267.926 340.436 268.112 340.715 268.112C340.994 268.112 341.272 267.926 341.365 267.646H344.991C345.084 267.926 345.363 268.112 345.642 268.112C345.921 268.112 346.2 267.926 346.293 267.646H350.011C350.104 267.926 350.383 268.112 350.662 268.112C350.941 268.112 351.22 267.926 351.313 267.646H354.845C354.938 267.926 355.217 268.112 355.496 268.112C355.775 268.112 356.054 267.926 356.147 267.646H359.865C359.958 267.926 360.237 268.112 360.516 268.112C360.795 268.112 361.074 267.926 361.167 267.646H363.119V269.324H363.026C362.654 269.324 362.375 269.604 362.375 269.977C362.375 270.35 362.654 270.629 363.026 270.629H363.119V274.358H363.026C362.654 274.358 362.375 274.638 362.375 275.011C362.375 275.384 362.654 275.664 363.026 275.664H363.119V279.393H363.026C362.654 279.393 362.375 279.672 362.375 280.045C362.375 280.418 362.654 280.698 363.026 280.698H363.119V284.427H363.026C362.654 284.427 362.375 284.706 362.375 285.079C362.375 285.452 362.654 285.732 363.026 285.732H363.119V289.461H363.026C362.654 289.461 362.375 289.74 362.375 290.113C362.375 290.486 362.654 290.766 363.026 290.766H363.119V294.495H363.026C362.654 294.495 362.375 294.775 362.375 295.147C362.375 295.52 362.654 295.8 363.026 295.8H363.119V299.529H363.026C362.654 299.529 362.375 299.809 362.375 300.181C362.375 300.554 362.654 300.834 363.026 300.834H363.119V304.563H363.026C362.654 304.563 362.375 304.843 362.375 305.216C362.375 305.588 362.654 305.868 363.026 305.868H363.119V309.597H363.026C362.654 309.597 362.375 309.877 362.375 310.25C362.375 310.623 362.654 310.902 363.026 310.902H363.119V314.631H363.026C362.654 314.631 362.375 314.911 362.375 315.284C362.375 315.657 362.654 315.936 363.026 315.936H363.119V319.665H363.026C362.654 319.665 362.375 319.945 362.375 320.318C362.375 320.691 362.654 320.97 363.026 320.97H363.119V324.699H363.026C362.654 324.699 362.375 324.979 362.375 325.352C362.375 325.725 362.654 326.005 363.026 326.005H363.119V329.733H363.026C362.654 329.733 362.375 330.013 362.375 330.386C362.375 330.759 362.654 331.039 363.026 331.039H363.119V334.768H363.026C362.654 334.768 362.375 335.047 362.375 335.42C362.375 335.793 362.654 336.073 363.026 336.073H363.119V339.802H363.026C362.654 339.802 362.375 340.081 362.375 340.454C362.375 340.827 362.654 341.107 363.026 341.107H363.119V344.836H363.026C362.654 344.836 362.375 345.115 362.375 345.488C362.375 345.861 362.654 346.141 363.026 346.141H363.119V349.87H363.026C362.654 349.87 362.375 350.15 362.375 350.522C362.375 350.895 362.654 351.175 363.026 351.175H363.119V354.904H363.026C362.654 354.904 362.375 355.184 362.375 355.557C362.375 355.929 362.654 356.209 363.026 356.209H363.119V359.938H363.026C362.654 359.938 362.375 360.218 362.375 360.591C362.375 360.964 362.654 361.243 363.026 361.243H363.119V364.972H363.026C362.654 364.972 362.375 365.252 362.375 365.625C362.375 365.998 362.654 366.277 363.026 366.277H363.119V370.006H363.026C362.654 370.006 362.375 370.286 362.375 370.659C362.375 371.032 362.654 371.311 363.026 371.311H363.119V375.04H363.026C362.654 375.04 362.375 375.32 362.375 375.693C362.375 376.066 362.654 376.346 363.026 376.346H363.119V380.074H363.026C362.654 380.074 362.375 380.354 362.375 380.727C362.375 381.1 362.654 381.38 363.026 381.38H363.119V385.109H363.026C362.654 385.109 362.375 385.388 362.375 385.761C362.375 386.134 362.654 386.414 363.026 386.414H363.119V390.143H363.026C362.654 390.143 362.375 390.422 362.375 390.795C362.375 391.168 362.654 391.448 363.026 391.448H363.119V395.177H363.026C362.654 395.177 362.375 395.456 362.375 395.829C362.375 396.202 362.654 396.482 363.026 396.482H363.119V396.762H332.069V266.807H335.137V267.646ZM362.84 399.931V463.137H348.245V399.931H362.84ZM266.343 37.5695L327.886 68.986L266.343 100.402V37.5695ZM266.343 104.504L321.75 132.751H266.343V104.504ZM286.981 181.134L282.891 175.075C281.124 172.465 281.496 169.015 283.635 166.778L305.016 145.243L306.039 146.362C307.991 148.32 307.991 151.489 306.039 153.447L292.559 167.058C291.072 168.549 290.886 170.88 292.094 172.651L297.114 179.736C298.974 182.44 298.788 185.982 296.742 188.406L296.278 188.872C295.813 189.338 295.813 190.177 296.278 190.643C296.557 190.923 296.835 191.016 297.114 191.016C297.393 191.016 297.579 190.923 297.858 190.737C297.894 190.701 297.929 190.679 297.959 190.66C298.008 190.63 298.044 190.608 298.044 190.55C298.137 190.457 298.323 190.27 298.416 190.084L312.918 175.448C314.22 174.143 314.964 172.371 314.964 170.414C314.964 168.549 314.22 166.778 312.918 165.38L311.431 163.888C312.732 161.278 312.361 158.015 310.222 155.871L308.549 154.193C310.594 151.303 310.315 147.201 307.712 144.591L305.76 142.633C305.295 142.167 304.459 142.167 303.994 142.633L281.682 165.007C278.614 168.083 278.243 172.838 280.567 176.38L284.657 182.44C285.773 184.118 285.587 186.448 284.192 187.847L280.195 191.855C277.034 189.804 274.338 187.101 272.2 184.118L270.805 181.973C268.016 177.312 266.436 171.905 266.436 166.125C266.436 149.065 280.195 135.268 297.021 135.268C313.941 135.268 327.607 149.065 327.607 166.125C327.607 183.185 313.848 196.983 297.021 196.983H296.371L293.489 196.796C289.491 196.33 285.773 195.118 282.426 193.254L286.052 189.618C288.469 187.474 288.841 183.838 286.981 181.134ZM299.253 178.244L298.695 177.499L310.129 165.939L311.431 167.244C312.268 168.083 312.732 169.295 312.732 170.507C312.732 171.719 312.268 172.931 311.431 173.77L301.019 184.211C301.112 182.067 300.461 180.016 299.253 178.244ZM308.642 163.888L297.207 175.355L294.232 171.159C293.675 170.414 293.768 169.388 294.418 168.829L307.062 156.057L308.642 157.642C310.408 159.32 310.408 162.117 308.642 163.888ZM266.343 135.082H285.959C276.941 138.438 269.69 145.709 266.343 154.845V135.082ZM266.343 177.685C269.969 187.66 278.243 195.398 288.562 198.288H266.343V177.685ZM266.343 267.646H326.305L266.343 298.317V267.646ZM266.343 302.512L327.886 333.929L266.343 365.438V302.512ZM266.343 369.354L321.75 397.601H266.343V369.354ZM266.343 399.931H285.959C276.941 403.287 269.69 410.559 266.343 419.695V399.931ZM266.343 463.137V442.535C269.969 452.51 278.243 460.247 288.562 463.137H266.343ZM296.557 462.018L293.675 461.832C289.677 461.366 285.959 460.154 282.612 458.289L286.238 454.654C288.562 452.323 288.841 448.781 287.074 446.077L282.984 440.017C281.217 437.407 281.589 433.958 283.728 431.721L305.109 410.186L306.132 411.305C308.084 413.262 308.084 416.432 306.132 418.39L292.652 432C291.165 433.492 290.979 435.822 292.187 437.594L297.207 444.679C299.067 447.382 298.881 450.925 296.835 453.349L296.371 453.815C295.906 454.281 295.906 455.12 296.371 455.586C296.65 455.866 296.928 455.959 297.207 455.959C297.486 455.959 297.672 455.866 297.951 455.679C297.987 455.644 298.022 455.622 298.052 455.603C298.083 455.584 298.109 455.568 298.123 455.544C298.132 455.531 298.137 455.514 298.137 455.493C298.23 455.399 298.416 455.213 298.509 455.027L313.011 440.39C314.313 439.085 315.057 437.314 315.057 435.356C315.057 433.492 314.313 431.721 313.011 430.322L311.524 428.831C312.825 426.22 312.453 422.958 310.315 420.813L308.642 419.135C310.687 416.245 310.408 412.144 307.805 409.533L305.853 407.576C305.388 407.109 304.552 407.109 304.087 407.576L281.775 429.949C278.707 433.026 278.336 437.78 280.66 441.323L284.75 447.382C285.866 449.06 285.68 451.391 284.285 452.789L280.288 456.798C277.127 454.747 274.431 452.043 272.293 449.06L270.898 446.916C268.109 442.255 266.529 436.848 266.529 431.068C266.529 414.008 280.288 400.211 297.114 400.211C314.034 400.211 327.7 414.008 327.7 431.068C327.7 448.128 313.941 461.925 297.114 461.925C297.021 462.018 296.743 462.018 296.557 462.018ZM299.253 443.094L298.695 442.348L310.129 430.788L311.431 432.093C312.268 432.932 312.732 434.144 312.732 435.356C312.732 436.568 312.268 437.78 311.431 438.619L301.019 449.06C301.112 447.009 300.461 444.865 299.253 443.094ZM308.642 428.737L297.207 440.204L294.232 436.009C293.675 435.263 293.768 434.238 294.418 433.678L307.062 420.907L308.642 422.491C310.408 424.263 310.408 427.059 308.642 428.737ZM329.466 463.137H305.946C317.845 459.874 326.956 450.086 329.466 437.873V463.137ZM329.466 424.356C327.142 413.076 319.147 403.847 308.549 399.931H329.466V424.356ZM329.466 397.694H326.863L267.645 367.396L329.559 335.793V397.694H329.466ZM329.466 332.157L267.366 300.461L329.466 268.765V332.157ZM329.466 265.316H304.923H266.343V261.027H329.466V265.316ZM329.466 258.697H266.343V254.409H329.466V258.697ZM329.466 252.078H266.343V247.79H329.466V252.078ZM329.466 245.459H266.343V241.171H329.466V245.459ZM329.466 238.84H266.343V234.552H329.466V238.84ZM329.466 232.221H266.343V217.678H329.466V232.221ZM329.466 215.348H266.343V200.618H329.466V215.348ZM329.466 198.288H305.946C317.845 195.025 326.956 185.236 329.466 173.024V198.288ZM329.466 159.506C327.142 148.226 319.147 138.997 308.549 135.082H329.466V159.506ZM329.466 132.751H326.863L267.645 102.453L329.559 70.8504V132.751H329.466ZM329.466 67.2147L267.366 35.5185L329.466 3.82238V67.2147ZM331.79 399.931H345.921V463.137H331.79V399.931ZM331.79 526.958L332.441 466.68C348.71 467.891 361.632 481.409 361.632 498.003C361.632 514.503 348.059 525.747 331.79 526.958ZM388.22 465.468C375.019 469.197 365.164 480.663 363.77 494.554C362.468 480.663 352.521 469.197 339.32 465.468H388.22ZM395.843 404.313C395.564 404.406 395.285 404.686 395.285 404.965C395.285 405.245 395.471 405.525 395.843 405.618V409.347C395.564 409.44 395.285 409.72 395.285 409.999C395.285 410.279 395.471 410.559 395.843 410.652V414.381C395.564 414.474 395.285 414.754 395.285 415.033C395.285 415.313 395.471 415.593 395.843 415.686V419.415C395.564 419.508 395.285 419.788 395.285 420.068C395.285 420.347 395.471 420.627 395.843 420.72V424.449C395.564 424.542 395.285 424.822 395.285 425.102C395.285 425.381 395.471 425.661 395.843 425.754V429.483C395.564 429.576 395.285 429.856 395.285 430.136C395.285 430.415 395.471 430.695 395.843 430.788V434.517C395.564 434.611 395.285 434.89 395.285 435.17C395.285 435.45 395.471 435.729 395.843 435.822V439.551C395.564 439.645 395.285 439.924 395.285 440.204C395.285 440.484 395.471 440.763 395.843 440.857V444.586C395.564 444.679 395.285 444.958 395.285 445.238C395.285 445.518 395.471 445.797 395.843 445.891V449.62C395.564 449.713 395.285 449.992 395.285 450.272C395.285 450.552 395.471 450.832 395.843 450.925V454.654C395.564 454.747 395.285 455.027 395.285 455.306C395.285 455.586 395.471 455.866 395.843 455.959V459.688C395.564 459.781 395.285 460.061 395.285 460.34C395.285 460.62 395.471 460.9 395.843 460.993V462.764H394.169C394.169 462.391 393.89 462.205 393.518 462.205C393.147 462.205 392.868 462.485 392.868 462.764H389.242C389.242 462.391 388.963 462.205 388.591 462.205C388.22 462.205 387.941 462.485 387.941 462.764H384.501C384.501 462.391 384.222 462.205 383.85 462.205C383.478 462.205 383.199 462.485 383.199 462.764H379.76C379.76 462.391 379.481 462.205 379.109 462.205C378.737 462.205 378.458 462.485 378.458 462.764H374.926C374.926 462.391 374.647 462.205 374.275 462.205C373.903 462.205 373.624 462.485 373.624 462.764H370.091C370.091 462.391 369.813 462.205 369.441 462.205C369.069 462.205 368.79 462.485 368.79 462.764H365.35V399.931H366.094C366.094 400.304 366.373 400.491 366.745 400.491C367.117 400.491 367.396 400.211 367.396 399.931H371.021C371.021 400.304 371.3 400.491 371.672 400.491C372.044 400.491 372.323 400.211 372.323 399.931H375.948C375.948 400.304 376.227 400.491 376.599 400.491C376.971 400.491 377.25 400.211 377.25 399.931H380.782C380.782 400.304 381.061 400.491 381.433 400.491C381.805 400.491 382.084 400.211 382.084 399.931H385.616C385.616 400.304 385.895 400.491 386.267 400.491C386.639 400.491 386.918 400.211 386.918 399.931H390.544C390.544 400.304 390.823 400.491 391.194 400.491C391.566 400.491 391.845 400.211 391.845 399.931H395.471C395.471 400.211 395.75 400.491 395.936 400.491V404.313H395.843ZM398.167 526.343V465.468H428.752L398.167 526.343ZM430.147 462.764C413.506 462.764 399.84 449.526 398.632 432.839H461.661C460.546 449.526 446.787 462.764 430.147 462.764ZM462.126 525.597L431.913 465.468H462.126V525.597ZM462.126 463.137H441.395C451.063 459.688 458.687 451.95 462.126 442.068V463.137ZM462.126 430.509H398.167V415.686H462.126V430.509ZM464.45 485.884V465.468H485.181C475.606 468.824 467.983 476.375 464.45 485.884ZM490.759 399.931H495.129V463.137H490.759V399.931ZM484.159 399.931H488.435V463.137H484.159V399.931ZM477.558 399.931H481.835V463.137H477.558V399.931ZM471.051 399.931H475.327V463.137H471.051V399.931ZM468.727 399.931V463.137H464.45V399.931H468.727ZM462.126 399.931V413.355H398.167V399.931H462.126ZM398.91 265.129L430.332 202.576L461.754 265.129H398.91ZM527.48 232.781C527.48 248.815 515.581 262.146 500.149 264.197L500.242 264.104C501.915 262.892 502.938 260.841 503.031 258.79C503.124 256.832 502.287 254.968 500.799 253.756L500.335 253.29L502.101 251.705C502.473 251.332 502.566 250.773 502.38 250.307L501.45 247.976L503.031 246.951C503.495 246.671 503.681 246.112 503.588 245.645L502.845 242.103L506.563 241.45C507.958 241.264 509.073 240.425 509.817 239.213C510.468 238.001 510.654 236.509 510.096 235.204L504.239 219.356L498.011 201.084C514.465 202.203 527.48 216 527.48 232.781ZM502.008 220.288L507.865 236.137C508.144 236.789 508.051 237.442 507.679 238.094C507.307 238.654 506.749 239.12 506.099 239.213L501.078 240.052C500.707 240.145 500.335 240.425 500.149 240.798C500.056 240.984 500.056 241.264 500.149 241.544L500.985 245.459C500.056 246.112 498.94 246.391 497.732 246.484L496.244 246.578C495.593 246.578 495.036 247.23 495.129 247.883C495.129 248.535 495.686 249.002 496.337 249.002H496.43L499.126 248.815L499.777 250.493L497.546 252.451C497.36 252.637 497.267 252.824 497.174 253.01C497.081 253.476 497.174 253.942 497.546 254.315L499.126 255.62C500.056 256.366 500.521 257.485 500.521 258.697C500.521 260.002 499.777 261.307 498.754 262.146L498.212 262.571L495.779 264.477C478.581 264.383 464.543 250.213 464.543 232.781C464.543 215.534 478.302 201.457 495.315 201.084L502.008 220.288ZM485.181 264.943L464.45 265.129V244.62C467.983 254.129 475.606 261.68 485.181 264.943ZM464.45 221.034V200.618H485.181C475.606 203.881 467.983 211.432 464.45 221.034ZM490.759 135.082H495.129V198.288H490.759V135.082ZM484.159 135.082H488.435V198.288H484.159V135.082ZM477.558 135.082H481.835V198.288H477.558V135.082ZM471.051 135.082H475.327V198.288H471.051V135.082ZM468.727 135.082V198.288H464.45V135.082H468.727ZM463.242 267.646H495.129V365.438H431.169V362.642C431.355 362.548 431.448 362.362 431.448 362.175C431.448 361.989 431.355 361.803 431.169 361.709V357.701C431.355 357.607 431.448 357.421 431.448 357.235C431.448 357.048 431.355 356.862 431.169 356.768V352.76C431.355 352.667 431.448 352.48 431.448 352.294C431.448 352.107 431.355 351.921 431.169 351.828V347.819C431.355 347.726 431.448 347.539 431.448 347.353C431.448 347.166 431.355 346.98 431.169 346.887V342.878C431.355 342.785 431.448 342.598 431.448 342.412C431.448 342.226 431.355 342.039 431.169 341.946V337.937C431.355 337.844 431.448 337.658 431.448 337.471C431.448 337.285 431.355 337.098 431.169 337.005V332.996C431.355 332.903 431.448 332.717 431.448 332.53C431.448 332.344 431.355 332.157 431.169 332.064V327.216C431.355 327.123 431.448 326.937 431.448 326.75C431.448 326.564 431.355 326.377 431.169 326.284V322.276C431.355 322.182 431.448 321.996 431.448 321.809C431.448 321.623 431.355 321.437 431.169 321.343V317.335C431.355 317.241 431.448 317.055 431.448 316.869C431.448 316.682 431.355 316.496 431.169 316.402V312.021V311.835V311.648V306.987V306.8V306.614V301.953V301.766V301.58V296.919V296.732V296.546V291.885V291.698V291.512V286.85V286.664V286.478V281.816V281.63V281.443V276.782V276.596V276.409V271.748V271.562V271.375V268.299L463.242 267.646ZM462.126 135.082V148.506H398.167V135.082H462.126ZM495.129 100.589H431.169V97.7922C431.355 97.6989 431.448 97.5125 431.448 97.326C431.448 97.1396 431.355 96.9532 431.169 96.8599V92.8513C431.355 92.7581 431.448 92.5716 431.448 92.3852C431.448 92.1987 431.355 92.0123 431.169 91.9191V87.6308C431.355 87.5375 431.448 87.3511 431.448 87.1646C431.448 86.9782 431.355 86.7917 431.169 86.6985V82.6899C431.355 82.5967 431.448 82.4102 431.448 82.2238C431.448 82.0373 431.355 81.8509 431.169 81.7576V77.749C431.355 77.6558 431.448 77.4693 431.448 77.2829C431.448 77.0964 431.355 76.91 431.169 76.8168V72.8081C431.355 72.7149 431.448 72.5285 431.448 72.342C431.448 72.1556 431.355 71.9691 431.169 71.8759V67.8673C431.355 67.774 431.448 67.5876 431.448 67.4011C431.448 67.2147 431.355 67.0283 431.169 66.935V62.9264C431.355 62.8332 431.448 62.6467 431.448 62.4603C431.448 62.2738 431.355 62.0874 431.169 61.9942V57.9855C431.355 57.8923 431.448 57.7059 431.448 57.5194C431.448 57.333 431.355 57.1465 431.169 57.0533V52.2056C431.355 52.1124 431.448 51.926 431.448 51.7395C431.448 51.5531 431.355 51.3666 431.169 51.2734V46.8919V46.7054V46.519V41.8578V41.6713V41.4849V36.8237V36.6372V36.4508V31.7896V31.6031V31.4167V26.7555V26.569V26.3826V21.7214V21.5349V21.3485V16.6873V16.5008V16.3144V11.6532V11.4667V11.2803V6.6191V6.43264V6.24619V2.79691H463.242H495.129V100.589ZM366.001 497.91C366.001 481.409 378.923 467.798 395.192 466.586V526.981C391.14 527.159 386.027 525.781 383.977 524.768C383.878 524.713 383.769 524.654 383.651 524.59C379.742 522.454 366.001 514.947 366.001 497.91Z" fill="#BEAFA3"/>
</svg>
