<svg width="44" height="29" viewBox="0 0 44 29" fill="none" xmlns="http://www.w3.org/2000/svg">
<path d="M43.9638 5.89543C43.9261 5.78805 43.8609 5.69256 43.7747 5.61859C43.6886 5.54461 43.5846 5.49477 43.4732 5.47406L14.3495 0.0338559C13.8223 -0.0640574 13.2779 0.0523761 12.836 0.357597C12.394 0.662818 12.0906 1.13188 11.9922 1.66183L10.9846 7.10978C10.8872 7.63989 11.0031 8.1872 11.3066 8.63155C11.6102 9.0759 12.0767 9.38099 12.6038 9.47984L12.6478 9.48758L12.5136 10.2131C12.4163 10.7432 12.5321 11.2905 12.8356 11.7349C13.1392 12.1792 13.6058 12.4843 14.1328 12.5832L15.1558 12.7745V15.4575C14.766 15.8944 14.5275 16.4465 14.4762 17.0312C14.4248 17.6158 14.5633 18.2014 14.8709 18.7002H4.04471V18.656C4.04442 18.1167 3.8312 17.5995 3.45189 17.2181C3.07259 16.8368 2.55822 16.6224 2.02181 16.6221H0.644602C0.473643 16.6221 0.309686 16.6904 0.1888 16.8119C0.0679132 16.9335 0 17.0983 0 17.2702L0 28.3519C0 28.7102 0.288201 29 0.644602 29H2.02181C2.55803 28.9997 3.07223 28.7855 3.45151 28.4044C3.83078 28.0232 4.04413 27.5064 4.04471 26.9673V24.1515H14.4221C15.3234 24.1506 16.1876 23.7903 16.825 23.1496C17.4625 22.509 17.8211 21.6403 17.8223 20.7341V19.9179C18.4114 19.7721 18.9351 19.4322 19.3097 18.9523C19.6843 18.4724 19.8883 17.8802 19.8892 17.2702C19.8892 16.5746 19.6285 15.9397 19.1995 15.4564V13.5299L38.5155 17.1375C39.0427 17.2348 39.5868 17.1181 40.0286 16.813C40.4704 16.5079 40.774 16.0392 40.8728 15.5095L42.1708 8.48337L43.8428 6.53357C43.9171 6.44732 43.9674 6.34289 43.9886 6.23085C44.0098 6.1188 44.0013 6.0031 43.9638 5.89543ZM2.75551 26.9673C2.75551 27.3731 2.42551 27.7038 2.02181 27.7038H1.2892V17.9183H2.02181C2.42661 17.9183 2.75551 18.249 2.75551 18.6549V26.9673ZM16.533 20.7319C16.533 21.2948 16.3107 21.8348 15.9148 22.233C15.519 22.6312 14.9821 22.855 14.4221 22.8553H4.04471V19.9953H16.533V20.7319ZM17.1777 18.6991C16.3933 18.6991 15.7553 18.0577 15.7553 17.2691C15.7553 16.4806 16.3933 15.8391 17.1777 15.8391C17.962 15.8391 18.6 16.4806 18.6 17.2691C18.6 18.0577 17.962 18.6991 17.1777 18.6991ZM16.445 14.6458V13.0134L17.9114 13.2877V14.6458C17.4319 14.5099 16.9245 14.5099 16.445 14.6458ZM37.3924 12.0689C37.0624 12.4527 36.5509 12.6329 36.0548 12.54L14.8495 8.58125C14.6832 8.55404 14.5129 8.59336 14.3751 8.69079C14.2373 8.78822 14.1429 8.93603 14.1122 9.10256C14.0814 9.26909 14.1167 9.44111 14.2105 9.5818C14.3043 9.7225 14.4492 9.82067 14.6141 9.85532L35.8205 13.8174C36.2864 13.9034 36.7666 13.8657 37.2136 13.708C37.6606 13.5503 38.0589 13.2781 38.3692 12.9183L40.4999 10.4321L39.6056 15.274C39.5701 15.4662 39.4601 15.6364 39.2998 15.7471C39.1396 15.8578 38.9421 15.9001 38.7509 15.8645L14.3682 11.3091C14.2733 11.292 14.1827 11.256 14.1017 11.2035C14.0206 11.1509 13.9508 11.0826 13.8961 11.0027C13.8415 10.9228 13.8032 10.8328 13.7834 10.7378C13.7636 10.6429 13.7627 10.545 13.7808 10.4498L13.915 9.72426L15.3131 9.98637C15.3964 10.0019 15.4819 10.0008 15.5648 9.98312C15.6476 9.96544 15.7262 9.93152 15.796 9.8833C15.8658 9.83509 15.9255 9.77352 15.9717 9.70211C16.0178 9.6307 16.0495 9.55085 16.065 9.46712C16.0805 9.3834 16.0794 9.29743 16.0618 9.21412C16.0442 9.13082 16.0104 9.05182 15.9625 8.98162C15.9145 8.91143 15.8533 8.85142 15.7823 8.80502C15.7112 8.75862 15.6318 8.72674 15.5485 8.7112L12.8392 8.20578C12.7444 8.1884 12.654 8.15228 12.5732 8.0995C12.4924 8.04672 12.4228 7.97834 12.3684 7.89832C12.3137 7.81844 12.2753 7.72842 12.2555 7.63349C12.2357 7.53856 12.2348 7.44061 12.2529 7.34534L13.2594 1.8985C13.2767 1.80318 13.3127 1.71226 13.3651 1.63101C13.4176 1.54975 13.4857 1.47978 13.5652 1.42515C13.6445 1.37008 13.7338 1.33136 13.828 1.31124C13.9222 1.29112 14.0195 1.28999 14.1141 1.30792L42.1345 6.54242L37.3913 12.0711L37.3924 12.0689Z" fill="#BCBCBC"/>
</svg>
