<svg width="33" height="42" viewBox="0 0 33 42" fill="none" xmlns="http://www.w3.org/2000/svg">
<path d="M31.9765 0.634521H0.515625C0.231172 0.634521 0 0.864834 0 1.15015V40.8498C0 41.1343 0.230312 41.3655 0.515625 41.3655H31.9765C32.2609 41.3655 32.4921 41.1351 32.4921 40.8498V1.15015C32.4921 0.865693 32.2618 0.634521 31.9765 0.634521ZM15.7326 40.3351H4.2582V12.0453H15.7317V40.3351H15.7326ZM28.2339 40.3351H16.763V12.0453H28.2339V40.3351ZM31.4617 40.3351H29.2643V11.5297C29.2643 11.2452 29.034 11.0141 28.7487 11.0141H3.74344C3.45898 11.0141 3.22781 11.2444 3.22781 11.5297V40.3342H1.03125V9.81093H31.4617V40.3351ZM31.4617 8.78054H1.03125V1.66491H31.4617V8.78054Z" fill="#BCBCBC"/>
<path d="M12.6036 7.29034H19.8902C20.1747 7.29034 20.4059 7.06002 20.4059 6.77471V3.67151C20.4059 3.38706 20.1756 3.15588 19.8902 3.15588H12.6036C12.3192 3.15588 12.088 3.3862 12.088 3.67151V6.77471C12.088 7.05917 12.3183 7.29034 12.6036 7.29034ZM13.1184 4.18627H19.3738V6.25909H13.1184V4.18627Z" fill="#BCBCBC"/>
</svg>
