<svg width="38" height="38" viewBox="0 0 38 38" fill="none" xmlns="http://www.w3.org/2000/svg">
<rect x="0.6" y="0.6" width="36.8" height="36.8" rx="1.4" stroke="#BCBCBC" stroke-width="1.2"/>
<path d="M24.0921 11.5432C23.4091 10.9718 22.452 10.6856 21.2211 10.6856H16.3596V18.2804H21.2211C22.452 18.2804 23.4091 17.9715 24.0921 17.3529C24.7752 16.7347 25.117 15.7547 25.117 14.4131C25.117 13.0717 24.7752 12.1148 24.0921 11.5432ZM30.396 16.0045C30.1648 18.2026 29.4359 19.8129 28.2095 20.8353C26.6983 22.0953 24.5401 22.7253 21.7351 22.7253H16.3596V30.7498C16.3596 31.4402 15.7994 32 15.1083 32H12.2513C11.5603 32 11 31.4402 11 30.7498V28.4884M11 25.4804V7.45599C11 6.76557 11.5603 6.20586 12.2513 6.20586H22.0851C24.6406 6.20586 26.6781 6.87084 28.1975 8.20073C29.454 9.30064 30.191 10.8993 30.4084 12.9966" stroke="#BCBCBC" stroke-width="1.2" stroke-miterlimit="10" stroke-linecap="round" stroke-linejoin="round"/>
</svg>
