<svg width="34" height="34" viewBox="0 0 34 34" fill="none" xmlns="http://www.w3.org/2000/svg">
<rect x="0.5" y="0.5" width="33" height="33" rx="16.5" fill="#D94625" stroke="#D94625"/>
<path fill-rule="evenodd" clip-rule="evenodd" d="M27.3012 13.1794L18.4889 8.87448C17.7292 8.49464 16.4377 8.49464 15.678 8.87448L6.66307 13.1794C6.03 13.4832 5.92871 13.9137 5.92871 14.1416C5.92871 14.3695 6.03 14.7747 6.66307 15.1039L7.39744 15.4584V19.5101C6.94163 19.6873 6.61243 20.1432 6.61243 20.6496C6.61243 21.1561 6.94163 21.6119 7.37211 21.7891C7.56561 21.8688 8.02462 21.8712 8.28374 21.7891C8.73955 21.6119 9.04342 21.1561 9.04342 20.6496C9.04342 20.1178 8.71423 19.6873 8.25842 19.5101V15.8889L9.60053 16.5473V21.8145C9.60053 21.8904 9.62585 21.9664 9.6765 22.0424C9.68109 22.0479 9.6886 22.0574 9.69906 22.0707C9.97705 22.4232 12.3325 25.4103 16.9695 25.4103C21.6472 25.4103 24.0031 22.3466 24.2235 22.06C24.2298 22.0518 24.2343 22.0459 24.2372 22.0424C24.2878 21.9664 24.3131 21.8904 24.3131 21.8145V16.5726L27.3012 15.1039C27.9343 14.8 28.0356 14.3695 28.0356 14.1416C28.0103 13.9137 27.9343 13.4832 27.3012 13.1794ZM23.5028 21.6879C23.0976 22.1943 20.9199 24.6253 16.9695 24.6253C13.0191 24.6253 10.8413 22.1943 10.4362 21.6879V16.9018L15.678 19.4088C16.0579 19.5861 16.5643 19.6873 17.0708 19.6873C17.6026 19.6873 18.109 19.5861 18.4889 19.3835L23.5028 16.9272V21.6879ZM26.9467 14.3949L23.908 15.8889C23.7813 15.8889 23.68 15.9396 23.6294 16.0409L18.1343 18.6998C17.6026 18.9783 16.5643 18.9783 16.0072 18.6998L9.24601 15.4584L17.0201 14.5468C17.248 14.5215 17.4 14.3189 17.3747 14.1163C17.3493 13.8884 17.1467 13.7365 16.9442 13.7618L7.92922 14.8254L7.01759 14.3949C6.78969 14.2936 6.73904 14.167 6.73904 14.167C6.73904 14.1416 6.78969 14.0403 7.01759 13.9391L16.0325 9.60885C16.3111 9.48223 16.6909 9.40626 17.0708 9.40626C17.4759 9.40626 17.8811 9.48223 18.1343 9.60885L26.9467 13.9137C27.1746 14.015 27.2253 14.1163 27.2253 14.167C27.2253 14.167 27.1493 14.2936 26.9467 14.3949ZM7.83357 21.402C8.23116 21.402 8.55347 21.0797 8.55347 20.6821C8.55347 20.2845 8.23116 19.9622 7.83357 19.9622C7.43599 19.9622 7.11368 20.2845 7.11368 20.6821C7.11368 21.0797 7.43599 21.402 7.83357 21.402Z" fill="white"/>
</svg>
