<svg width="34" height="34" viewBox="0 0 34 34" fill="none" xmlns="http://www.w3.org/2000/svg">
<rect width="34" height="34" rx="17" fill="#D94625"/>
<path d="M25.456 22.4026L23.773 12.4204C23.6925 11.9444 23.4457 11.5124 23.0765 11.2013C22.7073 10.8901 22.2396 10.7199 21.7567 10.721H20.9713V10.0413C20.9713 8.98844 20.5529 7.97872 19.8081 7.23425C19.0634 6.48977 18.0533 6.07153 17 6.07153C15.9467 6.07153 14.9366 6.48977 14.1919 7.23425C13.4471 7.97872 13.0287 8.98844 13.0287 10.0413V10.721H12.2399C11.757 10.7199 11.2893 10.8901 10.9201 11.2013C10.5509 11.5124 10.3041 11.9444 10.2236 12.4204L8.54399 22.4026C8.46739 22.8581 8.49104 23.3248 8.6133 23.7702C8.73555 24.2156 8.95347 24.6291 9.25188 24.9817C9.55028 25.3344 9.922 25.6177 10.3412 25.8121C10.7603 26.0065 11.2168 26.1072 11.6789 26.1072H22.3211C22.7832 26.1072 23.2397 26.0065 23.6588 25.8121C24.078 25.6177 24.4497 25.3344 24.7481 24.9817C25.0465 24.6291 25.2645 24.2156 25.3867 23.7702C25.509 23.3248 25.5326 22.8581 25.456 22.4026ZM14.0487 10.0243C14.0487 9.24187 14.3597 8.4915 14.9131 7.93824C15.4666 7.38498 16.2173 7.07417 17 7.07417C17.7827 7.07417 18.5334 7.38498 19.0869 7.93824C19.6403 8.4915 19.9513 9.24187 19.9513 10.0243V10.704H14.0487V10.0243ZM23.9702 24.3229C23.7675 24.5625 23.5149 24.7551 23.2301 24.8872C22.9453 25.0193 22.6351 25.0877 22.3211 25.0876H11.6789C11.365 25.0881 11.0549 25.02 10.77 24.8882C10.4852 24.7564 10.2327 24.564 10.03 24.3245C9.82726 24.085 9.67932 23.8041 9.5965 23.5015C9.51367 23.1989 9.49794 22.8818 9.55041 22.5725L11.2199 12.587C11.2597 12.3463 11.3845 12.1279 11.5717 11.9714C11.7588 11.8149 11.9959 11.7306 12.2399 11.7339H13.0253V13.2157C13.0253 13.3509 13.079 13.4806 13.1747 13.5762C13.2703 13.6718 13.4 13.7256 13.5353 13.7256C13.6706 13.7256 13.8003 13.6718 13.8959 13.5762C13.9916 13.4806 14.0453 13.3509 14.0453 13.2157V11.7339H19.9513V13.2157C19.9513 13.3509 20.005 13.4806 20.1007 13.5762C20.1963 13.6718 20.326 13.7256 20.4613 13.7256C20.5966 13.7256 20.7263 13.6718 20.8219 13.5762C20.9176 13.4806 20.9713 13.3509 20.9713 13.2157V11.7339H21.7601C22.0041 11.7306 22.2412 11.8149 22.4283 11.9714C22.6155 12.1279 22.7403 12.3463 22.7801 12.587L24.4496 22.5725C24.5014 22.8816 24.4853 23.1982 24.4025 23.5004C24.3198 23.8027 24.1722 24.0833 23.9702 24.3229Z" fill="white"/>
</svg>
