<svg width="56" height="56" viewBox="0 0 56 56" fill="none" xmlns="http://www.w3.org/2000/svg">
<rect width="56" height="56" rx="28" fill="#F07305"/>
<g clip-path="url(#clip0_918_108756)">
<path fill-rule="evenodd" clip-rule="evenodd" d="M27.9999 12.9332C28.4435 12.9332 28.8031 12.5737 28.8031 12.1301V11.9405V10.6065V9.99626C28.8031 9.5527 28.4435 9.19312 27.9999 9.19312C27.5564 9.19312 27.1968 9.5527 27.1968 9.99626V10.6065V11.9405V12.1301C27.1968 12.5737 27.5564 12.9332 27.9999 12.9332Z" fill="white"/>
<path fill-rule="evenodd" clip-rule="evenodd" d="M23.996 34.5355C23.996 36.7453 25.7897 38.5394 28 38.5394C30.2102 38.5394 32.0039 36.7453 32.0039 34.5355C32.0039 32.325 30.2101 30.5316 28 30.5316C25.7898 30.5316 23.996 32.325 23.996 34.5355ZM28 36.9331C26.677 36.9331 25.6023 35.8582 25.6023 34.5355C25.6023 33.2122 26.6769 32.1379 28 32.1379C29.323 32.1379 30.3976 33.2122 30.3976 34.5355C30.3976 35.8582 29.3229 36.9331 28 36.9331Z" fill="white"/>
<path d="M21.3346 41.2008L21.3346 34.5355C21.3346 34.2571 21.1905 33.9986 20.9537 33.8523C20.7169 33.706 20.4212 33.6927 20.1723 33.8171L19.7283 34.0391V35.835V41.2008V41.3938H21.3346L21.3346 41.2008Z" fill="white"/>
<path d="M34.6653 34.5355V41.2008V41.3938H36.2716V41.2008V35.835V34.0391L35.8276 33.8171C35.5787 33.6927 35.283 33.706 35.0462 33.8523C34.8094 33.9986 34.6653 34.2571 34.6653 34.5355Z" fill="white"/>
<path fill-rule="evenodd" clip-rule="evenodd" d="M28 13.926L22.5756 24.7746L21.3784 23.5774L27.1968 11.9405L27.2816 11.7709C27.4176 11.4988 27.6957 11.3269 28 11.3269C28.3042 11.3269 28.5823 11.4988 28.7183 11.7709L28.8031 11.9405L34.6215 23.5774L34.9005 23.2984C35.1302 23.0687 35.4757 23 35.7758 23.1243C36.0759 23.2486 36.2716 23.5415 36.2716 23.8663V34.0391L35.8276 33.8171C35.5787 33.6927 35.283 33.706 35.0462 33.8523C34.8094 33.9986 34.6653 34.2571 34.6653 34.5355V25.8052L32.3021 28.1684C31.9884 28.4821 31.4799 28.4821 31.1662 28.1684L27.9999 25.0021L24.8336 28.1684C24.5199 28.4821 24.0114 28.4821 23.6978 28.1684L21.3346 25.8053L21.3346 34.5355C21.3346 34.2571 21.1905 33.9986 20.9537 33.8523C20.7169 33.706 20.4212 33.6927 20.1723 33.8171L19.7283 34.0391V23.8663C19.7283 23.5415 19.924 23.2486 20.2241 23.1243C20.5242 23 20.8697 23.0687 21.0994 23.2984L21.3784 23.5774L20.88 24.574C20.6817 24.9707 20.8425 25.4532 21.2392 25.6515C21.636 25.8499 22.1184 25.6891 22.3168 25.2924L22.5756 24.7746L24.2657 26.4647L27.432 23.2984C27.7457 22.9847 28.2542 22.9847 28.5679 23.2984L31.7342 26.4647L33.4243 24.7746L28 13.926ZM19.7283 34.0391L16.2638 35.7714L12.6063 33.9427L12.3553 33.8171C12.1063 33.6927 11.8106 33.706 11.5739 33.8523C11.3371 33.9986 11.1929 34.2571 11.1929 34.5355V42.004C11.1929 42.4476 11.5525 42.8071 11.9961 42.8071H20.5315H35.4684H44.0038C44.4474 42.8071 44.807 42.4476 44.807 42.004V34.5355C44.807 34.2571 44.6628 33.9986 44.426 33.8523C44.1893 33.706 43.8936 33.6927 43.6446 33.8171L43.3936 33.9427L39.7362 35.7714L36.2716 34.0391V35.835L39.377 37.3877C39.6031 37.5008 39.8692 37.5008 40.0953 37.3877L43.2007 35.835V41.2008H36.2716V41.3938H34.6653V41.2008H21.3346L21.3346 41.3938H19.7283V41.2008H12.7992V35.835L15.9046 37.3877C16.1307 37.5008 16.3969 37.5008 16.623 37.3877L19.7283 35.835V34.0391Z" fill="white"/>
<path d="M21.2392 25.6515C21.636 25.8499 22.1184 25.6891 22.3168 25.2924L22.5756 24.7746L21.3784 23.5774L20.88 24.574C20.6817 24.9707 20.8425 25.4532 21.2392 25.6515Z" fill="white"/>
</g>
<defs>
<clipPath id="clip0_918_108756">
<rect width="34" height="34" fill="white" transform="translate(11 9)"/>
</clipPath>
</defs>
</svg>
