<svg width="34" height="34" viewBox="0 0 34 34" fill="none" xmlns="http://www.w3.org/2000/svg">
<rect width="34" height="34" rx="17" fill="#D94625"/>
<path fill-rule="evenodd" clip-rule="evenodd" d="M8.63088 10.7928C10.8246 8.54529 14.3812 8.54529 16.5749 10.7928L16.9999 11.2282L17.4248 10.7928C19.6185 8.54529 23.1751 8.54529 25.3688 10.7928C27.2146 12.6839 27.5074 15.5636 26.2471 17.7682H27.493C27.7335 17.7682 27.9284 17.968 27.9284 18.2143C27.9284 18.4607 27.7335 18.6604 27.493 18.6604H25.6174C25.538 18.7529 25.4551 18.8435 25.3688 18.9318L17.3077 27.1908C17.1377 27.365 16.862 27.365 16.692 27.1908L8.63088 18.9318C8.54463 18.8435 8.46177 18.7529 8.3823 18.6604H6.50669C6.26623 18.6604 6.07129 18.4607 6.07129 18.2143C6.07129 17.968 6.26623 17.7682 6.50669 17.7682H7.75267C6.49237 15.5636 6.7851 12.6839 8.63088 10.7928M9.59748 18.6604L16.9999 26.2445L24.4022 18.6604H21.3103C21.1611 18.6604 21.0223 18.5822 20.9425 18.453L19.6746 16.4019L17.2906 20.6665C17.211 20.8088 17.0617 20.8949 16.9016 20.8907C16.7416 20.8865 16.5967 20.7927 16.5244 20.6464L13.6407 14.8152L12.1765 18.3871C12.1086 18.5527 11.9504 18.6604 11.775 18.6604H9.59748ZM25.2034 17.7682C26.5921 15.8638 26.442 13.154 24.7531 11.4237L25.061 11.1083L24.7531 11.4237C22.8995 9.52458 19.8942 9.52458 18.0406 11.4237L17.3077 12.1745C17.1377 12.3487 16.862 12.3487 16.692 12.1745L15.9592 11.4237C14.1055 9.52458 11.1003 9.52458 9.24663 11.4237L9.24663 11.4237C7.55777 13.154 7.40766 15.8638 8.79628 17.7682H11.4857L13.2023 13.5807C13.268 13.4204 13.4186 13.3138 13.5882 13.3076C13.7578 13.3014 13.9154 13.3967 13.9921 13.5518L16.9362 19.5052L19.278 15.3161C19.3538 15.1804 19.4935 15.0953 19.6461 15.0918C19.7987 15.0883 19.942 15.167 20.0236 15.2991L21.55 17.7682H25.2034Z" fill="white"/>
</svg>
