<svg width="34" height="34" viewBox="0 0 34 34" fill="none" xmlns="http://www.w3.org/2000/svg">
<rect width="34" height="34" rx="17" fill="#D94625"/>
<path d="M24.8759 21.655H24.0771V19.6052C24.077 19.5077 24.0382 19.4141 23.9692 19.3452C23.9003 19.2762 23.8067 19.2374 23.7092 19.2373H23.6566V15.0239C23.8789 14.9471 24.0717 14.8028 24.2083 14.6113C24.3449 14.4198 24.4184 14.1905 24.4187 13.9553C24.4177 13.8205 24.3922 13.6869 24.3436 13.5612H24.8749C24.9547 13.5611 25.0324 13.5352 25.0962 13.4871C25.16 13.4391 25.2064 13.3716 25.2284 13.2949C25.2505 13.2181 25.247 13.1363 25.2184 13.0617C25.1899 12.9871 25.1378 12.9239 25.0702 12.8815L17.1956 7.94909C17.1371 7.91233 17.0694 7.89282 17.0003 7.89282C16.9312 7.89282 16.8635 7.91233 16.805 7.94909L8.92943 12.8815C8.86177 12.9239 8.80973 12.9871 8.78118 13.0617C8.75263 13.1363 8.74911 13.2181 8.77116 13.2949C8.79322 13.3716 8.83964 13.4391 8.90342 13.4871C8.96721 13.5352 9.04489 13.5611 9.12474 13.5612H9.65599C9.60738 13.6869 9.58196 13.8205 9.58093 13.9553C9.58121 14.1905 9.65474 14.4198 9.79131 14.6113C9.92788 14.8028 10.1207 14.9471 10.343 15.0239V19.2373H10.2905C10.1929 19.2374 10.0994 19.2762 10.0304 19.3452C9.96139 19.4141 9.92261 19.5077 9.92256 19.6052V21.655H9.12474C9.02716 21.655 8.93359 21.6937 8.86459 21.7627C8.7956 21.8317 8.75684 21.9253 8.75684 22.0229V24.0121C8.75681 24.0604 8.76631 24.1082 8.78478 24.1529C8.80326 24.1975 8.83036 24.2381 8.86453 24.2723C8.8987 24.3064 8.93927 24.3335 8.98391 24.352C9.02856 24.3705 9.07642 24.38 9.12474 24.38H24.8759C24.9242 24.38 24.9721 24.3705 25.0167 24.352C25.0614 24.3335 25.102 24.3064 25.1361 24.2723C25.1703 24.2381 25.1974 24.1975 25.2159 24.1529C25.2344 24.1082 25.2439 24.0604 25.2438 24.0121V22.0229C25.2438 21.9253 25.2051 21.8317 25.1361 21.7627C25.0671 21.6937 24.9735 21.655 24.8759 21.655ZM21.6594 21.655V19.9731H23.3413V21.655H21.6594ZM18.576 21.655V19.6052C18.5759 19.5077 18.5372 19.4141 18.4682 19.3452C18.3992 19.2762 18.3057 19.2374 18.2081 19.2373H18.1566V15.0239C18.3789 14.9471 18.5717 14.8028 18.7083 14.6113C18.8449 14.4198 18.9184 14.1905 18.9187 13.9553C18.9177 13.8205 18.8924 13.687 18.8438 13.5612H20.6583C20.6098 13.687 20.5844 13.8205 20.5835 13.9553C20.5837 14.1906 20.6572 14.4199 20.7938 14.6114C20.9304 14.8029 21.1232 14.9471 21.3456 15.0239V19.2373H21.293C21.1954 19.2373 21.1018 19.2761 21.0329 19.3451C20.9639 19.4141 20.9251 19.5077 20.9251 19.6052V21.655H18.576ZM16.1584 21.655V19.9731H17.8402V21.655H16.1584ZM13.0749 21.655V19.6052C13.0749 19.5077 13.0362 19.4141 12.9672 19.3451C12.8982 19.2761 12.8046 19.2373 12.707 19.2373H12.6545V15.0239C12.8768 14.9471 13.0696 14.8029 13.2062 14.6114C13.3428 14.4199 13.4163 14.1906 13.4166 13.9553C13.4158 13.8205 13.3907 13.687 13.3423 13.5612H15.1564C15.1079 13.687 15.0825 13.8205 15.0816 13.9553C15.0819 14.1906 15.1555 14.4199 15.2921 14.6114C15.4288 14.8029 15.6217 14.9471 15.8441 15.0239V19.2373H15.7915C15.694 19.2374 15.6004 19.2762 15.5314 19.3452C15.4624 19.4141 15.4237 19.5077 15.4236 19.6052V21.655H13.0749ZM17.7887 13.5612C17.8932 13.5612 17.9935 13.6027 18.0674 13.6766C18.1413 13.7505 18.1829 13.8508 18.1829 13.9553C18.1829 14.0599 18.1413 14.1601 18.0674 14.2341C17.9935 14.308 17.8932 14.3495 17.7887 14.3495C17.6911 14.3496 17.5976 14.3883 17.5286 14.4573C17.4596 14.5263 17.4208 14.6199 17.4208 14.7174V19.2373H16.5799V14.7174C16.5798 14.6199 16.541 14.5263 16.4721 14.4573C16.4031 14.3883 16.3095 14.3496 16.212 14.3495C16.1074 14.3495 16.0072 14.308 15.9332 14.2341C15.8593 14.1601 15.8178 14.0599 15.8178 13.9553C15.8178 13.8508 15.8593 13.7505 15.9332 13.6766C16.0072 13.6027 16.1074 13.5612 16.212 13.5612H17.7887ZM23.6839 13.9553C23.6838 14.0598 23.6422 14.16 23.5683 14.2339C23.4944 14.3078 23.3942 14.3493 23.2897 14.3495C23.1922 14.3495 23.0986 14.3883 23.0296 14.4573C22.9606 14.5263 22.9218 14.6198 22.9218 14.7174V19.2373H22.0809V14.7174C22.0809 14.6199 22.0421 14.5263 21.9731 14.4573C21.9041 14.3883 21.8106 14.3496 21.713 14.3495C21.6085 14.3495 21.5082 14.308 21.4343 14.2341C21.3604 14.1601 21.3189 14.0599 21.3189 13.9553C21.3189 13.8508 21.3604 13.7505 21.4343 13.6766C21.5082 13.6027 21.6085 13.5612 21.713 13.5612H23.2897C23.3942 13.5613 23.4944 13.6029 23.5683 13.6768C23.6422 13.7507 23.6838 13.8508 23.6839 13.9553ZM17.0003 8.69435L23.5954 12.8254H10.4052L17.0003 8.69435ZM10.7109 14.3495C10.6064 14.3495 10.5061 14.308 10.4322 14.2341C10.3583 14.1601 10.3167 14.0599 10.3167 13.9553C10.3167 13.8508 10.3583 13.7505 10.4322 13.6766C10.5061 13.6027 10.6064 13.5612 10.7109 13.5612H12.2876C12.3922 13.5612 12.4924 13.6027 12.5664 13.6766C12.6403 13.7505 12.6818 13.8508 12.6818 13.9553C12.6818 14.0599 12.6403 14.1601 12.5664 14.2341C12.4924 14.308 12.3922 14.3495 12.2876 14.3495C12.1901 14.3496 12.0965 14.3883 12.0275 14.4573C11.9586 14.5263 11.9198 14.6199 11.9197 14.7174V19.2373H11.0788V14.7174C11.0788 14.6198 11.0401 14.5263 10.9711 14.4573C10.9021 14.3883 10.8085 14.3495 10.7109 14.3495ZM10.6584 19.9731H12.3402V21.655H10.6584V19.9731ZM24.508 23.6442H9.49264V22.3908H24.508V23.6442Z" fill="white"/>
<path d="M17.0007 12.1158C17.2112 12.1159 17.4171 12.0535 17.5921 11.9365C17.7672 11.8196 17.9037 11.6534 17.9842 11.4589C18.0648 11.2644 18.0859 11.0503 18.0449 10.8438C18.0038 10.6374 17.9024 10.4477 17.7535 10.2988C17.6047 10.1499 17.415 10.0486 17.2085 10.0075C17.002 9.96644 16.788 9.98754 16.5935 10.0681C16.399 10.1487 16.2328 10.2852 16.1158 10.4602C15.9989 10.6353 15.9365 10.8411 15.9365 11.0517C15.9369 11.3338 16.0491 11.6043 16.2486 11.8038C16.4481 12.0033 16.7186 12.1155 17.0007 12.1158ZM17.0007 10.7231C17.0657 10.723 17.1292 10.7423 17.1833 10.7783C17.2374 10.8144 17.2795 10.8657 17.3044 10.9258C17.3293 10.9858 17.3359 11.0519 17.3232 11.1156C17.3106 11.1794 17.2793 11.238 17.2333 11.2839C17.1874 11.3299 17.1288 11.3612 17.0651 11.3739C17.0013 11.3866 16.9353 11.3801 16.8752 11.3553C16.8152 11.3304 16.7638 11.2883 16.7277 11.2342C16.6916 11.1802 16.6723 11.1167 16.6723 11.0517C16.6724 10.9646 16.7071 10.8811 16.7686 10.8195C16.8302 10.7579 16.9136 10.7232 17.0007 10.7231Z" fill="white"/>
</svg>
