<svg width="34" height="34" viewBox="0 0 34 34" fill="none" xmlns="http://www.w3.org/2000/svg">
<rect width="34" height="34" rx="17" fill="#D94625"/>
<path d="M25.7098 15.7142H25.3748V13.7856C25.3748 13.5299 25.2689 13.2846 25.0805 13.1038C24.892 12.923 24.6364 12.8214 24.3699 12.8214H23.6999C23.5858 12.8238 23.4728 12.8434 23.365 12.8792V12.4999C23.365 12.2442 23.2591 11.9989 23.0706 11.8181C22.8822 11.6372 22.6265 11.5356 22.36 11.5356H21.6901C21.4236 11.5356 21.1679 11.6372 20.9795 11.8181C20.791 11.9989 20.6851 12.2442 20.6851 12.4999V15.7142H13.3157V12.4999C13.3157 12.2442 13.2098 11.9989 13.0214 11.8181C12.8329 11.6372 12.5773 11.5356 12.3108 11.5356H11.6408C11.3743 11.5356 11.1187 11.6372 10.9302 11.8181C10.7418 11.9989 10.6359 12.2442 10.6359 12.4999V12.8792C10.528 12.8434 10.415 12.8238 10.3009 12.8214H9.63096C9.36444 12.8214 9.10883 12.923 8.92037 13.1038C8.73191 13.2846 8.62603 13.5299 8.62603 13.7856V15.7142H8.29106C8.02454 15.7142 7.76893 15.8158 7.58047 15.9966C7.39201 16.1775 7.28613 16.4228 7.28613 16.6785V17.3214C7.28613 17.5771 7.39201 17.8224 7.58047 18.0032C7.76893 18.1841 8.02454 18.2856 8.29106 18.2856H8.62603V20.2142C8.62603 20.47 8.73191 20.7152 8.92037 20.8961C9.10883 21.0769 9.36444 21.1785 9.63096 21.1785H10.3009C10.415 21.176 10.528 21.1565 10.6359 21.1206V21.4999C10.6359 21.7557 10.7418 22.0009 10.9302 22.1818C11.1187 22.3626 11.3743 22.4642 11.6408 22.4642H12.3108C12.5773 22.4642 12.8329 22.3626 13.0214 22.1818C13.2098 22.0009 13.3157 21.7557 13.3157 21.4999V18.2856H20.6851V21.4999C20.6851 21.7557 20.791 22.0009 20.9795 22.1818C21.1679 22.3626 21.4236 22.4642 21.6901 22.4642H22.36C22.6265 22.4642 22.8822 22.3626 23.0706 22.1818C23.2591 22.0009 23.365 21.7557 23.365 21.4999V21.1206C23.4728 21.1565 23.5858 21.176 23.6999 21.1785H24.3699C24.6364 21.1785 24.892 21.0769 25.0805 20.8961C25.2689 20.7152 25.3748 20.47 25.3748 20.2142V18.2856H25.7098C25.9763 18.2856 26.2319 18.1841 26.4204 18.0032C26.6088 17.8224 26.7147 17.5771 26.7147 17.3214V16.6785C26.7147 16.4228 26.6088 16.1775 26.4204 15.9966C26.2319 15.8158 25.9763 15.7142 25.7098 15.7142ZM8.29106 17.6428C8.20222 17.6428 8.11702 17.6089 8.0542 17.5486C7.99138 17.4884 7.95608 17.4066 7.95608 17.3214V16.6785C7.95608 16.5933 7.99138 16.5115 8.0542 16.4512C8.11702 16.3909 8.20222 16.3571 8.29106 16.3571H8.62603V17.6428H8.29106ZM10.3009 20.5356H9.63096C9.54212 20.5356 9.45692 20.5018 9.3941 20.4415C9.33128 20.3812 9.29598 20.2995 9.29598 20.2142V13.7856C9.29598 13.7004 9.33128 13.6186 9.3941 13.5584C9.45692 13.4981 9.54212 13.4642 9.63096 13.4642H10.3009C10.3898 13.4642 10.475 13.4981 10.5378 13.5584C10.6006 13.6186 10.6359 13.7004 10.6359 13.7856V20.2142C10.6359 20.2995 10.6006 20.3812 10.5378 20.4415C10.475 20.5018 10.3898 20.5356 10.3009 20.5356ZM12.6457 21.4999C12.6457 21.5852 12.6104 21.6669 12.5476 21.7272C12.4848 21.7875 12.3996 21.8214 12.3108 21.8214H11.6408C11.552 21.8214 11.4668 21.7875 11.4039 21.7272C11.3411 21.6669 11.3058 21.5852 11.3058 21.4999V12.4999C11.3058 12.4147 11.3411 12.3329 11.4039 12.2726C11.4668 12.2124 11.552 12.1785 11.6408 12.1785H12.3108C12.3996 12.1785 12.4848 12.2124 12.5476 12.2726C12.6104 12.3329 12.6457 12.4147 12.6457 12.4999V21.4999ZM13.3157 17.6428V16.3571H20.6851V17.6428H13.3157ZM22.695 21.4999C22.695 21.5852 22.6597 21.6669 22.5969 21.7272C22.5341 21.7875 22.4489 21.8214 22.36 21.8214H21.6901C21.6012 21.8214 21.516 21.7875 21.4532 21.7272C21.3904 21.6669 21.3551 21.5852 21.3551 21.4999V12.4999C21.3551 12.4147 21.3904 12.3329 21.4532 12.2726C21.516 12.2124 21.6012 12.1785 21.6901 12.1785H22.36C22.4489 12.1785 22.5341 12.2124 22.5969 12.2726C22.6597 12.3329 22.695 12.4147 22.695 12.4999V21.4999ZM24.7049 20.2142C24.7049 20.2995 24.6696 20.3812 24.6067 20.4415C24.5439 20.5018 24.4587 20.5356 24.3699 20.5356H23.6999C23.6111 20.5356 23.5259 20.5018 23.4631 20.4415C23.4002 20.3812 23.365 20.2995 23.365 20.2142V13.7856C23.365 13.7004 23.4002 13.6186 23.4631 13.5584C23.5259 13.4981 23.6111 13.4642 23.6999 13.4642H24.3699C24.4587 13.4642 24.5439 13.4981 24.6067 13.5584C24.6696 13.6186 24.7049 13.7004 24.7049 13.7856V20.2142ZM26.0448 17.3214C26.0448 17.4066 26.0095 17.4884 25.9466 17.5486C25.8838 17.6089 25.7986 17.6428 25.7098 17.6428H25.3748V16.3571H25.7098C25.7986 16.3571 25.8838 16.3909 25.9466 16.4512C26.0095 16.5115 26.0448 16.5933 26.0448 16.6785V17.3214Z" fill="white"/>
</svg>
