<svg width="56" height="56" viewBox="0 0 56 56" fill="none" xmlns="http://www.w3.org/2000/svg">
<rect width="56" height="56" rx="28" fill="#F07305"/>
<path fill-rule="evenodd" clip-rule="evenodd" d="M13.1747 44.7182C13.3204 44.8966 13.5378 45 13.7672 45H20.4798C20.7092 45 20.9266 44.8966 21.0723 44.7182C21.2181 44.5398 21.2769 44.305 21.2326 44.0784L19.4269 34.8329C19.3561 34.4706 19.0407 34.2094 18.6741 34.2094H15.5729C15.2062 34.2094 14.8908 34.4706 14.8201 34.8329L13.0144 44.0784C12.9702 44.305 13.0289 44.5398 13.1747 44.7182ZM14.7 43.4549L16.2039 35.7545H18.0431L19.5471 43.4549H14.7Z" fill="white"/>
<path fill-rule="evenodd" clip-rule="evenodd" d="M14.3995 15.6275C14.3995 17.2042 15.6688 18.4823 17.2345 18.4823C18.8003 18.4823 20.0695 17.2041 20.0695 15.6275V12.3811C20.0695 11.9544 19.726 11.6085 19.3023 11.6085H15.1667C14.743 11.6085 14.3995 11.9544 14.3995 12.3811V15.6275ZM17.2345 16.9372C16.5162 16.9372 15.9339 16.3508 15.9339 15.6275V13.1536H18.5351V15.6275C18.5351 16.3508 17.9528 16.9372 17.2345 16.9372Z" fill="white"/>
<path fill-rule="evenodd" clip-rule="evenodd" d="M13.1651 12.3811C13.1651 12.8078 13.5086 13.1536 13.9323 13.1536H15.1667C15.5904 13.1536 15.9339 12.8078 15.9339 12.3811C15.9339 11.9544 15.5904 11.6085 15.1667 11.6085L13.9323 11.6085C13.5086 11.6085 13.1651 11.9544 13.1651 12.3811Z" fill="white"/>
<path fill-rule="evenodd" clip-rule="evenodd" d="M18.3283 12.3811C18.3283 12.8078 18.6718 13.1536 19.0955 13.1536H20.5368C20.9605 13.1536 21.304 12.8078 21.304 12.3811C21.304 11.9544 20.9605 11.6085 20.5368 11.6085H19.0955C18.6718 11.6085 18.3283 11.9544 18.3283 12.3811Z" fill="white"/>
<path fill-rule="evenodd" clip-rule="evenodd" d="M17.2345 13.1536C17.6582 13.1536 18.0017 12.8078 18.0017 12.3811V10.7725C18.0017 10.3459 17.6582 10 17.2345 10C16.8108 10 16.4673 10.3459 16.4673 10.7725V12.3811C16.4673 12.8078 16.8108 13.1536 17.2345 13.1536Z" fill="white"/>
<path fill-rule="evenodd" clip-rule="evenodd" d="M17.1186 35.7545C17.5423 35.7572 17.888 35.4136 17.8908 34.987L18.0017 17.7148C18.0044 17.2881 17.6631 16.94 17.2394 16.9373C16.8158 16.9345 16.4701 17.2781 16.4673 17.7048L16.3564 34.977C16.3537 35.4036 16.6949 35.7517 17.1186 35.7545Z" fill="white"/>
<path fill-rule="evenodd" clip-rule="evenodd" d="M22.672 39.3395C22.672 39.7662 23.0155 40.112 23.4392 40.112H44.2328C44.6565 40.112 45 39.7662 45 39.3395C45 38.9128 44.6565 38.5669 44.2328 38.5669H23.4392C23.0155 38.5669 22.672 38.9128 22.672 39.3395Z" fill="white"/>
<path fill-rule="evenodd" clip-rule="evenodd" d="M25.6585 35.1747C25.6585 35.6014 26.002 35.9473 26.4257 35.9473H41.2469C41.6706 35.9473 42.0141 35.6014 42.0141 35.1747C42.0141 34.748 41.6706 34.4022 41.2469 34.4022H26.4257C26.002 34.4022 25.6585 34.748 25.6585 35.1747Z" fill="white"/>
<path fill-rule="evenodd" clip-rule="evenodd" d="M25.6585 31.0102C25.6585 31.4369 26.002 31.7827 26.4257 31.7827H41.2469C41.6706 31.7827 42.0141 31.4369 42.0141 31.0102C42.0141 30.5835 41.6706 30.2376 41.2469 30.2376H26.4257C26.002 30.2376 25.6585 30.5835 25.6585 31.0102Z" fill="white"/>
<path fill-rule="evenodd" clip-rule="evenodd" d="M25.1841 45C25.6078 45 25.9513 44.6541 25.9513 44.2275V39.3395C25.9513 38.9128 25.6078 38.5669 25.1841 38.5669C24.7604 38.5669 24.4169 38.9128 24.4169 39.3395V44.2275C24.4169 44.6541 24.7604 45 25.1841 45Z" fill="white"/>
<path fill-rule="evenodd" clip-rule="evenodd" d="M42.4881 45C42.9118 45 43.2553 44.6541 43.2553 44.2275V39.3395C43.2553 38.9128 42.9118 38.5669 42.4881 38.5669C42.0644 38.5669 41.7209 38.9128 41.7209 39.3395V44.2275C41.7209 44.6541 42.0644 45 42.4881 45Z" fill="white"/>
<path fill-rule="evenodd" clip-rule="evenodd" d="M26.4253 40.112C26.849 40.112 27.1924 39.7662 27.1924 39.3395V29.2045C27.1924 28.7778 26.849 28.4319 26.4253 28.4319C26.0015 28.4319 25.6581 28.7778 25.6581 29.2045V39.3395C25.6581 39.7662 26.0015 40.112 26.4253 40.112Z" fill="white"/>
<path fill-rule="evenodd" clip-rule="evenodd" d="M41.2468 40.112C41.6705 40.112 42.014 39.7662 42.014 39.3395V29.2045C42.014 28.7778 41.6705 28.4319 41.2468 28.4319C40.8231 28.4319 40.4796 28.7778 40.4796 29.2045V39.3395C40.4796 39.7662 40.8231 40.112 41.2468 40.112Z" fill="white"/>
</svg>
