<svg width="25" height="144" viewBox="0 0 25 144" fill="none" xmlns="http://www.w3.org/2000/svg">
<g clip-path="url(#clip0_1057_31254)">
<path fill-rule="evenodd" clip-rule="evenodd" d="M-136.929 -9.72242H-135.603H-96.051L-96.4377 -0.396111V0.991733V9.81841H-58.4323V1.43584V-0.673679C-58.4323 -2.22806 -58.4875 -9.72242 -58.4875 -9.72242H-17.6096V-8.61215V29.1372C-17.9597 29.2838 -10.9759 29.2601 -4.40473 29.2377C1.46665 29.2178 7.00899 29.199 6.69619 29.3037H19.8987V28.8596H21.2244V69.0516H21.2797L21.2567 90.5294L19.8987 91.2015L-16.6705 109.91L21.1139 129.839V228.931L-17.5544 228.765V297.768H-18.9354V296.38V228.154H-20.8688C-20.924 228.32 -21.0897 228.431 -21.2555 228.431C-21.4212 228.431 -21.5869 228.32 -21.6421 228.154H-23.7965C-23.8518 228.32 -24.0175 228.431 -24.1832 228.431C-24.3489 228.431 -24.5147 228.32 -24.5699 228.154H-26.7243C-26.7795 228.32 -26.9452 228.431 -27.111 228.431C-27.2767 228.431 -27.4424 228.32 -27.4976 228.154H-29.7072C-29.7625 228.32 -29.9282 228.431 -30.0939 228.431C-30.2597 228.431 -30.4254 228.32 -30.4806 228.154H-32.5798C-32.635 228.32 -32.8007 228.431 -32.9664 228.431C-33.1322 228.431 -33.2979 228.32 -33.3531 228.154H-35.5627C-35.618 228.32 -35.7837 228.431 -35.9494 228.431C-36.1152 228.431 -36.2809 228.32 -36.3361 228.154H-37.4962V229.153H-37.4409C-37.2199 229.153 -37.0542 229.32 -37.0542 229.542C-37.0542 229.764 -37.2199 229.93 -37.4409 229.93H-37.4962V232.151H-37.4409C-37.2199 232.151 -37.0542 232.317 -37.0542 232.54C-37.0542 232.762 -37.2199 232.928 -37.4409 232.928H-37.4962V235.149H-37.4409C-37.2199 235.149 -37.0542 235.315 -37.0542 235.537C-37.0542 235.759 -37.2199 235.926 -37.4409 235.926H-37.4962V238.146H-37.4409C-37.2199 238.146 -37.0542 238.313 -37.0542 238.535C-37.0542 238.757 -37.2199 238.924 -37.4409 238.924H-37.4962V241.144H-37.4409C-37.2199 241.144 -37.0542 241.311 -37.0542 241.533C-37.0542 241.755 -37.2199 241.921 -37.4409 241.921H-37.4962V244.142H-37.4409C-37.2199 244.142 -37.0542 244.308 -37.0542 244.53C-37.0542 244.753 -37.2199 244.919 -37.4409 244.919H-37.4962V247.14H-37.4409C-37.2199 247.14 -37.0542 247.306 -37.0542 247.528C-37.0542 247.75 -37.2199 247.917 -37.4409 247.917H-37.4962V250.137H-37.4409C-37.2199 250.137 -37.0542 250.304 -37.0542 250.526C-37.0542 250.748 -37.2199 250.915 -37.4409 250.915H-37.4962V253.135H-37.4409C-37.2199 253.135 -37.0542 253.302 -37.0542 253.524C-37.0542 253.746 -37.2199 253.912 -37.4409 253.912H-37.4962V256.133H-37.4409C-37.2199 256.133 -37.0542 256.299 -37.0542 256.521C-37.0542 256.743 -37.2199 256.91 -37.4409 256.91H-37.4962V259.131H-37.4409C-37.2199 259.131 -37.0542 259.297 -37.0542 259.519C-37.0542 259.741 -37.2199 259.908 -37.4409 259.908H-37.4962V262.128H-37.4409C-37.2199 262.128 -37.0542 262.295 -37.0542 262.517C-37.0542 262.739 -37.2199 262.906 -37.4409 262.906H-37.4962V265.126H-37.4409C-37.2199 265.126 -37.0542 265.293 -37.0542 265.515C-37.0542 265.737 -37.2199 265.903 -37.4409 265.903H-37.4962V268.124H-37.4409C-37.2199 268.124 -37.0542 268.29 -37.0542 268.512C-37.0542 268.734 -37.2199 268.901 -37.4409 268.901H-37.4962V271.122H-37.4409C-37.2199 271.122 -37.0542 271.288 -37.0542 271.51C-37.0542 271.732 -37.2199 271.899 -37.4409 271.899H-37.4962V274.119H-37.4409C-37.2199 274.119 -37.0542 274.286 -37.0542 274.508C-37.0542 274.73 -37.2199 274.897 -37.4409 274.897H-37.4962V277.117H-37.4409C-37.2199 277.117 -37.0542 277.284 -37.0542 277.506C-37.0542 277.728 -37.2199 277.894 -37.4409 277.894H-37.4962V280.115H-37.4409C-37.2199 280.115 -37.0542 280.281 -37.0542 280.503C-37.0542 280.725 -37.2199 280.892 -37.4409 280.892H-37.4962V283.113H-37.4409C-37.2199 283.113 -37.0542 283.279 -37.0542 283.501C-37.0542 283.723 -37.2199 283.89 -37.4409 283.89H-37.4962V286.11H-37.4409C-37.2199 286.11 -37.0542 286.277 -37.0542 286.499C-37.0542 286.721 -37.2199 286.887 -37.4409 286.887H-37.4962V289.108H-37.4409C-37.2199 289.108 -37.0542 289.275 -37.0542 289.497C-37.0542 289.719 -37.2199 289.885 -37.4409 289.885H-37.4962V292.106H-37.4409C-37.2199 292.106 -37.0542 292.272 -37.0542 292.494C-37.0542 292.716 -37.2199 292.883 -37.4409 292.883H-37.4962V295.103H-37.4409C-37.2199 295.103 -37.0542 295.27 -37.0542 295.492C-37.0542 295.714 -37.2199 295.881 -37.4409 295.881H-37.4962V296.38H-37.4409C-37.2199 296.38 -37.0542 296.547 -37.0542 296.769C-37.0542 296.991 -37.2199 297.157 -37.4409 297.157H-37.4962V297.269H-38.8772V296.38V267.624H-76.7169V297.269H-78.0979V297.213H-135.714V297.269H-137.039V266.68H-174.548V305.04C-184.951 305.04 -193.812 299.566 -194.931 287.998C-195.705 295.992 -200.783 301.913 -208.13 304.356C-209.856 304.832 -211.735 305.04 -213.492 305.04H-215.757L-234.428 267.846L-253.1 305.04H-254.702V292.883C-256.801 298.601 -261.386 303.097 -267.131 305.04H-270.882C-271.661 305.146 -272.456 305.203 -273.262 305.207L-273.474 305.04H-275.914L-275.859 305.096C-275.988 305.079 -276.116 305.06 -276.244 305.04H-279.891C-285.747 303.042 -290.387 298.434 -292.431 292.55V279.171C-290.387 273.342 -285.802 268.679 -280.002 266.68H-292.431V265.293H-291.492C-291.492 265.071 -291.326 264.96 -291.105 264.96C-290.884 264.96 -290.718 265.126 -290.718 265.293H-288.564C-288.564 265.071 -288.398 264.96 -288.177 264.96C-287.956 264.96 -287.791 265.126 -287.791 265.293H-285.747C-285.747 265.071 -285.581 264.96 -285.36 264.96C-285.139 264.96 -284.973 265.126 -284.973 265.293H-282.929C-282.929 265.071 -282.764 264.96 -282.543 264.96C-282.322 264.96 -282.156 265.126 -282.156 265.293H-280.057C-280.057 265.071 -279.891 264.96 -279.67 264.96C-279.449 264.96 -279.284 265.126 -279.284 265.293H-276.963C-276.963 265.071 -276.798 264.96 -276.577 264.96C-276.356 264.96 -276.19 265.126 -276.19 265.293H-274.257V228.154H-274.643C-274.643 228.376 -274.809 228.487 -275.03 228.487C-275.251 228.487 -275.417 228.32 -275.417 228.154H-277.571C-277.571 228.376 -277.737 228.487 -277.958 228.487C-278.179 228.487 -278.344 228.32 -278.344 228.154H-280.499C-280.499 228.376 -280.665 228.487 -280.886 228.487C-281.106 228.487 -281.272 228.32 -281.272 228.154H-283.371C-283.371 228.376 -283.537 228.487 -283.758 228.487C-283.979 228.487 -284.145 228.32 -284.145 228.154H-286.244C-286.244 228.376 -286.41 228.487 -286.631 228.487C-286.851 228.487 -287.017 228.32 -287.017 228.154H-289.172C-289.172 228.376 -289.337 228.487 -289.558 228.487C-289.779 228.487 -289.945 228.32 -289.945 228.154H-292.099C-292.099 228.32 -292.21 228.431 -292.376 228.487V226.766H-234.815V218.883H-292.32V217.495H-234.815V209.002H-292.32V207.614H-274.201V149.38H-292.32V147.992H-279.284L-279.284 147.992C-279.781 147.825 -280.278 147.659 -280.278 147.603C-285.912 145.549 -290.387 140.997 -292.376 135.279V121.901C-290.332 116.072 -285.747 111.409 -279.946 109.41H-292.376V108.022H-291.436C-291.436 107.8 -291.271 107.689 -291.05 107.689C-290.829 107.689 -290.663 107.856 -290.663 108.022H-288.509C-288.509 107.8 -288.343 107.689 -288.122 107.689C-287.901 107.689 -287.735 107.856 -287.735 108.022H-285.691C-285.691 107.8 -285.526 107.689 -285.305 107.689C-285.084 107.689 -284.918 107.856 -284.918 108.022H-282.874C-282.874 107.8 -282.708 107.689 -282.487 107.689C-282.267 107.689 -282.101 107.856 -282.101 108.022H-280.002C-280.002 107.8 -279.836 107.689 -279.615 107.689C-279.394 107.689 -279.228 107.856 -279.228 108.022H-276.963C-276.963 107.8 -276.798 107.689 -276.577 107.689C-276.356 107.689 -276.19 107.856 -276.19 108.022H-274.257V70.3839H-274.643C-274.643 70.6059 -274.809 70.717 -275.03 70.717C-275.251 70.717 -275.417 70.5504 -275.417 70.3839H-277.571C-277.571 70.6059 -277.737 70.717 -277.958 70.717C-278.179 70.717 -278.344 70.5504 -278.344 70.3839H-280.499C-280.499 70.6059 -280.665 70.717 -280.886 70.717C-281.106 70.717 -281.272 70.5504 -281.272 70.3839H-283.371C-283.371 70.6059 -283.537 70.717 -283.758 70.717C-283.979 70.717 -284.145 70.5504 -284.145 70.3839H-286.244C-286.244 70.6059 -286.41 70.717 -286.631 70.717C-286.851 70.717 -287.017 70.5504 -287.017 70.3839H-289.172C-289.172 70.6059 -289.337 70.717 -289.558 70.717C-289.779 70.717 -289.945 70.5504 -289.945 70.3839H-292.099C-292.099 70.5504 -292.21 70.6615 -292.376 70.717V68.996H-234.815V61.1131H-292.32V59.7253H-234.815V51.2317H-292.32V49.8438H-274.201V-8.39009H-292.32V-9.72242H-175.984H-172.559V-8.33458L-136.929 9.87393V-8.33458V-9.72242ZM-276.244 305.04C-285.226 303.651 -292.099 295.802 -292.099 286.388C-292.099 276.395 -284.366 268.179 -274.588 267.513L-278.289 278.394L-281.769 287.831C-282.101 288.608 -281.99 289.497 -281.604 290.218C-281.162 290.94 -280.499 291.44 -279.67 291.551L-277.461 291.939L-277.903 294.049C-277.958 294.326 -277.847 294.659 -277.571 294.826L-276.632 295.437L-277.184 296.824C-277.295 297.102 -277.24 297.435 -277.019 297.657L-275.969 298.601L-276.245 298.878C-277.129 299.6 -277.626 300.71 -277.571 301.876C-277.516 303.097 -276.908 304.319 -275.914 305.04H-276.244ZM-273.474 305.04C-275.03 303.819 -275.03 303.819 -275.03 303.819C-275.638 303.319 -276.08 302.542 -276.08 301.765C-276.08 301.043 -275.803 300.377 -275.251 299.933L-274.312 299.156C-274.091 298.934 -274.036 298.656 -274.091 298.379C-274.146 298.268 -274.201 298.157 -274.312 298.046L-275.638 296.88L-275.251 295.881L-273.649 295.992H-273.594C-273.207 295.992 -272.876 295.714 -272.876 295.326C-272.82 294.937 -273.152 294.548 -273.539 294.548L-274.422 294.493C-275.141 294.437 -275.803 294.271 -276.356 293.882L-275.859 291.551C-275.803 291.384 -275.803 291.218 -275.859 291.106C-275.969 290.884 -276.19 290.718 -276.411 290.662L-279.394 290.163C-279.781 290.107 -280.112 289.83 -280.333 289.497C-280.554 289.108 -280.609 288.719 -280.444 288.331L-276.963 278.893L-272.986 267.458C-262.877 267.68 -254.702 276.062 -254.702 286.332C-254.702 295.894 -261.779 303.808 -270.882 305.04H-273.474ZM-122.843 69.0516C-128.864 67.0531 -133.615 62.3344 -135.658 56.2834V69.0516H-122.843ZM-96.1615 11.2063C-95.4434 21.1432 -87.323 29.0262 -77.435 29.0262C-67.5469 29.0262 -59.4266 21.1432 -58.7085 11.2063H-96.1615ZM-58.377 16.5911C-60.3657 22.4755 -64.9507 27.1942 -70.7509 29.2482H-58.377V16.5911ZM-28.7682 -8.39009H-37.4409V29.2482H-28.7682V-8.39009ZM-52.5216 30.6361C-44.6774 32.8566 -38.8219 39.6848 -37.9933 47.9563C-37.1647 39.6293 -31.3092 32.8566 -23.4651 30.6361H-52.5216ZM-17.6096 69.0516H19.8987V66.609H-17.6096V69.0516ZM-17.6096 65.2766H19.8987V62.723H-17.6096V65.2766ZM-17.6096 61.3352H19.8987V58.7815H-17.6096V61.3352ZM-17.6096 57.3937H19.8987V54.84H-17.6096V57.3937ZM-17.6096 53.3967H19.8987V50.8431H-17.6096V53.3967ZM-17.6096 49.4552H19.8987V40.7951H-17.6096V49.4552ZM-17.6096 39.4627H19.8987V30.6916H-17.6096V39.4627ZM-18.9906 -8.39009H-27.3872V29.2482H-18.9906V-8.39009ZM-19.3773 31.3577C-29.0444 32.0794 -36.7228 40.1289 -36.7228 50.0104C-36.7228 59.8363 -29.0444 67.9413 -19.3773 68.663V31.3577ZM-24.1832 69.0516C-31.6407 66.6645 -37.2199 60.0028 -37.9933 51.9533C-38.7667 60.0028 -44.346 66.6645 -51.8034 69.0516H-24.1832ZM-39.2639 49.9548C-39.2639 40.1289 -46.9423 32.0239 -56.6093 31.3022V68.5519C-46.9423 67.8858 -39.2639 59.8363 -39.2639 49.9548ZM-56.996 -5.78094C-56.8303 -5.72543 -56.6646 -5.55889 -56.6646 -5.39235C-56.6646 -5.22581 -56.7751 -5.05927 -56.996 -5.00375V-2.7832C-56.8303 -2.72769 -56.6646 -2.56115 -56.6646 -2.39461C-56.6646 -2.22807 -56.7751 -2.06153 -56.996 -2.00601V0.214536C-56.8303 0.270049 -56.6646 0.436595 -56.6646 0.603136C-56.6646 0.769677 -56.7751 0.936219 -56.996 0.991733V3.21228C-56.8303 3.26779 -56.6646 3.43433 -56.6646 3.60088C-56.6646 3.76742 -56.7751 3.93396 -56.996 3.98947V6.21002C-56.8303 6.26553 -56.6646 6.43207 -56.6646 6.59862C-56.6646 6.76516 -56.7751 6.9317 -56.996 6.98722V9.20777C-56.8303 9.26328 -56.6646 9.42982 -56.6646 9.59636C-56.6646 9.7629 -56.7751 9.92944 -56.996 9.98495V12.2055C-56.8303 12.261 -56.6646 12.4276 -56.6646 12.5941C-56.6646 12.7606 -56.7751 12.9272 -56.996 12.9827V15.2032C-56.8303 15.2588 -56.6646 15.4253 -56.6646 15.5918C-56.6646 15.7584 -56.7751 15.9249 -56.996 15.9804V18.201C-56.8303 18.2565 -56.6646 18.423 -56.6646 18.5896C-56.6646 18.7561 -56.7751 18.9227 -56.996 18.9782V21.1987C-56.8303 21.2542 -56.6646 21.4208 -56.6646 21.5873C-56.6646 21.7539 -56.7751 21.9204 -56.996 21.9759V24.1965C-56.8303 24.252 -56.6646 24.4185 -56.6646 24.5851C-56.6646 24.7516 -56.7751 24.9181 -56.996 24.9737V27.1942C-56.8303 27.2497 -56.6646 27.4163 -56.6646 27.5828C-56.6646 27.7493 -56.7751 27.9159 -56.996 27.9714V29.0262H-56.0017C-56.0017 28.8041 -55.836 28.6931 -55.615 28.6931C-55.394 28.6931 -55.2283 28.8596 -55.2283 29.0262H-53.074C-53.074 28.8041 -52.9082 28.6931 -52.6873 28.6931C-52.4663 28.6931 -52.3006 28.8596 -52.3006 29.0262H-50.2567C-50.2567 28.8041 -50.091 28.6931 -49.87 28.6931C-49.649 28.6931 -49.4833 28.8596 -49.4833 29.0262H-47.4394C-47.4394 28.8041 -47.2737 28.6931 -47.0527 28.6931C-46.8318 28.6931 -46.6661 28.8596 -46.6661 29.0262H-44.5669C-44.5669 28.8041 -44.4012 28.6931 -44.1802 28.6931C-43.9593 28.6931 -43.7936 28.8596 -43.7936 29.0262H-41.6944C-41.6944 28.8041 -41.5287 28.6931 -41.3077 28.6931C-41.0868 28.6931 -40.9211 28.8596 -40.9211 29.0262H-38.8772V-8.61215H-39.3191C-39.3191 -8.39009 -39.4848 -8.27906 -39.7058 -8.27906C-39.9267 -8.27906 -40.0925 -8.4456 -40.0925 -8.61215H-42.2468C-42.2468 -8.39009 -42.4125 -8.27906 -42.6335 -8.27906C-42.8545 -8.27906 -43.0202 -8.4456 -43.0202 -8.61215H-45.1746C-45.1746 -8.39009 -45.3403 -8.27906 -45.5613 -8.27906C-45.7822 -8.27906 -45.9479 -8.4456 -45.9479 -8.61215H-48.0471C-48.0471 -8.39009 -48.2128 -8.27906 -48.4338 -8.27906C-48.6547 -8.27906 -48.8204 -8.4456 -48.8204 -8.61215H-50.9196C-50.9196 -8.39009 -51.0853 -8.27906 -51.3063 -8.27906C-51.5272 -8.27906 -51.693 -8.4456 -51.693 -8.61215H-53.8473C-53.8473 -8.39009 -54.013 -8.27906 -54.234 -8.27906C-54.455 -8.27906 -54.6207 -8.4456 -54.6207 -8.61215H-56.7751C-56.7751 -8.4456 -56.9408 -8.27906 -57.0513 -8.27906V-5.78094H-56.996ZM-58.377 30.6361H-76.5511L-58.377 66.8865V30.6361ZM-58.819 69.0516L-77.4902 31.8019L-96.1615 69.0516H-58.819ZM-96.4377 66.4424L-78.4846 30.6361H-96.4377V66.4424ZM-96.4377 29.2482H-84.1191C-89.8641 27.1942 -94.3938 22.5866 -96.4377 16.7021V29.2482ZM19.8987 70.4949H-15.7314L19.8987 88.7034V70.4949ZM19.8987 130.489L-13.2456 147.992H19.8987V130.489ZM7.63529 176.804L10.0659 173.195C11.1154 171.641 10.8945 169.587 9.62393 168.255L-3.08137 155.431L-3.74425 156.097C-4.9043 157.263 -4.9043 159.15 -3.74425 160.316L4.26562 168.421C5.14946 169.309 5.25994 170.697 4.54182 171.752L1.55884 175.971C0.454031 177.581 0.564508 179.69 1.7798 181.134L2.056 181.411C2.3322 181.689 2.3322 182.189 2.056 182.466C1.89028 182.633 1.72456 182.688 1.55884 182.688C1.39312 182.688 1.28263 182.633 1.11691 182.522C1.0958 182.5 1.0747 182.487 1.05668 182.476C1.02753 182.458 1.00643 182.445 1.00643 182.411C0.951193 182.355 0.8407 182.244 0.78546 182.133L-7.83204 173.417C-8.6054 172.64 -9.04733 171.585 -9.04733 170.42C-9.04733 169.309 -8.6054 168.255 -7.83204 167.422L-6.9482 166.534C-7.72157 164.979 -7.5006 163.036 -6.23007 161.759L-5.23575 160.76C-6.45104 159.039 -6.28531 156.597 -4.73858 155.042L-3.57853 153.877C-3.30233 153.599 -2.80517 153.599 -2.52896 153.877L10.7287 167.2C12.5517 169.032 12.7726 171.863 11.3916 173.973L8.96105 177.581C8.29817 178.58 8.40865 179.968 9.23726 180.801L11.6126 183.188C13.4908 181.966 15.0927 180.357 16.3633 178.58L17.1919 177.303C18.8491 174.528 19.7882 171.308 19.7882 167.866C19.7882 157.707 11.6126 149.491 1.61407 149.491C-8.43969 149.491 -16.56 157.707 -16.56 167.866C-16.56 178.025 -8.38445 186.241 1.61407 186.241H2.00076L3.71321 186.13C6.08855 185.852 8.29816 185.131 10.2868 184.021L8.13245 181.855C6.75144 180.579 6.58572 178.414 7.63529 176.804ZM0.398787 175.027L0.730232 174.583L-6.06435 167.699L-6.83771 168.477C-7.33488 168.976 -7.61108 169.698 -7.61108 170.42C-7.61108 171.141 -7.33488 171.863 -6.83771 172.363L-0.650778 178.58C-0.706018 177.359 -0.37458 176.138 0.398787 175.027ZM-5.23575 166.534L1.55884 173.362L3.32652 170.864C3.65796 170.42 3.60273 169.809 3.21605 169.476L-4.29665 161.871L-5.23575 162.814C-6.23007 163.813 -6.23007 165.479 -5.23575 166.534ZM19.8987 149.38H8.24292C13.6012 151.378 17.91 155.708 19.8987 161.149V149.38ZM19.8987 174.75C17.7443 180.69 12.8279 185.297 6.69619 187.018H19.8987V174.75ZM-17.6096 226.822H19.8987V224.379H-17.6096V226.822ZM-17.6096 222.991H19.8987V220.437H-17.6096V222.991ZM-17.6096 219.05H19.8987V216.496H-17.6096V219.05ZM-17.6096 215.108H19.8987V212.555H-17.6096V215.108ZM-17.6096 211.167H19.8987V208.613H-17.6096V211.167ZM-17.6096 207.225H19.8987V198.565H-17.6096V207.225ZM-17.6096 197.177H19.8987V188.406H-17.6096V197.177ZM-17.6096 187.018H-3.63378C-10.7046 185.075 -16.1181 179.246 -17.6096 171.974V187.018ZM-17.6096 163.925C-16.2286 157.207 -11.4779 151.711 -5.1805 149.38H-17.6096V163.925ZM-17.6096 147.992H-16.2838L19.1805 129.839L-17.6096 111.02V147.992ZM-17.6096 108.855L19.291 89.9803L-17.6096 71.1056V108.855ZM-77.9874 127.063C-78.0979 127.008 -78.1531 126.897 -78.1531 126.786C-78.1531 126.675 -78.0979 126.564 -77.9874 126.508V124.121C-78.0979 124.066 -78.1531 123.955 -78.1531 123.844C-78.1531 123.733 -78.0979 123.622 -77.9874 123.566V121.012C-78.0979 120.957 -78.1531 120.846 -78.1531 120.735C-78.1531 120.624 -78.0979 120.513 -77.9874 120.457V118.07C-78.0979 118.015 -78.1531 117.904 -78.1531 117.793C-78.1531 117.682 -78.0979 117.571 -77.9874 117.515V115.128C-78.0979 115.072 -78.1531 114.961 -78.1531 114.85C-78.1531 114.739 -78.0979 114.628 -77.9874 114.573V112.186C-78.0979 112.13 -78.1531 112.019 -78.1531 111.908C-78.1531 111.797 -78.0979 111.686 -77.9874 111.631V109.243C-78.0979 109.188 -78.1531 109.077 -78.1531 108.966C-78.1531 108.855 -78.0979 108.744 -77.9874 108.688V106.301C-78.0979 106.246 -78.1531 106.135 -78.1531 106.024C-78.1531 105.913 -78.0979 105.802 -77.9874 105.746V103.359C-78.0979 103.304 -78.1531 103.193 -78.1531 103.081C-78.1531 102.97 -78.0979 102.859 -77.9874 102.804V100.417C-78.0979 100.361 -78.1531 100.25 -78.1531 100.139C-78.1531 100.028 -78.0979 99.9172 -77.9874 99.8617V97.2525V97.1415V97.0305V94.2548V94.1438V94.0327V91.257V91.146V91.035V88.2593V88.1483V88.0373V85.2616V85.1505V85.0395V82.2638V82.1528V82.0418V79.2661V79.1551V79.044V76.2683V76.1573V76.0463V73.2706V73.1596V73.0486V70.4949H-97.0453H-115.993V128.729H-77.9874V127.063ZM-38.7667 70.4949H-76.6064V73.3261H-38.7667V70.4949ZM-110.137 188.406C-104.448 190.349 -99.8626 194.846 -97.8187 200.564V188.406H-110.137ZM-101.686 187.018V149.38H-104.227V187.018H-101.686ZM-105.608 187.018V149.38H-108.149V187.018H-105.608ZM-116.214 188.739L-120.081 200.119L-123.561 209.557C-123.726 209.945 -123.671 210.334 -123.45 210.723C-123.229 211.056 -122.898 211.333 -122.511 211.389L-119.528 211.888C-119.307 211.944 -119.086 212.11 -118.976 212.333C-118.921 212.444 -118.921 212.61 -118.976 212.777L-119.473 215.108C-118.921 215.497 -118.258 215.663 -117.54 215.719L-116.656 215.774C-116.269 215.774 -115.938 216.163 -115.993 216.552C-115.993 216.94 -116.324 217.218 -116.711 217.218H-116.766L-118.368 217.107L-118.755 218.106L-117.429 219.272C-117.319 219.383 -117.263 219.494 -117.208 219.605C-117.153 219.882 -117.208 220.16 -117.429 220.382L-118.368 221.159C-118.921 221.603 -119.197 222.269 -119.197 222.991C-119.197 223.768 -118.755 224.546 -118.147 225.045L-116.379 226.433C-106.16 226.377 -97.8187 217.939 -97.8187 207.558C-97.9292 197.288 -106.105 188.906 -116.214 188.739ZM-113.396 187.018V149.38H-115.993V187.018H-113.396ZM-119.418 220.049L-119.141 219.771L-120.191 218.828C-120.412 218.606 -120.467 218.272 -120.357 217.995L-119.804 216.607L-120.743 215.996C-121.02 215.83 -121.13 215.497 -121.075 215.219L-120.633 213.165L-122.843 212.777C-123.671 212.666 -124.334 212.166 -124.776 211.444C-125.163 210.723 -125.273 209.834 -124.942 209.057L-121.462 199.62L-117.76 188.739C-127.538 189.35 -135.272 197.566 -135.272 207.558C-135.272 217.107 -128.201 225.045 -119.031 226.266L-119.086 226.211C-120.081 225.489 -120.688 224.268 -120.743 223.047C-120.799 221.881 -120.302 220.771 -119.418 220.049ZM-110.414 226.822H-97.8187V214.609C-99.9178 220.382 -104.558 224.934 -110.414 226.822ZM-112.071 187.018H-109.53V149.38H-112.071V187.018ZM-100.305 187.018H-97.7635V149.38H-100.305V187.018ZM-115.993 228.598V286.443H-77.9874V284.778C-78.0979 284.722 -78.1531 284.611 -78.1531 284.5C-78.1531 284.389 -78.0979 284.278 -77.9874 284.223V281.836C-78.0979 281.78 -78.1531 281.669 -78.1531 281.558C-78.1531 281.447 -78.0979 281.336 -77.9874 281.281V278.893C-78.0979 278.838 -78.1531 278.727 -78.1531 278.616C-78.1531 278.505 -78.0979 278.394 -77.9874 278.338V275.951C-78.0979 275.896 -78.1531 275.785 -78.1531 275.674C-78.1531 275.563 -78.0979 275.452 -77.9874 275.396V273.009C-78.0979 272.953 -78.1531 272.842 -78.1531 272.731C-78.1531 272.62 -78.0979 272.509 -77.9874 272.454V270.067C-78.0979 270.011 -78.1531 269.9 -78.1531 269.789C-78.1531 269.678 -78.0979 269.567 -77.9874 269.512V267.125C-78.0979 267.069 -78.1531 266.958 -78.1531 266.847C-78.1531 266.736 -78.0979 266.625 -77.9874 266.569V263.683C-78.0979 263.627 -78.1531 263.516 -78.1531 263.405C-78.1531 263.294 -78.0979 263.183 -77.9874 263.128V260.74C-78.0979 260.685 -78.1531 260.574 -78.1531 260.463C-78.1531 260.352 -78.0979 260.241 -77.9874 260.185V257.798C-78.0979 257.743 -78.1531 257.632 -78.1531 257.521C-78.1531 257.41 -78.0979 257.299 -77.9874 257.243V254.634V254.523V254.412V251.636V251.525V251.414V248.639V248.527V248.416V245.641V245.53V245.419V242.643V242.532V242.421V239.645V239.534V239.423V236.647V236.536V236.425V233.65V233.539V233.428V230.652V230.541V230.43V228.598H-97.0453H-115.993ZM-75.9987 129.673C-75.9987 133.003 -75.1149 136.112 -73.5681 138.777L-72.7395 140.054C-71.5243 141.83 -69.9775 143.384 -68.2651 144.661L-66.1107 142.496C-65.2268 141.608 -65.1164 140.276 -65.8345 139.276L-68.2651 135.668C-69.7013 133.559 -69.4251 130.672 -67.6022 128.895L-54.3445 115.572C-54.0683 115.295 -53.5711 115.295 -53.2949 115.572L-52.1349 116.738C-50.5881 118.292 -50.4224 120.735 -51.6377 122.456L-50.6434 123.455C-49.3728 124.732 -49.0966 126.73 -49.9253 128.229L-49.0414 129.117C-48.268 129.895 -47.8261 130.949 -47.8261 132.115C-47.8261 133.225 -48.268 134.28 -49.0414 135.113L-57.6589 143.829C-57.6865 143.884 -57.728 143.926 -57.7694 143.967C-57.8108 144.009 -57.8522 144.051 -57.8799 144.106C-57.8902 144.117 -57.9006 144.125 -57.9105 144.132C-57.9208 144.14 -57.9307 144.146 -57.9398 144.151L-57.9401 144.152C-57.9693 144.17 -57.9903 144.183 -57.9903 144.217C-58.1008 144.328 -58.2666 144.384 -58.4323 144.384C-58.598 144.384 -58.819 144.328 -58.9294 144.162C-59.2056 143.884 -59.2056 143.384 -58.9294 143.107L-58.6532 142.829C-57.3827 141.386 -57.2722 139.221 -58.4323 137.667L-61.4153 133.447C-62.1334 132.448 -62.0229 131.005 -61.1391 130.117L-53.1292 122.012C-51.9691 120.846 -51.9691 118.958 -53.1292 117.793L-53.7368 117.126L-66.4421 129.95C-67.7679 131.282 -67.9336 133.336 -66.8841 134.891L-64.4535 138.499C-63.4039 140.109 -63.5696 142.219 -64.9507 143.607L-66.8841 145.549C-64.8954 146.771 -62.6306 147.548 -60.2 147.937L-59.0952 148.048H-56.0569C-46.7766 147.215 -39.4848 139.332 -39.4848 129.728C-39.4848 119.569 -47.6604 111.353 -57.6589 111.353C-67.8232 111.298 -75.9987 119.569 -75.9987 129.673ZM-62.1334 110.409H-76.6064V124.177C-74.6177 117.349 -69.0937 112.019 -62.1334 110.409ZM-76.6064 135.168V147.992H-65.2269C-70.6957 145.716 -74.9492 140.997 -76.6064 135.168ZM-56.2779 140.22L-50.091 134.003C-49.5938 133.503 -49.3176 132.781 -49.3176 132.06C-49.3176 131.338 -49.5938 130.616 -50.091 130.117L-50.8643 129.339L-57.6589 136.223L-57.3275 136.667C-56.5541 137.778 -56.2227 138.999 -56.2779 140.22ZM-51.7482 128.174C-50.7539 127.174 -50.7539 125.454 -51.7482 124.454L-52.6873 123.511L-60.2 131.116C-60.5867 131.505 -60.6419 132.06 -60.3104 132.504L-58.5428 135.002L-51.7482 128.174ZM-58.377 158.706H-96.3824V167.533H-58.377V158.706ZM-70.7509 187.018H-58.377V174.306C-60.4209 180.246 -64.9507 184.909 -70.7509 187.018ZM-58.377 188.406H-76.5511L-58.377 224.657V188.406ZM-58.7085 168.921H-96.1615C-95.4434 178.858 -87.323 186.741 -77.435 186.741C-67.5469 186.796 -59.3714 178.913 -58.7085 168.921ZM-96.4377 174.472V187.018H-84.1191C-89.8641 184.964 -94.3938 180.301 -96.4377 174.472ZM-96.4377 188.406V224.212L-78.4846 188.406H-96.4377ZM-96.4377 157.318H-58.4323V149.324H-96.4377V157.318ZM-38.7667 74.714H-76.6064V77.2676H-38.7667V74.714ZM-38.7667 78.6554H-76.6064V81.2091H-38.7667V78.6554ZM-38.7667 82.5969H-76.6064V85.1505H-38.7667V82.5969ZM-38.7667 86.5384H-76.6064V89.092H-38.7667V86.5384ZM-38.7667 90.4799H-76.6064V93.2555H-38.7667V90.4799ZM-38.7667 94.6434H-76.6064V97.197H-38.7667V94.6434ZM-38.7667 98.5849H-76.6064V101.139H-38.7667V98.5849ZM-38.7667 102.526H-76.6064V105.08H-38.7667V102.526ZM-38.7667 106.468H-76.6064V109.021H-38.7667V106.468ZM-38.7667 110.409H-53.4606C-46.2241 112.075 -40.4791 117.793 -38.7667 125.065V110.409ZM-38.7667 134.336C-40.2582 140.553 -44.6222 145.605 -50.3672 147.992H-38.7667V134.336ZM-38.8219 149.38H-39.2086C-39.2086 149.602 -39.3743 149.713 -39.5953 149.713C-39.8162 149.713 -39.982 149.546 -39.982 149.38H-42.1363C-42.1363 149.602 -42.3021 149.713 -42.523 149.713C-42.744 149.713 -42.9097 149.546 -42.9097 149.38H-45.0641C-45.0641 149.602 -45.2298 149.713 -45.4508 149.713C-45.6717 149.713 -45.8375 149.546 -45.8375 149.38H-47.9366C-47.9366 149.602 -48.1023 149.713 -48.3233 149.713C-48.5442 149.713 -48.71 149.546 -48.71 149.38H-50.8091C-50.8091 149.602 -50.9748 149.713 -51.1958 149.713C-51.4167 149.713 -51.5825 149.546 -51.5825 149.38H-53.7368C-53.7368 149.602 -53.9026 149.713 -54.1235 149.713C-54.3445 149.713 -54.5102 149.546 -54.5102 149.38H-56.6646C-56.6646 149.546 -56.8303 149.713 -56.9408 149.713V151.934C-56.7751 151.989 -56.6093 152.156 -56.6093 152.322C-56.6093 152.489 -56.7198 152.655 -56.9408 152.711V154.931C-56.7751 154.987 -56.6093 155.153 -56.6093 155.32C-56.6093 155.486 -56.7198 155.653 -56.9408 155.709V157.929C-56.7751 157.985 -56.6093 158.151 -56.6093 158.318C-56.6093 158.484 -56.7198 158.651 -56.9408 158.706V160.927C-56.7751 160.982 -56.6093 161.149 -56.6093 161.315C-56.6093 161.482 -56.7198 161.648 -56.9408 161.704V163.925C-56.7751 163.98 -56.6093 164.147 -56.6093 164.313C-56.6093 164.48 -56.7198 164.646 -56.9408 164.702V166.922C-56.7751 166.978 -56.6093 167.144 -56.6093 167.311C-56.6093 167.477 -56.7198 167.644 -56.9408 167.699V169.92C-56.7751 169.976 -56.6093 170.142 -56.6093 170.309C-56.6093 170.475 -56.7198 170.642 -56.9408 170.697V172.918C-56.7751 172.973 -56.6093 173.14 -56.6093 173.306C-56.6093 173.473 -56.7198 173.639 -56.9408 173.695V175.915C-56.7751 175.971 -56.6093 176.138 -56.6093 176.304C-56.6093 176.471 -56.7198 176.637 -56.9408 176.693V178.913C-56.7751 178.969 -56.6093 179.135 -56.6093 179.302C-56.6093 179.468 -56.7198 179.635 -56.9408 179.69V181.911C-56.7751 181.967 -56.6093 182.133 -56.6093 182.3C-56.6093 182.466 -56.7198 182.633 -56.9408 182.688V184.909C-56.7751 184.964 -56.6093 185.131 -56.6093 185.297C-56.6093 185.464 -56.7198 185.63 -56.9408 185.686V186.741H-55.9465C-55.9465 186.519 -55.7807 186.408 -55.5598 186.408C-55.3388 186.408 -55.1731 186.574 -55.1731 186.741H-53.0187C-53.0187 186.519 -52.853 186.408 -52.632 186.408C-52.4111 186.408 -52.2454 186.574 -52.2454 186.741H-50.2015C-50.2015 186.519 -50.0357 186.408 -49.8148 186.408C-49.5938 186.408 -49.4281 186.574 -49.4281 186.741H-47.3842C-47.3842 186.519 -47.2185 186.408 -46.9975 186.408C-46.7766 186.408 -46.6108 186.574 -46.6108 186.741H-44.5117C-44.5117 186.519 -44.346 186.408 -44.125 186.408C-43.904 186.408 -43.7383 186.574 -43.7383 186.741H-41.6392C-41.6392 186.519 -41.4735 186.408 -41.2525 186.408C-41.0315 186.408 -40.8658 186.574 -40.8658 186.741H-38.8219V149.38ZM-52.5216 188.406C-44.6774 190.627 -38.8219 197.455 -37.9933 205.726C-37.1647 197.399 -31.3092 190.627 -23.4651 188.406H-52.5216ZM-28.7682 187.018V149.38H-37.4409V187.018H-28.7682ZM-56.6646 189.072V226.322C-46.9975 225.6 -39.3191 217.551 -39.3191 207.669C-39.2638 197.899 -46.9423 189.794 -56.6646 189.072ZM-20.924 70.4949C-20.9793 70.6615 -21.145 70.7725 -21.3107 70.7725C-21.4764 70.7725 -21.6421 70.6615 -21.6974 70.4949H-23.8518C-23.907 70.6615 -24.0727 70.7725 -24.2384 70.7725C-24.4042 70.7725 -24.5699 70.6615 -24.6251 70.4949H-26.7795C-26.8348 70.6615 -27.0005 70.7725 -27.1662 70.7725C-27.3319 70.7725 -27.4976 70.6615 -27.5529 70.4949H-29.7625C-29.8177 70.6615 -29.9835 70.7725 -30.1492 70.7725C-30.3149 70.7725 -30.4806 70.6615 -30.5359 70.4949H-32.635C-32.6902 70.6615 -32.856 70.7725 -33.0217 70.7725C-33.1874 70.7725 -33.3531 70.6615 -33.4084 70.4949H-35.618C-35.6732 70.6615 -35.8389 70.7725 -36.0047 70.7725C-36.1704 70.7725 -36.3361 70.6615 -36.3913 70.4949H-37.5514V71.4942H-37.4962C-37.2752 71.4942 -37.1095 71.6607 -37.1095 71.8828C-37.1095 72.1048 -37.2752 72.2714 -37.4962 72.2714H-37.5514V74.4919H-37.4962C-37.2752 74.4919 -37.1095 74.6585 -37.1095 74.8805C-37.1095 75.1026 -37.2752 75.2691 -37.4962 75.2691H-37.5514V77.4897H-37.4962C-37.2752 77.4897 -37.1095 77.6562 -37.1095 77.8782C-37.1095 78.1003 -37.2752 78.2668 -37.4962 78.2668H-37.5514V80.4874H-37.4962C-37.2752 80.4874 -37.1095 80.6539 -37.1095 80.876C-37.1095 81.098 -37.2752 81.2646 -37.4962 81.2646H-37.5514V83.4851H-37.4962C-37.2752 83.4851 -37.1095 83.6517 -37.1095 83.8737C-37.1095 84.0958 -37.2752 84.2623 -37.4962 84.2623H-37.5514V86.4829H-37.4962C-37.2752 86.4829 -37.1095 86.6494 -37.1095 86.8715C-37.1095 87.0935 -37.2752 87.2601 -37.4962 87.2601H-37.5514V89.4806H-37.4962C-37.2752 89.4806 -37.1095 89.6472 -37.1095 89.8692C-37.1095 90.0913 -37.2752 90.2578 -37.4962 90.2578H-37.5514V92.4784H-37.4962C-37.2752 92.4784 -37.1095 92.6449 -37.1095 92.8669C-37.1095 93.089 -37.2752 93.2555 -37.4962 93.2555H-37.5514V95.4761H-37.4962C-37.2752 95.4761 -37.1095 95.6426 -37.1095 95.8647C-37.1095 96.0868 -37.2752 96.2533 -37.4962 96.2533H-37.5514V98.4738H-37.4962C-37.2752 98.4738 -37.1095 98.6404 -37.1095 98.8624C-37.1095 99.0845 -37.2752 99.251 -37.4962 99.251H-37.5514V101.472H-37.4962C-37.2752 101.472 -37.1095 101.638 -37.1095 101.86C-37.1095 102.082 -37.2752 102.249 -37.4962 102.249H-37.5514V104.469H-37.4962C-37.2752 104.469 -37.1095 104.636 -37.1095 104.858C-37.1095 105.08 -37.2752 105.247 -37.4962 105.247H-37.5514V107.467H-37.4962C-37.2752 107.467 -37.1095 107.634 -37.1095 107.856C-37.1095 108.078 -37.2752 108.244 -37.4962 108.244H-37.5514V110.465H-37.4962C-37.2752 110.465 -37.1095 110.631 -37.1095 110.853C-37.1095 111.075 -37.2752 111.242 -37.4962 111.242H-37.5514V113.463H-37.4962C-37.2752 113.463 -37.1095 113.629 -37.1095 113.851C-37.1095 114.073 -37.2752 114.24 -37.4962 114.24H-37.5514V116.46H-37.4962C-37.2752 116.46 -37.1095 116.627 -37.1095 116.849C-37.1095 117.071 -37.2752 117.237 -37.4962 117.237H-37.5514V119.458H-37.4962C-37.2752 119.458 -37.1095 119.625 -37.1095 119.847C-37.1095 120.069 -37.2752 120.235 -37.4962 120.235H-37.5514V122.456H-37.4962C-37.2752 122.456 -37.1095 122.622 -37.1095 122.844C-37.1095 123.066 -37.2752 123.233 -37.4962 123.233H-37.5514V125.454H-37.4962C-37.2752 125.454 -37.1095 125.62 -37.1095 125.842C-37.1095 126.064 -37.2752 126.231 -37.4962 126.231H-37.5514V128.451H-37.4962C-37.2752 128.451 -37.1095 128.618 -37.1095 128.84C-37.1095 129.062 -37.2752 129.228 -37.4962 129.228H-37.5514V131.449H-37.4962C-37.2752 131.449 -37.1095 131.616 -37.1095 131.838C-37.1095 132.06 -37.2752 132.226 -37.4962 132.226H-37.5514V134.447H-37.4962C-37.2752 134.447 -37.1095 134.613 -37.1095 134.835C-37.1095 135.057 -37.2752 135.224 -37.4962 135.224H-37.5514V137.444H-37.4962C-37.2752 137.444 -37.1095 137.611 -37.1095 137.833C-37.1095 138.055 -37.2752 138.222 -37.4962 138.222H-37.5514V140.442H-37.4962C-37.2752 140.442 -37.1095 140.609 -37.1095 140.831C-37.1095 141.053 -37.2752 141.219 -37.4962 141.219H-37.5514V143.44H-37.4962C-37.2752 143.44 -37.1095 143.607 -37.1095 143.829C-37.1095 144.051 -37.2752 144.217 -37.4962 144.217H-37.5514V146.438H-37.4962C-37.2752 146.438 -37.1095 146.604 -37.1095 146.826C-37.1095 147.048 -37.2752 147.215 -37.4962 147.215H-37.5514V147.492H-18.9906V69.9398H-20.924V70.4949ZM-18.9906 149.38H-27.3872V187.018H-18.9906V149.38ZM-19.3773 226.322V189.072C-29.0444 189.794 -36.7228 197.843 -36.7228 207.725C-36.7228 217.551 -29.0444 225.656 -19.3773 226.322ZM-24.1832 226.822C-31.6407 224.434 -37.2199 217.773 -37.9933 209.723C-38.7667 217.773 -44.346 224.434 -51.8034 226.822H-24.1832ZM-76.6064 266.736H-38.7667V264.182H-76.6064V266.736ZM-76.6064 262.794H-38.7667V260.241H-76.6064V262.794ZM-76.6064 258.853H-38.7667V256.299H-76.6064V258.853ZM-76.6064 254.912H-38.7667V252.358H-76.6064V254.912ZM-76.6064 250.97H-38.7667V248.194H-76.6064V250.97ZM-76.6064 246.807H-38.7667V244.253H-76.6064V246.807ZM-76.6064 242.865H-38.7667V240.311H-76.6064V242.865ZM-76.6064 238.924H-38.7667V236.37H-76.6064V238.924ZM-76.6064 234.982H-38.7667V232.428H-76.6064V234.982ZM-76.6064 231.041H-38.7667V228.209H-76.6064V231.041ZM-58.819 226.822L-77.4902 189.572L-96.1615 226.822H-58.819ZM-135.603 296.325H-77.9874V287.831H-135.603V296.325ZM-135.603 286.443H-117.429V228.209H-135.603V286.443ZM-135.603 226.822H-122.787C-128.809 224.823 -133.559 220.104 -135.603 214.053V226.822ZM-135.603 201.063C-133.614 195.123 -128.974 190.405 -123.064 188.351H-135.603V201.063ZM-135.603 151.934C-135.437 151.989 -135.272 152.1 -135.272 152.322C-135.272 152.544 -135.437 152.711 -135.603 152.711V154.931C-135.437 154.987 -135.272 155.098 -135.272 155.32C-135.272 155.542 -135.437 155.709 -135.603 155.709V157.929C-135.437 157.985 -135.272 158.096 -135.272 158.318C-135.272 158.54 -135.437 158.706 -135.603 158.706V160.927C-135.437 160.982 -135.272 161.093 -135.272 161.315C-135.272 161.537 -135.437 161.704 -135.603 161.704V163.925C-135.437 163.98 -135.272 164.091 -135.272 164.313C-135.272 164.535 -135.437 164.702 -135.603 164.702V166.922C-135.437 166.978 -135.272 167.089 -135.272 167.311C-135.272 167.533 -135.437 167.699 -135.603 167.699V169.92C-135.437 169.976 -135.272 170.087 -135.272 170.309C-135.272 170.531 -135.437 170.697 -135.603 170.697V172.918C-135.437 172.973 -135.272 173.084 -135.272 173.306C-135.272 173.528 -135.437 173.695 -135.603 173.695V175.915C-135.437 175.971 -135.272 176.082 -135.272 176.304C-135.272 176.526 -135.437 176.693 -135.603 176.693V178.913C-135.437 178.969 -135.272 179.08 -135.272 179.302C-135.272 179.524 -135.437 179.69 -135.603 179.69V181.911C-135.437 181.967 -135.272 182.078 -135.272 182.3C-135.272 182.522 -135.437 182.688 -135.603 182.688V184.909C-135.437 184.964 -135.272 185.075 -135.272 185.297C-135.272 185.519 -135.437 185.686 -135.603 185.686V186.741H-134.609C-134.609 186.519 -134.443 186.408 -134.222 186.408C-134.001 186.408 -133.835 186.574 -133.835 186.741H-131.681C-131.681 186.519 -131.515 186.408 -131.294 186.408C-131.073 186.408 -130.908 186.574 -130.908 186.741H-128.864C-128.864 186.519 -128.698 186.408 -128.477 186.408C-128.256 186.408 -128.09 186.574 -128.09 186.741H-126.047C-126.047 186.519 -125.881 186.408 -125.66 186.408C-125.439 186.408 -125.273 186.574 -125.273 186.741H-123.174C-123.174 186.519 -123.008 186.408 -122.787 186.408C-122.566 186.408 -122.401 186.574 -122.401 186.741H-120.302C-120.302 186.519 -120.136 186.408 -119.915 186.408C-119.694 186.408 -119.528 186.574 -119.528 186.741H-117.595V149.102H-117.981C-117.981 149.324 -118.147 149.435 -118.368 149.435C-118.589 149.435 -118.755 149.269 -118.755 149.102H-120.909C-120.909 149.324 -121.075 149.435 -121.296 149.435C-121.517 149.435 -121.683 149.269 -121.683 149.102H-123.837C-123.837 149.324 -124.003 149.435 -124.224 149.435C-124.445 149.435 -124.61 149.269 -124.61 149.102H-126.709C-126.709 149.324 -126.875 149.435 -127.096 149.435C-127.317 149.435 -127.483 149.269 -127.483 149.102H-129.582C-129.582 149.324 -129.748 149.435 -129.969 149.435C-130.19 149.435 -130.355 149.269 -130.355 149.102H-132.51C-132.51 149.324 -132.675 149.435 -132.896 149.435C-133.117 149.435 -133.283 149.269 -133.283 149.102H-135.437C-135.437 149.269 -135.603 149.435 -135.769 149.435V151.934H-135.603ZM-135.603 147.992H-77.9874V139.998H-135.603V147.992ZM-135.603 138.61H-77.9874V130.117H-135.603V138.61ZM-135.603 128.673H-117.429V70.4394H-135.603V128.673ZM-113.396 -8.39009H-115.993V29.2482H-113.396V-8.39009ZM-109.53 -8.39009H-112.071V29.2482H-109.53V-8.39009ZM-110.137 30.6361C-104.448 32.579 -99.8626 37.0757 -97.8187 42.7936V30.6361H-110.137ZM-105.608 -8.39009H-108.149V29.2482H-105.608V-8.39009ZM-101.686 -8.39009H-104.227V29.2482H-101.686V-8.39009ZM-100.305 -8.39009V29.2482H-97.7635V-8.39009H-100.305ZM-97.8187 69.0516V56.8385C-99.9178 62.612 -104.613 67.1641 -110.414 69.0516H-97.8187ZM-118.258 67.2751L-116.49 68.663C-106.27 68.6075 -97.9292 60.1694 -97.9292 49.7883C-97.9292 39.5183 -106.105 31.1357 -116.214 30.9136L-120.081 42.294L-123.561 51.7313C-123.726 52.1199 -123.671 52.5085 -123.45 52.8971C-123.229 53.2301 -122.898 53.5077 -122.511 53.5632L-119.528 54.0629C-119.307 54.1184 -119.086 54.2849 -118.976 54.507C-118.921 54.618 -118.921 54.7845 -118.976 54.9511L-119.473 57.2827C-118.921 57.6713 -118.258 57.8378 -117.54 57.8933L-116.656 57.9488C-116.269 57.9488 -115.938 58.3374 -115.993 58.726C-115.993 59.1146 -116.324 59.3922 -116.711 59.3922H-116.766L-118.368 59.2811L-118.755 60.2804L-117.429 61.4462C-117.319 61.5572 -117.263 61.6682 -117.208 61.7793C-117.153 62.0568 -117.208 62.3344 -117.429 62.5565L-118.368 63.3337C-118.921 63.7778 -119.197 64.4439 -119.197 65.1656C-119.307 66.0538 -118.921 66.831 -118.258 67.2751ZM-119.031 68.4964L-119.086 68.4409C-120.081 67.7192 -120.688 66.4979 -120.743 65.2766C-120.799 64.1108 -120.302 63.0006 -119.418 62.2789L-119.141 62.0013L-120.191 61.0576C-120.412 60.8355 -120.467 60.5024 -120.357 60.2249L-119.804 58.837L-120.743 58.2264C-121.02 58.0598 -121.13 57.7268 -121.075 57.4492L-120.633 55.3397L-122.843 54.9511C-123.671 54.84 -124.334 54.3404 -124.776 53.6188C-125.163 52.8971 -125.273 52.0088 -124.942 51.2317L-121.462 41.7943L-117.76 30.9136C-127.538 31.5243 -135.272 39.7403 -135.272 49.7328C-135.272 59.3922 -128.146 67.3306 -119.031 68.4964ZM-135.603 43.3487C-133.614 37.4087 -128.974 32.6901 -123.064 30.6361H-135.603V43.3487ZM-135.603 -5.78094C-135.437 -5.72543 -135.272 -5.6144 -135.272 -5.39235C-135.272 -5.17029 -135.437 -5.00375 -135.603 -5.00375V-2.7832C-135.437 -2.72769 -135.272 -2.61666 -135.272 -2.39461C-135.272 -2.17255 -135.437 -2.00601 -135.603 -2.00601V0.214536C-135.437 0.270049 -135.272 0.381082 -135.272 0.603136C-135.272 0.825191 -135.437 0.991733 -135.603 0.991733V3.21228C-135.437 3.26779 -135.272 3.37882 -135.272 3.60088C-135.272 3.82293 -135.437 3.98947 -135.603 3.98947V6.21002C-135.437 6.26553 -135.272 6.37656 -135.272 6.59862C-135.272 6.82067 -135.437 6.98722 -135.603 6.98722V9.20777C-135.437 9.26328 -135.272 9.37431 -135.272 9.59636C-135.272 9.81841 -135.437 9.98495 -135.603 9.98495V12.2055C-135.437 12.261 -135.272 12.372 -135.272 12.5941C-135.272 12.8162 -135.437 12.9827 -135.603 12.9827V15.2032C-135.437 15.2588 -135.272 15.3698 -135.272 15.5918C-135.272 15.8139 -135.437 15.9804 -135.603 15.9804V18.201C-135.437 18.2565 -135.272 18.3675 -135.272 18.5896C-135.272 18.8116 -135.437 18.9782 -135.603 18.9782V21.1987C-135.437 21.2542 -135.272 21.3653 -135.272 21.5873C-135.272 21.8094 -135.437 21.9759 -135.603 21.9759V24.1965C-135.437 24.252 -135.272 24.363 -135.272 24.5851C-135.272 24.8071 -135.437 24.9737 -135.603 24.9737V27.1942C-135.437 27.2497 -135.272 27.3607 -135.272 27.5828C-135.272 27.8049 -135.437 27.9714 -135.603 27.9714V29.0262H-134.609C-134.609 28.8041 -134.443 28.6931 -134.222 28.6931C-134.001 28.6931 -133.835 28.8596 -133.835 29.0262H-131.681C-131.681 28.8041 -131.515 28.6931 -131.294 28.6931C-131.073 28.6931 -130.908 28.8596 -130.908 29.0262H-128.864C-128.864 28.8041 -128.698 28.6931 -128.477 28.6931C-128.256 28.6931 -128.09 28.8596 -128.09 29.0262H-126.047C-126.047 28.8041 -125.881 28.6931 -125.66 28.6931C-125.439 28.6931 -125.273 28.8596 -125.273 29.0262H-123.174C-123.174 28.8041 -123.008 28.6931 -122.787 28.6931C-122.566 28.6931 -122.401 28.8596 -122.401 29.0262H-120.302C-120.302 28.8041 -120.136 28.6931 -119.915 28.6931C-119.694 28.6931 -119.528 28.8596 -119.528 29.0262H-117.595V-8.61215H-117.981C-117.981 -8.39009 -118.147 -8.27906 -118.368 -8.27906C-118.589 -8.27906 -118.755 -8.4456 -118.755 -8.61215H-120.909C-120.909 -8.39009 -121.075 -8.27906 -121.296 -8.27906C-121.517 -8.27906 -121.683 -8.4456 -121.683 -8.61215H-123.837C-123.837 -8.39009 -124.003 -8.27906 -124.224 -8.27906C-124.445 -8.27906 -124.61 -8.4456 -124.61 -8.61215H-126.709C-126.709 -8.39009 -126.875 -8.27906 -127.096 -8.27906C-127.317 -8.27906 -127.483 -8.4456 -127.483 -8.61215H-129.582C-129.582 -8.39009 -129.748 -8.27906 -129.969 -8.27906C-130.19 -8.27906 -130.355 -8.4456 -130.355 -8.61215H-132.51C-132.51 -8.39009 -132.675 -8.27906 -132.896 -8.27906C-133.117 -8.27906 -133.283 -8.4456 -133.283 -8.61215H-135.437C-135.437 -8.4456 -135.603 -8.27906 -135.769 -8.27906V-5.78094H-135.603ZM-195.65 -8.33458H-233.489V-5.50337H-195.65V-8.33458ZM-195.65 -4.11553H-233.489V-1.5619H-195.65V-4.11553ZM-195.65 -0.17406H-233.489V2.37957H-195.65V-0.17406ZM-195.65 3.76742H-233.489V6.32104H-195.65V3.76742ZM-195.65 7.70889H-233.489V10.2625H-195.65V7.70889ZM-195.65 11.6504H-233.489V14.4261H-195.65V11.6504ZM-195.65 15.8139H-233.489V18.3675H-195.65V15.8139ZM-195.65 19.7554H-233.489V22.309H-195.65V19.7554ZM-195.65 23.6968H-233.489V26.2505H-195.65V23.6968ZM-195.65 27.6383H-233.489V30.192H-195.65V27.6383ZM-212.001 226.822C-203.217 225.489 -196.478 217.884 -196.478 208.669C-196.478 198.51 -204.654 190.294 -214.652 190.294C-224.706 190.294 -232.826 198.51 -232.826 208.669C-232.826 211.999 -231.942 215.108 -230.396 217.773L-229.567 219.05C-228.352 220.826 -226.805 222.381 -225.093 223.657L-222.938 221.492C-222.054 220.604 -221.944 219.272 -222.662 218.272L-225.093 214.664C-226.529 212.555 -226.253 209.668 -224.43 207.891L-211.172 194.568C-210.896 194.291 -210.399 194.291 -210.123 194.568L-208.962 195.734C-207.416 197.288 -207.25 199.731 -208.465 201.452L-207.471 202.451C-206.2 203.728 -205.924 205.726 -206.753 207.225L-205.869 208.113C-205.096 208.891 -204.654 209.945 -204.654 211.111C-204.654 212.221 -205.096 213.276 -205.869 214.109L-214.487 222.825C-214.514 222.88 -214.556 222.922 -214.597 222.963C-214.638 223.005 -214.68 223.047 -214.707 223.102C-214.716 223.11 -214.724 223.117 -214.732 223.124C-214.745 223.133 -214.757 223.141 -214.768 223.148C-214.797 223.166 -214.818 223.179 -214.818 223.213C-214.928 223.324 -215.094 223.38 -215.26 223.38C-215.426 223.38 -215.647 223.324 -215.757 223.158C-216.033 222.88 -216.033 222.38 -215.757 222.103L-215.481 221.825C-214.21 220.382 -214.1 218.217 -215.26 216.663L-218.243 212.444C-218.961 211.444 -218.851 210.001 -217.967 209.113L-209.957 201.008C-208.797 199.842 -208.797 197.954 -209.957 196.789L-210.62 196.122L-223.325 208.946C-224.651 210.279 -224.816 212.333 -223.767 213.887L-221.336 217.495C-220.287 219.105 -220.452 221.215 -221.833 222.603L-223.767 224.546C-221.778 225.711 -219.569 226.544 -217.193 226.877H-212.001V226.822ZM-215.26 253.135C-217.249 259.02 -221.833 263.738 -227.634 265.792H-215.26V253.135ZM-209.404 109.466C-201.56 111.686 -195.705 118.514 -194.876 126.786C-194.048 118.459 -188.192 111.686 -180.348 109.466H-209.404ZM-185.596 70.4394H-194.268V108.078H-185.596V70.4394ZM-213.492 110.132V147.381C-203.825 146.66 -196.147 138.61 -196.147 128.729C-196.147 118.958 -203.77 110.853 -213.492 110.132ZM-193.55 128.784C-193.55 138.61 -185.872 146.715 -176.205 147.437V110.187C-185.872 110.853 -193.55 118.958 -193.55 128.784ZM-194.821 130.783C-195.594 138.832 -201.174 145.494 -208.631 147.881H-180.956C-188.468 145.494 -194.048 138.832 -194.821 130.783ZM-195.65 189.35H-210.343C-203.107 191.015 -197.362 196.733 -195.65 204.005V189.35ZM-195.65 213.276C-197.086 219.383 -201.339 224.379 -206.974 226.822H-195.65V213.276ZM-213.161 219.161L-206.974 212.943C-206.477 212.444 -206.2 211.722 -206.2 211C-206.2 210.278 -206.477 209.557 -206.974 209.057L-207.747 208.28L-214.542 215.164L-214.21 215.608C-213.437 216.663 -213.105 217.939 -213.161 219.161ZM-208.576 207.059C-207.581 206.059 -207.581 204.339 -208.576 203.339L-209.515 202.396L-217.028 210.001C-217.414 210.39 -217.469 210.945 -217.138 211.389L-215.37 213.887L-208.576 207.059ZM-233.434 214.109V226.766H-222.331C-227.689 224.49 -231.832 219.827 -233.434 214.109ZM-218.961 189.35H-233.434V203.117C-231.501 196.234 -225.921 190.904 -218.961 189.35ZM-195.65 187.962V185.408H-233.489V187.962H-195.65ZM-195.65 184.021V181.467H-233.489V184.021H-195.65ZM-195.65 180.079V177.525H-233.489V180.079H-195.65ZM-195.65 176.082V173.528H-233.489V176.082H-195.65ZM-195.65 172.141V169.365H-233.489V172.141H-195.65ZM-195.65 168.033V165.479H-233.489V168.033H-195.65ZM-195.65 164.091V161.537H-233.489V164.091H-195.65ZM-195.65 160.15V157.596H-233.489V160.15H-195.65ZM-195.65 156.153V153.599H-233.489V156.153H-195.65ZM-195.65 152.211V149.38H-233.489V152.211H-195.65ZM-233.379 109.466L-215.205 145.716V109.466H-233.379ZM-215.26 108.078V95.4206C-217.249 101.305 -221.833 106.024 -227.634 108.078H-215.26ZM-215.536 89.9803H-252.989C-252.271 99.9172 -244.151 107.8 -234.263 107.8C-224.375 107.856 -216.254 99.9727 -215.536 89.9803ZM-240.947 108.078C-246.692 106.024 -251.221 101.416 -253.265 95.5316V108.078H-240.947ZM-253.265 109.466V145.272L-235.312 109.466H-253.265ZM-215.26 88.5924V79.7657H-253.265V88.5924H-215.26ZM-212.001 69.0516C-203.217 67.7192 -196.478 60.1139 -196.478 50.8986C-196.478 40.7396 -204.654 32.5235 -214.652 32.5235C-224.706 32.5235 -232.826 40.7396 -232.826 50.8986C-232.826 54.2294 -231.942 57.3382 -230.396 60.0028L-229.567 61.2796C-228.352 63.0561 -226.805 64.6105 -225.093 65.8873L-222.938 63.7222C-222.054 62.834 -221.944 61.5017 -222.662 60.5024L-225.093 56.8941C-226.529 54.7845 -226.253 51.8978 -224.43 50.1214L-211.172 36.7981C-210.896 36.5205 -210.399 36.5205 -210.123 36.7981L-208.962 37.9639C-207.416 39.5183 -207.25 41.9609 -208.465 43.6818L-207.471 44.681C-206.2 45.9578 -205.924 47.9563 -206.753 49.4552L-205.869 50.3434C-205.096 51.1206 -204.654 52.1754 -204.654 53.3412C-204.654 54.4515 -205.096 55.5062 -205.869 56.3389L-214.542 64.9436C-214.569 64.9991 -214.611 65.0407 -214.652 65.0823C-214.694 65.124 -214.735 65.1656 -214.763 65.2211C-214.784 65.2423 -214.805 65.2554 -214.823 65.2666C-214.852 65.2847 -214.873 65.2978 -214.873 65.3322C-214.984 65.4432 -215.149 65.4987 -215.315 65.4987C-215.481 65.4987 -215.702 65.4432 -215.812 65.2766C-216.088 64.9991 -216.088 64.4994 -215.812 64.2219L-215.536 63.9443C-214.266 62.501 -214.155 60.3359 -215.315 58.7815L-218.298 54.5625C-219.016 53.5632 -218.906 52.1199 -218.022 51.2317L-210.012 43.1267C-208.852 41.9609 -208.852 40.0734 -210.012 38.9076L-210.675 38.2414L-223.38 51.0651C-224.706 52.3974 -224.872 54.4515 -223.822 56.0058L-221.392 59.6142C-220.342 61.2241 -220.508 63.3337 -221.889 64.7215L-223.822 66.6645C-221.833 67.8303 -219.624 68.663 -217.249 68.996H-212.001V69.0516ZM-213.161 61.3907L-206.974 55.1731C-206.477 54.6735 -206.2 53.9518 -206.2 53.2301C-206.2 52.5085 -206.477 51.7868 -206.974 51.2872L-207.747 50.51L-214.542 57.3937L-214.21 57.8378C-213.437 58.9481 -213.105 60.1694 -213.161 61.3907ZM-208.576 49.3442C-207.581 48.3449 -207.581 46.624 -208.576 45.6248L-209.515 44.681L-217.028 52.2864C-217.414 52.675 -217.469 53.2302 -217.138 53.6743L-215.37 56.1724L-208.576 49.3442ZM-233.434 56.3944V69.0516H-222.331C-227.689 66.7755 -231.832 62.1124 -233.434 56.3944ZM-218.961 31.5798H-233.434V45.3472C-231.501 38.519 -225.921 33.1897 -218.961 31.5798ZM-195.65 31.5798H-210.343C-203.107 33.2452 -197.362 38.9631 -195.65 46.2354V31.5798ZM-195.65 55.5062C-197.086 61.6127 -201.339 66.6089 -206.974 69.0516H-195.65V55.5062ZM-195.76 70.4394H-196.091C-196.091 70.6615 -196.257 70.7725 -196.478 70.7725C-196.699 70.7725 -196.865 70.6059 -196.865 70.4394H-199.019C-199.019 70.6615 -199.185 70.7725 -199.406 70.7725C-199.627 70.7725 -199.793 70.6059 -199.793 70.4394H-201.947C-201.947 70.6615 -202.113 70.7725 -202.334 70.7725C-202.555 70.7725 -202.72 70.6059 -202.72 70.4394H-204.819C-204.819 70.6615 -204.985 70.7725 -205.206 70.7725C-205.427 70.7725 -205.593 70.6059 -205.593 70.4394H-207.692C-207.692 70.6615 -207.858 70.7725 -208.079 70.7725C-208.3 70.7725 -208.465 70.6059 -208.465 70.4394H-210.62C-210.62 70.6615 -210.785 70.7725 -211.006 70.7725C-211.227 70.7725 -211.393 70.6059 -211.393 70.4394H-213.547C-213.547 70.6059 -213.713 70.7725 -213.824 70.7725V72.993C-213.658 73.0486 -213.492 73.2151 -213.492 73.3816C-213.492 73.5482 -213.603 73.7147 -213.824 73.7702V75.9908C-213.658 76.0463 -213.492 76.2128 -213.492 76.3794C-213.492 76.5459 -213.603 76.7124 -213.824 76.768V78.9885C-213.658 79.044 -213.492 79.2106 -213.492 79.3771C-213.492 79.5437 -213.603 79.7102 -213.824 79.7657V81.9863C-213.658 82.0418 -213.492 82.2083 -213.492 82.3749C-213.492 82.5414 -213.603 82.7079 -213.824 82.7635V84.984C-213.658 85.0395 -213.492 85.2061 -213.492 85.3726C-213.492 85.5391 -213.603 85.7057 -213.824 85.7612V87.9818C-213.658 88.0373 -213.492 88.2038 -213.492 88.3704C-213.492 88.5369 -213.603 88.7034 -213.824 88.7589V90.9795C-213.658 91.035 -213.492 91.2015 -213.492 91.3681C-213.492 91.5346 -213.603 91.7012 -213.824 91.7567V93.9772C-213.658 94.0327 -213.492 94.1993 -213.492 94.3658C-213.492 94.5324 -213.603 94.6989 -213.824 94.7544V96.975C-213.658 97.0305 -213.492 97.197 -213.492 97.3636C-213.492 97.5301 -213.603 97.6967 -213.824 97.7522V99.9727C-213.658 100.028 -213.492 100.195 -213.492 100.361C-213.492 100.528 -213.603 100.694 -213.824 100.75V102.97C-213.658 103.026 -213.492 103.193 -213.492 103.359C-213.492 103.526 -213.603 103.692 -213.824 103.748V105.968C-213.658 106.024 -213.492 106.19 -213.492 106.357C-213.492 106.523 -213.603 106.69 -213.824 106.745V107.8H-212.885C-212.885 107.578 -212.719 107.467 -212.498 107.467C-212.277 107.467 -212.111 107.634 -212.111 107.8H-209.957C-209.957 107.578 -209.791 107.467 -209.57 107.467C-209.349 107.467 -209.183 107.634 -209.183 107.8H-207.14C-207.14 107.578 -206.974 107.467 -206.753 107.467C-206.532 107.467 -206.366 107.634 -206.366 107.8H-204.322C-204.322 107.578 -204.157 107.467 -203.936 107.467C-203.715 107.467 -203.549 107.634 -203.549 107.8H-201.45C-201.45 107.578 -201.284 107.467 -201.063 107.467C-200.842 107.467 -200.676 107.634 -200.676 107.8H-198.577C-198.577 107.578 -198.412 107.467 -198.191 107.467C-197.97 107.467 -197.804 107.634 -197.804 107.8H-195.76V70.4394ZM-177.807 -8.33458C-177.862 -8.16804 -178.028 -8.05701 -178.194 -8.05701C-178.359 -8.05701 -178.525 -8.16804 -178.58 -8.33458H-180.735C-180.79 -8.16804 -180.956 -8.05701 -181.121 -8.05701C-181.287 -8.05701 -181.453 -8.16804 -181.508 -8.33458H-183.662C-183.718 -8.16804 -183.883 -8.05701 -184.049 -8.05701C-184.215 -8.05701 -184.38 -8.16804 -184.436 -8.33458H-186.645C-186.701 -8.16804 -186.866 -8.05701 -187.032 -8.05701C-187.198 -8.05701 -187.363 -8.16804 -187.419 -8.33458H-189.518C-189.573 -8.16804 -189.739 -8.05701 -189.905 -8.05701C-190.07 -8.05701 -190.236 -8.16804 -190.291 -8.33458H-192.501C-192.556 -8.16804 -192.722 -8.05701 -192.887 -8.05701C-193.053 -8.05701 -193.219 -8.16804 -193.274 -8.33458H-194.434V-7.33533H-194.379C-194.158 -7.33533 -193.992 -7.16879 -193.992 -6.94673C-193.992 -6.72468 -194.158 -6.55814 -194.379 -6.55814H-194.434V-4.33759H-194.379C-194.158 -4.33759 -193.992 -4.17105 -193.992 -3.949C-193.992 -3.72694 -194.158 -3.56039 -194.379 -3.56039H-194.434V-1.33984H-194.379C-194.158 -1.33984 -193.992 -1.1733 -193.992 -0.951248C-193.992 -0.729194 -194.158 -0.562654 -194.379 -0.562654H-194.434V1.6579H-194.379C-194.158 1.6579 -193.992 1.82444 -193.992 2.04649C-193.992 2.26855 -194.158 2.43508 -194.379 2.43508H-194.434V4.65563H-194.379C-194.158 4.65563 -193.992 4.82218 -193.992 5.04424C-193.992 5.26629 -194.158 5.43283 -194.379 5.43283H-194.434V7.65338H-194.379C-194.158 7.65338 -193.992 7.81992 -193.992 8.04198C-193.992 8.26403 -194.158 8.43057 -194.379 8.43057H-194.434V10.6511H-194.379C-194.158 10.6511 -193.992 10.8177 -193.992 11.0397C-193.992 11.2618 -194.158 11.4283 -194.379 11.4283H-194.434V13.6489H-194.379C-194.158 13.6489 -193.992 13.8154 -193.992 14.0375C-193.992 14.2595 -194.158 14.4261 -194.379 14.4261H-194.434V16.6466H-194.379C-194.158 16.6466 -193.992 16.8131 -193.992 17.0352C-193.992 17.2573 -194.158 17.4238 -194.379 17.4238H-194.434V19.6443H-194.379C-194.158 19.6443 -193.992 19.8109 -193.992 20.0329C-193.992 20.255 -194.158 20.4215 -194.379 20.4215H-194.434V22.6421H-194.379C-194.158 22.6421 -193.992 22.8086 -193.992 23.0307C-193.992 23.2527 -194.158 23.4193 -194.379 23.4193H-194.434V25.6398H-194.379C-194.158 25.6398 -193.992 25.8064 -193.992 26.0284C-193.992 26.2505 -194.158 26.417 -194.379 26.417H-194.434V28.6376H-194.379C-194.158 28.6376 -193.992 28.8041 -193.992 29.0262C-193.992 29.2482 -194.158 29.4148 -194.379 29.4148H-194.434V31.6353H-194.379C-194.158 31.6353 -193.992 31.8018 -193.992 32.0239C-193.992 32.246 -194.158 32.4125 -194.379 32.4125H-194.434V34.633H-194.379C-194.158 34.633 -193.992 34.7996 -193.992 35.0216C-193.992 35.2437 -194.158 35.4102 -194.379 35.4102H-194.434V37.6308H-194.379C-194.158 37.6308 -193.992 37.7973 -193.992 38.0194C-193.992 38.2414 -194.158 38.408 -194.379 38.408H-194.434V40.6285H-194.379C-194.158 40.6285 -193.992 40.7951 -193.992 41.0171C-193.992 41.2392 -194.158 41.4057 -194.379 41.4057H-194.434V43.6263H-194.379C-194.158 43.6263 -193.992 43.7928 -193.992 44.0149C-193.992 44.2369 -194.158 44.4035 -194.379 44.4035H-194.434V46.624H-194.379C-194.158 46.624 -193.992 46.7906 -193.992 47.0126C-193.992 47.2347 -194.158 47.4012 -194.379 47.4012H-194.434V49.6218H-194.379C-194.158 49.6218 -193.992 49.7883 -193.992 50.0104C-193.992 50.2324 -194.158 50.3989 -194.379 50.3989H-194.434V52.6195H-194.379C-194.158 52.6195 -193.992 52.786 -193.992 53.0081C-193.992 53.2301 -194.158 53.3967 -194.379 53.3967H-194.434V55.6172H-194.379C-194.158 55.6172 -193.992 55.7838 -193.992 56.0058C-193.992 56.2279 -194.158 56.3944 -194.379 56.3944H-194.434V58.615H-194.379C-194.158 58.615 -193.992 58.7815 -193.992 59.0036C-193.992 59.2256 -194.158 59.3922 -194.379 59.3922H-194.434V61.6127H-194.379C-194.158 61.6127 -193.992 61.7793 -193.992 62.0013C-193.992 62.2234 -194.158 62.3899 -194.379 62.3899H-194.434V64.6105H-194.379C-194.158 64.6105 -193.992 64.777 -193.992 64.9991C-193.992 65.2211 -194.158 65.3876 -194.379 65.3876H-194.434V67.6082H-194.379C-194.158 67.6082 -193.992 67.7747 -193.992 67.9968C-193.992 68.2189 -194.158 68.3854 -194.379 68.3854H-194.434V68.5519H-175.984V-8.8342H-177.807V-8.33458ZM-175.818 70.4394H-184.215V108.078H-175.818V70.4394ZM-177.807 149.38C-177.862 149.546 -178.028 149.658 -178.194 149.658C-178.359 149.658 -178.525 149.546 -178.58 149.38H-180.735C-180.79 149.546 -180.956 149.658 -181.121 149.658C-181.287 149.658 -181.453 149.546 -181.508 149.38H-183.662C-183.718 149.546 -183.883 149.658 -184.049 149.658C-184.215 149.658 -184.38 149.546 -184.436 149.38H-186.645C-186.701 149.546 -186.866 149.658 -187.032 149.658C-187.198 149.658 -187.363 149.546 -187.419 149.38H-189.518C-189.573 149.546 -189.739 149.658 -189.905 149.658C-190.07 149.658 -190.236 149.546 -190.291 149.38H-192.501C-192.556 149.546 -192.722 149.658 -192.887 149.658C-193.053 149.658 -193.219 149.546 -193.274 149.38H-194.434V150.379H-194.379C-194.158 150.379 -193.992 150.546 -193.992 150.768C-193.992 150.99 -194.158 151.156 -194.379 151.156H-194.434V153.377H-194.379C-194.158 153.377 -193.992 153.543 -193.992 153.766C-193.992 153.988 -194.158 154.154 -194.379 154.154H-194.434V156.375H-194.379C-194.158 156.375 -193.992 156.541 -193.992 156.763C-193.992 156.985 -194.158 157.152 -194.379 157.152H-194.434V159.372H-194.379C-194.158 159.372 -193.992 159.539 -193.992 159.761C-193.992 159.983 -194.158 160.15 -194.379 160.15H-194.434V162.37H-194.379C-194.158 162.37 -193.992 162.537 -193.992 162.759C-193.992 162.981 -194.158 163.147 -194.379 163.147H-194.434V165.368H-194.379C-194.158 165.368 -193.992 165.534 -193.992 165.756C-193.992 165.979 -194.158 166.145 -194.379 166.145H-194.434V168.366H-194.379C-194.158 168.366 -193.992 168.532 -193.992 168.754C-193.992 168.976 -194.158 169.143 -194.379 169.143H-194.434V171.363H-194.379C-194.158 171.363 -193.992 171.53 -193.992 171.752C-193.992 171.974 -194.158 172.141 -194.379 172.141H-194.434V174.361H-194.379C-194.158 174.361 -193.992 174.528 -193.992 174.75C-193.992 174.972 -194.158 175.138 -194.379 175.138H-194.434V177.359H-194.379C-194.158 177.359 -193.992 177.525 -193.992 177.747C-193.992 177.97 -194.158 178.136 -194.379 178.136H-194.434V180.357H-194.379C-194.158 180.357 -193.992 180.523 -193.992 180.745C-193.992 180.967 -194.158 181.134 -194.379 181.134H-194.434V183.354H-194.379C-194.158 183.354 -193.992 183.521 -193.992 183.743C-193.992 183.965 -194.158 184.132 -194.379 184.132H-194.434V186.352H-194.379C-194.158 186.352 -193.992 186.519 -193.992 186.741C-193.992 186.963 -194.158 187.129 -194.379 187.129H-194.434V189.35H-194.379C-194.158 189.35 -193.992 189.516 -193.992 189.738C-193.992 189.96 -194.158 190.127 -194.379 190.127H-194.434V192.348H-194.379C-194.158 192.348 -193.992 192.514 -193.992 192.736C-193.992 192.958 -194.158 193.125 -194.379 193.125H-194.434V195.345H-194.379C-194.158 195.345 -193.992 195.512 -193.992 195.734C-193.992 195.956 -194.158 196.122 -194.379 196.122H-194.434V198.343H-194.379C-194.158 198.343 -193.992 198.51 -193.992 198.732C-193.992 198.954 -194.158 199.12 -194.379 199.12H-194.434V201.341H-194.379C-194.158 201.341 -193.992 201.507 -193.992 201.729C-193.992 201.951 -194.158 202.118 -194.379 202.118H-194.434V204.339H-194.379C-194.158 204.339 -193.992 204.505 -193.992 204.727C-193.992 204.949 -194.158 205.116 -194.379 205.116H-194.434V207.336H-194.379C-194.158 207.336 -193.992 207.503 -193.992 207.725C-193.992 207.947 -194.158 208.113 -194.379 208.113H-194.434V210.334H-194.379C-194.158 210.334 -193.992 210.501 -193.992 210.723C-193.992 210.945 -194.158 211.111 -194.379 211.111H-194.434V213.332H-194.379C-194.158 213.332 -193.992 213.498 -193.992 213.72C-193.992 213.942 -194.158 214.109 -194.379 214.109H-194.434V216.33H-194.379C-194.158 216.33 -193.992 216.496 -193.992 216.718C-193.992 216.94 -194.158 217.107 -194.379 217.107H-194.434V219.327H-194.379C-194.158 219.327 -193.992 219.494 -193.992 219.716C-193.992 219.938 -194.158 220.104 -194.379 220.104H-194.434V222.325H-194.379C-194.158 222.325 -193.992 222.492 -193.992 222.714C-193.992 222.936 -194.158 223.102 -194.379 223.102H-194.434V225.323H-194.379C-194.158 225.323 -193.992 225.489 -193.992 225.711C-193.992 225.933 -194.158 226.1 -194.379 226.1H-194.434V226.266H-175.984V148.88H-177.807V149.38ZM-194.268 228.154V265.792H-185.596V228.154H-194.268ZM-136.929 12.372L-173.498 31.0802L-136.929 49.7883V12.372ZM-136.929 52.2309L-169.852 69.0516H-136.929V52.2309ZM-149.192 97.8632L-146.762 94.2548C-145.712 92.7004 -145.933 90.6464 -147.204 89.3141L-159.909 76.4904L-160.517 77.1566C-161.677 78.3223 -161.677 80.2098 -160.517 81.3756L-152.507 89.4806C-151.623 90.3688 -151.512 91.7567 -152.231 92.8114L-155.214 97.0305C-156.318 98.6404 -156.208 100.75 -154.993 102.193L-154.716 102.471C-154.44 102.748 -154.44 103.248 -154.716 103.526C-154.882 103.692 -155.048 103.748 -155.214 103.748C-155.379 103.748 -155.49 103.692 -155.655 103.581C-155.677 103.56 -155.698 103.547 -155.716 103.536C-155.745 103.517 -155.766 103.504 -155.766 103.47C-155.821 103.415 -155.932 103.304 -155.987 103.193L-164.604 94.4769C-165.378 93.6997 -165.82 92.6449 -165.82 91.4791C-165.82 90.3688 -165.378 89.3141 -164.604 88.4814L-163.721 87.5931C-164.494 86.0388 -164.273 84.0958 -163.002 82.819L-162.008 81.8197C-163.223 80.0988 -163.058 77.6562 -161.511 76.1018L-160.351 74.936C-160.075 74.6585 -159.578 74.6585 -159.301 74.936L-146.044 88.2593C-144.221 90.0913 -144 92.9225 -145.381 95.032L-147.811 98.6404C-148.474 99.6396 -148.364 101.027 -147.535 101.86L-145.16 104.247C-143.282 103.026 -141.68 101.416 -140.409 99.6396L-139.58 98.3628C-137.923 95.5871 -136.984 92.3673 -136.984 88.9255C-136.984 78.7665 -145.16 70.5504 -155.158 70.5504C-165.212 70.5504 -173.332 78.7665 -173.332 88.9255C-173.332 99.0845 -165.157 107.301 -155.158 107.301H-154.772L-153.059 107.19C-150.684 106.912 -148.474 106.19 -146.486 105.08L-148.64 102.915C-150.076 101.638 -150.297 99.4731 -149.192 97.8632ZM-156.484 96.1423L-156.153 95.6982L-162.947 88.8145L-163.721 89.5917C-164.218 90.0913 -164.494 90.8129 -164.494 91.5346C-164.494 92.2563 -164.218 92.978 -163.721 93.4776L-157.534 99.6952C-157.589 98.4183 -157.202 97.197 -156.484 96.1423ZM-162.063 87.5931L-155.269 94.4213L-153.501 91.9232C-153.17 91.4791 -153.225 90.8685 -153.612 90.5354L-161.124 82.93L-162.063 83.8737C-163.113 84.873 -163.113 86.5384 -162.063 87.5931ZM-136.929 70.4394H-148.585C-143.226 72.4379 -138.918 76.768 -136.929 82.2083V70.4394ZM-136.929 95.8092C-139.083 101.749 -144 106.357 -150.131 108.078H-136.929V95.8092ZM-136.929 149.38H-172.559L-136.929 167.644V149.38ZM-136.929 170.142L-173.498 188.85L-136.929 207.614V170.142ZM-136.929 209.945L-169.852 226.766H-136.929V209.945ZM-136.929 228.154H-148.585C-143.226 230.152 -138.918 234.482 -136.929 239.923V228.154ZM-136.929 265.792V253.524C-139.083 259.464 -144 264.071 -150.131 265.792H-136.929ZM-154.882 265.126L-153.17 265.015C-150.794 264.737 -148.585 264.016 -146.596 262.906L-148.75 260.74C-150.131 259.353 -150.297 257.243 -149.248 255.633L-146.817 252.025C-145.767 250.47 -145.988 248.416 -147.259 247.084L-159.964 234.26L-160.572 234.927C-161.732 236.092 -161.732 237.98 -160.572 239.146L-152.562 247.251C-151.678 248.139 -151.568 249.527 -152.286 250.581L-155.269 254.8C-156.374 256.41 -156.263 258.52 -155.048 259.963L-154.772 260.241C-154.495 260.518 -154.495 261.018 -154.772 261.296C-154.937 261.462 -155.103 261.518 -155.269 261.518C-155.434 261.518 -155.545 261.462 -155.711 261.351C-155.732 261.33 -155.753 261.317 -155.771 261.306C-155.789 261.294 -155.804 261.285 -155.813 261.271C-155.818 261.263 -155.821 261.253 -155.821 261.24C-155.876 261.185 -155.987 261.074 -156.042 260.963L-164.66 252.247C-165.433 251.47 -165.875 250.415 -165.875 249.249C-165.875 248.139 -165.433 247.084 -164.66 246.251L-163.776 245.363C-164.549 243.809 -164.328 241.866 -163.058 240.589L-162.063 239.59C-163.279 237.869 -163.113 235.426 -161.566 233.872L-160.406 232.706C-160.13 232.428 -159.633 232.428 -159.357 232.706L-146.099 246.029C-144.276 247.861 -144.055 250.692 -145.436 252.802L-147.867 256.41C-148.529 257.41 -148.419 258.798 -147.59 259.63L-145.215 262.017C-143.337 260.796 -141.735 259.186 -140.464 257.41L-139.636 256.133C-137.979 253.357 -137.039 250.137 -137.039 246.696C-137.039 236.536 -145.215 228.32 -155.214 228.32C-165.267 228.32 -173.388 236.536 -173.388 246.696C-173.388 256.855 -165.212 265.071 -155.214 265.071C-155.158 265.126 -154.993 265.126 -154.882 265.126ZM-156.484 253.857L-156.153 253.413L-162.947 246.529L-163.721 247.306C-164.218 247.806 -164.494 248.527 -164.494 249.249C-164.494 249.971 -164.218 250.692 -163.721 251.192L-157.534 257.41C-157.589 256.188 -157.202 254.912 -156.484 253.857ZM-162.063 245.308L-155.269 252.136L-153.501 249.638C-153.17 249.194 -153.225 248.583 -153.612 248.25L-161.124 240.644L-162.063 241.588C-163.113 242.643 -163.113 244.308 -162.063 245.308ZM-174.437 265.792H-160.461C-167.532 263.849 -172.946 258.02 -174.437 250.748V265.792ZM-174.437 242.699C-173.056 235.981 -168.306 230.485 -162.008 228.154H-174.437V242.699ZM-174.437 226.822H-172.89L-137.702 208.78L-174.492 189.96V226.822H-174.437ZM-174.437 187.795L-137.537 168.921L-174.437 150.046V187.795ZM-174.437 147.992H-159.854H-136.929V145.438H-174.437V147.992ZM-174.437 144.051H-136.929V141.497H-174.437V144.051ZM-174.437 140.109H-136.929V137.556H-174.437V140.109ZM-174.437 136.168H-136.929V133.614H-174.437V136.168ZM-174.437 132.226H-136.929V129.673H-174.437V132.226ZM-174.437 128.285H-136.929V119.625H-174.437V128.285ZM-174.437 118.237H-136.929V109.466H-174.437V118.237ZM-174.437 108.078H-160.461C-167.532 106.135 -172.946 100.306 -174.437 93.0335V108.078ZM-174.437 84.984C-173.056 78.2668 -168.306 72.771 -162.008 70.4394H-174.437V84.984ZM-174.437 69.0516H-172.89L-137.702 51.0096L-174.492 32.1904V69.0516H-174.437ZM-174.437 30.0254L-137.537 11.1507L-174.437 -7.72392V30.0254ZM-175.818 228.154H-184.215V265.792H-175.818V228.154ZM-175.818 303.797L-176.205 267.902C-185.872 268.623 -193.55 276.673 -193.55 286.554C-193.55 296.38 -185.485 303.075 -175.818 303.797ZM-209.349 267.18C-201.505 269.401 -195.65 276.229 -194.821 284.5C-194.048 276.229 -188.137 269.401 -180.293 267.18H-209.349ZM-213.879 230.763C-213.713 230.819 -213.547 230.985 -213.547 231.152C-213.547 231.318 -213.658 231.485 -213.879 231.54V233.761C-213.713 233.816 -213.547 233.983 -213.547 234.149C-213.547 234.316 -213.658 234.482 -213.879 234.538V236.759C-213.713 236.814 -213.547 236.981 -213.547 237.147C-213.547 237.314 -213.658 237.48 -213.879 237.536V239.756C-213.713 239.812 -213.547 239.978 -213.547 240.145C-213.547 240.311 -213.658 240.478 -213.879 240.533V242.754C-213.713 242.81 -213.547 242.976 -213.547 243.143C-213.547 243.309 -213.658 243.476 -213.879 243.531V245.752C-213.713 245.807 -213.547 245.974 -213.547 246.14C-213.547 246.307 -213.658 246.473 -213.879 246.529V248.75C-213.713 248.805 -213.547 248.972 -213.547 249.138C-213.547 249.305 -213.658 249.471 -213.879 249.527V251.747C-213.713 251.803 -213.547 251.969 -213.547 252.136C-213.547 252.302 -213.658 252.469 -213.879 252.524V254.745C-213.713 254.801 -213.547 254.967 -213.547 255.134C-213.547 255.3 -213.658 255.467 -213.879 255.522V257.743C-213.713 257.798 -213.547 257.965 -213.547 258.131C-213.547 258.298 -213.658 258.464 -213.879 258.52V260.74C-213.713 260.796 -213.547 260.963 -213.547 261.129C-213.547 261.296 -213.658 261.462 -213.879 261.518V263.738C-213.713 263.794 -213.547 263.96 -213.547 264.127C-213.547 264.293 -213.658 264.46 -213.879 264.515V265.57H-212.885C-212.885 265.348 -212.719 265.237 -212.498 265.237C-212.277 265.237 -212.111 265.404 -212.111 265.57H-209.957C-209.957 265.348 -209.791 265.237 -209.57 265.237C-209.349 265.237 -209.183 265.404 -209.183 265.57H-207.14C-207.14 265.348 -206.974 265.237 -206.753 265.237C-206.532 265.237 -206.366 265.404 -206.366 265.57H-204.322C-204.322 265.348 -204.157 265.237 -203.936 265.237C-203.715 265.237 -203.549 265.404 -203.549 265.57H-201.45C-201.45 265.348 -201.284 265.237 -201.063 265.237C-200.842 265.237 -200.676 265.404 -200.676 265.57H-198.577C-198.577 265.348 -198.412 265.237 -198.191 265.237C-197.97 265.237 -197.804 265.404 -197.804 265.57H-195.76V228.154H-196.202C-196.202 228.376 -196.368 228.487 -196.589 228.487C-196.81 228.487 -196.975 228.32 -196.975 228.154H-199.13C-199.13 228.376 -199.295 228.487 -199.516 228.487C-199.737 228.487 -199.903 228.32 -199.903 228.154H-202.057C-202.057 228.376 -202.223 228.487 -202.444 228.487C-202.665 228.487 -202.831 228.32 -202.831 228.154H-204.93C-204.93 228.376 -205.096 228.487 -205.317 228.487C-205.538 228.487 -205.703 228.32 -205.703 228.154H-207.802C-207.802 228.376 -207.968 228.487 -208.189 228.487C-208.41 228.487 -208.576 228.32 -208.576 228.154H-210.73C-210.73 228.376 -210.896 228.487 -211.117 228.487C-211.338 228.487 -211.504 228.32 -211.504 228.154H-213.658C-213.658 228.32 -213.824 228.487 -213.934 228.487V230.763H-213.879ZM-215.26 303.431V267.18H-233.434L-215.26 303.431ZM-234.263 265.57C-224.375 265.57 -216.254 257.687 -215.536 247.75H-252.989C-252.326 257.687 -244.151 265.57 -234.263 265.57ZM-253.265 302.986L-235.312 267.18H-253.265V302.986ZM-253.265 265.792H-240.947C-246.692 263.738 -251.221 259.131 -253.265 253.246V265.792ZM-253.265 246.362H-215.26V237.536H-253.265V246.362ZM-254.646 279.338V267.18H-266.965C-261.275 269.179 -256.745 273.675 -254.646 279.338ZM-270.279 228.154H-272.876V265.792H-270.279V228.154ZM-266.357 228.154H-268.898V265.792H-266.357V228.154ZM-262.435 228.154H-264.976V265.792H-262.435V228.154ZM-258.568 228.154H-261.109V265.792H-258.568V228.154ZM-257.187 228.154V265.792H-254.646V228.154H-257.187ZM-253.265 228.154V236.148H-215.26V228.154H-253.265ZM-215.702 147.881L-234.373 110.631L-253.044 147.881H-215.702ZM-292.099 128.618C-292.099 138.166 -285.029 146.105 -275.859 147.326L-275.914 147.27C-276.908 146.549 -277.516 145.327 -277.571 144.106C-277.626 142.94 -277.129 141.83 -276.245 141.108L-275.969 140.831L-277.019 139.887C-277.24 139.665 -277.295 139.332 -277.184 139.054L-276.632 137.667L-277.571 137.056C-277.847 136.889 -277.958 136.556 -277.903 136.279L-277.461 134.169L-279.67 133.781C-280.499 133.67 -281.162 133.17 -281.604 132.448C-281.99 131.727 -282.101 130.838 -281.769 130.061L-278.289 120.624L-274.588 109.743C-284.366 110.409 -292.099 118.625 -292.099 128.618ZM-276.963 121.179L-280.444 130.616C-280.609 131.005 -280.554 131.393 -280.333 131.782C-280.112 132.115 -279.781 132.393 -279.394 132.448L-276.411 132.948C-276.19 133.003 -275.969 133.17 -275.859 133.392C-275.803 133.503 -275.803 133.67 -275.859 133.836L-276.356 136.168C-275.803 136.556 -275.141 136.723 -274.422 136.778L-273.539 136.834C-273.152 136.834 -272.82 137.222 -272.876 137.611C-272.876 138 -273.207 138.277 -273.594 138.277H-273.649L-275.251 138.166L-275.638 139.165L-274.312 140.331C-274.201 140.442 -274.146 140.553 -274.091 140.664C-274.036 140.942 -274.091 141.219 -274.312 141.441L-275.251 142.219C-275.803 142.663 -276.08 143.329 -276.08 144.051C-276.08 144.828 -275.638 145.605 -275.03 146.105L-274.708 146.358L-273.262 147.492C-263.043 147.437 -254.702 138.999 -254.702 128.618C-254.702 118.348 -262.877 109.965 -272.986 109.743L-276.963 121.179ZM-266.965 147.77L-254.646 147.881V135.668C-256.745 141.33 -261.275 145.827 -266.965 147.77ZM-254.646 121.623V109.466H-266.965C-261.275 111.409 -256.745 115.905 -254.646 121.623ZM-270.279 70.4394H-272.876V108.078H-270.279V70.4394ZM-266.357 70.4394H-268.898V108.078H-266.357V70.4394ZM-262.435 70.4394H-264.976V108.078H-262.435V70.4394ZM-258.568 70.4394H-261.109V108.078H-258.568V70.4394ZM-257.187 70.4394V108.078H-254.646V70.4394H-257.187ZM-253.928 149.38H-272.876V207.614H-234.87V205.948C-234.981 205.893 -235.036 205.782 -235.036 205.671C-235.036 205.56 -234.981 205.449 -234.87 205.393V203.006C-234.981 202.951 -235.036 202.84 -235.036 202.729C-235.036 202.618 -234.981 202.507 -234.87 202.451V200.064C-234.981 200.008 -235.036 199.897 -235.036 199.786C-235.036 199.675 -234.981 199.564 -234.87 199.509V197.122C-234.981 197.066 -235.036 196.955 -235.036 196.844C-235.036 196.733 -234.981 196.622 -234.87 196.567V194.179C-234.981 194.124 -235.036 194.013 -235.036 193.902C-235.036 193.791 -234.981 193.68 -234.87 193.624V191.237C-234.981 191.182 -235.036 191.071 -235.036 190.96C-235.036 190.849 -234.981 190.738 -234.87 190.682V188.295C-234.981 188.24 -235.036 188.129 -235.036 188.017C-235.036 187.906 -234.981 187.795 -234.87 187.74V184.853C-234.981 184.798 -235.036 184.687 -235.036 184.576C-235.036 184.465 -234.981 184.354 -234.87 184.298V181.911C-234.981 181.855 -235.036 181.744 -235.036 181.633C-235.036 181.522 -234.981 181.411 -234.87 181.356V178.969C-234.981 178.913 -235.036 178.802 -235.036 178.691C-235.036 178.58 -234.981 178.469 -234.87 178.414V175.804V175.693V175.582V172.807V172.696V172.585V169.809V169.698V169.587V166.811V166.7V166.589V163.813V163.702V163.591V160.816V160.705V160.594V157.818V157.707V157.596V154.82V154.709V154.598V151.823V151.712V151.6V149.769L-253.928 149.38ZM-253.265 70.4394V78.4334H-215.26V70.4394H-253.265ZM-272.876 49.8993H-234.87V48.2339C-234.981 48.1784 -235.036 48.0674 -235.036 47.9563C-235.036 47.8453 -234.981 47.7343 -234.87 47.6788V45.2917C-234.981 45.2362 -235.036 45.1251 -235.036 45.0141C-235.036 44.9031 -234.981 44.7921 -234.87 44.7366V42.1829C-234.981 42.1274 -235.036 42.0164 -235.036 41.9053C-235.036 41.7943 -234.981 41.6833 -234.87 41.6278V39.2407C-234.981 39.1852 -235.036 39.0742 -235.036 38.9631C-235.036 38.8521 -234.981 38.7411 -234.87 38.6856V36.2985C-234.981 36.2429 -235.036 36.1319 -235.036 36.0209C-235.036 35.9099 -234.981 35.7988 -234.87 35.7433V33.3562C-234.981 33.3007 -235.036 33.1897 -235.036 33.0787C-235.036 32.9676 -234.981 32.8566 -234.87 32.8011V30.414C-234.981 30.3585 -235.036 30.2475 -235.036 30.1364C-235.036 30.0254 -234.981 29.9144 -234.87 29.8589V27.4718C-234.981 27.4163 -235.036 27.3052 -235.036 27.1942C-235.036 27.0832 -234.981 26.9722 -234.87 26.9166V24.5295C-234.981 24.474 -235.036 24.363 -235.036 24.252C-235.036 24.141 -234.981 24.0299 -234.87 23.9744V21.0877C-234.981 21.0322 -235.036 20.9212 -235.036 20.8101C-235.036 20.6991 -234.981 20.5881 -234.87 20.5326V17.9234V17.8124V17.7014V14.9257V14.8146V14.7036V11.9279V11.8169V11.7059V8.9302V8.81916V8.70814V5.93245V5.82143V5.7104V2.93471V2.82369V2.71265V-0.0630341V-0.17406V-0.285085V-3.06077V-3.1718V-3.28282V-6.05851V-6.16954V-6.28057V-8.33458H-253.928H-272.876V49.8993ZM-196.147 286.499C-196.147 276.673 -203.825 268.568 -213.492 267.846V303.81C-211.084 303.916 -208.046 303.096 -206.828 302.493C-206.769 302.46 -206.705 302.425 -206.635 302.386C-204.312 301.115 -196.147 296.644 -196.147 286.499Z" fill="#EAEAEA"/>
</g>
<defs>
<clipPath id="clip0_1057_31254">
<rect width="317" height="238" fill="white" transform="matrix(-1 0 0 1 25 -10)"/>
</clipPath>
</defs>
</svg>
