<svg width="98" height="241" viewBox="0 0 98 241" fill="none" xmlns="http://www.w3.org/2000/svg">
<path fill-rule="evenodd" clip-rule="evenodd" d="M-129.422 0.397705H-127.519H-70.7482L-71.3033 13.7602V15.7487V28.3953H-16.7529V16.385V13.3625C-16.7529 11.1354 -16.8322 0.397705 -16.8322 0.397705H41.8412V1.98848V56.0747C41.3387 56.2847 51.3628 56.2507 60.7945 56.2188C69.2219 56.1902 77.177 56.1632 76.728 56.3133H95.6779V55.677H97.5809V113.263H97.6602L97.6272 144.036L95.6779 144.999L43.1891 171.803L97.4223 200.358V342.334L41.9205 342.095V440.962H39.9383V438.973V341.221H37.1632C37.0839 341.459 36.846 341.618 36.6082 341.618C36.3703 341.618 36.1324 341.459 36.0532 341.221H32.9609C32.8816 341.459 32.6437 341.618 32.4059 341.618C32.168 341.618 31.9301 341.459 31.8508 341.221H28.7586C28.6793 341.459 28.4415 341.618 28.2036 341.618C27.9657 341.618 27.7279 341.459 27.6486 341.221H24.4771C24.3978 341.459 24.1599 341.618 23.922 341.618C23.6842 341.618 23.4463 341.459 23.367 341.221H20.354C20.2748 341.459 20.0369 341.618 19.799 341.618C19.5612 341.618 19.3233 341.459 19.244 341.221H16.0725C15.9932 341.459 15.7553 341.618 15.5174 341.618C15.2796 341.618 15.0417 341.459 14.9624 341.221H13.2974V342.652H13.3767C13.6938 342.652 13.9317 342.891 13.9317 343.209C13.9317 343.527 13.6938 343.766 13.3767 343.766H13.2974V346.947H13.3767C13.6938 346.947 13.9317 347.186 13.9317 347.504C13.9317 347.822 13.6938 348.061 13.3767 348.061H13.2974V351.242H13.3767C13.6938 351.242 13.9317 351.481 13.9317 351.799C13.9317 352.117 13.6938 352.356 13.3767 352.356H13.2974V355.538H13.3767C13.6938 355.538 13.9317 355.776 13.9317 356.094C13.9317 356.412 13.6938 356.651 13.3767 356.651H13.2974V359.833H13.3767C13.6938 359.833 13.9317 360.071 13.9317 360.389C13.9317 360.707 13.6938 360.946 13.3767 360.946H13.2974V364.128H13.3767C13.6938 364.128 13.9317 364.366 13.9317 364.684C13.9317 365.003 13.6938 365.241 13.3767 365.241H13.2974V368.423H13.3767C13.6938 368.423 13.9317 368.661 13.9317 368.98C13.9317 369.298 13.6938 369.536 13.3767 369.536H13.2974V372.718H13.3767C13.6938 372.718 13.9317 372.956 13.9317 373.275C13.9317 373.593 13.6938 373.831 13.3767 373.831H13.2974V377.013H13.3767C13.6938 377.013 13.9317 377.252 13.9317 377.57C13.9317 377.888 13.6938 378.126 13.3767 378.126H13.2974V381.308H13.3767C13.6938 381.308 13.9317 381.547 13.9317 381.865C13.9317 382.183 13.6938 382.422 13.3767 382.422H13.2974V385.603H13.3767C13.6938 385.603 13.9317 385.842 13.9317 386.16C13.9317 386.478 13.6938 386.717 13.3767 386.717H13.2974V389.898H13.3767C13.6938 389.898 13.9317 390.137 13.9317 390.455C13.9317 390.773 13.6938 391.012 13.3767 391.012H13.2974V394.193H13.3767C13.6938 394.193 13.9317 394.432 13.9317 394.75C13.9317 395.068 13.6938 395.307 13.3767 395.307H13.2974V398.488H13.3767C13.6938 398.488 13.9317 398.727 13.9317 399.045C13.9317 399.363 13.6938 399.602 13.3767 399.602H13.2974V402.783H13.3767C13.6938 402.783 13.9317 403.022 13.9317 403.34C13.9317 403.658 13.6938 403.897 13.3767 403.897H13.2974V407.078H13.3767C13.6938 407.078 13.9317 407.317 13.9317 407.635C13.9317 407.953 13.6938 408.192 13.3767 408.192H13.2974V411.374H13.3767C13.6938 411.374 13.9317 411.612 13.9317 411.93C13.9317 412.249 13.6938 412.487 13.3767 412.487H13.2974V415.669H13.3767C13.6938 415.669 13.9317 415.907 13.9317 416.225C13.9317 416.544 13.6938 416.782 13.3767 416.782H13.2974V419.964H13.3767C13.6938 419.964 13.9317 420.202 13.9317 420.521C13.9317 420.839 13.6938 421.077 13.3767 421.077H13.2974V424.259H13.3767C13.6938 424.259 13.9317 424.497 13.9317 424.816C13.9317 425.134 13.6938 425.372 13.3767 425.372H13.2974V428.554H13.3767C13.6938 428.554 13.9317 428.793 13.9317 429.111C13.9317 429.429 13.6938 429.667 13.3767 429.667H13.2974V432.849H13.3767C13.6938 432.849 13.9317 433.088 13.9317 433.406C13.9317 433.724 13.6938 433.963 13.3767 433.963H13.2974V437.144H13.3767C13.6938 437.144 13.9317 437.383 13.9317 437.701C13.9317 438.019 13.6938 438.258 13.3767 438.258H13.2974V438.973H13.3767C13.6938 438.973 13.9317 439.212 13.9317 439.53C13.9317 439.848 13.6938 440.087 13.3767 440.087H13.2974V440.246H11.3152V438.973V397.772H-42.9973V440.246H-44.9795V440.167H-127.677V440.246H-129.58V396.42H-183.417V451.381C-198.349 451.381 -211.068 443.537 -212.674 426.963C-213.784 438.417 -221.073 446.901 -231.618 450.401C-234.096 451.084 -236.792 451.381 -239.315 451.381H-242.566L-269.365 398.091L-296.165 451.381H-298.464V433.963C-301.477 442.155 -308.058 448.598 -316.304 451.381H-321.688C-322.807 451.533 -323.948 451.614 -325.105 451.62L-325.41 451.381H-328.911L-328.832 451.461C-329.017 451.436 -329.202 451.41 -329.385 451.381H-334.62C-343.024 448.518 -349.685 441.916 -352.618 433.485V414.317C-349.685 405.965 -343.104 399.284 -334.778 396.42H-352.618V394.432H-351.27C-351.27 394.114 -351.032 393.955 -350.715 393.955C-350.398 393.955 -350.16 394.193 -350.16 394.432H-347.068C-347.068 394.114 -346.83 393.955 -346.513 393.955C-346.196 393.955 -345.958 394.193 -345.958 394.432H-343.024C-343.024 394.114 -342.786 393.955 -342.469 393.955C-342.152 393.955 -341.914 394.193 -341.914 394.432H-338.981C-338.981 394.114 -338.743 393.955 -338.426 393.955C-338.108 393.955 -337.871 394.193 -337.871 394.432H-334.858C-334.858 394.114 -334.62 393.955 -334.303 393.955C-333.986 393.955 -333.748 394.193 -333.748 394.432H-330.417C-330.417 394.114 -330.18 393.955 -329.862 393.955C-329.545 393.955 -329.307 394.193 -329.307 394.432H-326.532V341.221H-327.087C-327.087 341.539 -327.325 341.698 -327.642 341.698C-327.96 341.698 -328.197 341.459 -328.197 341.221H-331.29C-331.29 341.539 -331.527 341.698 -331.845 341.698C-332.162 341.698 -332.4 341.459 -332.4 341.221H-335.492C-335.492 341.539 -335.73 341.698 -336.047 341.698C-336.364 341.698 -336.602 341.459 -336.602 341.221H-339.615C-339.615 341.539 -339.853 341.698 -340.17 341.698C-340.487 341.698 -340.725 341.459 -340.725 341.221H-343.738C-343.738 341.539 -343.976 341.698 -344.293 341.698C-344.61 341.698 -344.848 341.459 -344.848 341.221H-347.94C-347.94 341.539 -348.178 341.698 -348.495 341.698C-348.812 341.698 -349.05 341.459 -349.05 341.221H-352.143C-352.143 341.459 -352.301 341.618 -352.539 341.698V339.232H-269.921V327.938H-352.46V325.949H-269.921V313.78H-352.46V311.791H-326.453V228.355H-352.46V226.367H-333.748L-333.749 226.366C-334.462 226.128 -335.175 225.89 -335.175 225.81C-343.262 222.867 -349.685 216.345 -352.539 208.152V188.984C-349.605 180.632 -343.024 173.951 -334.699 171.088H-352.539V169.099H-351.191C-351.191 168.781 -350.953 168.622 -350.636 168.622C-350.319 168.622 -350.081 168.86 -350.081 169.099H-346.989C-346.989 168.781 -346.751 168.622 -346.434 168.622C-346.117 168.622 -345.879 168.86 -345.879 169.099H-342.945C-342.945 168.781 -342.707 168.622 -342.39 168.622C-342.073 168.622 -341.835 168.86 -341.835 169.099H-338.901C-338.901 168.781 -338.663 168.622 -338.346 168.622C-338.029 168.622 -337.791 168.86 -337.791 169.099H-334.778C-334.778 168.781 -334.54 168.622 -334.223 168.622C-333.906 168.622 -333.668 168.86 -333.668 169.099H-330.417C-330.417 168.781 -330.18 168.622 -329.862 168.622C-329.545 168.622 -329.307 168.86 -329.307 169.099H-326.532V115.172H-327.087C-327.087 115.49 -327.325 115.649 -327.642 115.649C-327.96 115.649 -328.197 115.41 -328.197 115.172H-331.29C-331.29 115.49 -331.527 115.649 -331.845 115.649C-332.162 115.649 -332.4 115.41 -332.4 115.172H-335.492C-335.492 115.49 -335.73 115.649 -336.047 115.649C-336.364 115.649 -336.602 115.41 -336.602 115.172H-339.615C-339.615 115.49 -339.853 115.649 -340.17 115.649C-340.487 115.649 -340.725 115.41 -340.725 115.172H-343.738C-343.738 115.49 -343.976 115.649 -344.293 115.649C-344.61 115.649 -344.848 115.41 -344.848 115.172H-347.94C-347.94 115.49 -348.178 115.649 -348.495 115.649C-348.812 115.649 -349.05 115.41 -349.05 115.172H-352.143C-352.143 115.41 -352.301 115.57 -352.539 115.649V113.183H-269.921V101.889H-352.46V99.9005H-269.921V87.7311H-352.46V85.7426H-326.453V2.30663H-352.46V0.397705H-185.478H-180.563V2.38617L-129.422 28.4748V2.38617V0.397705ZM-329.385 451.381C-342.277 449.391 -352.143 438.145 -352.143 424.656C-352.143 410.34 -341.042 398.568 -327.008 397.613L-332.32 413.203L-337.316 426.725C-337.791 427.838 -337.633 429.111 -337.078 430.145C-336.443 431.179 -335.492 431.895 -334.303 432.054L-331.131 432.61L-331.765 435.633C-331.845 436.031 -331.686 436.508 -331.29 436.746L-329.942 437.621L-330.735 439.61C-330.893 440.007 -330.814 440.485 -330.497 440.803L-328.99 442.155L-329.387 442.553C-330.655 443.587 -331.369 445.177 -331.29 446.848C-331.21 448.598 -330.338 450.347 -328.911 451.381H-329.385ZM-325.41 451.381C-327.642 449.632 -327.642 449.632 -327.642 449.632C-328.515 448.916 -329.149 447.802 -329.149 446.689C-329.149 445.655 -328.753 444.7 -327.96 444.064L-326.612 442.95C-326.294 442.632 -326.215 442.235 -326.294 441.837C-326.374 441.678 -326.453 441.519 -326.612 441.36L-328.515 439.689L-327.96 438.258L-325.66 438.417H-325.581C-325.026 438.417 -324.55 438.019 -324.55 437.462C-324.471 436.905 -324.947 436.349 -325.502 436.349L-326.77 436.269C-327.801 436.19 -328.753 435.951 -329.545 435.394L-328.832 432.054C-328.752 431.815 -328.752 431.576 -328.832 431.417C-328.99 431.099 -329.307 430.861 -329.625 430.781L-333.906 430.065C-334.461 429.986 -334.937 429.588 -335.254 429.111C-335.571 428.554 -335.651 427.997 -335.413 427.44L-330.417 413.919L-324.709 397.534C-310.199 397.852 -298.464 409.862 -298.464 424.577C-298.464 438.277 -308.622 449.615 -321.688 451.381H-325.41ZM-109.203 113.263C-117.846 110.4 -124.664 103.639 -127.598 94.9691V113.263H-109.203ZM-70.9068 30.3837C-69.8761 44.6212 -58.2207 55.9156 -44.0281 55.9156C-29.8354 55.9156 -18.1801 44.6212 -17.1493 30.3837H-70.9068ZM-16.6736 38.099C-19.528 46.5301 -26.1089 53.2909 -34.4342 56.2338H-16.6736V38.099ZM25.8249 2.30663H13.3767V56.2338H25.8249V2.30663ZM-8.26905 58.2223C2.98989 61.4038 11.3945 71.187 12.5838 83.0383C13.7731 71.1075 22.1777 61.4038 33.4366 58.2223H-8.26905ZM41.8412 113.263H95.6779V109.763H41.8412V113.263ZM41.8412 107.854H95.6779V104.196H41.8412V107.854ZM41.8412 102.207H95.6779V98.5483H41.8412V102.207ZM41.8412 96.5598H95.6779V92.9011H41.8412V96.5598ZM41.8412 90.8331H95.6779V87.1743H41.8412V90.8331ZM41.8412 85.1858H95.6779V72.7778H41.8412V85.1858ZM41.8412 70.8689H95.6779V58.3018H41.8412V70.8689ZM39.859 2.30663H27.8071V56.2338H39.859V2.30663ZM39.3039 59.2563C25.4285 60.2903 14.4074 71.8234 14.4074 85.9812C14.4074 100.06 25.4285 111.672 39.3039 112.706V59.2563ZM32.4059 113.263C21.702 109.843 13.6938 100.298 12.5838 88.7651C11.4738 100.298 3.46564 109.843 -7.23829 113.263H32.4059ZM10.7601 85.9017C10.7601 71.8234 -0.260918 60.2107 -14.1364 59.1767V112.547C-0.260918 111.593 10.7601 100.06 10.7601 85.9017ZM-14.6914 6.04495C-14.4535 6.12449 -14.2157 6.3631 -14.2157 6.60172C-14.2157 6.84033 -14.3742 7.07895 -14.6914 7.15849V10.34C-14.4535 10.4196 -14.2157 10.6582 -14.2157 10.8968C-14.2157 11.1354 -14.3742 11.374 -14.6914 11.4536V14.6351C-14.4535 14.7146 -14.2157 14.9533 -14.2157 15.1919C-14.2157 15.4305 -14.3742 15.6691 -14.6914 15.7487V18.9302C-14.4535 19.0097 -14.2157 19.2484 -14.2157 19.487C-14.2157 19.7256 -14.3742 19.9642 -14.6914 20.0437V23.2253C-14.4535 23.3048 -14.2157 23.5434 -14.2157 23.782C-14.2157 24.0207 -14.3742 24.2593 -14.6914 24.3388V27.5204C-14.4535 27.5999 -14.2157 27.8385 -14.2157 28.0771C-14.2157 28.3158 -14.3742 28.5544 -14.6914 28.6339V31.8154C-14.4535 31.895 -14.2157 32.1336 -14.2157 32.3722C-14.2157 32.6108 -14.3742 32.8494 -14.6914 32.929V36.1105C-14.4535 36.1901 -14.2157 36.4287 -14.2157 36.6673C-14.2157 36.9059 -14.3742 37.1445 -14.6914 37.2241V40.4056C-14.4535 40.4852 -14.2157 40.7238 -14.2157 40.9624C-14.2157 41.201 -14.3742 41.4396 -14.6914 41.5192V44.7007C-14.4535 44.7802 -14.2157 45.0188 -14.2157 45.2575C-14.2157 45.4961 -14.3742 45.7347 -14.6914 45.8142V48.9958C-14.4535 49.0753 -14.2157 49.3139 -14.2157 49.5526C-14.2157 49.7912 -14.3742 50.0298 -14.6914 50.1093V53.2909C-14.4535 53.3704 -14.2157 53.609 -14.2157 53.8476C-14.2157 54.0862 -14.3742 54.3249 -14.6914 54.4044V55.9156H-13.2642C-13.2642 55.5975 -13.0263 55.4384 -12.7092 55.4384C-12.392 55.4384 -12.1542 55.677 -12.1542 55.9156H-9.06192C-9.06192 55.5975 -8.82406 55.4384 -8.5069 55.4384C-8.18975 55.4384 -7.95187 55.677 -7.95187 55.9156H-5.01822C-5.01822 55.5975 -4.78035 55.4384 -4.4632 55.4384C-4.14604 55.4384 -3.90819 55.677 -3.90819 55.9156H-0.974518C-0.974518 55.5975 -0.736633 55.4384 -0.419479 55.4384C-0.102333 55.4384 0.135521 55.677 0.135521 55.9156H3.14849C3.14849 55.5975 3.38634 55.4384 3.7035 55.4384C4.02065 55.4384 4.25852 55.677 4.25852 55.9156H7.27147C7.27147 55.5975 7.50934 55.4384 7.82649 55.4384C8.14365 55.4384 8.38149 55.677 8.38149 55.9156H11.3152V1.98848H10.6809C10.6809 2.30663 10.443 2.46571 10.1259 2.46571C9.8087 2.46571 9.57082 2.22709 9.57082 1.98848H6.47858C6.47858 2.30663 6.24075 2.46571 5.92359 2.46571C5.60644 2.46571 5.36856 2.22709 5.36856 1.98848H2.27631C2.27631 2.30663 2.03844 2.46571 1.72128 2.46571C1.40413 2.46571 1.16628 2.22709 1.16628 1.98848H-1.84669C-1.84669 2.30663 -2.08454 2.46571 -2.4017 2.46571C-2.71885 2.46571 -2.95672 2.22709 -2.95672 1.98848H-5.96967C-5.96967 2.30663 -6.20753 2.46571 -6.52469 2.46571C-6.84184 2.46571 -7.07973 2.22709 -7.07973 1.98848H-10.172C-10.172 2.30663 -10.4098 2.46571 -10.727 2.46571C-11.0441 2.46571 -11.282 2.22709 -11.282 1.98848H-14.3742C-14.3742 2.22709 -14.6121 2.46571 -14.7707 2.46571V6.04495H-14.6914ZM-16.6736 58.2223H-42.7595L-16.6736 110.161V58.2223ZM-17.3079 113.263L-44.1074 59.8926L-70.9068 113.263H-17.3079ZM-71.3033 109.525L-45.5346 58.2223H-71.3033V109.525ZM-71.3033 56.2338H-53.622C-61.868 53.2909 -68.3696 46.6892 -71.3033 38.2581V56.2338ZM95.6779 115.331H44.537L95.6779 141.42V115.331ZM95.6779 201.289L48.105 226.367H95.6779V201.289ZM78.076 267.647L81.5646 262.477C83.0711 260.25 82.7539 257.307 80.9303 255.398L62.694 237.025L61.7426 237.979C60.0775 239.65 60.0775 242.354 61.7426 244.024L73.2394 255.637C74.508 256.91 74.6666 258.898 73.6358 260.409L69.3542 266.454C67.7685 268.761 67.927 271.783 69.6714 273.851L70.0678 274.249C70.4643 274.647 70.4643 275.363 70.0678 275.76C69.83 275.999 69.5921 276.078 69.3542 276.078C69.1164 276.078 68.9578 275.999 68.7199 275.84C68.6896 275.809 68.6593 275.791 68.6335 275.775C68.5916 275.749 68.5614 275.73 68.5614 275.681C68.4821 275.601 68.3235 275.442 68.2442 275.283L55.8752 262.795C54.7652 261.682 54.1309 260.171 54.1309 258.5C54.1309 256.91 54.7652 255.398 55.8752 254.205L57.1438 252.933C56.0338 250.706 56.351 247.922 58.1746 246.092L59.6018 244.661C57.8574 242.195 58.0953 238.695 60.3154 236.468L61.9804 234.798C62.3769 234.4 63.0904 234.4 63.4869 234.798L82.5161 253.887C85.1326 256.512 85.4498 260.568 83.4676 263.591L79.9789 268.761C79.0274 270.193 79.186 272.181 80.3753 273.374L83.7847 276.794C86.4805 275.044 88.7799 272.738 90.6035 270.193L91.7928 268.363C94.1715 264.386 95.5194 259.773 95.5194 254.842C95.5194 240.286 83.7847 228.514 69.4335 228.514C55.003 228.514 43.3477 240.286 43.3477 254.842C43.3477 269.397 55.0823 281.169 69.4335 281.169H69.9885L72.4465 281.01C75.8559 280.612 79.0274 279.578 81.8818 277.987L78.7895 274.885C76.8073 273.056 76.5695 269.954 78.076 267.647ZM67.6892 265.102L68.1649 264.466L58.4124 254.603L57.3024 255.717C56.5888 256.432 56.1924 257.466 56.1924 258.5C56.1924 259.534 56.5888 260.568 57.3024 261.284L66.1827 270.193C66.1034 268.443 66.5791 266.693 67.6892 265.102ZM59.6018 252.933L69.3542 262.716L71.8915 259.137C72.3672 258.5 72.2879 257.625 71.7329 257.148L60.9497 246.251L59.6018 247.604C58.1746 249.035 58.1746 251.421 59.6018 252.933ZM95.6779 228.355H78.9481C86.6391 231.219 92.8236 237.423 95.6779 245.217V228.355ZM95.6779 264.704C92.5857 273.215 85.529 279.817 76.728 282.282H95.6779V264.704ZM41.8412 339.312H95.6779V335.812H41.8412V339.312ZM41.8412 333.823H95.6779V330.165H41.8412V333.823ZM41.8412 328.176H95.6779V324.517H41.8412V328.176ZM41.8412 322.529H95.6779V318.87H41.8412V322.529ZM41.8412 316.882H95.6779V313.223H41.8412V316.882ZM41.8412 311.234H95.6779V298.826H41.8412V311.234ZM41.8412 296.838H95.6779V284.271H41.8412V296.838ZM41.8412 282.282H61.9011C51.7522 279.499 43.982 271.147 41.8412 260.728V282.282ZM41.8412 249.194C43.8234 239.57 50.6422 231.696 59.6811 228.355H41.8412V249.194ZM41.8412 226.367H43.7441L94.6472 200.358L41.8412 173.394V226.367ZM41.8412 170.292L94.8058 143.249L41.8412 116.206V170.292ZM-44.821 196.381C-44.9795 196.301 -45.0588 196.142 -45.0588 195.983C-45.0588 195.824 -44.9795 195.665 -44.821 195.585V192.165C-44.9795 192.086 -45.0588 191.927 -45.0588 191.768C-45.0588 191.608 -44.9795 191.449 -44.821 191.37V187.711C-44.9795 187.632 -45.0588 187.472 -45.0588 187.313C-45.0588 187.154 -44.9795 186.995 -44.821 186.916V183.496C-44.9795 183.416 -45.0588 183.257 -45.0588 183.098C-45.0588 182.939 -44.9795 182.78 -44.821 182.7V179.28C-44.9795 179.2 -45.0588 179.041 -45.0588 178.882C-45.0588 178.723 -44.9795 178.564 -44.821 178.485V175.064C-44.9795 174.985 -45.0588 174.826 -45.0588 174.667C-45.0588 174.508 -44.9795 174.349 -44.821 174.269V170.849C-44.9795 170.769 -45.0588 170.61 -45.0588 170.451C-45.0588 170.292 -44.9795 170.133 -44.821 170.053V166.633C-44.9795 166.554 -45.0588 166.395 -45.0588 166.236C-45.0588 166.077 -44.9795 165.917 -44.821 165.838V162.418C-44.9795 162.338 -45.0588 162.179 -45.0588 162.02C-45.0588 161.861 -44.9795 161.702 -44.821 161.622V158.202C-44.9795 158.123 -45.0588 157.964 -45.0588 157.805C-45.0588 157.645 -44.9795 157.486 -44.821 157.407V153.669V153.509V153.35V149.373V149.214V149.055V145.078V144.919V144.76V140.783V140.624V140.465V136.488V136.329V136.17V132.193V132.034V131.875V127.898V127.739V127.58V123.603V123.444V123.285V119.308V119.149V118.99V115.331H-72.1754H-99.3713V198.767H-44.821V196.381ZM11.4738 115.331H-42.8387V119.387H11.4738V115.331ZM-90.9668 284.271C-82.8001 287.055 -76.2191 293.497 -73.2855 301.69V284.271H-90.9668ZM-78.8357 282.282V228.355H-82.4829V282.282H-78.8357ZM-84.4651 282.282V228.355H-88.1124V282.282H-84.4651ZM-99.6885 284.748L-105.239 301.054L-110.234 314.575C-110.472 315.132 -110.392 315.689 -110.075 316.245C-109.758 316.723 -109.282 317.12 -108.727 317.2L-104.446 317.916C-104.129 317.995 -103.811 318.234 -103.653 318.552C-103.574 318.711 -103.574 318.95 -103.653 319.188L-104.366 322.529C-103.574 323.086 -102.622 323.324 -101.591 323.404L-100.323 323.483C-99.7677 323.483 -99.292 324.04 -99.3713 324.597C-99.3713 325.154 -99.8471 325.551 -100.402 325.551H-100.481L-102.781 325.392L-103.336 326.824L-101.433 328.494C-101.274 328.653 -101.195 328.813 -101.116 328.972C-101.036 329.369 -101.116 329.767 -101.433 330.085L-102.781 331.199C-103.574 331.835 -103.97 332.789 -103.97 333.823C-103.97 334.937 -103.336 336.051 -102.464 336.766L-99.9263 338.755C-85.258 338.675 -73.2855 326.585 -73.2855 311.712C-73.444 296.997 -85.1787 284.987 -99.6885 284.748ZM-95.6448 282.282V228.355H-99.3713V282.282H-95.6448ZM-104.287 329.608L-103.891 329.21L-105.397 327.858C-105.714 327.54 -105.794 327.063 -105.635 326.665L-104.842 324.677L-106.19 323.802C-106.587 323.563 -106.745 323.086 -106.666 322.688L-106.032 319.745L-109.203 319.188C-110.392 319.029 -111.344 318.313 -111.978 317.279C-112.533 316.245 -112.692 314.973 -112.216 313.859L-107.221 300.338L-101.909 284.748C-115.943 285.623 -127.043 297.395 -127.043 311.712C-127.043 325.392 -116.894 336.766 -103.732 338.516L-103.811 338.437C-105.239 337.403 -106.111 335.653 -106.19 333.903C-106.269 332.233 -105.556 330.642 -104.287 329.608ZM-91.3632 339.312H-73.2855V321.813C-76.2984 330.085 -82.9586 336.607 -91.3632 339.312ZM-93.7419 282.282H-90.0946V228.355H-93.7419V282.282ZM-76.8534 282.282H-73.2062V228.355H-76.8534V282.282ZM-99.3713 341.857V424.736H-44.821V422.35C-44.9795 422.27 -45.0588 422.111 -45.0588 421.952C-45.0588 421.793 -44.9795 421.634 -44.821 421.554V418.134C-44.9795 418.055 -45.0588 417.896 -45.0588 417.737C-45.0588 417.578 -44.9795 417.419 -44.821 417.339V413.919C-44.9795 413.839 -45.0588 413.68 -45.0588 413.521C-45.0588 413.362 -44.9795 413.203 -44.821 413.123V409.703C-44.9795 409.624 -45.0588 409.465 -45.0588 409.306C-45.0588 409.146 -44.9795 408.987 -44.821 408.908V405.488C-44.9795 405.408 -45.0588 405.249 -45.0588 405.09C-45.0588 404.931 -44.9795 404.772 -44.821 404.692V401.272C-44.9795 401.193 -45.0588 401.034 -45.0588 400.874C-45.0588 400.715 -44.9795 400.556 -44.821 400.477V397.057C-44.9795 396.977 -45.0588 396.818 -45.0588 396.659C-45.0588 396.5 -44.9795 396.341 -44.821 396.261V392.125C-44.9795 392.046 -45.0588 391.887 -45.0588 391.728C-45.0588 391.568 -44.9795 391.409 -44.821 391.33V387.91C-44.9795 387.83 -45.0588 387.671 -45.0588 387.512C-45.0588 387.353 -44.9795 387.194 -44.821 387.114V383.694C-44.9795 383.615 -45.0588 383.456 -45.0588 383.296C-45.0588 383.137 -44.9795 382.978 -44.821 382.899V379.16V379.001V378.842V374.865V374.706V374.547V370.57V370.411V370.252V366.275V366.116V365.957V361.98V361.821V361.662V357.685V357.526V357.367V353.39V353.231V353.072V349.095V348.936V348.777V344.8V344.641V344.482V341.857H-72.1754H-99.3713ZM-41.9666 200.119C-41.9666 204.891 -40.698 209.346 -38.4779 213.163L-37.2886 214.993C-35.5442 217.538 -33.3242 219.765 -30.8662 221.594L-27.7739 218.492C-26.5053 217.22 -26.3468 215.311 -27.3775 213.879L-30.8662 208.709C-32.9277 205.687 -32.5313 201.551 -29.9147 199.006L-10.8856 179.916C-10.4891 179.519 -9.77551 179.519 -9.37907 179.916L-7.71402 181.587C-5.49394 183.814 -5.25609 187.313 -7.00043 189.779L-5.57323 191.211C-3.7496 193.04 -3.35316 195.904 -4.54249 198.051L-3.27386 199.324C-2.16383 200.437 -1.52954 201.948 -1.52954 203.619C-1.52954 205.21 -2.16383 206.721 -3.27386 207.914L-15.6429 220.401C-15.6825 220.481 -15.742 220.541 -15.8014 220.6C-15.8609 220.66 -15.9204 220.72 -15.96 220.799C-15.9748 220.814 -15.9897 220.826 -16.004 220.836C-16.0187 220.847 -16.0329 220.856 -16.046 220.864L-16.0464 220.864C-16.0883 220.89 -16.1186 220.909 -16.1186 220.958C-16.2771 221.117 -16.515 221.197 -16.7529 221.197C-16.9908 221.197 -17.3079 221.117 -17.4665 220.879C-17.8629 220.481 -17.8629 219.765 -17.4665 219.367L-17.07 218.97C-15.2464 216.902 -15.0878 213.8 -16.7529 211.573L-21.0344 205.528C-22.0652 204.096 -21.9066 202.028 -20.638 200.755L-9.1412 189.143C-7.47615 187.472 -7.47615 184.768 -9.1412 183.098L-10.0134 182.143L-28.2497 200.517C-30.1526 202.426 -30.3905 205.369 -28.884 207.596L-25.3953 212.766C-23.8888 215.072 -24.1267 218.095 -26.1089 220.083L-28.884 222.867C-26.0296 224.617 -22.7788 225.731 -19.2901 226.287L-17.7044 226.446H-13.3435C-0.023056 225.253 10.443 213.959 10.443 200.199C10.443 185.643 -1.29166 173.871 -15.6429 173.871C-30.2319 173.792 -41.9666 185.643 -41.9666 200.119ZM-22.0652 172.519H-42.8387V192.245C-39.9844 182.462 -32.0555 174.826 -22.0652 172.519ZM-42.8387 207.993V226.367H-26.5054C-34.3549 223.106 -40.4601 216.345 -42.8387 207.993ZM-13.6606 215.231L-4.78034 206.323C-4.06675 205.607 -3.6703 204.573 -3.6703 203.539C-3.6703 202.505 -4.06675 201.471 -4.78034 200.755L-5.8904 199.642L-15.6429 209.505L-15.1671 210.141C-14.0571 211.732 -13.5814 213.482 -13.6606 215.231ZM-7.15899 197.972C-5.7318 196.54 -5.7318 194.074 -7.15899 192.642L-8.5069 191.29L-19.2901 202.187C-19.8451 202.744 -19.9244 203.539 -19.4487 204.176L-16.9115 207.755L-7.15899 197.972ZM-16.6736 241.718H-71.224V254.364H-16.6736V241.718ZM-34.4342 282.282H-16.6736V264.068C-19.6072 272.579 -26.1089 279.26 -34.4342 282.282ZM-16.6736 284.271H-42.7595L-16.6736 336.21V284.271ZM-17.1493 256.353H-70.9068C-69.8761 270.59 -58.2207 281.885 -44.0281 281.885C-29.8354 281.964 -18.1008 270.67 -17.1493 256.353ZM-71.3033 264.307V282.282H-53.622C-61.868 279.34 -68.3696 272.658 -71.3033 264.307ZM-71.3033 284.271V335.573L-45.5346 284.271H-71.3033ZM-71.3033 239.729H-16.7529V228.276H-71.3033V239.729ZM11.4738 121.376H-42.8387V125.035H11.4738V121.376ZM11.4738 127.023H-42.8387V130.682H11.4738V127.023ZM11.4738 132.67H-42.8387V136.329H11.4738V132.67ZM11.4738 138.318H-42.8387V141.976H11.4738V138.318ZM11.4738 143.965H-42.8387V147.942H11.4738V143.965ZM11.4738 149.93H-42.8387V153.589H11.4738V149.93ZM11.4738 155.577H-42.8387V159.236H11.4738V155.577ZM11.4738 161.225H-42.8387V164.883H11.4738V161.225ZM11.4738 166.872H-42.8387V170.531H11.4738V166.872ZM11.4738 172.519H-9.61694C0.769836 174.905 9.01583 183.098 11.4738 193.517V172.519ZM11.4738 206.8C9.33298 215.709 3.06921 222.947 -5.17678 226.367H11.4738V206.8ZM11.3945 228.355H10.8394C10.8394 228.673 10.6016 228.833 10.2844 228.833C9.96729 228.833 9.72942 228.594 9.72942 228.355H6.63717C6.63717 228.673 6.3993 228.833 6.08215 228.833C5.76499 228.833 5.52715 228.594 5.52715 228.355H2.43487C2.43487 228.673 2.19702 228.833 1.87988 228.833C1.56272 228.833 1.32484 228.594 1.32484 228.355H-1.6881C-1.6881 228.673 -1.92598 228.833 -2.24313 228.833C-2.56029 228.833 -2.79813 228.594 -2.79813 228.355H-5.8111C-5.8111 228.673 -6.04895 228.833 -6.3661 228.833C-6.68326 228.833 -6.92113 228.594 -6.92113 228.355H-10.0134C-10.0134 228.673 -10.2512 228.833 -10.5684 228.833C-10.8856 228.833 -11.1234 228.594 -11.1234 228.355H-14.2157C-14.2157 228.594 -14.4535 228.833 -14.6121 228.833V232.014C-14.3742 232.094 -14.1364 232.332 -14.1364 232.571C-14.1364 232.809 -14.295 233.048 -14.6121 233.128V236.309C-14.3742 236.389 -14.1364 236.627 -14.1364 236.866C-14.1364 237.105 -14.295 237.343 -14.6121 237.423V240.604C-14.3742 240.684 -14.1364 240.922 -14.1364 241.161C-14.1364 241.4 -14.295 241.638 -14.6121 241.718V244.899C-14.3742 244.979 -14.1364 245.217 -14.1364 245.456C-14.1364 245.695 -14.295 245.933 -14.6121 246.013V249.194C-14.3742 249.274 -14.1364 249.513 -14.1364 249.751C-14.1364 249.99 -14.295 250.228 -14.6121 250.308V253.489C-14.3742 253.569 -14.1364 253.808 -14.1364 254.046C-14.1364 254.285 -14.295 254.523 -14.6121 254.603V257.785C-14.3742 257.864 -14.1364 258.103 -14.1364 258.341C-14.1364 258.58 -14.295 258.819 -14.6121 258.898V262.08C-14.3742 262.159 -14.1364 262.398 -14.1364 262.636C-14.1364 262.875 -14.295 263.114 -14.6121 263.193V266.375C-14.3742 266.454 -14.1364 266.693 -14.1364 266.932C-14.1364 267.17 -14.295 267.409 -14.6121 267.488V270.67C-14.3742 270.749 -14.1364 270.988 -14.1364 271.227C-14.1364 271.465 -14.295 271.704 -14.6121 271.783V274.965C-14.3742 275.044 -14.1364 275.283 -14.1364 275.522C-14.1364 275.76 -14.295 275.999 -14.6121 276.078V279.26C-14.3742 279.34 -14.1364 279.578 -14.1364 279.817C-14.1364 280.055 -14.295 280.294 -14.6121 280.374V281.885H-13.1849C-13.1849 281.567 -12.9471 281.408 -12.6299 281.408C-12.3127 281.408 -12.0749 281.646 -12.0749 281.885H-8.98264C-8.98264 281.567 -8.74477 281.408 -8.42761 281.408C-8.11046 281.408 -7.8726 281.646 -7.8726 281.885H-4.93893C-4.93893 281.567 -4.70105 281.408 -4.3839 281.408C-4.06675 281.408 -3.8289 281.646 -3.8289 281.885H-0.895218C-0.895218 281.567 -0.657364 281.408 -0.34021 281.408C-0.0230637 281.408 0.214813 281.646 0.214813 281.885H3.22776C3.22776 281.567 3.46564 281.408 3.78279 281.408C4.09995 281.408 4.33781 281.646 4.33781 281.885H7.35076C7.35076 281.567 7.58864 281.408 7.90579 281.408C8.22295 281.408 8.46079 281.646 8.46079 281.885H11.3945V228.355ZM-8.26905 284.271C2.98989 287.452 11.3945 297.236 12.5838 309.087C13.7731 297.156 22.1777 287.452 33.4366 284.271H-8.26905ZM25.8249 282.282V228.355H13.3767V282.282H25.8249ZM-14.2157 285.225V338.596C-0.34021 337.562 10.6809 326.029 10.6809 311.871C10.7602 297.872 -0.260925 286.259 -14.2157 285.225ZM37.0839 115.331C37.0046 115.57 36.7667 115.729 36.5289 115.729C36.291 115.729 36.0531 115.57 35.9738 115.331H32.8816C32.8023 115.57 32.5645 115.729 32.3266 115.729C32.0887 115.729 31.8508 115.57 31.7716 115.331H28.6793C28.6 115.57 28.3622 115.729 28.1243 115.729C27.8865 115.729 27.6486 115.57 27.5693 115.331H24.3978C24.3185 115.57 24.0806 115.729 23.8427 115.729C23.6049 115.729 23.367 115.57 23.2877 115.331H20.2747C20.1955 115.57 19.9576 115.729 19.7197 115.729C19.4819 115.729 19.244 115.57 19.1647 115.331H15.9932C15.9139 115.57 15.676 115.729 15.4382 115.729C15.2003 115.729 14.9624 115.57 14.8832 115.331H13.2181V116.763H13.2974C13.6145 116.763 13.8524 117.001 13.8524 117.319C13.8524 117.638 13.6145 117.876 13.2974 117.876H13.2181V121.058H13.2974C13.6145 121.058 13.8524 121.296 13.8524 121.615C13.8524 121.933 13.6145 122.171 13.2974 122.171H13.2181V125.353H13.2974C13.6145 125.353 13.8524 125.591 13.8524 125.91C13.8524 126.228 13.6145 126.466 13.2974 126.466H13.2181V129.648H13.2974C13.6145 129.648 13.8524 129.887 13.8524 130.205C13.8524 130.523 13.6145 130.761 13.2974 130.761H13.2181V133.943H13.2974C13.6145 133.943 13.8524 134.182 13.8524 134.5C13.8524 134.818 13.6145 135.057 13.2974 135.057H13.2181V138.238H13.2974C13.6145 138.238 13.8524 138.477 13.8524 138.795C13.8524 139.113 13.6145 139.352 13.2974 139.352H13.2181V142.533H13.2974C13.6145 142.533 13.8524 142.772 13.8524 143.09C13.8524 143.408 13.6145 143.647 13.2974 143.647H13.2181V146.828H13.2974C13.6145 146.828 13.8524 147.067 13.8524 147.385C13.8524 147.703 13.6145 147.942 13.2974 147.942H13.2181V151.123H13.2974C13.6145 151.123 13.8524 151.362 13.8524 151.68C13.8524 151.998 13.6145 152.237 13.2974 152.237H13.2181V155.418H13.2974C13.6145 155.418 13.8524 155.657 13.8524 155.975C13.8524 156.293 13.6145 156.532 13.2974 156.532H13.2181V159.713H13.2974C13.6145 159.713 13.8524 159.952 13.8524 160.27C13.8524 160.588 13.6145 160.827 13.2974 160.827H13.2181V164.009H13.2974C13.6145 164.009 13.8524 164.247 13.8524 164.565C13.8524 164.883 13.6145 165.122 13.2974 165.122H13.2181V168.304H13.2974C13.6145 168.304 13.8524 168.542 13.8524 168.86C13.8524 169.179 13.6145 169.417 13.2974 169.417H13.2181V172.599H13.2974C13.6145 172.599 13.8524 172.837 13.8524 173.156C13.8524 173.474 13.6145 173.712 13.2974 173.712H13.2181V176.894H13.2974C13.6145 176.894 13.8524 177.132 13.8524 177.451C13.8524 177.769 13.6145 178.007 13.2974 178.007H13.2181V181.189H13.2974C13.6145 181.189 13.8524 181.428 13.8524 181.746C13.8524 182.064 13.6145 182.302 13.2974 182.302H13.2181V185.484H13.2974C13.6145 185.484 13.8524 185.723 13.8524 186.041C13.8524 186.359 13.6145 186.598 13.2974 186.598H13.2181V189.779H13.2974C13.6145 189.779 13.8524 190.018 13.8524 190.336C13.8524 190.654 13.6145 190.893 13.2974 190.893H13.2181V194.074H13.2974C13.6145 194.074 13.8524 194.313 13.8524 194.631C13.8524 194.949 13.6145 195.188 13.2974 195.188H13.2181V198.369H13.2974C13.6145 198.369 13.8524 198.608 13.8524 198.926C13.8524 199.244 13.6145 199.483 13.2974 199.483H13.2181V202.664H13.2974C13.6145 202.664 13.8524 202.903 13.8524 203.221C13.8524 203.539 13.6145 203.778 13.2974 203.778H13.2181V206.959H13.2974C13.6145 206.959 13.8524 207.198 13.8524 207.516C13.8524 207.834 13.6145 208.073 13.2974 208.073H13.2181V211.255H13.2974C13.6145 211.255 13.8524 211.493 13.8524 211.811C13.8524 212.129 13.6145 212.368 13.2974 212.368H13.2181V215.55H13.2974C13.6145 215.55 13.8524 215.788 13.8524 216.106C13.8524 216.425 13.6145 216.663 13.2974 216.663H13.2181V219.845H13.2974C13.6145 219.845 13.8524 220.083 13.8524 220.401C13.8524 220.72 13.6145 220.958 13.2974 220.958H13.2181V224.14H13.2974C13.6145 224.14 13.8524 224.378 13.8524 224.697C13.8524 225.015 13.6145 225.253 13.2974 225.253H13.2181V225.651H39.859V114.536H37.0839V115.331ZM39.859 228.355H27.8071V282.282H39.859V228.355ZM39.3039 338.596V285.225C25.4285 286.259 14.4074 297.792 14.4074 311.95C14.4074 326.029 25.4285 337.641 39.3039 338.596ZM32.4059 339.312C21.702 335.891 13.6938 326.347 12.5838 314.814C11.4738 326.347 3.46564 335.891 -7.23829 339.312H32.4059ZM-42.8387 396.5H11.4738V392.841H-42.8387V396.5ZM-42.8387 390.853H11.4738V387.194H-42.8387V390.853ZM-42.8387 385.205H11.4738V381.547H-42.8387V385.205ZM-42.8387 379.558H11.4738V375.899H-42.8387V379.558ZM-42.8387 373.911H11.4738V369.934H-42.8387V373.911ZM-42.8387 367.945H11.4738V364.287H-42.8387V367.945ZM-42.8387 362.298H11.4738V358.64H-42.8387V362.298ZM-42.8387 356.651H11.4738V352.992H-42.8387V356.651ZM-42.8387 351.004H11.4738V347.345H-42.8387V351.004ZM-42.8387 345.357H11.4738V341.3H-42.8387V345.357ZM-17.3079 339.312L-44.1074 285.941L-70.9068 339.312H-17.3079ZM-127.519 438.894H-44.821V426.725H-127.519V438.894ZM-127.519 424.736H-101.433V341.3H-127.519V424.736ZM-127.519 339.312H-109.124C-117.766 336.448 -124.585 329.687 -127.519 321.018V339.312ZM-127.519 302.406C-124.664 293.895 -118.004 287.134 -109.52 284.191H-127.519V302.406ZM-127.519 232.014C-127.281 232.094 -127.043 232.253 -127.043 232.571C-127.043 232.889 -127.281 233.128 -127.519 233.128V236.309C-127.281 236.389 -127.043 236.548 -127.043 236.866C-127.043 237.184 -127.281 237.423 -127.519 237.423V240.604C-127.281 240.684 -127.043 240.843 -127.043 241.161C-127.043 241.479 -127.281 241.718 -127.519 241.718V244.899C-127.281 244.979 -127.043 245.138 -127.043 245.456C-127.043 245.774 -127.281 246.013 -127.519 246.013V249.194C-127.281 249.274 -127.043 249.433 -127.043 249.751C-127.043 250.069 -127.281 250.308 -127.519 250.308V253.489C-127.281 253.569 -127.043 253.728 -127.043 254.046C-127.043 254.364 -127.281 254.603 -127.519 254.603V257.785C-127.281 257.864 -127.043 258.023 -127.043 258.341C-127.043 258.659 -127.281 258.898 -127.519 258.898V262.08C-127.281 262.159 -127.043 262.318 -127.043 262.636C-127.043 262.955 -127.281 263.193 -127.519 263.193V266.375C-127.281 266.454 -127.043 266.613 -127.043 266.932C-127.043 267.25 -127.281 267.488 -127.519 267.488V270.67C-127.281 270.749 -127.043 270.908 -127.043 271.227C-127.043 271.545 -127.281 271.783 -127.519 271.783V274.965C-127.281 275.044 -127.043 275.204 -127.043 275.522C-127.043 275.84 -127.281 276.078 -127.519 276.078V279.26C-127.281 279.34 -127.043 279.499 -127.043 279.817C-127.043 280.135 -127.281 280.374 -127.519 280.374V281.885H-126.091C-126.091 281.567 -125.854 281.408 -125.536 281.408C-125.219 281.408 -124.981 281.646 -124.981 281.885H-121.889C-121.889 281.567 -121.651 281.408 -121.334 281.408C-121.017 281.408 -120.779 281.646 -120.779 281.885H-117.846C-117.846 281.567 -117.608 281.408 -117.29 281.408C-116.973 281.408 -116.735 281.646 -116.735 281.885H-113.802C-113.802 281.567 -113.564 281.408 -113.247 281.408C-112.93 281.408 -112.692 281.646 -112.692 281.885H-109.679C-109.679 281.567 -109.441 281.408 -109.124 281.408C-108.807 281.408 -108.569 281.646 -108.569 281.885H-105.556C-105.556 281.567 -105.318 281.408 -105.001 281.408C-104.684 281.408 -104.446 281.646 -104.446 281.885H-101.671V227.958H-102.226C-102.226 228.276 -102.464 228.435 -102.781 228.435C-103.098 228.435 -103.336 228.196 -103.336 227.958H-106.428C-106.428 228.276 -106.666 228.435 -106.983 228.435C-107.3 228.435 -107.538 228.196 -107.538 227.958H-110.63C-110.63 228.276 -110.868 228.435 -111.185 228.435C-111.502 228.435 -111.74 228.196 -111.74 227.958H-114.753C-114.753 228.276 -114.991 228.435 -115.308 228.435C-115.625 228.435 -115.863 228.196 -115.863 227.958H-118.876C-118.876 228.276 -119.114 228.435 -119.431 228.435C-119.748 228.435 -119.986 228.196 -119.986 227.958H-123.079C-123.079 228.276 -123.316 228.435 -123.634 228.435C-123.951 228.435 -124.189 228.196 -124.189 227.958H-127.281C-127.281 228.196 -127.519 228.435 -127.757 228.435V232.014H-127.519ZM-127.519 226.367H-44.821V214.913H-127.519V226.367ZM-127.519 212.925H-44.821V200.755H-127.519V212.925ZM-127.519 198.687H-101.433V115.251H-127.519V198.687ZM-95.6448 2.30663H-99.3713V56.2338H-95.6448V2.30663ZM-90.0946 2.30663H-93.7419V56.2338H-90.0946V2.30663ZM-90.9668 58.2223C-82.8001 61.0061 -76.2191 67.4487 -73.2855 75.6412V58.2223H-90.9668ZM-84.4651 2.30663H-88.1124V56.2338H-84.4651V2.30663ZM-78.8357 2.30663H-82.4829V56.2338H-78.8357V2.30663ZM-76.8534 2.30663V56.2338H-73.2062V2.30663H-76.8534ZM-73.2855 113.263V95.7645C-76.2984 104.036 -83.0379 110.559 -91.3632 113.263H-73.2855ZM-102.622 110.718L-100.085 112.706C-85.4166 112.627 -73.444 100.537 -73.444 85.6631C-73.444 70.9484 -85.1787 58.9381 -99.6885 58.6199L-105.239 74.9254L-110.234 88.4469C-110.472 89.0037 -110.392 89.5604 -110.075 90.1172C-109.758 90.5945 -109.282 90.9922 -108.727 91.0717L-104.446 91.7875C-104.129 91.8671 -103.811 92.1057 -103.653 92.4239C-103.574 92.5829 -103.574 92.8215 -103.653 93.0602L-104.366 96.4008C-103.574 96.9576 -102.622 97.1962 -101.591 97.2757L-100.323 97.3552C-99.7677 97.3552 -99.292 97.912 -99.3713 98.4688C-99.3713 99.0255 -99.8471 99.4232 -100.402 99.4232H-100.481L-102.781 99.2642L-103.336 100.696L-101.433 102.366C-101.274 102.525 -101.195 102.684 -101.116 102.843C-101.036 103.241 -101.116 103.639 -101.433 103.957L-102.781 105.07C-103.574 105.707 -103.97 106.661 -103.97 107.695C-104.129 108.968 -103.574 110.081 -102.622 110.718ZM-103.732 112.468L-103.811 112.388C-105.239 111.354 -106.111 109.604 -106.19 107.854C-106.269 106.184 -105.556 104.593 -104.287 103.559L-103.891 103.162L-105.397 101.809C-105.714 101.491 -105.794 101.014 -105.635 100.616L-104.842 98.6279L-106.19 97.7529C-106.587 97.5143 -106.745 97.0371 -106.666 96.6394L-106.032 93.6169L-109.203 93.0602C-110.392 92.9011 -111.344 92.1852 -111.978 91.1512C-112.533 90.1172 -112.692 88.8446 -112.216 87.7311L-107.221 74.2095L-101.909 58.6199C-115.943 59.4949 -127.043 71.2666 -127.043 85.5835C-127.043 99.4232 -116.815 110.797 -103.732 112.468ZM-127.519 76.4366C-124.664 67.926 -118.004 61.1652 -109.52 58.2223H-127.519V76.4366ZM-127.519 6.04495C-127.281 6.12449 -127.043 6.28356 -127.043 6.60172C-127.043 6.91987 -127.281 7.15849 -127.519 7.15849V10.34C-127.281 10.4196 -127.043 10.5786 -127.043 10.8968C-127.043 11.2149 -127.281 11.4536 -127.519 11.4536V14.6351C-127.281 14.7146 -127.043 14.8737 -127.043 15.1919C-127.043 15.51 -127.281 15.7487 -127.519 15.7487V18.9302C-127.281 19.0097 -127.043 19.1688 -127.043 19.487C-127.043 19.8051 -127.281 20.0437 -127.519 20.0437V23.2253C-127.281 23.3048 -127.043 23.4639 -127.043 23.782C-127.043 24.1002 -127.281 24.3388 -127.519 24.3388V27.5204C-127.281 27.5999 -127.043 27.759 -127.043 28.0771C-127.043 28.3953 -127.281 28.6339 -127.519 28.6339V31.8154C-127.281 31.895 -127.043 32.0541 -127.043 32.3722C-127.043 32.6904 -127.281 32.929 -127.519 32.929V36.1105C-127.281 36.1901 -127.043 36.3491 -127.043 36.6673C-127.043 36.9855 -127.281 37.2241 -127.519 37.2241V40.4056C-127.281 40.4852 -127.043 40.6442 -127.043 40.9624C-127.043 41.2805 -127.281 41.5192 -127.519 41.5192V44.7007C-127.281 44.7802 -127.043 44.9393 -127.043 45.2575C-127.043 45.5756 -127.281 45.8142 -127.519 45.8142V48.9958C-127.281 49.0753 -127.043 49.2344 -127.043 49.5526C-127.043 49.8707 -127.281 50.1093 -127.519 50.1093V53.2909C-127.281 53.3704 -127.043 53.5295 -127.043 53.8476C-127.043 54.1658 -127.281 54.4044 -127.519 54.4044V55.9156H-126.091C-126.091 55.5975 -125.854 55.4384 -125.536 55.4384C-125.219 55.4384 -124.981 55.677 -124.981 55.9156H-121.889C-121.889 55.5975 -121.651 55.4384 -121.334 55.4384C-121.017 55.4384 -120.779 55.677 -120.779 55.9156H-117.846C-117.846 55.5975 -117.608 55.4384 -117.29 55.4384C-116.973 55.4384 -116.735 55.677 -116.735 55.9156H-113.802C-113.802 55.5975 -113.564 55.4384 -113.247 55.4384C-112.93 55.4384 -112.692 55.677 -112.692 55.9156H-109.679C-109.679 55.5975 -109.441 55.4384 -109.124 55.4384C-108.807 55.4384 -108.569 55.677 -108.569 55.9156H-105.556C-105.556 55.5975 -105.318 55.4384 -105.001 55.4384C-104.684 55.4384 -104.446 55.677 -104.446 55.9156H-101.671V1.98848H-102.226C-102.226 2.30663 -102.464 2.46571 -102.781 2.46571C-103.098 2.46571 -103.336 2.22709 -103.336 1.98848H-106.428C-106.428 2.30663 -106.666 2.46571 -106.983 2.46571C-107.3 2.46571 -107.538 2.22709 -107.538 1.98848H-110.63C-110.63 2.30663 -110.868 2.46571 -111.185 2.46571C-111.502 2.46571 -111.74 2.22709 -111.74 1.98848H-114.753C-114.753 2.30663 -114.991 2.46571 -115.308 2.46571C-115.625 2.46571 -115.863 2.22709 -115.863 1.98848H-118.876C-118.876 2.30663 -119.114 2.46571 -119.431 2.46571C-119.748 2.46571 -119.986 2.22709 -119.986 1.98848H-123.079C-123.079 2.30663 -123.316 2.46571 -123.634 2.46571C-123.951 2.46571 -124.189 2.22709 -124.189 1.98848H-127.281C-127.281 2.22709 -127.519 2.46571 -127.757 2.46571V6.04495H-127.519ZM-213.705 2.38617H-268.018V6.44264H-213.705V2.38617ZM-213.705 8.43111H-268.018V12.0899H-213.705V8.43111ZM-213.705 14.0783H-268.018V17.7371H-213.705V14.0783ZM-213.705 19.7256H-268.018V23.3844H-213.705V19.7256ZM-213.705 25.3728H-268.018V29.0316H-213.705V25.3728ZM-213.705 31.0201H-268.018V34.997H-213.705V31.0201ZM-213.705 36.9855H-268.018V40.6442H-213.705V36.9855ZM-213.705 42.6327H-268.018V46.2915H-213.705V42.6327ZM-213.705 48.2799H-268.018V51.9387H-213.705V48.2799ZM-213.705 53.9272H-268.018V57.5859H-213.705V53.9272ZM-237.174 339.312C-224.568 337.403 -214.894 326.506 -214.894 313.302C-214.894 298.747 -226.629 286.975 -240.98 286.975C-255.411 286.975 -267.066 298.747 -267.066 313.302C-267.066 318.075 -265.798 322.529 -263.577 326.347L-262.388 328.176C-260.644 330.721 -258.424 332.949 -255.966 334.778L-252.874 331.676C-251.605 330.403 -251.446 328.494 -252.477 327.063L-255.966 321.893C-258.027 318.87 -257.631 314.734 -255.014 312.189L-235.985 293.1C-235.589 292.702 -234.875 292.702 -234.479 293.1L-232.814 294.77C-230.594 296.997 -230.356 300.497 -232.1 302.962L-230.673 304.394C-228.849 306.224 -228.453 309.087 -229.642 311.234L-228.373 312.507C-227.263 313.621 -226.629 315.132 -226.629 316.802C-226.629 318.393 -227.263 319.904 -228.373 321.097L-240.742 333.585C-240.782 333.664 -240.842 333.724 -240.901 333.784C-240.96 333.843 -241.02 333.903 -241.06 333.983C-241.071 333.994 -241.083 334.004 -241.095 334.013C-241.113 334.027 -241.13 334.038 -241.146 334.048C-241.188 334.074 -241.218 334.092 -241.218 334.142C-241.377 334.301 -241.615 334.38 -241.852 334.38C-242.09 334.38 -242.407 334.301 -242.566 334.062C-242.962 333.664 -242.962 332.948 -242.566 332.551L-242.17 332.153C-240.346 330.085 -240.187 326.983 -241.852 324.756L-246.134 318.711C-247.165 317.279 -247.006 315.211 -245.738 313.939L-234.241 302.326C-232.576 300.656 -232.576 297.952 -234.241 296.281L-235.192 295.327L-253.429 313.7C-255.331 315.609 -255.569 318.552 -254.063 320.779L-250.574 325.949C-249.068 328.256 -249.306 331.278 -251.288 333.267L-254.063 336.051C-251.208 337.721 -248.037 338.914 -244.628 339.391H-237.174V339.312ZM-241.852 377.013C-244.707 385.444 -251.288 392.205 -259.613 395.148H-241.852V377.013ZM-233.448 171.167C-222.189 174.349 -213.784 184.132 -212.595 195.983C-211.406 184.052 -203.001 174.349 -191.742 171.167H-233.448ZM-199.275 115.251H-211.723V169.179H-199.275V115.251ZM-239.315 172.122V225.492C-225.44 224.458 -214.419 212.925 -214.419 198.767C-214.419 184.768 -225.36 173.156 -239.315 172.122ZM-210.692 198.846C-210.692 212.925 -199.671 224.537 -185.796 225.571V172.201C-199.671 173.156 -210.692 184.768 -210.692 198.846ZM-212.516 201.71C-213.626 213.243 -221.634 222.788 -232.338 226.208H-192.614C-203.398 222.788 -211.406 213.243 -212.516 201.71ZM-213.705 285.623H-234.796C-224.409 288.009 -216.163 296.202 -213.705 306.621V285.623ZM-213.705 319.904C-215.767 328.653 -221.872 335.812 -229.959 339.312H-213.705V319.904ZM-238.839 328.335L-229.959 319.427C-229.246 318.711 -228.849 317.677 -228.849 316.643C-228.849 315.609 -229.246 314.575 -229.959 313.859L-231.069 312.746L-240.822 322.608L-240.346 323.245C-239.236 324.756 -238.76 326.585 -238.839 328.335ZM-232.259 310.996C-230.831 309.564 -230.831 307.098 -232.259 305.667L-233.607 304.315L-244.39 315.211C-244.945 315.768 -245.024 316.564 -244.548 317.2L-242.011 320.779L-232.259 310.996ZM-267.938 321.097V339.232H-252.001C-259.692 335.971 -265.639 329.29 -267.938 321.097ZM-247.165 285.623H-267.938V305.349C-265.163 295.486 -257.155 287.85 -247.165 285.623ZM-213.705 283.635V279.976H-268.018V283.635H-213.705ZM-213.705 277.987V274.329H-268.018V277.987H-213.705ZM-213.705 272.34V268.681H-268.018V272.34H-213.705ZM-213.705 266.613V262.955H-268.018V266.613H-213.705ZM-213.705 260.966V256.989H-268.018V260.966H-213.705ZM-213.705 255.08V251.422H-268.018V255.08H-213.705ZM-213.705 249.433V245.774H-268.018V249.433H-213.705ZM-213.705 243.786V240.127H-268.018V243.786H-213.705ZM-213.705 238.059V234.4H-268.018V238.059H-213.705ZM-213.705 232.412V228.355H-268.018V232.412H-213.705ZM-267.859 171.167L-241.773 223.106V171.167H-267.859ZM-241.852 169.179V151.044C-244.707 159.475 -251.288 166.236 -259.613 169.179H-241.852ZM-242.249 143.249H-296.006C-294.976 157.486 -283.32 168.781 -269.128 168.781C-254.935 168.86 -243.28 157.566 -242.249 143.249ZM-278.721 169.179C-286.967 166.236 -293.469 159.634 -296.403 151.203V169.179H-278.721ZM-296.403 171.167V222.469L-270.634 171.167H-296.403ZM-241.852 141.261V128.614H-296.403V141.261H-241.852ZM-237.174 113.263C-224.568 111.354 -214.894 100.457 -214.894 87.2539C-214.894 72.6983 -226.629 60.9266 -240.98 60.9266C-255.411 60.9266 -267.066 72.6983 -267.066 87.2539C-267.066 92.0262 -265.798 96.4803 -263.577 100.298L-262.388 102.128C-260.644 104.673 -258.424 106.9 -255.966 108.729L-252.874 105.627C-251.605 104.355 -251.446 102.446 -252.477 101.014L-255.966 95.844C-258.027 92.8215 -257.631 88.6855 -255.014 86.1403L-235.985 67.051C-235.589 66.6534 -234.875 66.6534 -234.479 67.051L-232.814 68.7213C-230.594 70.9484 -230.356 74.4481 -232.1 76.9138L-230.673 78.3455C-228.849 80.1749 -228.453 83.0383 -229.642 85.1858L-228.373 86.4585C-227.263 87.572 -226.629 89.0832 -226.629 90.7535C-226.629 92.3443 -227.263 93.8555 -228.373 95.0486L-240.822 107.377C-240.861 107.457 -240.921 107.516 -240.98 107.576C-241.04 107.636 -241.099 107.695 -241.139 107.775C-241.169 107.805 -241.199 107.824 -241.225 107.84C-241.267 107.866 -241.297 107.885 -241.297 107.934C-241.456 108.093 -241.694 108.172 -241.932 108.172C-242.17 108.172 -242.487 108.093 -242.645 107.854C-243.042 107.457 -243.042 106.741 -242.645 106.343L-242.249 105.945C-240.425 103.877 -240.267 100.775 -241.932 98.5483L-246.213 92.5034C-247.244 91.0717 -247.085 89.0037 -245.817 87.7311L-234.32 76.1184C-232.655 74.4481 -232.655 71.7438 -234.32 70.0735L-235.272 69.119L-253.508 87.4925C-255.411 89.4014 -255.649 92.3443 -254.142 94.5714L-250.653 99.7414C-249.147 102.048 -249.385 105.07 -251.367 107.059L-254.142 109.843C-251.288 111.513 -248.116 112.706 -244.707 113.183H-237.174V113.263ZM-238.839 102.287L-229.959 93.3783C-229.246 92.6625 -228.849 91.6285 -228.849 90.5945C-228.849 89.5604 -229.246 88.5264 -229.959 87.8106L-231.069 86.6971L-240.822 96.5598L-240.346 97.1962C-239.236 98.7869 -238.76 100.537 -238.839 102.287ZM-232.259 85.0268C-230.831 83.5951 -230.831 81.1294 -232.259 79.6977L-233.607 78.3455L-244.39 89.2423C-244.945 89.7991 -245.024 90.5945 -244.548 91.2308L-242.011 94.81L-232.259 85.0268ZM-267.938 95.1282V113.263H-252.001C-259.692 110.002 -265.639 103.321 -267.938 95.1282ZM-247.165 59.5744H-267.938V79.3C-265.163 69.5167 -257.155 61.881 -247.165 59.5744ZM-213.705 59.5744H-234.796C-224.409 61.9606 -216.163 70.153 -213.705 80.5726V59.5744ZM-213.705 93.8555C-215.767 102.605 -221.872 109.763 -229.959 113.263H-213.705V93.8555ZM-213.864 115.251H-214.339C-214.339 115.57 -214.577 115.729 -214.894 115.729C-215.212 115.729 -215.449 115.49 -215.449 115.251H-218.542C-218.542 115.57 -218.78 115.729 -219.097 115.729C-219.414 115.729 -219.652 115.49 -219.652 115.251H-222.744C-222.744 115.57 -222.982 115.729 -223.299 115.729C-223.616 115.729 -223.854 115.49 -223.854 115.251H-226.867C-226.867 115.57 -227.105 115.729 -227.422 115.729C-227.739 115.729 -227.977 115.49 -227.977 115.251H-230.99C-230.99 115.57 -231.228 115.729 -231.545 115.729C-231.862 115.729 -232.1 115.49 -232.1 115.251H-235.192C-235.192 115.57 -235.43 115.729 -235.747 115.729C-236.064 115.729 -236.302 115.49 -236.302 115.251H-239.395C-239.395 115.49 -239.632 115.729 -239.791 115.729V118.91C-239.553 118.99 -239.315 119.228 -239.315 119.467C-239.315 119.706 -239.474 119.944 -239.791 120.024V123.205C-239.553 123.285 -239.315 123.523 -239.315 123.762C-239.315 124.001 -239.474 124.239 -239.791 124.319V127.5C-239.553 127.58 -239.315 127.819 -239.315 128.057C-239.315 128.296 -239.474 128.534 -239.791 128.614V131.795C-239.553 131.875 -239.315 132.114 -239.315 132.352C-239.315 132.591 -239.474 132.829 -239.791 132.909V136.091C-239.553 136.17 -239.315 136.409 -239.315 136.647C-239.315 136.886 -239.474 137.125 -239.791 137.204V140.386C-239.553 140.465 -239.315 140.704 -239.315 140.942C-239.315 141.181 -239.474 141.42 -239.791 141.499V144.681C-239.553 144.76 -239.315 144.999 -239.315 145.237C-239.315 145.476 -239.474 145.715 -239.791 145.794V148.976C-239.553 149.055 -239.315 149.294 -239.315 149.533C-239.315 149.771 -239.474 150.01 -239.791 150.089V153.271C-239.553 153.35 -239.315 153.589 -239.315 153.828C-239.315 154.066 -239.474 154.305 -239.791 154.384V157.566C-239.553 157.645 -239.315 157.884 -239.315 158.123C-239.315 158.361 -239.474 158.6 -239.791 158.679V161.861C-239.553 161.941 -239.315 162.179 -239.315 162.418C-239.315 162.656 -239.474 162.895 -239.791 162.975V166.156C-239.553 166.236 -239.315 166.474 -239.315 166.713C-239.315 166.952 -239.474 167.19 -239.791 167.27V168.781H-238.443C-238.443 168.463 -238.205 168.304 -237.888 168.304C-237.571 168.304 -237.333 168.542 -237.333 168.781H-234.241C-234.241 168.463 -234.003 168.304 -233.686 168.304C-233.369 168.304 -233.131 168.542 -233.131 168.781H-230.197C-230.197 168.463 -229.959 168.304 -229.642 168.304C-229.325 168.304 -229.087 168.542 -229.087 168.781H-226.153C-226.153 168.463 -225.915 168.304 -225.598 168.304C-225.281 168.304 -225.043 168.542 -225.043 168.781H-222.03C-222.03 168.463 -221.792 168.304 -221.475 168.304C-221.158 168.304 -220.92 168.542 -220.92 168.781H-217.907C-217.907 168.463 -217.669 168.304 -217.352 168.304C-217.035 168.304 -216.797 168.542 -216.797 168.781H-213.864V115.251ZM-188.095 2.38617C-188.174 2.62479 -188.412 2.78386 -188.65 2.78386C-188.888 2.78386 -189.126 2.62479 -189.205 2.38617H-192.297C-192.377 2.62479 -192.614 2.78386 -192.852 2.78386C-193.09 2.78386 -193.328 2.62479 -193.407 2.38617H-196.5C-196.579 2.62479 -196.817 2.78386 -197.055 2.78386C-197.292 2.78386 -197.53 2.62479 -197.61 2.38617H-200.781C-200.86 2.62479 -201.098 2.78386 -201.336 2.78386C-201.574 2.78386 -201.812 2.62479 -201.891 2.38617H-204.904C-204.983 2.62479 -205.221 2.78386 -205.459 2.78386C-205.697 2.78386 -205.935 2.62479 -206.014 2.38617H-209.186C-209.265 2.62479 -209.503 2.78386 -209.741 2.78386C-209.979 2.78386 -210.216 2.62479 -210.296 2.38617H-211.961V3.81787H-211.881C-211.564 3.81787 -211.326 4.05648 -211.326 4.37463C-211.326 4.69279 -211.564 4.9314 -211.881 4.9314H-211.961V8.11295H-211.881C-211.564 8.11295 -211.326 8.35156 -211.326 8.66971C-211.326 8.98787 -211.564 9.22649 -211.881 9.22649H-211.961V12.408H-211.881C-211.564 12.408 -211.326 12.6467 -211.326 12.9648C-211.326 13.283 -211.564 13.5216 -211.881 13.5216H-211.961V16.7031H-211.881C-211.564 16.7031 -211.326 16.9417 -211.326 17.2599C-211.326 17.578 -211.564 17.8167 -211.881 17.8167H-211.961V20.9982H-211.881C-211.564 20.9982 -211.326 21.2368 -211.326 21.555C-211.326 21.8731 -211.564 22.1117 -211.881 22.1117H-211.961V25.2933H-211.881C-211.564 25.2933 -211.326 25.5319 -211.326 25.8501C-211.326 26.1682 -211.564 26.4068 -211.881 26.4068H-211.961V29.5884H-211.881C-211.564 29.5884 -211.326 29.827 -211.326 30.1451C-211.326 30.4633 -211.564 30.7019 -211.881 30.7019H-211.961V33.8835H-211.881C-211.564 33.8835 -211.326 34.1221 -211.326 34.4402C-211.326 34.7584 -211.564 34.997 -211.881 34.997H-211.961V38.1785H-211.881C-211.564 38.1785 -211.326 38.4171 -211.326 38.7353C-211.326 39.0535 -211.564 39.2921 -211.881 39.2921H-211.961V42.4736H-211.881C-211.564 42.4736 -211.326 42.7122 -211.326 43.0304C-211.326 43.3485 -211.564 43.5872 -211.881 43.5872H-211.961V46.7687H-211.881C-211.564 46.7687 -211.326 47.0073 -211.326 47.3255C-211.326 47.6436 -211.564 47.8822 -211.881 47.8822H-211.961V51.0638H-211.881C-211.564 51.0638 -211.326 51.3024 -211.326 51.6206C-211.326 51.9387 -211.564 52.1773 -211.881 52.1773H-211.961V55.3589H-211.881C-211.564 55.3589 -211.326 55.5975 -211.326 55.9156C-211.326 56.2338 -211.564 56.4724 -211.881 56.4724H-211.961V59.6539H-211.881C-211.564 59.6539 -211.326 59.8926 -211.326 60.2107C-211.326 60.5289 -211.564 60.7675 -211.881 60.7675H-211.961V63.949H-211.881C-211.564 63.949 -211.326 64.1877 -211.326 64.5058C-211.326 64.824 -211.564 65.0626 -211.881 65.0626H-211.961V68.2441H-211.881C-211.564 68.2441 -211.326 68.4827 -211.326 68.8009C-211.326 69.119 -211.564 69.3577 -211.881 69.3577H-211.961V72.5392H-211.881C-211.564 72.5392 -211.326 72.7778 -211.326 73.096C-211.326 73.4141 -211.564 73.6527 -211.881 73.6527H-211.961V76.8343H-211.881C-211.564 76.8343 -211.326 77.0729 -211.326 77.391C-211.326 77.7092 -211.564 77.9478 -211.881 77.9478H-211.961V81.1294H-211.881C-211.564 81.1294 -211.326 81.368 -211.326 81.6861C-211.326 82.0043 -211.564 82.2429 -211.881 82.2429H-211.961V85.4245H-211.881C-211.564 85.4245 -211.326 85.6631 -211.326 85.9812C-211.326 86.2994 -211.564 86.538 -211.881 86.538H-211.961V89.7195H-211.881C-211.564 89.7195 -211.326 89.9581 -211.326 90.2763C-211.326 90.5945 -211.564 90.8331 -211.881 90.8331H-211.961V94.0146H-211.881C-211.564 94.0146 -211.326 94.2532 -211.326 94.5714C-211.326 94.8895 -211.564 95.1282 -211.881 95.1282H-211.961V98.3097H-211.881C-211.564 98.3097 -211.326 98.5483 -211.326 98.8665C-211.326 99.1846 -211.564 99.4232 -211.881 99.4232H-211.961V102.605H-211.881C-211.564 102.605 -211.326 102.843 -211.326 103.162C-211.326 103.48 -211.564 103.718 -211.881 103.718H-211.961V106.9H-211.881C-211.564 106.9 -211.326 107.138 -211.326 107.457C-211.326 107.775 -211.564 108.013 -211.881 108.013H-211.961V111.195H-211.881C-211.564 111.195 -211.326 111.434 -211.326 111.752C-211.326 112.07 -211.564 112.309 -211.881 112.309H-211.961V112.547H-185.478V1.67033H-188.095V2.38617ZM-185.241 115.251H-197.292V169.179H-185.241V115.251ZM-188.095 228.355C-188.174 228.594 -188.412 228.753 -188.65 228.753C-188.888 228.753 -189.126 228.594 -189.205 228.355H-192.297C-192.377 228.594 -192.614 228.753 -192.852 228.753C-193.09 228.753 -193.328 228.594 -193.407 228.355H-196.5C-196.579 228.594 -196.817 228.753 -197.055 228.753C-197.292 228.753 -197.53 228.594 -197.61 228.355H-200.781C-200.86 228.594 -201.098 228.753 -201.336 228.753C-201.574 228.753 -201.812 228.594 -201.891 228.355H-204.904C-204.983 228.594 -205.221 228.753 -205.459 228.753C-205.697 228.753 -205.935 228.594 -206.014 228.355H-209.186C-209.265 228.594 -209.503 228.753 -209.741 228.753C-209.979 228.753 -210.216 228.594 -210.296 228.355H-211.961V229.787H-211.881C-211.564 229.787 -211.326 230.026 -211.326 230.344C-211.326 230.662 -211.564 230.901 -211.881 230.901H-211.961V234.082H-211.881C-211.564 234.082 -211.326 234.321 -211.326 234.639C-211.326 234.957 -211.564 235.196 -211.881 235.196H-211.961V238.377H-211.881C-211.564 238.377 -211.326 238.616 -211.326 238.934C-211.326 239.252 -211.564 239.491 -211.881 239.491H-211.961V242.672H-211.881C-211.564 242.672 -211.326 242.911 -211.326 243.229C-211.326 243.547 -211.564 243.786 -211.881 243.786H-211.961V246.967H-211.881C-211.564 246.967 -211.326 247.206 -211.326 247.524C-211.326 247.842 -211.564 248.081 -211.881 248.081H-211.961V251.262H-211.881C-211.564 251.262 -211.326 251.501 -211.326 251.819C-211.326 252.137 -211.564 252.376 -211.881 252.376H-211.961V255.557H-211.881C-211.564 255.557 -211.326 255.796 -211.326 256.114C-211.326 256.432 -211.564 256.671 -211.881 256.671H-211.961V259.853H-211.881C-211.564 259.853 -211.326 260.091 -211.326 260.409C-211.326 260.727 -211.564 260.966 -211.881 260.966H-211.961V264.148H-211.881C-211.564 264.148 -211.326 264.386 -211.326 264.704C-211.326 265.023 -211.564 265.261 -211.881 265.261H-211.961V268.443H-211.881C-211.564 268.443 -211.326 268.681 -211.326 269C-211.326 269.318 -211.564 269.556 -211.881 269.556H-211.961V272.738H-211.881C-211.564 272.738 -211.326 272.976 -211.326 273.295C-211.326 273.613 -211.564 273.851 -211.881 273.851H-211.961V277.033H-211.881C-211.564 277.033 -211.326 277.272 -211.326 277.59C-211.326 277.908 -211.564 278.146 -211.881 278.146H-211.961V281.328H-211.881C-211.564 281.328 -211.326 281.567 -211.326 281.885C-211.326 282.203 -211.564 282.441 -211.881 282.441H-211.961V285.623H-211.881C-211.564 285.623 -211.326 285.862 -211.326 286.18C-211.326 286.498 -211.564 286.737 -211.881 286.737H-211.961V289.918H-211.881C-211.564 289.918 -211.326 290.157 -211.326 290.475C-211.326 290.793 -211.564 291.032 -211.881 291.032H-211.961V294.213H-211.881C-211.564 294.213 -211.326 294.452 -211.326 294.77C-211.326 295.088 -211.564 295.327 -211.881 295.327H-211.961V298.508H-211.881C-211.564 298.508 -211.326 298.747 -211.326 299.065C-211.326 299.383 -211.564 299.622 -211.881 299.622H-211.961V302.803H-211.881C-211.564 302.803 -211.326 303.042 -211.326 303.36C-211.326 303.678 -211.564 303.917 -211.881 303.917H-211.961V307.098H-211.881C-211.564 307.098 -211.326 307.337 -211.326 307.655C-211.326 307.973 -211.564 308.212 -211.881 308.212H-211.961V311.394H-211.881C-211.564 311.394 -211.326 311.632 -211.326 311.95C-211.326 312.268 -211.564 312.507 -211.881 312.507H-211.961V315.689H-211.881C-211.564 315.689 -211.326 315.927 -211.326 316.245C-211.326 316.564 -211.564 316.802 -211.881 316.802H-211.961V319.984H-211.881C-211.564 319.984 -211.326 320.222 -211.326 320.541C-211.326 320.859 -211.564 321.097 -211.881 321.097H-211.961V324.279H-211.881C-211.564 324.279 -211.326 324.517 -211.326 324.836C-211.326 325.154 -211.564 325.392 -211.881 325.392H-211.961V328.574H-211.881C-211.564 328.574 -211.326 328.813 -211.326 329.131C-211.326 329.449 -211.564 329.687 -211.881 329.687H-211.961V332.869H-211.881C-211.564 332.869 -211.326 333.108 -211.326 333.426C-211.326 333.744 -211.564 333.983 -211.881 333.983H-211.961V337.164H-211.881C-211.564 337.164 -211.326 337.403 -211.326 337.721C-211.326 338.039 -211.564 338.278 -211.881 338.278H-211.961V338.516H-185.478V227.639H-188.095V228.355ZM-211.723 341.221V395.148H-199.275V341.221H-211.723ZM-129.422 32.0541L-181.91 58.8586L-129.422 85.6631V32.0541ZM-129.422 89.1628L-176.677 113.263H-129.422V89.1628ZM-147.024 154.543L-143.535 149.373C-142.028 147.146 -142.346 144.203 -144.169 142.295L-162.406 123.921L-163.278 124.876C-164.943 126.546 -164.943 129.25 -163.278 130.921L-151.781 142.533C-150.512 143.806 -150.354 145.794 -151.384 147.305L-155.666 153.35C-157.252 155.657 -157.093 158.68 -155.349 160.748L-154.952 161.145C-154.556 161.543 -154.556 162.259 -154.952 162.656C-155.19 162.895 -155.428 162.975 -155.666 162.975C-155.904 162.975 -156.062 162.895 -156.3 162.736C-156.331 162.706 -156.361 162.687 -156.387 162.671C-156.429 162.645 -156.459 162.626 -156.459 162.577C-156.538 162.497 -156.697 162.338 -156.776 162.179L-169.145 149.692C-170.255 148.578 -170.889 147.067 -170.889 145.397C-170.889 143.806 -170.255 142.295 -169.145 141.101L-167.876 139.829C-168.986 137.602 -168.669 134.818 -166.846 132.989L-165.419 131.557C-167.163 129.091 -166.925 125.591 -164.705 123.364L-163.04 121.694C-162.643 121.296 -161.93 121.296 -161.533 121.694L-142.504 140.783C-139.888 143.408 -139.57 147.465 -141.553 150.487L-145.041 155.657C-145.993 157.089 -145.834 159.077 -144.645 160.27L-141.236 163.69C-138.54 161.941 -136.24 159.634 -134.417 157.089L-133.227 155.259C-130.849 151.282 -129.501 146.669 -129.501 141.738C-129.501 127.182 -141.236 115.411 -155.587 115.411C-170.017 115.411 -181.673 127.182 -181.673 141.738C-181.673 156.293 -169.938 168.065 -155.587 168.065H-155.032L-152.574 167.906C-149.164 167.508 -145.993 166.474 -143.138 164.883L-146.231 161.781C-148.292 159.952 -148.609 156.85 -147.024 154.543ZM-157.49 152.078L-157.014 151.441L-166.766 141.579L-167.876 142.692C-168.59 143.408 -168.986 144.442 -168.986 145.476C-168.986 146.51 -168.59 147.544 -167.876 148.26L-158.996 157.168C-159.075 155.339 -158.52 153.589 -157.49 152.078ZM-165.498 139.829L-155.745 149.612L-153.208 146.033C-152.732 145.397 -152.812 144.522 -153.367 144.044L-164.15 133.148L-165.498 134.5C-167.004 135.931 -167.004 138.318 -165.498 139.829ZM-129.422 115.251H-146.151C-138.46 118.115 -132.276 124.319 -129.422 132.114V115.251ZM-129.422 151.601C-132.514 160.111 -139.57 166.713 -148.372 169.179H-129.422V151.601ZM-129.422 228.355H-180.563L-129.422 254.523V228.355ZM-129.422 258.103L-181.91 284.907L-129.422 311.791V258.103ZM-129.422 315.132L-176.677 339.232H-129.422V315.132ZM-129.422 341.221H-146.151C-138.46 344.084 -132.276 350.288 -129.422 358.083V341.221ZM-129.422 395.148V377.57C-132.514 386.08 -139.57 392.682 -148.372 395.148H-129.422ZM-155.19 394.193L-152.732 394.034C-149.323 393.636 -146.151 392.602 -143.297 391.012L-146.389 387.91C-148.372 385.921 -148.609 382.899 -147.103 380.592L-143.614 375.422C-142.108 373.195 -142.425 370.252 -144.249 368.343L-162.485 349.97L-163.357 350.924C-165.022 352.595 -165.022 355.299 -163.357 356.969L-151.86 368.582C-150.592 369.854 -150.433 371.843 -151.464 373.354L-155.745 379.399C-157.331 381.706 -157.172 384.728 -155.428 386.796L-155.032 387.194C-154.635 387.592 -154.635 388.307 -155.032 388.705C-155.27 388.944 -155.507 389.023 -155.745 389.023C-155.983 389.023 -156.142 388.944 -156.38 388.785C-156.41 388.754 -156.44 388.735 -156.466 388.719C-156.492 388.703 -156.514 388.69 -156.527 388.67C-156.534 388.658 -156.538 388.644 -156.538 388.626C-156.618 388.546 -156.776 388.387 -156.855 388.228L-169.224 375.74C-170.334 374.627 -170.969 373.116 -170.969 371.445C-170.969 369.854 -170.334 368.343 -169.224 367.15L-167.956 365.878C-169.066 363.65 -168.749 360.867 -166.925 359.037L-165.498 357.605C-167.242 355.14 -167.004 351.64 -164.784 349.413L-163.119 347.743C-162.723 347.345 -162.009 347.345 -161.613 347.743L-142.583 366.832C-139.967 369.457 -139.65 373.513 -141.632 376.536L-145.121 381.706C-146.072 383.137 -145.914 385.126 -144.724 386.319L-141.315 389.739C-138.619 387.989 -136.32 385.683 -134.496 383.137L-133.307 381.308C-130.928 377.331 -129.58 372.718 -129.58 367.786C-129.58 353.231 -141.315 341.459 -155.666 341.459C-170.096 341.459 -181.752 353.231 -181.752 367.786C-181.752 382.342 -170.017 394.114 -155.666 394.114C-155.587 394.193 -155.349 394.193 -155.19 394.193ZM-157.49 378.047L-157.014 377.411L-166.766 367.548L-167.876 368.661C-168.59 369.377 -168.986 370.411 -168.986 371.445C-168.986 372.479 -168.59 373.513 -167.876 374.229L-158.996 383.137C-159.075 381.388 -158.52 379.558 -157.49 378.047ZM-165.498 365.798L-155.745 375.581L-153.208 372.002C-152.732 371.366 -152.812 370.491 -153.367 370.014L-164.15 359.117L-165.498 360.469C-167.004 361.98 -167.004 364.366 -165.498 365.798ZM-183.258 395.148H-163.198C-173.347 392.364 -181.118 384.012 -183.258 373.593V395.148ZM-183.258 362.06C-181.276 352.435 -174.457 344.561 -165.419 341.221H-183.258V362.06ZM-183.258 339.312H-181.038L-130.532 313.462L-183.338 286.498V339.312H-183.258ZM-183.258 283.396L-130.294 256.353L-183.258 229.31V283.396ZM-183.258 226.367H-162.326H-129.422V222.708H-183.258V226.367ZM-183.258 220.72H-129.422V217.061H-183.258V220.72ZM-183.258 215.072H-129.422V211.414H-183.258V215.072ZM-183.258 209.425H-129.422V205.766H-183.258V209.425ZM-183.258 203.778H-129.422V200.119H-183.258V203.778ZM-183.258 198.131H-129.422V185.723H-183.258V198.131ZM-183.258 183.734H-129.422V171.167H-183.258V183.734ZM-183.258 169.179H-163.198C-173.347 166.395 -181.118 158.043 -183.258 147.624V169.179ZM-183.258 136.091C-181.276 126.466 -174.457 118.592 -165.419 115.251H-183.258V136.091ZM-183.258 113.263H-181.038L-130.532 87.4129L-183.338 60.4493V113.263H-183.258ZM-183.258 57.3473L-130.294 30.3042L-183.258 3.2611V57.3473ZM-185.241 341.221H-197.292V395.148H-185.241V341.221ZM-185.241 449.6L-185.796 398.17C-199.671 399.204 -210.692 410.737 -210.692 424.895C-210.692 438.973 -199.116 448.566 -185.241 449.6ZM-233.369 397.136C-222.11 400.318 -213.705 410.101 -212.516 421.952C-211.406 410.101 -202.922 400.318 -191.663 397.136H-233.369ZM-239.87 344.959C-239.632 345.038 -239.395 345.277 -239.395 345.516C-239.395 345.754 -239.553 345.993 -239.87 346.072V349.254C-239.632 349.333 -239.395 349.572 -239.395 349.811C-239.395 350.049 -239.553 350.288 -239.87 350.367V353.549C-239.632 353.629 -239.395 353.867 -239.395 354.106C-239.395 354.344 -239.553 354.583 -239.87 354.663V357.844C-239.632 357.924 -239.395 358.162 -239.395 358.401C-239.395 358.639 -239.553 358.878 -239.87 358.958V362.139C-239.632 362.219 -239.395 362.457 -239.395 362.696C-239.395 362.935 -239.553 363.173 -239.87 363.253V366.434C-239.632 366.514 -239.395 366.752 -239.395 366.991C-239.395 367.23 -239.553 367.468 -239.87 367.548V370.729C-239.632 370.809 -239.395 371.048 -239.395 371.286C-239.395 371.525 -239.553 371.763 -239.87 371.843V375.024C-239.632 375.104 -239.395 375.343 -239.395 375.581C-239.395 375.82 -239.553 376.058 -239.87 376.138V379.32C-239.632 379.399 -239.395 379.638 -239.395 379.876C-239.395 380.115 -239.553 380.354 -239.87 380.433V383.615C-239.632 383.694 -239.395 383.933 -239.395 384.171C-239.395 384.41 -239.553 384.649 -239.87 384.728V387.91C-239.632 387.989 -239.395 388.228 -239.395 388.466C-239.395 388.705 -239.553 388.944 -239.87 389.023V392.205C-239.632 392.284 -239.395 392.523 -239.395 392.762C-239.395 393 -239.553 393.239 -239.87 393.318V394.83H-238.443C-238.443 394.511 -238.205 394.352 -237.888 394.352C-237.571 394.352 -237.333 394.591 -237.333 394.83H-234.241C-234.241 394.511 -234.003 394.352 -233.686 394.352C-233.369 394.352 -233.131 394.591 -233.131 394.83H-230.197C-230.197 394.511 -229.959 394.352 -229.642 394.352C-229.325 394.352 -229.087 394.591 -229.087 394.83H-226.153C-226.153 394.511 -225.915 394.352 -225.598 394.352C-225.281 394.352 -225.043 394.591 -225.043 394.83H-222.03C-222.03 394.511 -221.792 394.352 -221.475 394.352C-221.158 394.352 -220.92 394.591 -220.92 394.83H-217.907C-217.907 394.511 -217.669 394.352 -217.352 394.352C-217.035 394.352 -216.797 394.591 -216.797 394.83H-213.864V341.221H-214.498C-214.498 341.539 -214.736 341.698 -215.053 341.698C-215.37 341.698 -215.608 341.459 -215.608 341.221H-218.7C-218.7 341.539 -218.938 341.698 -219.255 341.698C-219.572 341.698 -219.81 341.459 -219.81 341.221H-222.903C-222.903 341.539 -223.14 341.698 -223.458 341.698C-223.775 341.698 -224.013 341.459 -224.013 341.221H-227.026C-227.026 341.539 -227.263 341.698 -227.581 341.698C-227.898 341.698 -228.136 341.459 -228.136 341.221H-231.148C-231.148 341.539 -231.386 341.698 -231.704 341.698C-232.021 341.698 -232.259 341.459 -232.259 341.221H-235.351C-235.351 341.539 -235.589 341.698 -235.906 341.698C-236.223 341.698 -236.461 341.459 -236.461 341.221H-239.553C-239.553 341.459 -239.791 341.698 -239.95 341.698V344.959H-239.87ZM-241.852 449.075V397.136H-267.938L-241.852 449.075ZM-269.128 394.83C-254.935 394.83 -243.28 383.535 -242.249 369.298H-296.006C-295.055 383.535 -283.32 394.83 -269.128 394.83ZM-296.403 448.439L-270.634 397.136H-296.403V448.439ZM-296.403 395.148H-278.721C-286.967 392.205 -293.469 385.603 -296.403 377.172V395.148ZM-296.403 367.309H-241.852V354.663H-296.403V367.309ZM-298.385 414.555V397.136H-316.066C-307.9 400 -301.398 406.442 -298.385 414.555ZM-320.824 341.221H-324.55V395.148H-320.824V341.221ZM-315.194 341.221H-318.841V395.148H-315.194V341.221ZM-309.565 341.221H-313.212V395.148H-309.565V341.221ZM-304.014 341.221H-307.662V395.148H-304.014V341.221ZM-302.032 341.221V395.148H-298.385V341.221H-302.032ZM-296.403 341.221V352.674H-241.852V341.221H-296.403ZM-242.487 226.208L-269.286 172.837L-296.086 226.208H-242.487ZM-352.143 198.608C-352.143 212.288 -341.994 223.663 -328.832 225.412L-328.911 225.333C-330.338 224.299 -331.21 222.549 -331.29 220.799C-331.369 219.129 -330.655 217.538 -329.387 216.504L-328.99 216.106L-330.497 214.754C-330.814 214.436 -330.893 213.959 -330.735 213.561L-329.942 211.573L-331.29 210.698C-331.686 210.459 -331.845 209.982 -331.765 209.584L-331.131 206.562L-334.303 206.005C-335.492 205.846 -336.443 205.13 -337.078 204.096C-337.633 203.062 -337.791 201.789 -337.316 200.676L-332.32 187.154L-327.008 171.565C-341.042 172.519 -352.143 184.291 -352.143 198.608ZM-330.417 187.95L-335.413 201.471C-335.651 202.028 -335.571 202.585 -335.254 203.142C-334.937 203.619 -334.461 204.016 -333.906 204.096L-329.625 204.812C-329.307 204.891 -328.99 205.13 -328.832 205.448C-328.752 205.607 -328.752 205.846 -328.832 206.085L-329.545 209.425C-328.753 209.982 -327.801 210.22 -326.77 210.3L-325.502 210.38C-324.947 210.38 -324.471 210.936 -324.55 211.493C-324.55 212.05 -325.026 212.448 -325.581 212.448H-325.66L-327.96 212.288L-328.515 213.72L-326.612 215.39C-326.453 215.55 -326.374 215.709 -326.294 215.868C-326.215 216.265 -326.294 216.663 -326.612 216.981L-327.96 218.095C-328.753 218.731 -329.149 219.686 -329.149 220.72C-329.149 221.833 -328.515 222.947 -327.642 223.663L-327.18 224.025L-325.105 225.651C-310.437 225.571 -298.464 213.482 -298.464 198.608C-298.464 183.893 -310.199 171.883 -324.709 171.565L-330.417 187.95ZM-316.066 226.049L-298.385 226.208V208.709C-301.398 216.822 -307.9 223.265 -316.066 226.049ZM-298.385 188.586V171.167H-316.066C-307.9 173.951 -301.398 180.394 -298.385 188.586ZM-320.824 115.251H-324.55V169.179H-320.824V115.251ZM-315.194 115.251H-318.841V169.179H-315.194V115.251ZM-309.565 115.251H-313.212V169.179H-309.565V115.251ZM-304.014 115.251H-307.662V169.179H-304.014V115.251ZM-302.032 115.251V169.179H-298.385V115.251H-302.032ZM-297.354 228.355H-324.55V311.791H-270V309.405C-270.158 309.326 -270.238 309.167 -270.238 309.007C-270.238 308.848 -270.158 308.689 -270 308.61V305.19C-270.158 305.11 -270.238 304.951 -270.238 304.792C-270.238 304.633 -270.158 304.474 -270 304.394V300.974C-270.158 300.895 -270.238 300.735 -270.238 300.576C-270.238 300.417 -270.158 300.258 -270 300.179V296.758C-270.158 296.679 -270.238 296.52 -270.238 296.361C-270.238 296.202 -270.158 296.043 -270 295.963V292.543C-270.158 292.463 -270.238 292.304 -270.238 292.145C-270.238 291.986 -270.158 291.827 -270 291.748V288.327C-270.158 288.248 -270.238 288.089 -270.238 287.93C-270.238 287.771 -270.158 287.612 -270 287.532V284.112C-270.158 284.032 -270.238 283.873 -270.238 283.714C-270.238 283.555 -270.158 283.396 -270 283.316V279.18C-270.158 279.101 -270.238 278.942 -270.238 278.783C-270.238 278.624 -270.158 278.465 -270 278.385V274.965C-270.158 274.885 -270.238 274.726 -270.238 274.567C-270.238 274.408 -270.158 274.249 -270 274.17V270.749C-270.158 270.67 -270.238 270.511 -270.238 270.352C-270.238 270.193 -270.158 270.034 -270 269.954V266.216V266.057V265.897V261.921V261.762V261.602V257.625V257.466V257.307V253.33V253.171V253.012V249.035V248.876V248.717V244.74V244.581V244.422V240.445V240.286V240.127V236.15V235.991V235.832V231.855V231.696V231.537V228.912L-297.354 228.355ZM-296.403 115.251V126.705H-241.852V115.251H-296.403ZM-324.55 85.8222H-270V83.436C-270.158 83.3564 -270.238 83.1974 -270.238 83.0383C-270.238 82.8792 -270.158 82.7201 -270 82.6406V79.2204C-270.158 79.1409 -270.238 78.9818 -270.238 78.8228C-270.238 78.6637 -270.158 78.5046 -270 78.4251V74.7663C-270.158 74.6867 -270.238 74.5277 -270.238 74.3686C-270.238 74.2095 -270.158 74.0504 -270 73.9709V70.5507C-270.158 70.4712 -270.238 70.3121 -270.238 70.1531C-270.238 69.994 -270.158 69.8349 -270 69.7553V66.3352C-270.158 66.2556 -270.238 66.0966 -270.238 65.9375C-270.238 65.7784 -270.158 65.6193 -270 65.5398V62.1197C-270.158 62.0401 -270.238 61.881 -270.238 61.722C-270.238 61.5629 -270.158 61.4038 -270 61.3243V57.9041C-270.158 57.8246 -270.238 57.6655 -270.238 57.5064C-270.238 57.3473 -270.158 57.1883 -270 57.1087V53.6886C-270.158 53.609 -270.238 53.4499 -270.238 53.2909C-270.238 53.1318 -270.158 52.9727 -270 52.8932V49.473C-270.158 49.3935 -270.238 49.2344 -270.238 49.0753C-270.238 48.9162 -270.158 48.7572 -270 48.6776V44.5416C-270.158 44.4621 -270.238 44.303 -270.238 44.1439C-270.238 43.9848 -270.158 43.8258 -270 43.7462V40.0079V39.8488V39.6898V35.7128V35.5538V35.3947V31.4178V31.2587V31.0996V27.1227V26.9636V26.8045V22.8276V22.6685V22.5094V18.5325V18.3734V18.2143V14.2374V14.0783V13.9193V9.94234V9.78326V9.62418V5.64726V5.48817V5.3291V2.38617H-297.354H-324.55V85.8222ZM-214.419 424.816C-214.419 410.737 -225.44 399.125 -239.315 398.091V449.619C-235.859 449.771 -231.499 448.595 -229.75 447.731C-229.665 447.684 -229.573 447.634 -229.472 447.579C-226.138 445.757 -214.419 439.352 -214.419 424.816Z" fill="#EAEAEA"/>
</svg>
