<svg width="295" height="70" viewBox="0 0 295 70" fill="none" xmlns="http://www.w3.org/2000/svg">
<g clip-path="url(#clip0_1178_276)">
<mask id="mask0_1178_276" style="mask-type:luminance" maskUnits="userSpaceOnUse" x="0" y="0" width="295" height="70">
<path d="M295 0H0V70H295V0Z" fill="white"/>
</mask>
<g mask="url(#mask0_1178_276)">
<path d="M121.1 40.7002H128.2L124.6 32.5002L121.1 40.7002ZM178.2 17.2002V54.0002H167.9V39.4002H157.5V54.0002H147.2V16.8002H157.5V30.0002H167.9V16.8002H178.2V17.2002ZM205.8 45.1002L201.1 33.4002L196.6 45.1002H205.8ZM190.7 58.2002H182.6V45.2002H186.4L198.9 16.4002H203.4L216.3 45.2002H220.2V58.2002H211.7V54.2002H191V58.2002H190.7ZM236.6 26.8002C233.7 28.1002 231.4 31.0002 231.4 35.5002C231.4 40.1002 233.7 43.0002 236.6 44.3002C237.7 44.8002 238.9 45.0002 240.2 45.0002C241.4 45.0002 242.6 44.8002 243.8 44.3002C246.7 43.0002 249 40.1002 249 35.5002C249 31.0002 246.7 28.1002 243.8 26.8002C242.7 26.3002 241.5 26.1002 240.2 26.1002C239 26.1002 237.8 26.3002 236.6 26.8002ZM248 17.7002C254.3 20.3002 259.3 26.2002 259.3 35.5002C259.3 44.8002 254.3 50.7002 248 53.3002C245.5 54.3002 242.9 54.8002 240.2 54.8002C237.5 54.8002 234.9 54.3002 232.4 53.3002C226.1 50.7002 221.1 44.8002 221.1 35.5002C221.1 26.2002 226.1 20.3002 232.4 17.7002C234.9 16.7002 237.5 16.2002 240.2 16.2002C242.9 16.2002 245.5 16.7002 248 17.7002ZM274.4 35.6002H280.7C282.3 35.6002 283.4 34.4002 283.9 32.8002C284.1 32.2002 284.2 31.5002 284.2 30.8002C284.2 30.1002 284.1 29.4002 283.9 28.8002C283.4 27.3002 282.4 26.1002 280.6 26.1002C279.1 26.1002 277.6 26.1002 276.1 26.1002H274.3V35.6002H274.4ZM264.7 16.8002H280.7C287.2 16.8002 291.3 20.5002 293.1 25.1002C293.8 26.9002 294.2 28.9002 294.2 30.8002C294.2 32.8002 293.8 34.7002 293.1 36.5002C291.3 41.1002 287.1 44.7002 280.7 44.7002H274.4V54.0002H264.3V16.8002H264.7ZM115.3 54.1002H105.8V52.3002C111.3 40.3002 116.8 28.4002 122.3 16.4002H126.8C132.3 28.4002 137.9 40.3002 143.4 52.3002V54.1002H133.6L131.5 49.5002H117.6L115.5 54.1002H115.3Z" fill="#004E93"/>
<path fill-rule="evenodd" clip-rule="evenodd" d="M52.3002 0.5L93.8002 69.6H9.7002L52.3002 0.5Z" fill="#E2000F"/>
<path d="M47.0002 45.2001C43.2002 45.2001 39.4002 43.9001 35.9002 42.6001C33.0002 41.6001 30.1002 40.5001 27.1002 40.1001C26.0002 40.0001 25.0002 39.9001 24.0002 39.9001C16.5002 39.9001 14.2002 43.8001 14.1002 44.0001C13.9002 44.3001 13.5002 44.5001 13.1002 44.3001C12.7002 44.1001 12.5002 43.7001 12.6002 43.4001C12.7002 43.2001 14.0002 38.5001 20.0002 35.4001C22.3002 34.2001 24.6002 33.6001 27.1002 33.6001C30.7002 33.6001 34.2002 34.9001 37.5002 36.1001C40.7002 37.3001 44.0002 38.5001 47.4002 38.6001C57.4002 38.8001 60.5002 34.7001 60.5002 34.7001C60.7002 34.4001 61.1002 34.3001 61.5002 34.4001C61.8002 34.6001 62.0002 35.0001 61.9002 35.3001C61.8002 35.5001 60.5002 40.2001 54.5002 43.3001C52.0002 44.6001 49.6002 45.2001 47.0002 45.2001ZM23.9002 38.3001C24.9002 38.3001 26.0002 38.4001 27.2002 38.5001C30.4002 38.9001 33.4002 40.0001 36.4002 41.1001C40.0002 42.4001 43.4002 43.6001 47.0002 43.6001C49.4002 43.6001 51.6002 43.0001 53.7002 41.9001C55.9002 40.7001 57.4002 39.3001 58.5002 38.1001C56.3002 39.2001 52.7002 40.3001 47.4002 40.2001C43.7002 40.1001 40.3002 38.8001 37.0002 37.6001C33.7002 36.3001 30.5002 35.2001 27.2002 35.2001C25.0002 35.2001 22.9002 35.7001 20.9002 36.8001C19.1002 37.7001 17.8002 38.8001 16.8002 39.9001C18.4002 39.0001 20.7002 38.3001 23.9002 38.3001Z" fill="white"/>
<path d="M40.6999 55.3002C36.8999 55.3002 33.0999 54.0002 29.5999 52.7002C26.6999 51.7002 23.7999 50.6002 20.7999 50.2002C19.6999 50.1002 18.6999 50.0002 17.6999 50.0002C10.1999 50.0002 7.7999 54.0002 7.7999 54.1002C7.5999 54.4002 7.1999 54.6002 6.7999 54.4002C6.3999 54.2002 6.1999 53.8002 6.2999 53.5002C6.3999 53.3002 7.69992 48.6002 13.6999 45.5002C15.9999 44.3002 18.2999 43.7002 20.7999 43.7002C24.3999 43.7002 27.8999 45.0002 31.1999 46.2002C34.3999 47.4002 37.6999 48.6002 41.0999 48.7002C51.0999 49.0002 54.1999 44.8002 54.1999 44.8002C54.3999 44.5002 54.7999 44.4002 55.1999 44.5002C55.4999 44.7002 55.6999 45.1002 55.5999 45.4002C55.4999 45.6002 54.1999 50.3002 48.1999 53.4002C45.6999 54.7002 43.2999 55.3002 40.6999 55.3002ZM17.5999 48.4002C18.5999 48.4002 19.6999 48.5002 20.8999 48.6002C24.0999 49.0002 27.0999 50.1002 30.0999 51.2002C33.6999 52.5002 37.0999 53.7002 40.6999 53.7002C43.0999 53.7002 45.2999 53.1002 47.3999 52.0002C49.5999 50.8002 51.0999 49.4002 52.1999 48.2002C49.9999 49.3002 46.3999 50.4002 41.0999 50.3002C37.3999 50.2002 33.9999 48.9002 30.6999 47.7002C27.3999 46.4002 24.1999 45.3002 20.8999 45.3002C18.6999 45.3002 16.5999 45.8002 14.5999 46.9002C12.7999 47.8002 11.4999 48.9002 10.4999 50.0002C11.9999 49.1002 14.3999 48.4002 17.5999 48.4002Z" fill="white"/>
<path d="M34.5998 65.3998C30.7998 65.3998 26.9998 64.0998 23.4998 62.7998C20.5998 61.7998 17.6998 60.6998 14.6998 60.2998C13.5998 60.1998 12.5998 60.0998 11.5998 60.0998C4.09979 60.0998 1.7998 63.9998 1.6998 64.1998C1.4998 64.4998 1.0998 64.6998 0.6998 64.4998C0.2998 64.2998 0.0997997 63.8998 0.1998 63.5998C0.2998 63.3998 1.59979 58.6998 7.59979 55.5998C9.89979 54.3998 12.1998 53.7998 14.6998 53.7998C18.2998 53.7998 21.7998 55.0998 25.0998 56.2998C28.2998 57.4998 31.5998 58.6998 34.9998 58.7998C45.0998 59.0998 47.9998 54.8998 48.0998 54.8998C48.2998 54.5998 48.6998 54.4998 49.0998 54.5998C49.4998 54.7998 49.5998 55.1998 49.4998 55.4998C49.3998 55.6998 48.0998 60.3998 42.0998 63.4998C39.5998 64.7998 37.1998 65.3998 34.5998 65.3998ZM11.4998 58.4998C12.4998 58.4998 13.5998 58.5998 14.7998 58.6998C17.9998 59.0998 20.9998 60.1998 23.9998 61.2998C27.5998 62.5998 30.9998 63.7998 34.5998 63.7998C36.9998 63.7998 39.1998 63.1998 41.2998 62.0998C43.4998 60.8998 45.0998 59.4998 46.0998 58.2998C43.8998 59.3998 40.2998 60.4998 34.9998 60.3998C31.2998 60.2998 27.8998 58.9998 24.5998 57.7998C21.2998 56.5998 18.0998 55.3998 14.7998 55.3998C12.5998 55.3998 10.4998 55.8998 8.49979 56.9998C6.69979 57.8998 5.39978 58.9998 4.39978 60.0998C5.99978 59.0998 8.29979 58.4998 11.4998 58.4998Z" fill="white"/>
<path d="M47.1998 39.4001C37.7998 39.2001 30.0998 30.9 20.2998 36.1C14.5998 39.1 13.2998 43.6 13.2998 43.6C13.2998 43.6 16.3998 38.0001 27.0998 39.3001C36.2998 40.5001 44.3998 47.7 53.9998 42.6C59.6998 39.6 60.9998 35.1 60.9998 35.1C60.9998 35.1 57.8998 39.6001 47.1998 39.4001Z" fill="#51ABE0"/>
<path d="M46.9 44.9002C43.1 44.9002 39.4 43.6002 35.9 42.3002C33 41.3002 30.1 40.2002 27 39.8002C25.9 39.7002 24.9 39.6002 23.9 39.6002C16.2 39.6002 13.8 43.8002 13.8 43.8002C13.7 44.0002 13.4001 44.1002 13.1001 44.0002C12.9001 43.9002 12.7 43.6002 12.8 43.4002C12.9 43.2002 14.2001 38.6002 20.1001 35.5002C22.3001 34.3002 24.6 33.7002 27 33.7002C30.6 33.7002 34 35.0002 37.3 36.2002C40.5 37.4002 43.8 38.6002 47.3 38.7002C57.5 39.0002 60.6001 34.7002 60.6001 34.7002C60.7001 34.5002 61 34.4002 61.3 34.5002C61.5 34.6002 61.7001 34.9002 61.6001 35.1002C61.5001 35.3002 60.2 39.9002 54.3 43.0002C51.8 44.3002 49.4 44.9002 46.9 44.9002ZM23.8 38.6002C24.8 38.6002 25.9 38.7002 27 38.8002C30.2 39.2002 33.2001 40.3002 36.1001 41.4002C39.7001 42.7002 43.2 44.0002 46.8 44.0002C49.2 44.0002 51.4001 43.4002 53.6001 42.3002C56.5001 40.8002 58.2001 38.9002 59.2001 37.4002C57.2001 38.7002 53.4001 40.2002 47.1001 40.0002C43.5001 39.9002 40.1 38.6002 36.8 37.4002C33.4 36.1002 30.3 35.0002 26.9 35.0002C24.7 35.0002 22.5 35.5002 20.5 36.6002C18 37.9002 16.4 39.5002 15.4 40.9002C17.1 39.6002 19.8 38.6002 23.8 38.6002Z" fill="white"/>
<path d="M40.9 49.4001C31.5 49.2001 23.8 40.9 14 46.1C8.3 49.1 7 53.6 7 53.6C7 53.6 10.1 48.0001 20.8 49.3001C30 50.5001 38.1 57.7 47.7 52.6C53.4 49.6 54.7 45.1 54.7 45.1C54.7 45.1 51.6 49.7001 40.9 49.4001Z" fill="#1A70B7"/>
<path d="M40.6002 54.9998C36.8002 54.9998 33.1002 53.6998 29.6002 52.3998C26.7002 51.3998 23.8002 50.2998 20.7002 49.8998C19.6002 49.7998 18.6002 49.6998 17.6002 49.6998C10.0002 49.6998 7.60023 53.6998 7.50023 53.8998C7.40023 54.0998 7.10022 54.1998 6.80022 54.0998C6.60022 53.9998 6.40023 53.6998 6.50023 53.4998C6.60023 53.2998 7.90022 48.6998 13.8002 45.5998C16.0002 44.3998 18.3002 43.7998 20.7002 43.7998C24.3002 43.7998 27.7002 45.0998 31.0002 46.2998C34.2002 47.4998 37.5002 48.6998 41.0002 48.7998C51.3002 49.0998 54.3002 44.7998 54.3002 44.7998C54.4002 44.5998 54.7002 44.4998 55.0002 44.5998C55.2002 44.6998 55.4002 44.9998 55.3002 45.1998C55.2002 45.3998 53.9002 49.9998 48.0002 53.0998C45.5002 54.3998 43.1002 54.9998 40.6002 54.9998ZM17.5002 48.5998C18.5002 48.5998 19.6002 48.6998 20.7002 48.7998C23.9002 49.1998 26.9002 50.2998 29.8002 51.3998C33.4002 52.6998 36.9002 53.9998 40.5002 53.9998C42.9002 53.9998 45.1002 53.3998 47.3002 52.2998C50.2002 50.7998 51.9002 48.8998 52.9002 47.3998C50.9002 48.6998 47.1002 50.1998 40.8002 49.9998C37.2002 49.8998 33.8002 48.5998 30.5002 47.3998C27.1002 46.0998 24.0002 44.9998 20.6002 44.9998C18.4002 44.9998 16.2002 45.4998 14.2002 46.5998C11.7002 47.8998 10.1002 49.4998 9.10024 50.8998C10.8002 49.6998 13.5002 48.5998 17.5002 48.5998Z" fill="white"/>
<path d="M34.7999 59.5001C25.3999 59.3001 17.6999 51.0002 7.8999 56.2002C2.1999 59.2002 0.899902 63.7002 0.899902 63.7002C0.899902 63.7002 3.99991 58.1002 14.5999 59.4002C23.7999 60.6002 31.8999 67.8002 41.4999 62.7002C47.1999 59.7002 48.4999 55.2002 48.4999 55.2002C48.4999 55.2002 45.4999 59.8001 34.7999 59.5001Z" fill="#004E93"/>
<path d="M34.5001 65.0999C30.7001 65.0999 27.0001 63.7999 23.5001 62.4999C20.6001 61.4999 17.7001 60.3999 14.6001 59.9999C13.5001 59.8999 12.5001 59.7999 11.5001 59.7999C3.90014 59.7999 1.50013 63.7999 1.40013 63.9999C1.30013 64.1999 1.00015 64.2999 0.70015 64.1999C0.50015 64.0999 0.300132 63.7999 0.400132 63.5999C0.500132 63.3999 1.80015 58.7999 7.70015 55.6999C9.90015 54.4999 12.2001 53.8999 14.6001 53.8999C18.2001 53.8999 21.6001 55.1999 24.9001 56.3999C28.1001 57.5999 31.4001 58.7999 34.9001 58.8999C45.2001 59.1999 48.2001 54.8999 48.2001 54.8999C48.3001 54.6999 48.6001 54.5999 48.9001 54.6999C49.1001 54.7999 49.3001 55.0999 49.2001 55.2999C49.1001 55.4999 47.8001 60.0999 41.9001 63.1999C39.4001 64.4999 37.0001 65.0999 34.5001 65.0999ZM11.4001 58.6999C12.4001 58.6999 13.5001 58.7999 14.6001 58.8999C17.7001 59.2999 20.8001 60.3999 23.7001 61.4999C27.3001 62.7999 30.8001 64.0999 34.4001 64.0999C36.8001 64.0999 39.0001 63.4999 41.2001 62.3999C44.1001 60.8999 45.8001 58.9999 46.8001 57.4999C44.8001 58.7999 41.0001 60.2999 34.7001 60.0999C31.1001 59.9999 27.7001 58.6999 24.4001 57.4999C21.0001 56.1999 17.9001 55.0999 14.5001 55.0999C12.3001 55.0999 10.1001 55.5999 8.10014 56.6999C5.60014 57.9999 4.00014 59.5999 3.00014 60.9999C4.70014 59.7999 7.40013 58.6999 11.4001 58.6999Z" fill="white"/>
</g>
</g>
<defs>
<clipPath id="clip0_1178_276">
<rect width="295" height="70" fill="white"/>
</clipPath>
</defs>
</svg>
