<svg width="21" height="30" viewBox="0 0 21 30" fill="none" xmlns="http://www.w3.org/2000/svg">
<path d="M13.9916 29.9995C13.3727 29.9987 12.7794 29.763 12.3418 29.344C11.9042 28.925 11.6579 28.357 11.6571 27.7645V22.0555C11.6571 22.0154 11.6484 21.9757 11.6317 21.9389C11.615 21.9021 11.5906 21.8689 11.56 21.8415L9.78269 20.258L8.67863 22.503C8.63998 22.5814 8.59327 22.656 8.53918 22.7255L4.39188 28.038C4.2197 28.3008 3.99268 28.5267 3.72505 28.7015C3.45741 28.8763 3.15493 28.9963 2.83658 29.054C2.37904 29.1389 1.90554 29.0935 1.47468 28.9234C1.04381 28.7534 0.674497 28.4661 0.412434 28.0971C0.150372 27.7281 0.00706721 27.2937 0.000254707 26.8476C-0.0065578 26.4014 0.123421 25.9632 0.374105 25.587L4.2023 20.354C4.22191 20.3273 4.23658 20.2975 4.24565 20.266L6.75617 11.772C6.77084 11.724 6.7722 11.6732 6.76011 11.6245C6.74802 11.5759 6.7229 11.5311 6.68723 11.4945C6.67018 11.4768 6.65108 11.4611 6.63031 11.4475L4.81805 15.3375C4.71368 15.5793 4.56001 15.7987 4.36603 15.983C4.17205 16.1673 3.94165 16.3127 3.6883 16.4107C3.43494 16.5088 3.16371 16.5575 2.89046 16.554C2.61722 16.5505 2.34744 16.495 2.09689 16.3905C1.84634 16.2861 1.62005 16.1348 1.43125 15.9457C1.24245 15.7566 1.09493 15.5333 0.997304 15.2889C0.899678 15.0446 0.85391 14.784 0.862675 14.5225C0.871439 14.2611 0.93456 14.0039 1.04835 13.766L3.44345 8.66101C3.63943 8.29278 3.94636 7.98935 4.32451 7.79001C4.34599 7.77907 4.36814 7.76938 4.39084 7.76101L9.34347 5.97451C9.67469 5.85393 10.0423 5.86363 10.3661 6.00151L13.4318 7.30151C13.7085 7.41939 13.936 7.62273 14.0778 7.87901L14.9463 9.45001C14.9756 9.50222 15.0206 9.54487 15.0753 9.57251L19.8196 11.9625C20.0736 12.0846 20.2997 12.2539 20.4846 12.4605C20.6696 12.6672 20.8097 12.907 20.8969 13.166C20.984 13.425 21.0164 13.698 20.9922 13.9691C20.968 14.2403 20.8877 14.5041 20.7558 14.7452C20.624 14.9863 20.4434 15.1998 20.2245 15.3734C20.0056 15.5469 19.7528 15.6771 19.4808 15.7561C19.2088 15.8352 18.9231 15.8616 18.6404 15.8339C18.3576 15.8061 18.0835 15.7247 17.8339 15.5945C17.8313 15.593 14.9004 14.0995 13.3764 13.3195C13.3363 13.2991 13.292 13.2876 13.2466 13.2856C13.2013 13.2837 13.1561 13.2915 13.1143 13.3084C13.0724 13.3253 13.0351 13.3509 13.0049 13.3834C12.9747 13.4158 12.9525 13.4543 12.9398 13.496L12.3517 15.418C12.3387 15.4611 12.3362 15.5064 12.3444 15.5505C12.3525 15.5946 12.3711 15.6363 12.3987 15.6725L16.0206 20.4225C16.22 20.683 16.3272 20.9976 16.3267 21.3205V27.7635C16.3261 28.3562 16.08 28.9245 15.6424 29.3437C15.2047 29.7629 14.6107 29.9987 13.9916 29.9995ZM9.61505 18.926C9.74697 18.9259 9.87405 18.9736 9.97071 19.0595L12.2713 21.1095C12.4068 21.2307 12.515 21.3772 12.589 21.54C12.663 21.7028 12.7014 21.8785 12.7016 22.056V27.7645C12.7016 28.0921 12.8376 28.4063 13.0795 28.638C13.3215 28.8696 13.6497 28.9998 13.9919 28.9998C14.3341 28.9998 14.6623 28.8696 14.9042 28.638C15.1462 28.4063 15.2821 28.0921 15.2821 27.7645V21.321C15.2822 21.2099 15.2453 21.1016 15.1766 21.012L11.5547 16.2625C11.4333 16.1023 11.3517 15.9177 11.3162 15.7227C11.2806 15.5278 11.292 15.3276 11.3495 15.1375L11.9376 13.2155C11.9939 13.0311 12.0924 12.861 12.2261 12.7177C12.3597 12.5744 12.525 12.4614 12.7101 12.3869C12.8951 12.3125 13.0951 12.2785 13.2956 12.2874C13.496 12.2963 13.6919 12.348 13.8689 12.4385C15.3528 13.197 16.8372 13.9545 18.3222 14.711C18.455 14.7773 18.6006 14.8168 18.75 14.8272C18.8994 14.8375 19.0494 14.8184 19.1908 14.7711C19.3322 14.7238 19.4619 14.6492 19.572 14.552C19.6822 14.4548 19.7703 14.3371 19.8311 14.206C19.9437 13.9618 19.9551 13.6858 19.8631 13.4338C19.7711 13.1819 19.5824 12.9728 19.3354 12.849L19.3333 12.848L14.588 10.4575C14.3476 10.3365 14.151 10.1488 14.024 9.91901L13.1544 8.34701C13.1225 8.28922 13.0712 8.24341 13.0087 8.21701L9.94303 6.91651C9.8699 6.88552 9.78696 6.88336 9.71219 6.91051L4.79664 8.68351C4.6205 8.78232 4.47683 8.92645 4.38196 9.09951L2.00305 14.1725C1.94703 14.2899 1.91608 14.4167 1.91199 14.5457C1.90791 14.6747 1.93078 14.8031 1.97927 14.9235C2.02775 15.0439 2.10087 15.1538 2.19434 15.2467C2.2878 15.3397 2.39972 15.4138 2.52352 15.4648C2.64733 15.5157 2.78052 15.5425 2.91528 15.5435C3.05004 15.5445 3.18366 15.5197 3.30828 15.4706C3.43289 15.4215 3.546 15.349 3.64097 15.2575C3.73593 15.1659 3.81083 15.0572 3.86126 14.9375L5.82968 10.7105C5.86403 10.6368 5.91651 10.5722 5.98262 10.5221C6.04874 10.472 6.12654 10.438 6.20936 10.423C6.43552 10.3818 6.66892 10.3966 6.88741 10.4661C7.10591 10.5355 7.30223 10.6572 7.45775 10.8198C7.61326 10.9823 7.7228 11.1801 7.77597 11.3946C7.82914 11.609 7.82417 11.8329 7.76153 12.045L5.25101 20.539C5.20982 20.678 5.14449 20.8093 5.05777 20.9275L1.24159 26.1435C1.06679 26.4162 1.0047 26.7415 1.06751 27.0557C1.13031 27.37 1.31347 27.6504 1.58106 27.842C1.73059 27.949 1.90185 28.0249 2.08383 28.0648C2.26582 28.1046 2.4545 28.1076 2.63776 28.0735C2.82102 28.0394 2.99481 27.969 3.14795 27.8668C3.3011 27.7646 3.43022 27.6328 3.52701 27.48L7.70199 22.1285C7.7142 22.1129 7.7247 22.0962 7.73333 22.0785L9.1424 19.213C9.17733 19.1418 9.22937 19.0794 9.29427 19.0311C9.35917 18.9828 9.43508 18.9499 9.51582 18.935C9.5485 18.9289 9.58174 18.9258 9.61505 18.926ZM13.097 6.08151C12.4687 6.08151 11.8546 5.90316 11.3323 5.56901C10.8099 5.23486 10.4028 4.75992 10.1624 4.20425C9.92195 3.64858 9.85904 3.03714 9.98161 2.44724C10.1042 1.85735 10.4067 1.31549 10.8509 0.890201C11.2951 0.46491 11.8611 0.175283 12.4773 0.057945C13.0935 -0.0593926 13.7321 0.000829339 14.3125 0.230995C14.893 0.461161 15.389 0.850934 15.7381 1.35102C16.0871 1.85111 16.2734 2.43906 16.2734 3.04051C16.2723 3.84671 15.9373 4.61959 15.3418 5.18966C14.7464 5.75972 13.9391 6.08045 13.097 6.08151ZM13.097 0.999513C12.6753 0.999513 12.2632 1.11922 11.9126 1.34348C11.562 1.56775 11.2887 1.88651 11.1274 2.25946C10.966 2.6324 10.9238 3.04278 11.0061 3.43869C11.0883 3.83461 11.2914 4.19828 11.5895 4.48372C11.8877 4.76916 12.2675 4.96354 12.6811 5.0423C13.0946 5.12105 13.5233 5.08063 13.9128 4.92615C14.3024 4.77167 14.6353 4.51007 14.8696 4.17443C15.1038 3.83879 15.2289 3.44418 15.2289 3.04051C15.2283 2.49937 15.0035 1.98054 14.6038 1.59789C14.2042 1.21525 13.6622 1.00004 13.097 0.999513Z" fill="#D94625"/>
</svg>
