<svg width="16" height="16" viewBox="0 0 16 16" fill="none" xmlns="http://www.w3.org/2000/svg">
<path d="M15.5 11.6901V13.9401C15.5008 14.1489 15.458 14.3557 15.3743 14.5471C15.2907 14.7385 15.1679 14.9103 15.014 15.0515C14.8601 15.1927 14.6784 15.3002 14.4805 15.3671C14.2826 15.434 14.073 15.4589 13.865 15.4401C11.5571 15.1893 9.3402 14.4007 7.39245 13.1376C5.58032 11.9861 4.04395 10.4497 2.89245 8.63757C1.62493 6.68098 0.836132 4.45332 0.58995 2.13507C0.571208 1.92767 0.595856 1.71864 0.662325 1.52129C0.728794 1.32394 0.835628 1.14259 0.976024 0.988789C1.11642 0.834987 1.2873 0.712105 1.47779 0.627964C1.66828 0.543824 1.87421 0.500269 2.08245 0.500073H4.33245C4.69643 0.49649 5.04929 0.625382 5.32527 0.862722C5.60125 1.10006 5.78151 1.42966 5.83245 1.79007C5.92742 2.51012 6.10354 3.21712 6.35745 3.89757C6.45836 4.16602 6.4802 4.45776 6.42038 4.73823C6.36056 5.01871 6.2216 5.27616 6.01995 5.48007L5.06745 6.43257C6.13512 8.31023 7.68979 9.86491 9.56745 10.9326L10.5199 9.98007C10.7239 9.77843 10.9813 9.63946 11.2618 9.57964C11.5423 9.51983 11.834 9.54167 12.1024 9.64257C12.7829 9.89649 13.4899 10.0726 14.21 10.1676C14.5743 10.219 14.907 10.4025 15.1448 10.6832C15.3827 10.9639 15.5091 11.3223 15.5 11.6901Z" fill="white"/>
</svg>
