<svg width="20" height="20" viewBox="0 0 20 20" fill="none" xmlns="http://www.w3.org/2000/svg">
<path d="M11.0469 5.32432V2.20867L19.1617 8.23896L11.0469 14.2693V11.1686V10.6686H10.5469H8.78905C4.48068 10.6686 0.946168 14.0416 0.687091 18.2858H0.499999V16.4421C0.499999 10.716 4.99809 6.11089 10.5726 5.82366L11.0469 5.79922V5.32432ZM1.0312 13.7195L1.9271 14.1313C3.45743 11.886 5.98182 10.4968 8.78905 10.4968H11.2187V12.9329V13.9274L12.017 13.3342L18.3335 8.64025L18.8736 8.23892L18.3335 7.8376L12.017 3.1437L11.2187 2.55053V3.54503V5.98115H11.1328C6.30461 5.98115 2.23219 9.26775 1.0312 13.7195Z" fill="#D94625" stroke="#D94625" stroke-width="0.999998"/>
</svg>
