<svg width="24" height="8" viewBox="0 0 24 8" fill="none" xmlns="http://www.w3.org/2000/svg">
<path d="M10.7406 3.99739C10.6978 3.95305 10.6465 3.91768 10.5899 3.89334C10.5332 3.86901 10.4723 3.8562 10.4107 3.85567C10.349 3.85513 10.2879 3.86688 10.2308 3.89022C10.1738 3.91357 10.1219 3.94804 10.0783 3.99163C10.0347 4.03523 10.0003 4.08707 9.97691 4.14412C9.95357 4.20118 9.94182 4.26232 9.94236 4.32397C9.94289 4.38562 9.9557 4.44654 9.98003 4.50319C10.0044 4.55983 10.0397 4.61106 10.0841 4.65389L10.8594 5.42832C5.22858 5.25839 1.32115 3.84789 1.32115 2.6621C1.32115 2.23032 1.97115 1.55525 3.78836 0.953533C3.84629 0.934388 3.89987 0.904022 3.94606 0.864169C3.99224 0.824315 4.03013 0.775754 4.05755 0.72126C4.08497 0.666765 4.10139 0.607403 4.10587 0.546564C4.11034 0.485724 4.10279 0.424598 4.08365 0.366676C4.06451 0.308753 4.03414 0.255169 3.99429 0.208982C3.95443 0.162795 3.90587 0.124911 3.85138 0.097491C3.79688 0.0700712 3.73752 0.0536535 3.67668 0.0491751C3.61584 0.0446967 3.55471 0.0522453 3.49679 0.0713901C1.46601 0.743676 0.392578 1.63882 0.392578 2.6621C0.392578 5.00489 5.80522 6.21389 10.8957 6.35967L10.0841 7.17125C9.9969 7.2583 9.94787 7.37643 9.94779 7.49963C9.9477 7.62284 9.99656 7.74103 10.0836 7.82821C10.1707 7.91539 10.2888 7.96442 10.412 7.96451C10.5352 7.96459 10.6534 7.91573 10.7406 7.82868L12.3284 6.24082C12.4155 6.15375 12.4644 6.03568 12.4644 5.91257C12.4644 5.78946 12.4155 5.67138 12.3284 5.58432L10.7406 3.99739ZM20.5027 0.0713901C20.4443 0.0502275 20.3823 0.0409836 20.3203 0.0442045C20.2583 0.0474253 20.1976 0.0630453 20.1417 0.0901417C20.0859 0.117238 20.036 0.15526 19.9951 0.201959C19.9542 0.248658 19.9231 0.303084 19.9036 0.36202C19.8841 0.420956 19.8766 0.483204 19.8816 0.545082C19.8866 0.606961 19.9039 0.667213 19.9326 0.722275C19.9612 0.777338 20.0007 0.826091 20.0485 0.865653C20.0963 0.905215 20.1516 0.934782 20.2111 0.952605C22.0283 1.5571 22.6783 2.23032 22.6783 2.6621C22.6783 3.77639 19.2964 5.13582 13.8346 5.40418C13.7736 5.40564 13.7135 5.4191 13.6578 5.44378C13.602 5.46847 13.5516 5.50389 13.5095 5.54804C13.4246 5.6372 13.3785 5.75647 13.3814 5.8796C13.3844 6.00274 13.4361 6.11966 13.5253 6.20464C13.6145 6.28962 13.7337 6.3357 13.8569 6.33275H13.8792C18.7207 6.0941 23.6069 4.86746 23.6069 2.6621C23.6069 1.63882 22.5334 0.743676 20.5027 0.0713901Z" fill="white"/>
</svg>
