<svg width="175" height="842" viewBox="0 0 175 842" fill="none" xmlns="http://www.w3.org/2000/svg">
<path fill-rule="evenodd" clip-rule="evenodd" d="M-248.755 0.740723H-245.206H-139.304L-140.339 25.626V29.3292V52.8813H-38.5789V30.5142V24.8854C-38.5789 20.7378 -38.7268 0.740723 -38.7268 0.740723H70.7248V3.70326V104.429C69.7874 104.821 88.4867 104.757 106.081 104.698C121.802 104.644 136.642 104.594 135.804 104.874H171.154V103.689H174.704V210.933H174.852L174.79 268.242L171.154 270.035L73.2392 319.954L174.408 373.131V637.538L70.8727 637.093V821.215H67.175V817.512V635.464H61.9982C61.8503 635.908 61.4066 636.204 60.9629 636.204C60.5191 636.204 60.0755 635.908 59.9276 635.464H54.1591C54.0112 635.908 53.5675 636.204 53.1238 636.204C52.6801 636.204 52.2363 635.908 52.0884 635.464H46.32C46.1721 635.908 45.7284 636.204 45.2847 636.204C44.8409 636.204 44.3972 635.908 44.2493 635.464H38.3331C38.1851 635.908 37.7414 636.204 37.2977 636.204C36.8539 636.204 36.4102 635.908 36.2623 635.464H30.6418C30.4939 635.908 30.0502 636.204 29.6065 636.204C29.1628 636.204 28.719 635.908 28.5711 635.464H22.6548C22.5069 635.908 22.0632 636.204 21.6195 636.204C21.1757 636.204 20.7321 635.908 20.5841 635.464H17.4781V638.13H17.626C18.2176 638.13 18.6613 638.574 18.6613 639.167C18.6613 639.759 18.2176 640.204 17.626 640.204H17.4781V646.129H17.626C18.2176 646.129 18.6613 646.573 18.6613 647.166C18.6613 647.758 18.2176 648.203 17.626 648.203H17.4781V654.128H17.626C18.2176 654.128 18.6613 654.572 18.6613 655.165C18.6613 655.757 18.2176 656.201 17.626 656.201H17.4781V662.127H17.626C18.2176 662.127 18.6613 662.571 18.6613 663.164C18.6613 663.756 18.2176 664.2 17.626 664.2H17.4781V670.125H17.626C18.2176 670.125 18.6613 670.57 18.6613 671.162C18.6613 671.755 18.2176 672.199 17.626 672.199H17.4781V678.124H17.626C18.2176 678.124 18.6613 678.569 18.6613 679.161C18.6613 679.754 18.2176 680.198 17.626 680.198H17.4781V686.123H17.626C18.2176 686.123 18.6613 686.568 18.6613 687.16C18.6613 687.753 18.2176 688.197 17.626 688.197H17.4781V694.122H17.626C18.2176 694.122 18.6613 694.566 18.6613 695.159C18.6613 695.751 18.2176 696.196 17.626 696.196H17.4781V702.121H17.626C18.2176 702.121 18.6613 702.565 18.6613 703.158C18.6613 703.75 18.2176 704.195 17.626 704.195H17.4781V710.12H17.626C18.2176 710.12 18.6613 710.564 18.6613 711.156C18.6613 711.749 18.2176 712.193 17.626 712.193H17.4781V718.118H17.626C18.2176 718.118 18.6613 718.563 18.6613 719.155C18.6613 719.748 18.2176 720.192 17.626 720.192H17.4781V726.117H17.626C18.2176 726.117 18.6613 726.562 18.6613 727.154C18.6613 727.747 18.2176 728.191 17.626 728.191H17.4781V734.116H17.626C18.2176 734.116 18.6613 734.561 18.6613 735.153C18.6613 735.746 18.2176 736.19 17.626 736.19H17.4781V742.115H17.626C18.2176 742.115 18.6613 742.559 18.6613 743.152C18.6613 743.744 18.2176 744.189 17.626 744.189H17.4781V750.114H17.626C18.2176 750.114 18.6613 750.558 18.6613 751.151C18.6613 751.743 18.2176 752.188 17.626 752.188H17.4781V758.113H17.626C18.2176 758.113 18.6613 758.557 18.6613 759.15C18.6613 759.742 18.2176 760.187 17.626 760.187H17.4781V766.112H17.626C18.2176 766.112 18.6613 766.556 18.6613 767.148C18.6613 767.741 18.2176 768.185 17.626 768.185H17.4781V774.11H17.626C18.2176 774.11 18.6613 774.555 18.6613 775.147C18.6613 775.74 18.2176 776.184 17.626 776.184H17.4781V782.109H17.626C18.2176 782.109 18.6613 782.554 18.6613 783.146C18.6613 783.739 18.2176 784.183 17.626 784.183H17.4781V790.108H17.626C18.2176 790.108 18.6613 790.552 18.6613 791.145C18.6613 791.737 18.2176 792.182 17.626 792.182H17.4781V798.107H17.626C18.2176 798.107 18.6613 798.551 18.6613 799.144C18.6613 799.736 18.2176 800.181 17.626 800.181H17.4781V806.106H17.626C18.2176 806.106 18.6613 806.55 18.6613 807.143C18.6613 807.735 18.2176 808.18 17.626 808.18H17.4781V814.105H17.626C18.2176 814.105 18.6613 814.549 18.6613 815.141C18.6613 815.734 18.2176 816.178 17.626 816.178H17.4781V817.512H17.626C18.2176 817.512 18.6613 817.956 18.6613 818.548C18.6613 819.141 18.2176 819.585 17.626 819.585H17.4781V819.882H13.7804V817.512V740.782H-87.5362V819.882H-91.2339V819.733H-245.501V819.882H-249.051V738.264H-349.48V840.619C-377.335 840.619 -401.062 826.011 -404.058 795.144C-406.129 816.475 -420.92 834.102 -440.591 840.619H-452.022C-452.597 840.678 -453.175 840.728 -453.755 840.767V840.619H-459.819L-509.812 741.374L-559.805 840.619H-564.094V808.18C-569.715 823.437 -581.991 835.435 -597.373 840.619H-607.417C-609.504 840.901 -611.632 841.052 -613.791 841.064L-614.359 840.619H-620.891L-620.743 840.767C-621.088 840.722 -621.433 840.672 -621.776 840.619H-631.54C-647.218 835.287 -659.642 822.992 -665.115 807.291V771.592C-659.642 756.039 -647.366 743.596 -631.836 738.264H-665.115V734.561H-662.6C-662.6 733.968 -662.157 733.672 -661.565 733.672C-660.974 733.672 -660.53 734.116 -660.53 734.561H-654.761C-654.761 733.968 -654.318 733.672 -653.726 733.672C-653.134 733.672 -652.691 734.116 -652.691 734.561H-647.218C-647.218 733.968 -646.774 733.672 -646.183 733.672C-645.591 733.672 -645.148 734.116 -645.148 734.561H-639.675C-639.675 733.968 -639.231 733.672 -638.639 733.672C-638.048 733.672 -637.604 734.116 -637.604 734.561H-631.984C-631.984 733.968 -631.54 733.672 -630.948 733.672C-630.357 733.672 -629.913 734.116 -629.913 734.561H-623.701C-623.701 733.968 -623.257 733.672 -622.665 733.672C-622.074 733.672 -621.63 734.116 -621.63 734.561H-616.453V635.464H-617.489C-617.489 636.056 -617.933 636.353 -618.524 636.353C-619.116 636.353 -619.559 635.908 -619.559 635.464H-625.328C-625.328 636.056 -625.771 636.353 -626.363 636.353C-626.955 636.353 -627.399 635.908 -627.399 635.464H-633.167C-633.167 636.056 -633.611 636.353 -634.202 636.353C-634.794 636.353 -635.238 635.908 -635.238 635.464H-640.858C-640.858 636.056 -641.302 636.353 -641.893 636.353C-642.485 636.353 -642.929 635.908 -642.929 635.464H-648.549C-648.549 636.056 -648.993 636.353 -649.585 636.353C-650.176 636.353 -650.62 635.908 -650.62 635.464H-656.388C-656.388 636.056 -656.832 636.353 -657.424 636.353C-658.015 636.353 -658.459 635.908 -658.459 635.464H-664.228C-664.228 635.908 -664.523 636.204 -664.967 636.353V631.761H-510.847V610.727H-664.819V607.023H-510.847V584.36H-664.819V580.657H-616.306V425.272H-664.819V421.569H-629.913L-629.915 421.568C-631.245 421.124 -632.575 420.68 -632.575 420.532C-647.662 415.051 -659.642 402.905 -664.967 387.648V351.949C-659.495 336.396 -647.218 323.953 -631.688 318.621H-664.967V314.918H-662.453C-662.453 314.325 -662.009 314.029 -661.417 314.029C-660.826 314.029 -660.382 314.473 -660.382 314.918H-654.614C-654.614 314.325 -654.17 314.029 -653.578 314.029C-652.987 314.029 -652.543 314.473 -652.543 314.918H-647.07C-647.07 314.325 -646.626 314.029 -646.035 314.029C-645.443 314.029 -645 314.473 -645 314.918H-639.527C-639.527 314.325 -639.083 314.029 -638.492 314.029C-637.9 314.029 -637.456 314.473 -637.456 314.918H-631.836C-631.836 314.325 -631.392 314.029 -630.8 314.029C-630.209 314.029 -629.765 314.473 -629.765 314.918H-623.701C-623.701 314.325 -623.257 314.029 -622.665 314.029C-622.074 314.029 -621.63 314.473 -621.63 314.918H-616.453V214.488H-617.489C-617.489 215.08 -617.933 215.376 -618.524 215.376C-619.116 215.376 -619.559 214.932 -619.559 214.488H-625.328C-625.328 215.08 -625.771 215.376 -626.363 215.376C-626.955 215.376 -627.399 214.932 -627.399 214.488H-633.167C-633.167 215.08 -633.611 215.376 -634.202 215.376C-634.794 215.376 -635.238 214.932 -635.238 214.488H-640.858C-640.858 215.08 -641.302 215.376 -641.893 215.376C-642.485 215.376 -642.929 214.932 -642.929 214.488H-648.549C-648.549 215.08 -648.993 215.376 -649.585 215.376C-650.176 215.376 -650.62 214.932 -650.62 214.488H-656.388C-656.388 215.08 -656.832 215.376 -657.424 215.376C-658.015 215.376 -658.459 214.932 -658.459 214.488H-664.228C-664.228 214.932 -664.523 215.228 -664.967 215.376V210.784H-510.847V189.75H-664.819V186.047H-510.847V163.384H-664.819V159.681H-616.306V4.29575H-664.819V0.740723H-353.326H-344.156V4.44389L-248.755 53.0295V4.44389V0.740723ZM-621.776 840.619C-645.824 836.912 -664.228 815.968 -664.228 790.849C-664.228 764.186 -643.52 742.263 -617.341 740.486L-627.251 769.518L-636.569 794.7C-637.456 796.774 -637.16 799.144 -636.125 801.069C-634.942 802.995 -633.167 804.328 -630.948 804.625L-625.032 805.661L-626.215 811.29C-626.363 812.031 -626.067 812.92 -625.328 813.364L-622.813 814.993L-624.293 818.697C-624.588 819.437 -624.44 820.326 -623.849 820.918L-621.039 823.437L-621.778 824.177C-624.145 826.103 -625.476 829.065 -625.328 832.176C-625.18 835.435 -623.553 838.694 -620.891 840.619H-621.776ZM-614.359 840.619C-618.524 837.36 -618.524 837.36 -618.524 837.36C-620.151 836.027 -621.334 833.954 -621.334 831.88C-621.334 829.954 -620.595 828.177 -619.116 826.992L-616.601 824.918C-616.01 824.325 -615.862 823.585 -616.01 822.844C-616.158 822.548 -616.305 822.252 -616.601 821.955L-620.151 818.845L-619.116 816.178L-614.826 816.475H-614.679C-613.643 816.475 -612.756 815.734 -612.756 814.697C-612.608 813.66 -613.495 812.623 -614.531 812.623L-616.897 812.475C-618.82 812.327 -620.595 811.883 -622.074 810.846L-620.743 804.625C-620.595 804.18 -620.595 803.736 -620.743 803.44C-621.039 802.847 -621.63 802.403 -622.222 802.254L-630.209 800.921C-631.244 800.773 -632.132 800.033 -632.723 799.144C-633.315 798.107 -633.463 797.07 -633.019 796.033L-623.701 770.852L-613.051 740.338C-585.984 740.93 -564.094 763.297 -564.094 790.701C-564.094 816.215 -583.043 837.33 -607.417 840.619H-614.359ZM-453.755 840.619V741.374C-427.871 743.3 -407.312 764.927 -407.312 791.145C-407.312 816.923 -426.823 838.029 -452.022 840.619H-453.755ZM-211.039 210.933C-227.161 205.6 -239.881 193.009 -245.354 176.863V210.933H-211.039ZM-139.6 56.5845C-137.677 83.0992 -115.934 104.133 -89.459 104.133C-62.9836 104.133 -41.2412 83.0992 -39.3184 56.5845H-139.6ZM-38.4309 70.9528C-43.7556 86.6542 -56.032 99.245 -71.5623 104.726H-38.4309V70.9528ZM40.8474 4.29575H17.626V104.726H40.8474V4.29575ZM-22.7528 108.429C-1.74992 114.354 13.9283 132.574 16.1469 154.644C18.3655 132.425 34.0437 114.354 55.0466 108.429H-22.7528ZM70.7248 210.933H171.154V204.415H70.7248V210.933ZM70.7248 200.86H171.154V194.046H70.7248V200.86ZM70.7248 190.343H171.154V183.529H70.7248V190.343ZM70.7248 179.826H171.154V173.012H70.7248V179.826ZM70.7248 169.161H171.154V162.347H70.7248V169.161ZM70.7248 158.644H171.154V135.536H70.7248V158.644ZM70.7248 131.981H171.154V108.577H70.7248V131.981ZM67.0271 4.29575H44.5451V104.726H67.0271V4.29575ZM65.9917 110.355C40.1079 112.28 19.5488 133.759 19.5488 160.125C19.5488 186.344 40.1079 207.97 65.9917 209.896V110.355ZM53.1238 210.933C33.1563 204.563 18.2176 186.788 16.1469 165.31C14.0762 186.788 -0.862442 204.563 -20.83 210.933H53.1238ZM12.745 159.977C12.745 133.759 -7.8141 112.132 -33.6979 110.206V209.599C-7.8141 207.822 12.745 186.344 12.745 159.977ZM-34.7332 11.2577C-34.2895 11.4059 -33.8458 11.8502 -33.8458 12.2946C-33.8458 12.739 -34.1416 13.1834 -34.7332 13.3315V19.2566C-34.2895 19.4047 -33.8458 19.8491 -33.8458 20.2934C-33.8458 20.7378 -34.1416 21.1822 -34.7332 21.3303V27.2554C-34.2895 27.4035 -33.8458 27.8479 -33.8458 28.2923C-33.8458 28.7367 -34.1416 29.1811 -34.7332 29.3292V35.2543C-34.2895 35.4024 -33.8458 35.8468 -33.8458 36.2911C-33.8458 36.7355 -34.1416 37.1799 -34.7332 37.328V43.2531C-34.2895 43.4012 -33.8458 43.8456 -33.8458 44.29C-33.8458 44.7344 -34.1416 45.1787 -34.7332 45.3269V51.252C-34.2895 51.4001 -33.8458 51.8445 -33.8458 52.2888C-33.8458 52.7332 -34.1416 53.1776 -34.7332 53.3257V59.2508C-34.2895 59.3989 -33.8458 59.8433 -33.8458 60.2877C-33.8458 60.732 -34.1416 61.1764 -34.7332 61.3245V67.2496C-34.2895 67.3977 -33.8458 67.8421 -33.8458 68.2865C-33.8458 68.7309 -34.1416 69.1753 -34.7332 69.3234V75.2485C-34.2895 75.3966 -33.8458 75.841 -33.8458 76.2854C-33.8458 76.7297 -34.1416 77.1741 -34.7332 77.3222V83.2473C-34.2895 83.3954 -33.8458 83.8398 -33.8458 84.2842C-33.8458 84.7286 -34.1416 85.173 -34.7332 85.3211V91.2462C-34.2895 91.3943 -33.8458 91.8387 -33.8458 92.2831C-33.8458 92.7274 -34.1416 93.1718 -34.7332 93.3199V99.245C-34.2895 99.3931 -33.8458 99.8375 -33.8458 100.282C-33.8458 100.726 -34.1416 101.171 -34.7332 101.319V104.133H-32.0709C-32.0709 103.541 -31.6272 103.244 -31.0356 103.244C-30.4439 103.244 -30.0002 103.689 -30.0002 104.133H-24.2318C-24.2318 103.541 -23.7881 103.244 -23.1965 103.244C-22.6049 103.244 -22.1611 103.689 -22.1611 104.133H-16.6886C-16.6886 103.541 -16.2448 103.244 -15.6532 103.244C-15.0616 103.244 -14.6179 103.689 -14.6179 104.133H-9.14528C-9.14528 103.541 -8.70154 103.244 -8.10989 103.244C-7.51826 103.244 -7.07457 103.689 -7.07457 104.133H-1.45407C-1.45407 103.541 -1.01036 103.244 -0.418732 103.244C0.172897 103.244 0.616623 103.689 0.616623 104.133H6.23709C6.23709 103.541 6.68083 103.244 7.27246 103.244C7.86409 103.244 8.30777 103.689 8.30777 104.133H13.7804V3.70326H12.5971C12.5971 4.29576 12.1534 4.59203 11.5618 4.59203C10.9702 4.59203 10.5264 4.14764 10.5264 3.70326H4.75801C4.75801 4.29576 4.31435 4.59203 3.72272 4.59203C3.13109 4.59203 2.68733 4.14764 2.68733 3.70326H-3.08105C-3.08105 4.29576 -3.5248 4.59203 -4.11642 4.59203C-4.70805 4.59203 -5.15176 4.14764 -5.15176 3.70326H-10.7723C-10.7723 4.29576 -11.216 4.59203 -11.8076 4.59203C-12.3992 4.59203 -12.843 4.14764 -12.843 3.70326H-18.4634C-18.4634 4.29576 -18.9072 4.59203 -19.4988 4.59203C-20.0904 4.59203 -20.5342 4.14764 -20.5342 3.70326H-26.3026C-26.3026 4.29576 -26.7463 4.59203 -27.3379 4.59203C-27.9295 4.59203 -28.3732 4.14764 -28.3732 3.70326H-34.1416C-34.1416 4.14764 -34.5854 4.59203 -34.8812 4.59203V11.2577H-34.7332ZM-38.4309 108.429H-87.0925L-38.4309 205.156V108.429ZM-39.6142 210.933L-89.607 111.54L-139.6 210.933H-39.6142ZM-140.339 203.971L-92.2693 108.429H-140.339V203.971ZM-140.339 104.726H-107.356C-122.738 99.245 -134.867 86.9505 -140.339 71.2491V104.726ZM171.154 214.784H75.7536L171.154 263.369V214.784ZM171.154 374.865L82.4094 421.569H171.154V374.865ZM138.319 498.447L144.826 488.818C147.637 484.671 147.045 479.19 143.643 475.635L109.624 441.418L107.85 443.195C104.743 446.306 104.743 451.342 107.85 454.453L129.296 476.079C131.663 478.449 131.958 482.153 130.036 484.967L122.049 496.225C119.091 500.52 119.386 506.149 122.64 510L123.38 510.741C124.119 511.482 124.119 512.815 123.38 513.555C122.936 514 122.492 514.148 122.049 514.148C121.605 514.148 121.309 514 120.865 513.704C120.809 513.647 120.752 513.612 120.704 513.582C120.626 513.534 120.57 513.499 120.57 513.407C120.422 513.259 120.126 512.963 119.978 512.667L96.9044 489.411C94.8337 487.337 93.6504 484.523 93.6504 481.412C93.6504 478.449 94.8337 475.635 96.9044 473.413L99.2709 471.043C97.2002 466.896 97.7918 461.711 101.194 458.304L103.856 455.638C100.602 451.046 101.046 444.528 105.187 440.381L108.293 437.27C109.033 436.53 110.364 436.53 111.103 437.27L146.601 472.821C151.482 477.709 152.074 485.263 148.376 490.892L141.868 500.52C140.093 503.187 140.389 506.89 142.608 509.112L148.968 515.481C153.997 512.222 158.286 507.927 161.688 503.187L163.906 499.78C168.344 492.373 170.858 483.782 170.858 474.598C170.858 447.491 148.968 425.568 122.197 425.568C95.2774 425.568 73.535 447.491 73.535 474.598C73.535 501.705 95.4253 523.628 122.197 523.628H123.232L127.817 523.332C134.177 522.591 140.093 520.666 145.418 517.703L139.65 511.926C135.952 508.519 135.508 502.742 138.319 498.447ZM118.943 493.707L119.83 492.521L101.637 474.154L99.5667 476.228C98.2356 477.561 97.496 479.486 97.496 481.412C97.496 483.338 98.2356 485.263 99.5667 486.596L116.132 503.187C115.984 499.928 116.872 496.669 118.943 493.707ZM103.856 471.043L122.049 489.263L126.782 482.597C127.669 481.412 127.521 479.783 126.486 478.894L106.37 458.6L103.856 461.119C101.194 463.785 101.194 468.229 103.856 471.043ZM171.154 425.272H139.945C154.292 430.604 165.829 442.158 171.154 456.675V425.272ZM171.154 492.966C165.386 508.815 152.222 521.11 135.804 525.702H171.154V492.966ZM70.7248 631.909H171.154V625.391H70.7248V631.909ZM70.7248 621.688H171.154V614.874H70.7248V621.688ZM70.7248 611.171H171.154V604.357H70.7248V611.171ZM70.7248 600.654H171.154V593.84H70.7248V600.654ZM70.7248 590.137H171.154V583.323H70.7248V590.137ZM70.7248 579.62H171.154V556.512H70.7248V579.62ZM70.7248 552.809H171.154V529.405H70.7248V552.809ZM70.7248 525.702H108.145C89.2132 520.517 74.7183 504.964 70.7248 485.56V525.702ZM70.7248 464.081C74.4224 446.158 87.1425 431.493 104.004 425.272H70.7248V464.081ZM70.7248 421.569H74.2745L169.231 373.131L70.7248 322.916V421.569ZM70.7248 317.139L169.527 266.776L70.7248 216.413V317.139ZM-90.9381 365.725C-91.2339 365.577 -91.3818 365.281 -91.3818 364.984C-91.3818 364.688 -91.2339 364.392 -90.9381 364.244V357.874C-91.2339 357.726 -91.3818 357.43 -91.3818 357.134C-91.3818 356.837 -91.2339 356.541 -90.9381 356.393V349.579C-91.2339 349.431 -91.3818 349.135 -91.3818 348.839C-91.3818 348.542 -91.2339 348.246 -90.9381 348.098V341.728C-91.2339 341.58 -91.3818 341.284 -91.3818 340.988C-91.3818 340.692 -91.2339 340.395 -90.9381 340.247V333.878C-91.2339 333.73 -91.3818 333.433 -91.3818 333.137C-91.3818 332.841 -91.2339 332.545 -90.9381 332.396V326.027C-91.2339 325.879 -91.3818 325.583 -91.3818 325.286C-91.3818 324.99 -91.2339 324.694 -90.9381 324.546V318.176C-91.2339 318.028 -91.3818 317.732 -91.3818 317.436C-91.3818 317.139 -91.2339 316.843 -90.9381 316.695V310.326C-91.2339 310.177 -91.3818 309.881 -91.3818 309.585C-91.3818 309.289 -91.2339 308.992 -90.9381 308.844V302.475C-91.2339 302.327 -91.3818 302.031 -91.3818 301.734C-91.3818 301.438 -91.2339 301.142 -90.9381 300.994V294.624C-91.2339 294.476 -91.3818 294.18 -91.3818 293.884C-91.3818 293.587 -91.2339 293.291 -90.9381 293.143V286.181V285.885V285.588V278.182V277.886V277.59V270.183V269.887V269.591V262.184V261.888V261.592V254.186V253.889V253.593V246.187V245.89V245.594V238.188V237.892V237.595V230.189V229.893V229.597V222.19V221.894V221.598V214.784H-141.966H-192.698V370.169H-90.9381V365.725ZM14.0762 214.784H-87.2404V222.338H14.0762V214.784ZM-177.02 529.405C-161.786 534.589 -149.509 546.588 -144.037 561.845V529.405H-177.02ZM-154.39 525.702V425.272H-161.194V525.702H-154.39ZM-164.892 525.702V425.272H-171.696V525.702H-164.892ZM-193.29 530.294L-203.644 560.66L-212.962 585.841C-213.406 586.878 -213.258 587.915 -212.666 588.952C-212.074 589.841 -211.187 590.581 -210.152 590.729L-202.165 592.063C-201.573 592.211 -200.981 592.655 -200.685 593.248C-200.538 593.544 -200.538 593.988 -200.685 594.433L-202.017 600.654C-200.538 601.691 -198.763 602.135 -196.84 602.283L-194.473 602.432C-193.438 602.432 -192.551 603.468 -192.698 604.505C-192.698 605.542 -193.586 606.283 -194.621 606.283H-194.769L-199.058 605.987L-200.094 608.653L-196.544 611.763C-196.248 612.06 -196.1 612.356 -195.952 612.652C-195.805 613.393 -195.952 614.133 -196.544 614.726L-199.058 616.8C-200.538 617.985 -201.277 619.762 -201.277 621.688C-201.277 623.762 -200.094 625.836 -198.467 627.169L-193.734 630.872C-166.371 630.724 -144.037 608.208 -144.037 580.509C-144.333 553.105 -166.223 530.738 -193.29 530.294ZM-185.747 525.702V425.272H-192.698V525.702H-185.747ZM-201.869 613.837L-201.129 613.097L-203.939 610.578C-204.531 609.986 -204.679 609.097 -204.383 608.357L-202.904 604.653L-205.419 603.024C-206.158 602.58 -206.454 601.691 -206.306 600.95L-205.123 595.47L-211.039 594.433C-213.258 594.136 -215.033 592.803 -216.216 590.878C-217.251 588.952 -217.547 586.582 -216.659 584.508L-207.341 559.327L-197.431 530.294C-223.611 531.923 -244.318 553.846 -244.318 580.509C-244.318 605.987 -225.386 627.169 -200.833 630.427L-200.981 630.279C-203.644 628.354 -205.271 625.095 -205.419 621.836C-205.566 618.725 -204.235 615.763 -201.869 613.837ZM-177.76 631.909H-144.037V599.321C-149.657 614.726 -162.082 626.872 -177.76 631.909ZM-182.197 525.702H-175.393V425.272H-182.197V525.702ZM-150.693 525.702H-143.889V425.272H-150.693V525.702ZM-192.698 636.649V790.997H-90.9381V786.553C-91.2339 786.405 -91.3818 786.109 -91.3818 785.812C-91.3818 785.516 -91.2339 785.22 -90.9381 785.072V778.702C-91.2339 778.554 -91.3818 778.258 -91.3818 777.962C-91.3818 777.665 -91.2339 777.369 -90.9381 777.221V770.852C-91.2339 770.704 -91.3818 770.407 -91.3818 770.111C-91.3818 769.815 -91.2339 769.518 -90.9381 769.37V763.001C-91.2339 762.853 -91.3818 762.556 -91.3818 762.26C-91.3818 761.964 -91.2339 761.668 -90.9381 761.52V755.15C-91.2339 755.002 -91.3818 754.706 -91.3818 754.41C-91.3818 754.113 -91.2339 753.817 -90.9381 753.669V747.299C-91.2339 747.151 -91.3818 746.855 -91.3818 746.559C-91.3818 746.263 -91.2339 745.966 -90.9381 745.818V739.449C-91.2339 739.301 -91.3818 739.004 -91.3818 738.708C-91.3818 738.412 -91.2339 738.116 -90.9381 737.967V730.265C-91.2339 730.117 -91.3818 729.821 -91.3818 729.524C-91.3818 729.228 -91.2339 728.932 -90.9381 728.784V722.414C-91.2339 722.266 -91.3818 721.97 -91.3818 721.674C-91.3818 721.377 -91.2339 721.081 -90.9381 720.933V714.563C-91.2339 714.415 -91.3818 714.119 -91.3818 713.823C-91.3818 713.527 -91.2339 713.23 -90.9381 713.082V706.12V705.824V705.528V698.121V697.825V697.529V690.123V689.826V689.53V682.124V681.827V681.531V674.125V673.829V673.532V666.126V665.83V665.534V658.127V657.831V657.535V650.128V649.832V649.536V642.13V641.833V641.537V636.649H-141.966H-192.698ZM-85.6134 372.687C-85.6134 381.575 -83.2469 389.87 -79.1055 396.98L-76.8869 400.387C-73.6329 405.127 -69.4915 409.274 -64.9064 412.681L-59.138 406.904C-56.7715 404.534 -56.4756 400.979 -58.3984 398.313L-64.9064 388.685C-68.752 383.056 -68.0125 375.353 -63.1315 370.613L-27.6337 335.063C-26.8942 334.322 -25.563 334.322 -24.8235 335.063L-21.7174 338.173C-17.576 342.321 -17.1323 348.839 -20.3862 353.431L-17.7239 356.097C-14.322 359.504 -13.5825 364.836 -15.8011 368.836L-13.4346 371.206C-11.3639 373.279 -10.1806 376.094 -10.1806 379.205C-10.1806 382.167 -11.3639 384.981 -13.4346 387.203L-36.5081 410.459C-36.5821 410.607 -36.693 410.719 -36.804 410.83C-36.9149 410.941 -37.0258 411.052 -37.0998 411.2C-37.1275 411.228 -37.1552 411.25 -37.1819 411.269C-37.2097 411.289 -37.2364 411.306 -37.261 411.321C-37.3391 411.37 -37.3956 411.405 -37.3956 411.496C-37.6914 411.792 -38.1351 411.941 -38.5789 411.941C-39.0226 411.941 -39.6142 411.792 -39.91 411.348C-40.6496 410.607 -40.6496 409.274 -39.91 408.534L-39.1705 407.793C-35.7686 403.942 -35.4728 398.165 -38.5789 394.017L-46.5658 382.76C-48.4886 380.093 -48.1928 376.242 -45.8263 373.872L-24.3797 352.245C-21.2737 349.135 -21.2737 344.099 -24.3797 340.988L-26.0067 339.21L-60.0254 373.428C-63.5752 376.983 -64.019 382.463 -61.2087 386.611L-54.7008 396.239C-51.8905 400.535 -52.3343 406.164 -56.032 409.867L-61.2087 415.051C-55.884 418.31 -49.8199 420.384 -43.3119 421.421L-40.3538 421.717H-32.2189C-7.37039 419.495 12.1534 398.461 12.1534 372.835C12.1534 345.728 -9.73691 323.805 -36.5081 323.805C-63.7231 323.657 -85.6134 345.728 -85.6134 372.687ZM-48.4886 321.287H-87.2404V358.022C-81.9157 339.803 -67.125 325.583 -48.4886 321.287ZM-87.2404 387.351V421.569H-56.7715C-71.4144 415.496 -82.8032 402.905 -87.2404 387.351ZM-32.8105 400.831L-16.2448 384.241C-14.9137 382.908 -14.1741 380.982 -14.1741 379.056C-14.1741 377.131 -14.9137 375.205 -16.2448 373.872L-18.3156 371.798L-36.5081 390.166L-35.6207 391.351C-33.55 394.313 -32.6626 397.572 -32.8105 400.831ZM-20.682 368.688C-18.0197 366.021 -18.0197 361.429 -20.682 358.763L-23.1965 356.245L-43.3119 376.538C-44.3473 377.575 -44.4951 379.056 -43.6077 380.241L-38.8747 386.907L-20.682 368.688ZM-38.4309 450.157H-140.191V473.709H-38.4309V450.157ZM-71.5623 525.702H-38.4309V491.781C-43.9035 507.63 -56.032 520.073 -71.5623 525.702ZM-38.4309 529.405H-87.0925L-38.4309 626.132V529.405ZM-39.3184 477.413H-139.6C-137.677 503.927 -115.934 524.961 -89.459 524.961C-62.9836 525.109 -41.0933 504.075 -39.3184 477.413ZM-140.339 492.225V525.702H-107.356C-122.738 520.221 -134.867 507.779 -140.339 492.225ZM-140.339 529.405V624.947L-92.2693 529.405H-140.339ZM-140.339 446.454H-38.5789V425.124H-140.339V446.454ZM14.0762 226.041H-87.2404V232.855H14.0762V226.041ZM14.0762 236.559H-87.2404V243.372H14.0762V236.559ZM14.0762 247.075H-87.2404V253.889H14.0762V247.075ZM14.0762 257.592H-87.2404V264.406H14.0762V257.592ZM14.0762 268.109H-87.2404V275.516H14.0762V268.109ZM14.0762 279.219H-87.2404V286.033H14.0762V279.219ZM14.0762 289.736H-87.2404V296.55H14.0762V289.736ZM14.0762 300.253H-87.2404V307.067H14.0762V300.253ZM14.0762 310.77H-87.2404V317.584H14.0762V310.77ZM14.0762 321.287H-25.2672C-5.8913 325.731 9.49109 340.988 14.0762 360.392V321.287ZM14.0762 385.13C10.0827 401.72 -1.60197 415.199 -16.9843 421.569H14.0762V385.13ZM13.9283 425.272H12.8929C12.8929 425.864 12.4492 426.161 11.8576 426.161C11.266 426.161 10.8222 425.716 10.8222 425.272H5.05385C5.05385 425.864 4.61012 426.161 4.01849 426.161C3.42685 426.161 2.98317 425.716 2.98317 425.272H-2.78528C-2.78528 425.864 -3.22897 426.161 -3.8206 426.161C-4.41223 426.161 -4.85597 425.716 -4.85597 425.272H-10.4764C-10.4764 425.864 -10.9202 426.161 -11.5118 426.161C-12.1034 426.161 -12.5471 425.716 -12.5471 425.272H-18.1676C-18.1676 425.864 -18.6113 426.161 -19.203 426.161C-19.7946 426.161 -20.2383 425.716 -20.2383 425.272H-26.0067C-26.0067 425.864 -26.4504 426.161 -27.0421 426.161C-27.6337 426.161 -28.0774 425.716 -28.0774 425.272H-33.8458C-33.8458 425.716 -34.2896 426.161 -34.5854 426.161V432.086C-34.1417 432.234 -33.6979 432.678 -33.6979 433.123C-33.6979 433.567 -33.9937 434.011 -34.5854 434.16V440.085C-34.1417 440.233 -33.6979 440.677 -33.6979 441.122C-33.6979 441.566 -33.9937 442.01 -34.5854 442.158V448.083C-34.1417 448.232 -33.6979 448.676 -33.6979 449.12C-33.6979 449.565 -33.9937 450.009 -34.5854 450.157V456.082C-34.1417 456.23 -33.6979 456.675 -33.6979 457.119C-33.6979 457.564 -33.9937 458.008 -34.5854 458.156V464.081C-34.1417 464.229 -33.6979 464.674 -33.6979 465.118C-33.6979 465.562 -33.9937 466.007 -34.5854 466.155V472.08C-34.1417 472.228 -33.6979 472.672 -33.6979 473.117C-33.6979 473.561 -33.9937 474.006 -34.5854 474.154V480.079C-34.1417 480.227 -33.6979 480.671 -33.6979 481.116C-33.6979 481.56 -33.9937 482.004 -34.5854 482.153V488.078C-34.1417 488.226 -33.6979 488.67 -33.6979 489.115C-33.6979 489.559 -33.9937 490.003 -34.5854 490.151V496.077C-34.1417 496.225 -33.6979 496.669 -33.6979 497.113C-33.6979 497.558 -33.9937 498.002 -34.5854 498.15V504.075C-34.1417 504.223 -33.6979 504.668 -33.6979 505.112C-33.6979 505.557 -33.9937 506.001 -34.5854 506.149V512.074C-34.1417 512.222 -33.6979 512.667 -33.6979 513.111C-33.6979 513.555 -33.9937 514 -34.5854 514.148V520.073C-34.1417 520.221 -33.6979 520.666 -33.6979 521.11C-33.6979 521.554 -33.9937 521.999 -34.5854 522.147V524.961H-31.923C-31.923 524.369 -31.4793 524.073 -30.8877 524.073C-30.2961 524.073 -29.8523 524.517 -29.8523 524.961H-24.084C-24.084 524.369 -23.6402 524.073 -23.0486 524.073C-22.4569 524.073 -22.0132 524.517 -22.0132 524.961H-16.5406C-16.5406 524.369 -16.0969 524.073 -15.5053 524.073C-14.9137 524.073 -14.4699 524.517 -14.4699 524.961H-8.99736C-8.99736 524.369 -8.55367 524.073 -7.96204 524.073C-7.37039 524.073 -6.92667 524.517 -6.92667 524.961H-1.3062C-1.3062 524.369 -0.862442 524.073 -0.270813 524.073C0.320816 524.073 0.764542 524.517 0.764542 524.961H6.38501C6.38501 524.369 6.82877 524.073 7.42039 524.073C8.01202 524.073 8.4557 524.517 8.4557 524.961H13.9283V425.272ZM-22.7528 529.405C-1.74992 535.33 13.9283 553.55 16.1469 575.62C18.3655 553.401 34.0437 535.33 55.0466 529.405H-22.7528ZM40.8474 525.702V425.272H17.626V525.702H40.8474ZM-33.8458 531.183V630.576C-7.96202 628.65 12.5971 607.171 12.5971 580.805C12.7451 554.735 -7.81412 533.108 -33.8458 531.183ZM61.8503 214.784C61.7024 215.228 61.2587 215.524 60.8149 215.524C60.3712 215.524 59.9275 215.228 59.7796 214.784H54.0112C53.8633 215.228 53.4196 215.524 52.9759 215.524C52.5322 215.524 52.0884 215.228 51.9405 214.784H46.1721C46.0242 215.228 45.5805 215.524 45.1368 215.524C44.6931 215.524 44.2493 215.228 44.1014 214.784H38.1851C38.0372 215.228 37.5935 215.524 37.1497 215.524C36.706 215.524 36.2623 215.228 36.1144 214.784H30.4939C30.346 215.228 29.9023 215.524 29.4586 215.524C29.0149 215.524 28.5711 215.228 28.4232 214.784H22.5069C22.359 215.228 21.9153 215.524 21.4716 215.524C21.0279 215.524 20.5841 215.228 20.4362 214.784H17.3302V217.45H17.4781C18.0697 217.45 18.5134 217.895 18.5134 218.487C18.5134 219.08 18.0697 219.524 17.4781 219.524H17.3302V225.449H17.4781C18.0697 225.449 18.5134 225.893 18.5134 226.486C18.5134 227.078 18.0697 227.523 17.4781 227.523H17.3302V233.448H17.4781C18.0697 233.448 18.5134 233.892 18.5134 234.485C18.5134 235.077 18.0697 235.522 17.4781 235.522H17.3302V241.447H17.4781C18.0697 241.447 18.5134 241.891 18.5134 242.484C18.5134 243.076 18.0697 243.52 17.4781 243.52H17.3302V249.445H17.4781C18.0697 249.445 18.5134 249.89 18.5134 250.482C18.5134 251.075 18.0697 251.519 17.4781 251.519H17.3302V257.444H17.4781C18.0697 257.444 18.5134 257.889 18.5134 258.481C18.5134 259.074 18.0697 259.518 17.4781 259.518H17.3302V265.443H17.4781C18.0697 265.443 18.5134 265.888 18.5134 266.48C18.5134 267.073 18.0697 267.517 17.4781 267.517H17.3302V273.442H17.4781C18.0697 273.442 18.5134 273.886 18.5134 274.479C18.5134 275.071 18.0697 275.516 17.4781 275.516H17.3302V281.441H17.4781C18.0697 281.441 18.5134 281.885 18.5134 282.478C18.5134 283.07 18.0697 283.515 17.4781 283.515H17.3302V289.44H17.4781C18.0697 289.44 18.5134 289.884 18.5134 290.477C18.5134 291.069 18.0697 291.513 17.4781 291.513H17.3302V297.439H17.4781C18.0697 297.439 18.5134 297.883 18.5134 298.475C18.5134 299.068 18.0697 299.512 17.4781 299.512H17.3302V305.437H17.4781C18.0697 305.437 18.5134 305.882 18.5134 306.474C18.5134 307.067 18.0697 307.511 17.4781 307.511H17.3302V313.436H17.4781C18.0697 313.436 18.5134 313.881 18.5134 314.473C18.5134 315.066 18.0697 315.51 17.4781 315.51H17.3302V321.435H17.4781C18.0697 321.435 18.5134 321.88 18.5134 322.472C18.5134 323.065 18.0697 323.509 17.4781 323.509H17.3302V329.434H17.4781C18.0697 329.434 18.5134 329.878 18.5134 330.471C18.5134 331.063 18.0697 331.508 17.4781 331.508H17.3302V337.433H17.4781C18.0697 337.433 18.5134 337.877 18.5134 338.47C18.5134 339.062 18.0697 339.507 17.4781 339.507H17.3302V345.432H17.4781C18.0697 345.432 18.5134 345.876 18.5134 346.469C18.5134 347.061 18.0697 347.505 17.4781 347.505H17.3302V353.431H17.4781C18.0697 353.431 18.5134 353.875 18.5134 354.467C18.5134 355.06 18.0697 355.504 17.4781 355.504H17.3302V361.429H17.4781C18.0697 361.429 18.5134 361.874 18.5134 362.466C18.5134 363.059 18.0697 363.503 17.4781 363.503H17.3302V369.428H17.4781C18.0697 369.428 18.5134 369.873 18.5134 370.465C18.5134 371.058 18.0697 371.502 17.4781 371.502H17.3302V377.427H17.4781C18.0697 377.427 18.5134 377.871 18.5134 378.464C18.5134 379.056 18.0697 379.501 17.4781 379.501H17.3302V385.426H17.4781C18.0697 385.426 18.5134 385.87 18.5134 386.463C18.5134 387.055 18.0697 387.5 17.4781 387.5H17.3302V393.425H17.4781C18.0697 393.425 18.5134 393.869 18.5134 394.462C18.5134 395.054 18.0697 395.498 17.4781 395.498H17.3302V401.424H17.4781C18.0697 401.424 18.5134 401.868 18.5134 402.46C18.5134 403.053 18.0697 403.497 17.4781 403.497H17.3302V409.422H17.4781C18.0697 409.422 18.5134 409.867 18.5134 410.459C18.5134 411.052 18.0697 411.496 17.4781 411.496H17.3302V417.421H17.4781C18.0697 417.421 18.5134 417.866 18.5134 418.458C18.5134 419.051 18.0697 419.495 17.4781 419.495H17.3302V420.236H67.0271V213.303H61.8503V214.784ZM67.0271 425.272H44.5451V525.702H67.0271V425.272ZM65.9917 630.576V531.183C40.1079 533.108 19.5488 554.587 19.5488 580.953C19.5488 607.172 40.1079 628.798 65.9917 630.576ZM53.1238 631.909C33.1563 625.539 18.2176 607.764 16.1469 586.286C14.0762 607.764 -0.862442 625.539 -20.83 631.909H53.1238ZM-87.2404 738.412H14.0762V731.598H-87.2404V738.412ZM-87.2404 727.895H14.0762V721.081H-87.2404V727.895ZM-87.2404 717.378H14.0762V710.564H-87.2404V717.378ZM-87.2404 706.861H14.0762V700.047H-87.2404V706.861ZM-87.2404 696.344H14.0762V688.938H-87.2404V696.344ZM-87.2404 685.234H14.0762V678.42H-87.2404V685.234ZM-87.2404 674.717H14.0762V667.904H-87.2404V674.717ZM-87.2404 664.2H14.0762V657.387H-87.2404V664.2ZM-87.2404 653.683H14.0762V646.87H-87.2404V653.683ZM-87.2404 643.166H14.0762V635.612H-87.2404V643.166ZM-39.6142 631.909L-89.607 532.516L-139.6 631.909H-39.6142ZM-245.206 817.363H-90.9381V794.7H-245.206V817.363ZM-245.206 790.997H-196.544V635.612H-245.206V790.997ZM-245.206 631.909H-210.891C-227.013 626.576 -239.733 613.985 -245.206 597.84V631.909ZM-245.206 563.178C-239.881 547.328 -227.457 534.738 -211.631 529.257H-245.206V563.178ZM-245.206 432.086C-244.762 432.234 -244.318 432.53 -244.318 433.123C-244.318 433.715 -244.762 434.16 -245.206 434.16V440.085C-244.762 440.233 -244.318 440.529 -244.318 441.122C-244.318 441.714 -244.762 442.158 -245.206 442.158V448.083C-244.762 448.232 -244.318 448.528 -244.318 449.12C-244.318 449.713 -244.762 450.157 -245.206 450.157V456.082C-244.762 456.23 -244.318 456.527 -244.318 457.119C-244.318 457.712 -244.762 458.156 -245.206 458.156V464.081C-244.762 464.229 -244.318 464.526 -244.318 465.118C-244.318 465.711 -244.762 466.155 -245.206 466.155V472.08C-244.762 472.228 -244.318 472.524 -244.318 473.117C-244.318 473.709 -244.762 474.154 -245.206 474.154V480.079C-244.762 480.227 -244.318 480.523 -244.318 481.116C-244.318 481.708 -244.762 482.153 -245.206 482.153V488.078C-244.762 488.226 -244.318 488.522 -244.318 489.115C-244.318 489.707 -244.762 490.151 -245.206 490.151V496.077C-244.762 496.225 -244.318 496.521 -244.318 497.113C-244.318 497.706 -244.762 498.15 -245.206 498.15V504.075C-244.762 504.223 -244.318 504.52 -244.318 505.112C-244.318 505.705 -244.762 506.149 -245.206 506.149V512.074C-244.762 512.222 -244.318 512.519 -244.318 513.111C-244.318 513.704 -244.762 514.148 -245.206 514.148V520.073C-244.762 520.221 -244.318 520.517 -244.318 521.11C-244.318 521.702 -244.762 522.147 -245.206 522.147V524.961H-242.543C-242.543 524.369 -242.099 524.073 -241.508 524.073C-240.916 524.073 -240.473 524.517 -240.473 524.961H-234.704C-234.704 524.369 -234.26 524.073 -233.669 524.073C-233.077 524.073 -232.633 524.517 -232.633 524.961H-227.161C-227.161 524.369 -226.717 524.073 -226.126 524.073C-225.534 524.073 -225.09 524.517 -225.09 524.961H-219.618C-219.618 524.369 -219.174 524.073 -218.582 524.073C-217.991 524.073 -217.547 524.517 -217.547 524.961H-211.926C-211.926 524.369 -211.483 524.073 -210.891 524.073C-210.299 524.073 -209.856 524.517 -209.856 524.961H-204.235C-204.235 524.369 -203.792 524.073 -203.2 524.073C-202.608 524.073 -202.165 524.517 -202.165 524.961H-196.988V424.531H-198.023C-198.023 425.124 -198.467 425.42 -199.058 425.42C-199.65 425.42 -200.094 424.976 -200.094 424.531H-205.862C-205.862 425.124 -206.306 425.42 -206.898 425.42C-207.489 425.42 -207.933 424.976 -207.933 424.531H-213.701C-213.701 425.124 -214.145 425.42 -214.737 425.42C-215.328 425.42 -215.772 424.976 -215.772 424.531H-221.392C-221.392 425.124 -221.836 425.42 -222.428 425.42C-223.02 425.42 -223.463 424.976 -223.463 424.531H-229.084C-229.084 425.124 -229.527 425.42 -230.119 425.42C-230.711 425.42 -231.154 424.976 -231.154 424.531H-236.923C-236.923 425.124 -237.367 425.42 -237.958 425.42C-238.55 425.42 -238.994 424.976 -238.994 424.531H-244.762C-244.762 424.976 -245.206 425.42 -245.649 425.42V432.086H-245.206ZM-245.206 421.569H-90.9381V400.239H-245.206V421.569ZM-245.206 396.535H-90.9381V373.872H-245.206V396.535ZM-245.206 370.021H-196.544V214.636H-245.206V370.021ZM-185.747 4.29575H-192.698V104.726H-185.747V4.29575ZM-175.393 4.29575H-182.197V104.726H-175.393V4.29575ZM-177.02 108.429C-161.786 113.613 -149.509 125.612 -144.037 140.869V108.429H-177.02ZM-164.892 4.29575H-171.696V104.726H-164.892V4.29575ZM-154.39 4.29575H-161.194V104.726H-154.39V4.29575ZM-150.693 4.29575V104.726H-143.889V4.29575H-150.693ZM-144.037 210.933V178.345C-149.657 193.75 -162.229 205.896 -177.76 210.933H-144.037ZM-198.763 206.193L-194.03 209.896C-166.667 209.748 -144.333 187.232 -144.333 159.533C-144.333 132.129 -166.223 109.762 -193.29 109.169L-203.644 139.535L-212.962 164.717C-213.406 165.754 -213.258 166.791 -212.666 167.828C-212.074 168.716 -211.187 169.457 -210.152 169.605L-202.165 170.938C-201.573 171.086 -200.981 171.531 -200.685 172.123C-200.538 172.42 -200.538 172.864 -200.685 173.308L-202.017 179.53C-200.538 180.567 -198.763 181.011 -196.84 181.159L-194.473 181.307C-193.438 181.307 -192.551 182.344 -192.698 183.381C-192.698 184.418 -193.586 185.158 -194.621 185.158H-194.769L-199.058 184.862L-200.094 187.529L-196.544 190.639C-196.248 190.935 -196.1 191.232 -195.952 191.528C-195.805 192.269 -195.952 193.009 -196.544 193.602L-199.058 195.676C-200.538 196.861 -201.277 198.638 -201.277 200.564C-201.573 202.934 -200.538 205.008 -198.763 206.193ZM-200.833 209.451L-200.981 209.303C-203.644 207.378 -205.271 204.119 -205.419 200.86C-205.566 197.749 -204.235 194.787 -201.869 192.861L-201.129 192.12L-203.939 189.602C-204.531 189.01 -204.679 188.121 -204.383 187.38L-202.904 183.677L-205.419 182.048C-206.158 181.603 -206.454 180.715 -206.306 179.974L-205.123 174.345L-211.039 173.308C-213.258 173.012 -215.033 171.679 -216.216 169.753C-217.251 167.828 -217.547 165.458 -216.659 163.384L-207.341 138.202L-197.431 109.169C-223.611 110.799 -244.318 132.722 -244.318 159.384C-244.318 185.158 -225.238 206.341 -200.833 209.451ZM-245.206 142.35C-239.881 126.5 -227.457 113.91 -211.631 108.429H-245.206V142.35ZM-245.206 11.2577C-244.762 11.4059 -244.318 11.7021 -244.318 12.2946C-244.318 12.8871 -244.762 13.3315 -245.206 13.3315V19.2566C-244.762 19.4047 -244.318 19.7009 -244.318 20.2934C-244.318 20.886 -244.762 21.3303 -245.206 21.3303V27.2554C-244.762 27.4035 -244.318 27.6998 -244.318 28.2923C-244.318 28.8848 -244.762 29.3292 -245.206 29.3292V35.2543C-244.762 35.4024 -244.318 35.6986 -244.318 36.2911C-244.318 36.8836 -244.762 37.328 -245.206 37.328V43.2531C-244.762 43.4012 -244.318 43.6975 -244.318 44.29C-244.318 44.8825 -244.762 45.3269 -245.206 45.3269V51.252C-244.762 51.4001 -244.318 51.6963 -244.318 52.2888C-244.318 52.8813 -244.762 53.3257 -245.206 53.3257V59.2508C-244.762 59.3989 -244.318 59.6952 -244.318 60.2877C-244.318 60.8802 -244.762 61.3245 -245.206 61.3245V67.2496C-244.762 67.3977 -244.318 67.694 -244.318 68.2865C-244.318 68.879 -244.762 69.3234 -245.206 69.3234V75.2485C-244.762 75.3966 -244.318 75.6928 -244.318 76.2854C-244.318 76.8779 -244.762 77.3222 -245.206 77.3222V83.2473C-244.762 83.3954 -244.318 83.6917 -244.318 84.2842C-244.318 84.8767 -244.762 85.3211 -245.206 85.3211V91.2462C-244.762 91.3943 -244.318 91.6905 -244.318 92.2831C-244.318 92.8756 -244.762 93.3199 -245.206 93.3199V99.245C-244.762 99.3931 -244.318 99.6894 -244.318 100.282C-244.318 100.874 -244.762 101.319 -245.206 101.319V104.133H-242.543C-242.543 103.541 -242.099 103.244 -241.508 103.244C-240.916 103.244 -240.473 103.689 -240.473 104.133H-234.704C-234.704 103.541 -234.26 103.244 -233.669 103.244C-233.077 103.244 -232.633 103.689 -232.633 104.133H-227.161C-227.161 103.541 -226.717 103.244 -226.126 103.244C-225.534 103.244 -225.09 103.689 -225.09 104.133H-219.618C-219.618 103.541 -219.174 103.244 -218.582 103.244C-217.991 103.244 -217.547 103.689 -217.547 104.133H-211.926C-211.926 103.541 -211.483 103.244 -210.891 103.244C-210.299 103.244 -209.856 103.689 -209.856 104.133H-204.235C-204.235 103.541 -203.792 103.244 -203.2 103.244C-202.608 103.244 -202.165 103.689 -202.165 104.133H-196.988V3.70326H-198.023C-198.023 4.29576 -198.467 4.59203 -199.058 4.59203C-199.65 4.59203 -200.094 4.14764 -200.094 3.70326H-205.862C-205.862 4.29576 -206.306 4.59203 -206.898 4.59203C-207.489 4.59203 -207.933 4.14764 -207.933 3.70326H-213.701C-213.701 4.29576 -214.145 4.59203 -214.737 4.59203C-215.328 4.59203 -215.772 4.14764 -215.772 3.70326H-221.392C-221.392 4.29576 -221.836 4.59203 -222.428 4.59203C-223.02 4.59203 -223.463 4.14764 -223.463 3.70326H-229.084C-229.084 4.29576 -229.527 4.59203 -230.119 4.59203C-230.711 4.59203 -231.154 4.14764 -231.154 3.70326H-236.923C-236.923 4.29576 -237.367 4.59203 -237.958 4.59203C-238.55 4.59203 -238.994 4.14764 -238.994 3.70326H-244.762C-244.762 4.14764 -245.206 4.59203 -245.649 4.59203V11.2577H-245.206ZM-405.981 4.44389H-507.298V11.9984H-405.981V4.44389ZM-405.981 15.7015H-507.298V22.5154H-405.981V15.7015ZM-405.981 26.2185H-507.298V33.0324H-405.981V26.2185ZM-405.981 36.7355H-507.298V43.5493H-405.981V36.7355ZM-405.981 47.2525H-507.298V54.0663H-405.981V47.2525ZM-405.981 57.7695H-507.298V65.1758H-405.981V57.7695ZM-405.981 68.879H-507.298V75.6929H-405.981V68.879ZM-405.981 79.396H-507.298V86.2098H-405.981V79.396ZM-405.981 89.913H-507.298V96.7269H-405.981V89.913ZM-405.981 100.43H-507.298V107.244H-405.981V100.43ZM-449.762 631.909C-426.244 628.354 -408.2 608.06 -408.2 583.471C-408.2 556.364 -430.09 534.441 -456.861 534.441C-483.78 534.441 -505.523 556.364 -505.523 583.471C-505.523 592.359 -503.156 600.654 -499.015 607.764L-496.796 611.171C-493.542 615.911 -489.401 620.059 -484.816 623.466L-479.047 617.689C-476.681 615.319 -476.385 611.763 -478.308 609.097L-484.816 599.469C-488.661 593.84 -487.922 586.138 -483.041 581.397L-447.543 545.847C-446.804 545.106 -445.472 545.106 -444.733 545.847L-441.627 548.958C-437.485 553.105 -437.042 559.623 -440.296 564.215L-437.633 566.881C-434.231 570.288 -433.492 575.621 -435.71 579.62L-433.344 581.99C-431.273 584.064 -430.09 586.878 -430.09 589.989C-430.09 592.951 -431.273 595.766 -433.344 597.988L-456.418 621.244C-456.492 621.392 -456.602 621.503 -456.713 621.614C-456.824 621.725 -456.935 621.836 -457.009 621.984C-457.066 622.041 -457.122 622.076 -457.17 622.106C-457.248 622.154 -457.305 622.189 -457.305 622.281C-457.601 622.577 -458.044 622.725 -458.488 622.725C-458.932 622.725 -459.523 622.577 -459.819 622.132C-460.559 621.392 -460.559 620.059 -459.819 619.318L-459.08 618.577C-455.678 614.726 -455.382 608.949 -458.488 604.802L-466.475 593.544C-468.398 590.878 -468.102 587.026 -465.736 584.656L-444.289 563.03C-441.183 559.919 -441.183 554.883 -444.289 551.772L-446.064 549.995L-480.083 584.212C-483.633 587.767 -484.076 593.248 -481.266 597.395L-474.758 607.023C-471.948 611.319 -472.391 616.948 -476.089 620.651L-481.266 625.836C-475.941 628.946 -470.025 631.168 -463.665 632.057H-449.762V631.909ZM-458.488 702.121C-463.813 717.822 -476.089 730.413 -491.62 735.894H-458.488V702.121ZM-442.81 318.769C-421.807 324.694 -406.129 342.913 -403.91 364.984C-401.692 342.765 -386.014 324.694 -365.011 318.769H-442.81ZM-379.062 214.636H-402.283V315.066H-379.062V214.636ZM-453.755 320.546V419.939C-427.871 418.014 -407.312 396.535 -407.312 370.169C-407.312 344.098 -427.723 322.472 -453.755 320.546ZM-400.361 370.317C-400.361 396.535 -379.801 418.162 -353.918 420.087V320.694C-379.801 322.472 -400.361 344.099 -400.361 370.317ZM-403.762 375.65C-405.833 397.128 -420.772 414.903 -440.739 421.272H-366.638C-386.753 414.903 -401.692 397.128 -403.762 375.65ZM-405.981 531.923H-445.324C-425.949 536.367 -410.566 551.624 -405.981 571.029V531.923ZM-405.981 595.766C-409.827 612.06 -421.216 625.391 -436.302 631.909H-405.981V595.766ZM-452.868 611.467L-436.302 594.877C-434.971 593.544 -434.231 591.618 -434.231 589.693C-434.231 587.767 -434.971 585.841 -436.302 584.508L-438.373 582.434L-456.565 600.802L-455.678 601.987C-453.607 604.802 -452.72 608.208 -452.868 611.467ZM-440.591 579.176C-437.929 576.509 -437.929 571.917 -440.591 569.251L-443.106 566.733L-463.221 587.026C-464.257 588.063 -464.405 589.544 -463.517 590.729L-458.784 597.395L-440.591 579.176ZM-507.15 597.988V631.761H-477.42C-491.767 625.687 -502.86 613.245 -507.15 597.988ZM-468.398 531.923H-507.15V568.659C-501.973 550.291 -487.034 536.071 -468.398 531.923ZM-405.981 528.22V521.406H-507.298V528.22H-405.981ZM-405.981 517.703V510.889H-507.298V517.703H-405.981ZM-405.981 507.186V500.372H-507.298V507.186H-405.981ZM-405.981 496.521V489.707H-507.298V496.521H-405.981ZM-405.981 486.004V478.598H-507.298V486.004H-405.981ZM-405.981 475.043V468.229H-507.298V475.043H-405.981ZM-405.981 464.526V457.712H-507.298V464.526H-405.981ZM-405.981 454.009V447.195H-507.298V454.009H-405.981ZM-405.981 443.343V436.53H-507.298V443.343H-405.981ZM-405.981 432.826V425.272H-507.298V432.826H-405.981ZM-507.002 318.769L-458.34 415.496V318.769H-507.002ZM-458.488 315.066V281.293C-463.813 296.994 -476.089 309.585 -491.62 315.066H-458.488ZM-459.228 266.776H-559.509C-557.586 293.291 -535.844 314.325 -509.368 314.325C-482.893 314.473 -461.151 293.439 -459.228 266.776ZM-527.265 315.066C-542.648 309.585 -554.776 297.29 -560.249 281.589V315.066H-527.265ZM-560.249 318.769V414.311L-512.179 318.769H-560.249ZM-458.488 263.073V239.521H-560.249V263.073H-458.488ZM-449.762 210.933C-426.244 207.377 -408.2 187.084 -408.2 162.495C-408.2 135.388 -430.09 113.465 -456.861 113.465C-483.78 113.465 -505.523 135.388 -505.523 162.495C-505.523 171.383 -503.156 179.678 -499.015 186.788L-496.796 190.195C-493.542 194.935 -489.401 199.082 -484.816 202.489L-479.047 196.712C-476.681 194.342 -476.385 190.787 -478.308 188.121L-484.816 178.493C-488.661 172.864 -487.922 165.161 -483.041 160.421L-447.543 124.871C-446.804 124.13 -445.472 124.13 -444.733 124.871L-441.627 127.982C-437.485 132.129 -437.042 138.647 -440.296 143.239L-437.633 145.905C-434.231 149.312 -433.492 154.644 -435.71 158.644L-433.344 161.014C-431.273 163.088 -430.09 165.902 -430.09 169.013C-430.09 171.975 -431.273 174.79 -433.344 177.012L-456.565 199.971C-456.639 200.119 -456.75 200.23 -456.861 200.341C-456.972 200.453 -457.083 200.564 -457.157 200.712C-457.214 200.768 -457.27 200.803 -457.318 200.833C-457.396 200.882 -457.453 200.917 -457.453 201.008C-457.749 201.304 -458.192 201.452 -458.636 201.452C-459.08 201.452 -459.671 201.304 -459.967 200.86C-460.707 200.119 -460.707 198.786 -459.967 198.046L-459.228 197.305C-455.826 193.454 -455.53 187.677 -458.636 183.529L-466.623 172.271C-468.546 169.605 -468.25 165.754 -465.884 163.384L-444.437 141.757C-441.331 138.647 -441.331 133.61 -444.437 130.5L-446.212 128.722L-480.231 162.939C-483.78 166.495 -484.224 171.975 -481.414 176.123L-474.906 185.751C-472.096 190.047 -472.539 195.676 -476.237 199.379L-481.414 204.563C-476.089 207.674 -470.173 209.896 -463.813 210.784H-449.762V210.933ZM-452.868 190.491L-436.302 173.901C-434.971 172.568 -434.231 170.642 -434.231 168.716C-434.231 166.791 -434.971 164.865 -436.302 163.532L-438.373 161.458L-456.565 179.826L-455.678 181.011C-453.607 183.974 -452.72 187.232 -452.868 190.491ZM-440.591 158.348C-437.929 155.681 -437.929 151.089 -440.591 148.423L-443.106 145.905L-463.221 166.198C-464.257 167.235 -464.405 168.716 -463.517 169.901L-458.784 176.567L-440.591 158.348ZM-507.15 177.16V210.933H-477.42C-491.767 204.859 -502.86 192.417 -507.15 177.16ZM-468.398 110.947H-507.15V147.682C-501.973 129.463 -487.034 115.243 -468.398 110.947ZM-405.981 110.947H-445.324C-425.949 115.391 -410.566 130.648 -405.981 150.052V110.947ZM-405.981 174.79C-409.827 191.084 -421.216 204.415 -436.302 210.933H-405.981V174.79ZM-406.277 214.636H-407.164C-407.164 215.228 -407.608 215.524 -408.2 215.524C-408.791 215.524 -409.235 215.08 -409.235 214.636H-415.003C-415.003 215.228 -415.447 215.524 -416.039 215.524C-416.63 215.524 -417.074 215.08 -417.074 214.636H-422.843C-422.843 215.228 -423.286 215.524 -423.878 215.524C-424.469 215.524 -424.913 215.08 -424.913 214.636H-430.534C-430.534 215.228 -430.977 215.524 -431.569 215.524C-432.161 215.524 -432.604 215.08 -432.604 214.636H-438.225C-438.225 215.228 -438.669 215.524 -439.26 215.524C-439.852 215.524 -440.296 215.08 -440.296 214.636H-446.064C-446.064 215.228 -446.508 215.524 -447.099 215.524C-447.691 215.524 -448.135 215.08 -448.135 214.636H-453.903C-453.903 215.08 -454.347 215.524 -454.643 215.524V221.45C-454.199 221.598 -453.755 222.042 -453.755 222.486C-453.755 222.931 -454.051 223.375 -454.643 223.523V229.448C-454.199 229.596 -453.755 230.041 -453.755 230.485C-453.755 230.93 -454.051 231.374 -454.643 231.522V237.447C-454.199 237.595 -453.755 238.04 -453.755 238.484C-453.755 238.928 -454.051 239.373 -454.643 239.521V245.446C-454.199 245.594 -453.755 246.039 -453.755 246.483C-453.755 246.927 -454.051 247.372 -454.643 247.52V253.445C-454.199 253.593 -453.755 254.037 -453.755 254.482C-453.755 254.926 -454.051 255.371 -454.643 255.519V261.444C-454.199 261.592 -453.755 262.036 -453.755 262.481C-453.755 262.925 -454.051 263.369 -454.643 263.518V269.443C-454.199 269.591 -453.755 270.035 -453.755 270.479C-453.755 270.924 -454.051 271.368 -454.643 271.516V277.441C-454.199 277.59 -453.755 278.034 -453.755 278.478C-453.755 278.923 -454.051 279.367 -454.643 279.515V285.44C-454.199 285.588 -453.755 286.033 -453.755 286.477C-453.755 286.922 -454.051 287.366 -454.643 287.514V293.439C-454.199 293.587 -453.755 294.032 -453.755 294.476C-453.755 294.92 -454.051 295.365 -454.643 295.513V301.438C-454.199 301.586 -453.755 302.031 -453.755 302.475C-453.755 302.919 -454.051 303.364 -454.643 303.512V309.437C-454.199 309.585 -453.755 310.029 -453.755 310.474C-453.755 310.918 -454.051 311.362 -454.643 311.511V314.325H-452.128C-452.128 313.733 -451.684 313.436 -451.093 313.436C-450.501 313.436 -450.057 313.881 -450.057 314.325H-444.289C-444.289 313.733 -443.845 313.436 -443.254 313.436C-442.662 313.436 -442.218 313.881 -442.218 314.325H-436.746C-436.746 313.733 -436.302 313.436 -435.71 313.436C-435.119 313.436 -434.675 313.881 -434.675 314.325H-429.203C-429.203 313.733 -428.759 313.436 -428.167 313.436C-427.576 313.436 -427.132 313.881 -427.132 314.325H-421.511C-421.511 313.733 -421.068 313.436 -420.476 313.436C-419.884 313.436 -419.441 313.881 -419.441 314.325H-413.82C-413.82 313.733 -413.376 313.436 -412.785 313.436C-412.193 313.436 -411.749 313.881 -411.749 314.325H-406.277V214.636ZM-358.207 4.44389C-358.355 4.88827 -358.799 5.18453 -359.242 5.18453C-359.686 5.18453 -360.13 4.88827 -360.278 4.44389H-366.046C-366.194 4.88827 -366.638 5.18453 -367.081 5.18453C-367.525 5.18453 -367.969 4.88827 -368.117 4.44389H-373.885C-374.033 4.88827 -374.477 5.18453 -374.92 5.18453C-375.364 5.18453 -375.808 4.88827 -375.956 4.44389H-381.872C-382.02 4.88827 -382.464 5.18453 -382.908 5.18453C-383.351 5.18453 -383.795 4.88827 -383.943 4.44389H-389.563C-389.711 4.88827 -390.155 5.18453 -390.599 5.18453C-391.042 5.18453 -391.486 4.88827 -391.634 4.44389H-397.55C-397.698 4.88827 -398.142 5.18453 -398.586 5.18453C-399.029 5.18453 -399.473 4.88827 -399.621 4.44389H-402.727V7.11018H-402.579C-401.988 7.11018 -401.544 7.55455 -401.544 8.14706C-401.544 8.73957 -401.988 9.18394 -402.579 9.18394H-402.727V15.109H-402.579C-401.988 15.109 -401.544 15.5534 -401.544 16.1459C-401.544 16.7384 -401.988 17.1828 -402.579 17.1828H-402.727V23.1079H-402.579C-401.988 23.1079 -401.544 23.5522 -401.544 24.1448C-401.544 24.7373 -401.988 25.1816 -402.579 25.1816H-402.727V31.1067H-402.579C-401.988 31.1067 -401.544 31.5511 -401.544 32.1436C-401.544 32.7361 -401.988 33.1805 -402.579 33.1805H-402.727V39.1055H-402.579C-401.988 39.1055 -401.544 39.5499 -401.544 40.1424C-401.544 40.735 -401.988 41.1793 -402.579 41.1793H-402.727V47.1044H-402.579C-401.988 47.1044 -401.544 47.5488 -401.544 48.1413C-401.544 48.7338 -401.988 49.1782 -402.579 49.1782H-402.727V55.1032H-402.579C-401.988 55.1032 -401.544 55.5476 -401.544 56.1401C-401.544 56.7326 -401.988 57.177 -402.579 57.177H-402.727V63.1021H-402.579C-401.988 63.1021 -401.544 63.5465 -401.544 64.139C-401.544 64.7315 -401.988 65.1758 -402.579 65.1758H-402.727V71.1009H-402.579C-401.988 71.1009 -401.544 71.5453 -401.544 72.1378C-401.544 72.7303 -401.988 73.1747 -402.579 73.1747H-402.727V79.0998H-402.579C-401.988 79.0998 -401.544 79.5442 -401.544 80.1367C-401.544 80.7292 -401.988 81.1735 -402.579 81.1735H-402.727V87.0986H-402.579C-401.988 87.0986 -401.544 87.543 -401.544 88.1355C-401.544 88.728 -401.988 89.1724 -402.579 89.1724H-402.727V95.0975H-402.579C-401.988 95.0975 -401.544 95.5418 -401.544 96.1343C-401.544 96.7268 -401.988 97.1712 -402.579 97.1712H-402.727V103.096H-402.579C-401.988 103.096 -401.544 103.541 -401.544 104.133C-401.544 104.726 -401.988 105.17 -402.579 105.17H-402.727V111.095H-402.579C-401.988 111.095 -401.544 111.54 -401.544 112.132C-401.544 112.725 -401.988 113.169 -402.579 113.169H-402.727V119.094H-402.579C-401.988 119.094 -401.544 119.538 -401.544 120.131C-401.544 120.723 -401.988 121.168 -402.579 121.168H-402.727V127.093H-402.579C-401.988 127.093 -401.544 127.537 -401.544 128.13C-401.544 128.722 -401.988 129.167 -402.579 129.167H-402.727V135.092H-402.579C-401.988 135.092 -401.544 135.536 -401.544 136.129C-401.544 136.721 -401.988 137.165 -402.579 137.165H-402.727V143.091H-402.579C-401.988 143.091 -401.544 143.535 -401.544 144.127C-401.544 144.72 -401.988 145.164 -402.579 145.164H-402.727V151.089H-402.579C-401.988 151.089 -401.544 151.534 -401.544 152.126C-401.544 152.719 -401.988 153.163 -402.579 153.163H-402.727V159.088H-402.579C-401.988 159.088 -401.544 159.533 -401.544 160.125C-401.544 160.718 -401.988 161.162 -402.579 161.162H-402.727V167.087H-402.579C-401.988 167.087 -401.544 167.531 -401.544 168.124C-401.544 168.716 -401.988 169.161 -402.579 169.161H-402.727V175.086H-402.579C-401.988 175.086 -401.544 175.53 -401.544 176.123C-401.544 176.715 -401.988 177.16 -402.579 177.16H-402.727V183.085H-402.579C-401.988 183.085 -401.544 183.529 -401.544 184.122C-401.544 184.714 -401.988 185.158 -402.579 185.158H-402.727V191.084H-402.579C-401.988 191.084 -401.544 191.528 -401.544 192.12C-401.544 192.713 -401.988 193.157 -402.579 193.157H-402.727V199.082H-402.579C-401.988 199.082 -401.544 199.527 -401.544 200.119C-401.544 200.712 -401.988 201.156 -402.579 201.156H-402.727V207.081H-402.579C-401.988 207.081 -401.544 207.526 -401.544 208.118C-401.544 208.711 -401.988 209.155 -402.579 209.155H-402.727V209.599H-353.326V3.11076H-358.207V4.44389ZM-352.882 214.636H-375.364V315.066H-352.882V214.636ZM-358.207 425.272C-358.355 425.716 -358.799 426.013 -359.242 426.013C-359.686 426.013 -360.13 425.716 -360.278 425.272H-366.046C-366.194 425.716 -366.638 426.013 -367.081 426.013C-367.525 426.013 -367.969 425.716 -368.117 425.272H-373.885C-374.033 425.716 -374.477 426.013 -374.92 426.013C-375.364 426.013 -375.808 425.716 -375.956 425.272H-381.872C-382.02 425.716 -382.464 426.013 -382.908 426.013C-383.351 426.013 -383.795 425.716 -383.943 425.272H-389.563C-389.711 425.716 -390.155 426.013 -390.599 426.013C-391.042 426.013 -391.486 425.716 -391.634 425.272H-397.55C-397.698 425.716 -398.142 426.013 -398.586 426.013C-399.029 426.013 -399.473 425.716 -399.621 425.272H-402.727V427.938H-402.579C-401.988 427.938 -401.544 428.383 -401.544 428.975C-401.544 429.568 -401.988 430.012 -402.579 430.012H-402.727V435.937H-402.579C-401.988 435.937 -401.544 436.381 -401.544 436.974C-401.544 437.566 -401.988 438.011 -402.579 438.011H-402.727V443.936H-402.579C-401.988 443.936 -401.544 444.38 -401.544 444.973C-401.544 445.565 -401.988 446.01 -402.579 446.01H-402.727V451.935H-402.579C-401.988 451.935 -401.544 452.379 -401.544 452.972C-401.544 453.564 -401.988 454.009 -402.579 454.009H-402.727V459.934H-402.579C-401.988 459.934 -401.544 460.378 -401.544 460.97C-401.544 461.563 -401.988 462.007 -402.579 462.007H-402.727V467.932H-402.579C-401.988 467.932 -401.544 468.377 -401.544 468.969C-401.544 469.562 -401.988 470.006 -402.579 470.006H-402.727V475.931H-402.579C-401.988 475.931 -401.544 476.376 -401.544 476.968C-401.544 477.561 -401.988 478.005 -402.579 478.005H-402.727V483.93H-402.579C-401.988 483.93 -401.544 484.374 -401.544 484.967C-401.544 485.56 -401.988 486.004 -402.579 486.004H-402.727V491.929H-402.579C-401.988 491.929 -401.544 492.373 -401.544 492.966C-401.544 493.558 -401.988 494.003 -402.579 494.003H-402.727V499.928H-402.579C-401.988 499.928 -401.544 500.372 -401.544 500.965C-401.544 501.557 -401.988 502.002 -402.579 502.002H-402.727V507.927H-402.579C-401.988 507.927 -401.544 508.371 -401.544 508.964C-401.544 509.556 -401.988 510 -402.579 510H-402.727V515.925H-402.579C-401.988 515.925 -401.544 516.37 -401.544 516.962C-401.544 517.555 -401.988 517.999 -402.579 517.999H-402.727V523.924H-402.579C-401.988 523.924 -401.544 524.369 -401.544 524.961C-401.544 525.554 -401.988 525.998 -402.579 525.998H-402.727V531.923H-402.579C-401.988 531.923 -401.544 532.368 -401.544 532.96C-401.544 533.553 -401.988 533.997 -402.579 533.997H-402.727V539.922H-402.579C-401.988 539.922 -401.544 540.366 -401.544 540.959C-401.544 541.551 -401.988 541.996 -402.579 541.996H-402.727V547.921H-402.579C-401.988 547.921 -401.544 548.365 -401.544 548.958C-401.544 549.55 -401.988 549.995 -402.579 549.995H-402.727V555.92H-402.579C-401.988 555.92 -401.544 556.364 -401.544 556.957C-401.544 557.549 -401.988 557.994 -402.579 557.994H-402.727V563.919H-402.579C-401.988 563.919 -401.544 564.363 -401.544 564.956C-401.544 565.548 -401.988 565.992 -402.579 565.992H-402.727V571.917H-402.579C-401.988 571.917 -401.544 572.362 -401.544 572.954C-401.544 573.547 -401.988 573.991 -402.579 573.991H-402.727V579.916H-402.579C-401.988 579.916 -401.544 580.361 -401.544 580.953C-401.544 581.546 -401.988 581.99 -402.579 581.99H-402.727V587.915H-402.579C-401.988 587.915 -401.544 588.359 -401.544 588.952C-401.544 589.544 -401.988 589.989 -402.579 589.989H-402.727V595.914H-402.579C-401.988 595.914 -401.544 596.358 -401.544 596.951C-401.544 597.543 -401.988 597.988 -402.579 597.988H-402.727V603.913H-402.579C-401.988 603.913 -401.544 604.357 -401.544 604.95C-401.544 605.542 -401.988 605.987 -402.579 605.987H-402.727V611.912H-402.579C-401.988 611.912 -401.544 612.356 -401.544 612.949C-401.544 613.541 -401.988 613.985 -402.579 613.985H-402.727V619.91H-402.579C-401.988 619.91 -401.544 620.355 -401.544 620.947C-401.544 621.54 -401.988 621.984 -402.579 621.984H-402.727V627.909H-402.579C-401.988 627.909 -401.544 628.354 -401.544 628.946C-401.544 629.539 -401.988 629.983 -402.579 629.983H-402.727V630.427H-353.326V423.939H-358.207V425.272ZM-402.283 635.464V735.894H-379.062V635.464H-402.283ZM-248.755 59.6952L-346.67 109.614L-248.755 159.533V59.6952ZM-248.755 166.05L-336.908 210.933H-248.755V166.05ZM-281.591 287.81L-275.083 278.182C-272.273 274.035 -272.864 268.554 -276.266 264.999L-310.285 230.782L-311.912 232.559C-315.018 235.67 -315.018 240.706 -311.912 243.817L-290.465 265.443C-288.099 267.813 -287.803 271.516 -289.726 274.331L-297.713 285.588C-300.671 289.884 -300.375 295.513 -297.121 299.364L-296.382 300.105C-295.642 300.846 -295.642 302.179 -296.382 302.919C-296.825 303.364 -297.269 303.512 -297.713 303.512C-298.156 303.512 -298.452 303.364 -298.896 303.067C-298.953 303.011 -299.009 302.976 -299.057 302.946C-299.135 302.898 -299.192 302.863 -299.192 302.771C-299.34 302.623 -299.636 302.327 -299.783 302.03L-322.857 278.775C-324.928 276.701 -326.111 273.886 -326.111 270.776C-326.111 267.813 -324.928 264.999 -322.857 262.777L-320.491 260.407C-322.561 256.259 -321.97 251.075 -318.568 247.668L-315.905 245.002C-319.159 240.41 -318.716 233.892 -314.574 229.745L-311.468 226.634C-310.729 225.893 -309.397 225.893 -308.658 226.634L-273.16 262.184C-268.279 267.073 -267.688 274.627 -271.385 280.256L-277.893 289.884C-279.668 292.55 -279.372 296.254 -277.154 298.475L-270.794 304.845C-265.765 301.586 -261.475 297.29 -258.074 292.55L-255.855 289.143C-251.418 281.737 -248.903 273.146 -248.903 263.962C-248.903 236.855 -270.794 214.932 -297.565 214.932C-324.484 214.932 -346.227 236.855 -346.227 263.962C-346.227 291.069 -324.336 312.992 -297.565 312.992H-296.53L-291.944 312.696C-285.584 311.955 -279.668 310.029 -274.343 307.067L-280.112 301.29C-283.957 297.883 -284.549 292.106 -281.591 287.81ZM-301.115 283.218L-300.227 282.033L-318.42 263.666L-320.491 265.739C-321.822 267.073 -322.561 268.998 -322.561 270.924C-322.561 272.85 -321.822 274.775 -320.491 276.108L-303.925 292.699C-304.073 289.292 -303.037 286.033 -301.115 283.218ZM-316.053 260.407L-297.861 278.626L-293.128 271.961C-292.24 270.776 -292.388 269.146 -293.423 268.258L-313.539 247.964L-316.053 250.482C-318.864 253.149 -318.864 257.592 -316.053 260.407ZM-248.755 214.636H-279.964C-265.617 219.968 -254.08 231.522 -248.755 246.039V214.636ZM-248.755 282.33C-254.524 298.179 -267.688 310.474 -284.105 315.066H-248.755V282.33ZM-248.755 425.272H-344.156L-248.755 474.006V425.272ZM-248.755 480.671L-346.67 530.59L-248.755 580.657V480.671ZM-248.755 586.878L-336.908 631.761H-248.755V586.878ZM-248.755 635.464H-279.964C-265.617 640.796 -254.08 652.35 -248.755 666.867V635.464ZM-248.755 735.894V703.158C-254.524 719.007 -267.688 731.302 -284.105 735.894H-248.755ZM-296.825 734.116L-292.24 733.82C-285.88 733.079 -279.964 731.154 -274.639 728.191L-280.408 722.414C-284.105 718.711 -284.549 713.082 -281.739 708.787L-275.231 699.158C-272.421 695.011 -273.012 689.53 -276.414 685.975L-310.433 651.758L-312.06 653.535C-315.166 656.646 -315.166 661.682 -312.06 664.793L-290.613 686.419C-288.247 688.789 -287.951 692.493 -289.874 695.307L-297.861 706.565C-300.819 710.86 -300.523 716.489 -297.269 720.34L-296.53 721.081C-295.79 721.822 -295.79 723.155 -296.53 723.895C-296.973 724.34 -297.417 724.488 -297.861 724.488C-298.304 724.488 -298.6 724.34 -299.044 724.044C-299.1 723.987 -299.157 723.952 -299.205 723.922C-299.283 723.874 -299.34 723.839 -299.34 723.747C-299.488 723.599 -299.783 723.303 -299.931 723.007L-323.005 699.751C-325.076 697.677 -326.259 694.863 -326.259 691.752C-326.259 688.789 -325.076 685.975 -323.005 683.753L-320.638 681.383C-322.709 677.235 -322.117 672.051 -318.716 668.644L-316.053 665.978C-319.307 661.386 -318.863 654.868 -314.722 650.721L-311.616 647.61C-310.876 646.87 -309.545 646.87 -308.806 647.61L-273.308 683.161C-268.427 688.049 -267.836 695.603 -271.533 701.232L-278.041 710.86C-279.816 713.527 -279.52 717.23 -277.302 719.452L-270.942 725.821C-265.913 722.562 -261.623 718.267 -258.221 713.527L-256.003 710.12C-251.566 702.713 -249.051 694.122 -249.051 684.938C-249.051 657.831 -270.941 635.908 -297.713 635.908C-324.632 635.908 -346.374 657.831 -346.374 684.938C-346.374 712.045 -324.484 733.968 -297.713 733.968C-297.565 734.116 -297.121 734.116 -296.825 734.116ZM-301.115 704.046L-300.227 702.861L-318.42 684.494L-320.491 686.567C-321.822 687.901 -322.561 689.826 -322.561 691.752C-322.561 693.678 -321.822 695.603 -320.491 696.936L-303.925 713.527C-304.073 710.268 -303.037 706.861 -301.115 704.046ZM-316.053 681.235L-297.861 699.454L-293.128 692.789C-292.24 691.604 -292.388 689.974 -293.423 689.086L-313.539 668.792L-316.053 671.31C-318.864 674.125 -318.864 678.569 -316.053 681.235ZM-349.185 735.894H-311.764C-330.696 730.709 -345.191 715.156 -349.185 695.751V735.894ZM-349.185 674.273C-345.487 656.35 -332.767 641.685 -315.905 635.464H-349.185V674.273ZM-349.185 631.909H-345.043L-250.826 583.767L-349.332 533.553V631.909H-349.185ZM-349.185 527.776L-250.382 477.413L-349.185 427.049V527.776ZM-349.185 421.569H-310.137H-248.755V414.755H-349.185V421.569ZM-349.185 411.052H-248.755V404.238H-349.185V411.052ZM-349.185 400.535H-248.755V393.721H-349.185V400.535ZM-349.185 390.018H-248.755V383.204H-349.185V390.018ZM-349.185 379.501H-248.755V372.687H-349.185V379.501ZM-349.185 368.984H-248.755V345.876H-349.185V368.984ZM-349.185 342.173H-248.755V318.769H-349.185V342.173ZM-349.185 315.066H-311.764C-330.696 309.881 -345.191 294.328 -349.185 274.923V315.066ZM-349.185 253.445C-345.487 235.522 -332.767 220.857 -315.905 214.636H-349.185V253.445ZM-349.185 210.933H-345.043L-250.826 162.791L-349.332 112.576V210.933H-349.185ZM-349.185 106.799L-250.382 56.4364L-349.185 6.07329V106.799ZM-352.882 635.464H-375.364V735.894H-352.882V635.464ZM-354.552 834.838L-353.918 741.522C-379.801 743.448 -400.361 764.927 -400.361 791.293C-400.361 817.512 -380.436 832.912 -354.552 834.838ZM-442.662 739.597C-421.659 745.522 -405.981 763.742 -403.762 785.812C-401.692 763.742 -385.866 745.522 -364.863 739.597H-442.662ZM-454.791 642.426C-454.347 642.574 -453.903 643.018 -453.903 643.463C-453.903 643.907 -454.199 644.351 -454.791 644.499V650.424C-454.347 650.573 -453.903 651.017 -453.903 651.461C-453.903 651.906 -454.199 652.35 -454.791 652.498V658.423C-454.347 658.572 -453.903 659.016 -453.903 659.46C-453.903 659.905 -454.199 660.349 -454.791 660.497V666.422C-454.347 666.57 -453.903 667.015 -453.903 667.459C-453.903 667.904 -454.199 668.348 -454.791 668.496V674.421C-454.347 674.569 -453.903 675.014 -453.903 675.458C-453.903 675.902 -454.199 676.347 -454.791 676.495V682.42C-454.347 682.568 -453.903 683.013 -453.903 683.457C-453.903 683.901 -454.199 684.346 -454.791 684.494V690.419C-454.347 690.567 -453.903 691.011 -453.903 691.456C-453.903 691.9 -454.199 692.344 -454.791 692.493V698.418C-454.347 698.566 -453.903 699.01 -453.903 699.454C-453.903 699.899 -454.199 700.343 -454.791 700.491V706.417C-454.347 706.565 -453.903 707.009 -453.903 707.453C-453.903 707.898 -454.199 708.342 -454.791 708.49V714.415C-454.347 714.563 -453.903 715.008 -453.903 715.452C-453.903 715.897 -454.199 716.341 -454.791 716.489V722.414C-454.347 722.562 -453.903 723.007 -453.903 723.451C-453.903 723.895 -454.199 724.34 -454.791 724.488V730.413C-454.347 730.561 -453.903 731.005 -453.903 731.45C-453.903 731.894 -454.199 732.339 -454.791 732.487V735.301H-452.128C-452.128 734.709 -451.684 734.412 -451.093 734.412C-450.501 734.412 -450.057 734.857 -450.057 735.301H-444.289C-444.289 734.709 -443.845 734.412 -443.254 734.412C-442.662 734.412 -442.218 734.857 -442.218 735.301H-436.746C-436.746 734.709 -436.302 734.412 -435.71 734.412C-435.119 734.412 -434.675 734.857 -434.675 735.301H-429.203C-429.203 734.709 -428.759 734.412 -428.167 734.412C-427.576 734.412 -427.132 734.857 -427.132 735.301H-421.511C-421.511 734.709 -421.068 734.412 -420.476 734.412C-419.884 734.412 -419.441 734.857 -419.441 735.301H-413.82C-413.82 734.709 -413.376 734.412 -412.785 734.412C-412.193 734.412 -411.749 734.857 -411.749 735.301H-406.277V635.464H-407.46C-407.46 636.056 -407.904 636.353 -408.495 636.353C-409.087 636.353 -409.531 635.908 -409.531 635.464H-415.299C-415.299 636.056 -415.743 636.353 -416.335 636.353C-416.926 636.353 -417.37 635.908 -417.37 635.464H-423.138C-423.138 636.056 -423.582 636.353 -424.174 636.353C-424.765 636.353 -425.209 635.908 -425.209 635.464H-430.829C-430.829 636.056 -431.273 636.353 -431.865 636.353C-432.456 636.353 -432.9 635.908 -432.9 635.464H-438.521C-438.521 636.056 -438.964 636.353 -439.556 636.353C-440.148 636.353 -440.591 635.908 -440.591 635.464H-446.36C-446.36 636.056 -446.803 636.353 -447.395 636.353C-447.987 636.353 -448.43 635.908 -448.43 635.464H-454.199C-454.199 635.908 -454.643 636.353 -454.938 636.353V642.426H-454.791ZM-458.488 836.324V739.597H-507.15L-458.488 836.324ZM-509.368 735.301C-482.893 735.301 -461.151 714.267 -459.228 687.753H-559.509C-557.734 714.267 -535.844 735.301 -509.368 735.301ZM-560.249 835.139L-512.179 739.597H-560.249V835.139ZM-560.249 735.894H-527.265C-542.648 730.413 -554.776 718.118 -560.249 702.417V735.894ZM-560.249 684.049H-458.488V660.497H-560.249V684.049ZM-563.946 772.037V739.597H-596.93C-581.695 744.929 -569.567 756.928 -563.946 772.037ZM-605.804 635.464H-612.756V735.894H-605.804V635.464ZM-595.303 635.464H-602.106V735.894H-595.303V635.464ZM-584.801 635.464H-591.605V735.894H-584.801V635.464ZM-574.448 635.464H-581.251V735.894H-574.448V635.464ZM-570.75 635.464V735.894H-563.946V635.464H-570.75ZM-560.249 635.464V656.794H-458.488V635.464H-560.249ZM-459.671 421.272L-509.664 321.879L-559.657 421.272H-459.671ZM-664.228 369.873C-664.228 395.35 -645.295 416.532 -620.743 419.791L-620.891 419.643C-623.553 417.717 -625.18 414.459 -625.328 411.2C-625.476 408.089 -624.145 405.127 -621.778 403.201L-621.039 402.46L-623.849 399.942C-624.44 399.35 -624.588 398.461 -624.293 397.72L-622.813 394.017L-625.328 392.388C-626.067 391.943 -626.363 391.055 -626.215 390.314L-625.032 384.685L-630.948 383.648C-633.167 383.352 -634.942 382.019 -636.125 380.093C-637.16 378.168 -637.456 375.798 -636.569 373.724L-627.251 348.542L-617.341 319.509C-643.52 321.287 -664.228 343.21 -664.228 369.873ZM-623.701 350.024L-633.019 375.205C-633.463 376.242 -633.315 377.279 -632.723 378.316C-632.132 379.205 -631.244 379.945 -630.209 380.093L-622.222 381.426C-621.63 381.575 -621.039 382.019 -620.743 382.611C-620.595 382.908 -620.595 383.352 -620.743 383.796L-622.074 390.018C-620.595 391.055 -618.82 391.499 -616.897 391.647L-614.531 391.795C-613.495 391.795 -612.608 392.832 -612.756 393.869C-612.756 394.906 -613.643 395.647 -614.679 395.647H-614.826L-619.116 395.35L-620.151 398.017L-616.601 401.127C-616.305 401.423 -616.158 401.72 -616.01 402.016C-615.862 402.757 -616.01 403.497 -616.601 404.09L-619.116 406.164C-620.595 407.349 -621.334 409.126 -621.334 411.052C-621.334 413.126 -620.151 415.199 -618.524 416.532L-617.661 417.208L-613.791 420.236C-586.428 420.088 -564.094 397.572 -564.094 369.873C-564.094 342.469 -585.984 320.102 -613.051 319.509L-623.701 350.024ZM-596.93 420.976L-563.946 421.272V388.685C-569.567 403.794 -581.695 415.792 -596.93 420.976ZM-563.946 351.209V318.769H-596.93C-581.695 323.953 -569.567 335.952 -563.946 351.209ZM-605.804 214.636H-612.756V315.066H-605.804V214.636ZM-595.303 214.636H-602.106V315.066H-595.303V214.636ZM-584.801 214.636H-591.605V315.066H-584.801V214.636ZM-574.448 214.636H-581.251V315.066H-574.448V214.636ZM-570.75 214.636V315.066H-563.946V214.636H-570.75ZM-562.023 425.272H-612.756V580.657H-510.995V576.213C-511.291 576.065 -511.439 575.769 -511.439 575.472C-511.439 575.176 -511.291 574.88 -510.995 574.732V568.362C-511.291 568.214 -511.439 567.918 -511.439 567.622C-511.439 567.325 -511.291 567.029 -510.995 566.881V560.512C-511.291 560.364 -511.439 560.067 -511.439 559.771C-511.439 559.475 -511.291 559.179 -510.995 559.03V552.661C-511.291 552.513 -511.439 552.216 -511.439 551.92C-511.439 551.624 -511.291 551.328 -510.995 551.18V544.81C-511.291 544.662 -511.439 544.366 -511.439 544.07C-511.439 543.773 -511.291 543.477 -510.995 543.329V536.96C-511.291 536.811 -511.439 536.515 -511.439 536.219C-511.439 535.923 -511.291 535.626 -510.995 535.478V529.109C-511.291 528.961 -511.439 528.664 -511.439 528.368C-511.439 528.072 -511.291 527.776 -510.995 527.628V519.925C-511.291 519.777 -511.439 519.481 -511.439 519.184C-511.439 518.888 -511.291 518.592 -510.995 518.444V512.074C-511.291 511.926 -511.439 511.63 -511.439 511.334C-511.439 511.037 -511.291 510.741 -510.995 510.593V504.224C-511.291 504.075 -511.439 503.779 -511.439 503.483C-511.439 503.187 -511.291 502.89 -510.995 502.742V495.78V495.484V495.188V487.781V487.485V487.189V479.783V479.486V479.19V471.784V471.487V471.191V463.785V463.489V463.192V455.786V455.49V455.194V447.787V447.491V447.195V439.788V439.492V439.196V431.789V431.493V431.197V426.309L-562.023 425.272ZM-560.249 214.636V235.966H-458.488V214.636H-560.249ZM-612.756 159.829H-510.995V155.385C-511.291 155.237 -511.439 154.941 -511.439 154.644C-511.439 154.348 -511.291 154.052 -510.995 153.904V147.534C-511.291 147.386 -511.439 147.09 -511.439 146.794C-511.439 146.497 -511.291 146.201 -510.995 146.053V139.239C-511.291 139.091 -511.439 138.795 -511.439 138.499C-511.439 138.202 -511.291 137.906 -510.995 137.758V131.389C-511.291 131.24 -511.439 130.944 -511.439 130.648C-511.439 130.352 -511.291 130.055 -510.995 129.907V123.538C-511.291 123.39 -511.439 123.093 -511.439 122.797C-511.439 122.501 -511.291 122.205 -510.995 122.057V115.687C-511.291 115.539 -511.439 115.243 -511.439 114.946C-511.439 114.65 -511.291 114.354 -510.995 114.206V107.836C-511.291 107.688 -511.439 107.392 -511.439 107.096C-511.439 106.799 -511.291 106.503 -510.995 106.355V99.9856C-511.291 99.8375 -511.439 99.5413 -511.439 99.245C-511.439 98.9487 -511.291 98.6525 -510.995 98.5044V92.1349C-511.291 91.9868 -511.439 91.6905 -511.439 91.3943C-511.439 91.098 -511.291 90.8018 -510.995 90.6536V82.9511C-511.291 82.8029 -511.439 82.5067 -511.439 82.2104C-511.439 81.9142 -511.291 81.6179 -510.995 81.4698V74.5078V74.2116V73.9153V66.509V66.2127V65.9165V58.5101V58.2139V57.9177V50.5113V50.215V49.9188V42.5125V42.2162V41.92V34.5136V34.2174V33.9211V26.5148V26.2185V25.9223V18.5159V18.2197V17.9234V10.5171V10.2208V9.92458V4.44389H-562.023H-612.756V159.829Z" fill="#BEAFA3"/>
</svg>
