<svg width="711" height="743" viewBox="0 0 711 743" fill="none" xmlns="http://www.w3.org/2000/svg">
<path fill-rule="evenodd" clip-rule="evenodd" d="M425.55 0.744629H421.986H315.635L316.675 25.7696V29.4935V53.1778H214.483V30.6852V25.0248C214.483 20.854 214.632 0.744629 214.632 0.744629H104.717V3.72379V105.015C105.658 105.409 86.8794 105.345 69.2104 105.285C53.4231 105.231 38.5205 105.181 39.3615 105.462H3.86185V104.27H0.297019V212.116H0.148499L0.210231 269.747L3.86185 271.55L102.191 321.749L0.594083 375.225V641.115L104.568 640.668V825.823H108.281V822.099V639.029H113.48C113.629 639.476 114.074 639.774 114.52 639.774C114.965 639.774 115.411 639.476 115.56 639.029H121.352C121.501 639.476 121.947 639.774 122.392 639.774C122.838 639.774 123.283 639.476 123.432 639.029H129.225C129.373 639.476 129.819 639.774 130.264 639.774C130.71 639.774 131.156 639.476 131.304 639.029H137.246C137.394 639.476 137.84 639.774 138.285 639.774C138.731 639.774 139.176 639.476 139.325 639.029H144.969C145.118 639.476 145.563 639.774 146.009 639.774C146.455 639.774 146.9 639.476 147.049 639.029H152.99C153.139 639.476 153.584 639.774 154.03 639.774C154.476 639.774 154.921 639.476 155.07 639.029H158.189V641.711H158.04C157.446 641.711 157.001 642.157 157.001 642.753C157.001 643.349 157.446 643.796 158.04 643.796H158.189V649.754H158.04C157.446 649.754 157.001 650.201 157.001 650.797C157.001 651.393 157.446 651.84 158.04 651.84H158.189V657.798H158.04C157.446 657.798 157.001 658.245 157.001 658.841C157.001 659.437 157.446 659.883 158.04 659.883H158.189V665.842H158.04C157.446 665.842 157.001 666.289 157.001 666.885C157.001 667.48 157.446 667.927 158.04 667.927H158.189V673.886H158.04C157.446 673.886 157.001 674.332 157.001 674.928C157.001 675.524 157.446 675.971 158.04 675.971H158.189V681.929H158.04C157.446 681.929 157.001 682.376 157.001 682.972C157.001 683.568 157.446 684.015 158.04 684.015H158.189V689.973H158.04C157.446 689.973 157.001 690.42 157.001 691.016C157.001 691.612 157.446 692.058 158.04 692.058H158.189V698.017H158.04C157.446 698.017 157.001 698.464 157.001 699.059C157.001 699.655 157.446 700.102 158.04 700.102H158.189V706.06H158.04C157.446 706.06 157.001 706.507 157.001 707.103C157.001 707.699 157.446 708.146 158.04 708.146H158.189V714.104H158.04C157.446 714.104 157.001 714.551 157.001 715.147C157.001 715.743 157.446 716.19 158.04 716.19H158.189V722.148H158.04C157.446 722.148 157.001 722.595 157.001 723.191C157.001 723.786 157.446 724.233 158.04 724.233H158.189V730.192H158.04C157.446 730.192 157.001 730.638 157.001 731.234C157.001 731.83 157.446 732.277 158.04 732.277H158.189V738.235H158.04C157.446 738.235 157.001 738.682 157.001 739.278C157.001 739.874 157.446 740.321 158.04 740.321H158.189V746.279H158.04C157.446 746.279 157.001 746.726 157.001 747.322C157.001 747.918 157.446 748.365 158.04 748.365H158.189V754.323H158.04C157.446 754.323 157.001 754.77 157.001 755.365C157.001 755.961 157.446 756.408 158.04 756.408H158.189V762.367H158.04C157.446 762.367 157.001 762.813 157.001 763.409C157.001 764.005 157.446 764.452 158.04 764.452H158.189V770.41H158.04C157.446 770.41 157.001 770.857 157.001 771.453C157.001 772.049 157.446 772.496 158.04 772.496H158.189V778.454H158.04C157.446 778.454 157.001 778.901 157.001 779.497C157.001 780.092 157.446 780.539 158.04 780.539H158.189V786.498H158.04C157.446 786.498 157.001 786.945 157.001 787.54C157.001 788.136 157.446 788.583 158.04 788.583H158.189V794.541H158.04C157.446 794.541 157.001 794.988 157.001 795.584C157.001 796.18 157.446 796.627 158.04 796.627H158.189V802.585H158.04C157.446 802.585 157.001 803.032 157.001 803.628C157.001 804.224 157.446 804.671 158.04 804.671H158.189V810.629H158.04C157.446 810.629 157.001 811.076 157.001 811.672C157.001 812.267 157.446 812.714 158.04 812.714H158.189V818.673H158.04C157.446 818.673 157.001 819.119 157.001 819.715C157.001 820.311 157.446 820.758 158.04 820.758H158.189V822.099H158.04C157.446 822.099 157.001 822.546 157.001 823.141C157.001 823.737 157.446 824.184 158.04 824.184H158.189V824.482H161.902V822.099V744.938H263.648V824.482H267.362V824.333H422.283V824.482H425.848V742.406H526.702V845.336C554.674 845.336 578.502 830.646 581.511 799.606C583.591 821.056 597.245 836.946 617 843.5C621.641 844.778 626.693 845.336 631.419 845.336H637.509L687.713 745.534L737.918 845.336H742.225V812.714C747.87 828.057 760.198 840.123 775.646 845.336H785.731C787.828 845.619 789.965 845.771 792.133 845.783L792.703 845.336H799.263L799.114 845.485C799.461 845.439 799.807 845.389 800.151 845.336H809.957C825.702 839.974 838.179 827.61 843.674 811.82V775.922C838.179 760.281 825.85 747.769 810.254 742.406H843.674V738.682H841.149C841.149 738.086 840.704 737.788 840.109 737.788C839.515 737.788 839.07 738.235 839.07 738.682H833.277C833.277 738.086 832.831 737.788 832.237 737.788C831.643 737.788 831.197 738.235 831.197 738.682H825.702C825.702 738.086 825.256 737.788 824.662 737.788C824.068 737.788 823.622 738.235 823.622 738.682H818.126C818.126 738.086 817.681 737.788 817.087 737.788C816.492 737.788 816.047 738.235 816.047 738.682H810.403C810.403 738.086 809.957 737.788 809.363 737.788C808.769 737.788 808.323 738.235 808.323 738.682H802.085C802.085 738.086 801.639 737.788 801.045 737.788C800.451 737.788 800.005 738.235 800.005 738.682H794.807V639.029H795.846C795.846 639.625 796.292 639.923 796.886 639.923C797.48 639.923 797.926 639.476 797.926 639.029H803.719C803.719 639.625 804.164 639.923 804.758 639.923C805.352 639.923 805.798 639.476 805.798 639.029H811.591C811.591 639.625 812.037 639.923 812.631 639.923C813.225 639.923 813.67 639.476 813.67 639.029H819.315C819.315 639.625 819.76 639.923 820.354 639.923C820.948 639.923 821.394 639.476 821.394 639.029H827.038C827.038 639.625 827.484 639.923 828.078 639.923C828.672 639.923 829.118 639.476 829.118 639.029H834.911C834.911 639.625 835.356 639.923 835.95 639.923C836.544 639.923 836.99 639.476 836.99 639.029H842.783C842.783 639.476 843.08 639.774 843.526 639.923V635.305H688.753V614.153H843.377V610.429H688.753V587.639H843.377V583.915H794.658V427.658H843.377V423.934H808.323L808.325 423.933C809.661 423.487 810.997 423.04 810.997 422.891C826.147 417.38 838.179 405.165 843.526 389.823V353.924C838.03 338.283 825.702 325.771 810.106 320.408H843.526V316.684H841.001C841.001 316.089 840.555 315.791 839.961 315.791C839.367 315.791 838.921 316.238 838.921 316.684H833.128C833.128 316.089 832.683 315.791 832.089 315.791C831.494 315.791 831.049 316.238 831.049 316.684H825.553C825.553 316.089 825.107 315.791 824.513 315.791C823.919 315.791 823.474 316.238 823.474 316.684H817.978C817.978 316.089 817.532 315.791 816.938 315.791C816.344 315.791 815.898 316.238 815.898 316.684H810.254C810.254 316.089 809.808 315.791 809.214 315.791C808.62 315.791 808.175 316.238 808.175 316.684H802.085C802.085 316.089 801.639 315.791 801.045 315.791C800.451 315.791 800.005 316.238 800.005 316.684H794.807V215.691H795.846C795.846 216.287 796.292 216.585 796.886 216.585C797.48 216.585 797.926 216.138 797.926 215.691H803.719C803.719 216.287 804.164 216.585 804.758 216.585C805.352 216.585 805.798 216.138 805.798 215.691H811.591C811.591 216.287 812.037 216.585 812.631 216.585C813.225 216.585 813.67 216.138 813.67 215.691H819.315C819.315 216.287 819.76 216.585 820.354 216.585C820.948 216.585 821.394 216.138 821.394 215.691H827.038C827.038 216.287 827.484 216.585 828.078 216.585C828.672 216.585 829.118 216.138 829.118 215.691H834.911C834.911 216.287 835.356 216.585 835.95 216.585C836.544 216.585 836.99 216.138 836.99 215.691H842.783C842.783 216.138 843.08 216.436 843.526 216.585V211.967H688.753V190.815H843.377V187.091H688.753V164.3H843.377V160.576H794.658V4.31961H843.377V0.744629H530.564H521.355V4.46858L425.55 53.3268V4.46858V0.744629ZM800.151 845.336C824.302 841.608 842.783 820.547 842.783 795.286C842.783 768.474 821.988 746.428 795.698 744.641L805.65 773.836L815.007 799.159C815.898 801.245 815.601 803.628 814.562 805.564C813.373 807.501 811.591 808.841 809.363 809.139L803.422 810.182L804.61 815.842C804.758 816.587 804.461 817.481 803.719 817.928L801.193 819.566L802.679 823.29C802.976 824.035 802.827 824.929 802.233 825.525L799.411 828.057L800.154 828.802C802.53 830.738 803.867 833.717 803.719 836.845C803.57 840.123 801.936 843.4 799.263 845.336H800.151ZM792.703 845.336C796.886 842.059 796.886 842.059 796.886 842.059C798.52 840.718 799.708 838.633 799.708 836.548C799.708 834.611 798.966 832.824 797.48 831.632L794.955 829.547C794.361 828.951 794.212 828.206 794.361 827.461C794.509 827.163 794.658 826.865 794.955 826.567L798.52 823.439L797.48 820.758L793.173 821.056H793.024C791.984 821.056 791.093 820.311 791.093 819.268C790.945 818.226 791.836 817.183 792.875 817.183L795.252 817.034C797.183 816.885 798.966 816.438 800.451 815.396L799.114 809.139C798.966 808.692 798.966 808.246 799.114 807.948C799.411 807.352 800.005 806.905 800.599 806.756L808.62 805.415C809.66 805.266 810.551 804.522 811.145 803.628C811.739 802.585 811.888 801.542 811.442 800.5L802.085 775.177L791.39 744.492C764.208 745.087 742.225 767.58 742.225 795.137C742.225 820.795 761.254 842.029 785.731 845.336H792.703ZM387.674 212.116C403.864 206.753 416.638 194.092 422.134 177.856V212.116H387.674ZM315.932 56.9018C314.001 83.5652 292.167 104.717 265.579 104.717C238.991 104.717 217.157 83.5652 215.226 56.9018H315.932ZM214.335 71.3507C219.682 87.1402 232.01 99.8016 247.607 105.313H214.335V71.3507ZM134.721 4.31961H158.04V105.313H134.721V4.31961ZM198.59 109.037C177.498 114.995 161.754 133.317 159.526 155.512C157.298 133.168 141.553 114.995 120.461 109.037H198.59ZM104.717 212.116H3.86185V205.562H104.717V212.116ZM104.717 201.987H3.86185V195.135H104.717V201.987ZM104.717 191.411H3.86185V184.559H104.717V191.411ZM104.717 180.835H3.86185V173.983H104.717V180.835ZM104.717 170.11H3.86185V163.258H104.717V170.11ZM104.717 159.534H3.86185V136.296H104.717V159.534ZM104.717 132.721H3.86185V109.186H104.717V132.721ZM108.43 4.31961H131.007V105.313H108.43V4.31961ZM109.47 110.974C135.463 112.91 156.109 134.509 156.109 161.023C156.109 187.389 135.463 209.137 109.47 211.073V110.974ZM122.392 212.116C142.444 205.711 157.446 187.836 159.526 166.237C161.605 187.836 176.607 205.711 196.659 212.116H122.392ZM162.942 160.874C162.942 134.509 183.588 112.761 209.582 110.825V210.775C183.588 208.988 162.942 187.389 162.942 160.874ZM210.621 11.3207C210.176 11.4696 209.73 11.9165 209.73 12.3634C209.73 12.8102 210.027 13.2571 210.621 13.4061V19.3644C210.176 19.5133 209.73 19.9602 209.73 20.4071C209.73 20.8539 210.027 21.3008 210.621 21.4498V27.4081C210.176 27.557 209.73 28.0039 209.73 28.4508C209.73 28.8977 210.027 29.3446 210.621 29.4935V35.4518C210.176 35.6008 209.73 36.0477 209.73 36.4945C209.73 36.9414 210.027 37.3883 210.621 37.5372V43.4955C210.176 43.6445 209.73 44.0914 209.73 44.5383C209.73 44.9851 210.027 45.432 210.621 45.581V51.5393C210.176 51.6883 209.73 52.1351 209.73 52.582C209.73 53.0289 210.027 53.4757 210.621 53.6247V59.583C210.176 59.732 209.73 60.1788 209.73 60.6257C209.73 61.0726 210.027 61.5195 210.621 61.6684V67.6267C210.176 67.7757 209.73 68.2226 209.73 68.6694C209.73 69.1163 210.027 69.5632 210.621 69.7122V75.6705C210.176 75.8194 209.73 76.2663 209.73 76.7132C209.73 77.16 210.027 77.6069 210.621 77.7559V83.7142C210.176 83.8632 209.73 84.31 209.73 84.7569C209.73 85.2038 210.027 85.6507 210.621 85.7996V91.7579C210.176 91.9069 209.73 92.3538 209.73 92.8006C209.73 93.2475 210.027 93.6944 210.621 93.8433V99.8017C210.176 99.9506 209.73 100.397 209.73 100.844C209.73 101.291 210.027 101.738 210.621 101.887V104.717H207.948C207.948 104.121 207.502 103.824 206.908 103.824C206.314 103.824 205.868 104.27 205.868 104.717H200.076C200.076 104.121 199.63 103.824 199.036 103.824C198.442 103.824 197.996 104.27 197.996 104.717H192.5C192.5 104.121 192.055 103.824 191.461 103.824C190.866 103.824 190.421 104.27 190.421 104.717H184.925C184.925 104.121 184.479 103.824 183.885 103.824C183.291 103.824 182.846 104.27 182.846 104.717H177.201C177.201 104.121 176.756 103.824 176.162 103.824C175.567 103.824 175.122 104.27 175.122 104.717H169.477C169.477 104.121 169.032 103.824 168.438 103.824C167.844 103.824 167.398 104.27 167.398 104.717H161.902V3.72379H163.09C163.09 4.31962 163.536 4.61754 164.13 4.61754C164.724 4.61754 165.17 4.17066 165.17 3.72379H170.963C170.963 4.31962 171.408 4.61754 172.003 4.61754C172.597 4.61754 173.042 4.17066 173.042 3.72379H178.835C178.835 4.31962 179.281 4.61754 179.875 4.61754C180.469 4.61754 180.915 4.17066 180.915 3.72379H186.559C186.559 4.31962 187.005 4.61754 187.599 4.61754C188.193 4.61754 188.638 4.17066 188.638 3.72379H194.283C194.283 4.31962 194.728 4.61754 195.322 4.61754C195.917 4.61754 196.362 4.17066 196.362 3.72379H202.155C202.155 4.31962 202.601 4.61754 203.195 4.61754C203.789 4.61754 204.234 4.17066 204.234 3.72379H210.027C210.027 4.17066 210.473 4.61754 210.77 4.61754V11.3207H210.621ZM214.335 109.037H263.203L214.335 206.307V109.037ZM215.523 212.116L265.728 112.165L315.932 212.116H215.523ZM316.675 205.115L268.401 109.037H316.675V205.115ZM316.675 105.313H283.552C298.999 99.8016 311.179 87.4382 316.675 71.6486V105.313ZM3.86185 215.989H99.6664L3.86185 264.847V215.989ZM3.86185 376.968L92.9824 423.934H3.86185V376.968ZM36.8364 501.243L30.3009 491.561C27.4788 487.39 28.0729 481.879 31.4892 478.304L65.6521 443.894L67.4345 445.682C70.5537 448.81 70.5537 453.875 67.4345 457.003L45.897 478.751C43.5205 481.134 43.2234 484.858 45.1543 487.688L53.1752 499.009C56.1459 503.329 55.8488 508.989 52.5811 512.862L51.8384 513.607C51.0957 514.352 51.0957 515.692 51.8384 516.437C52.284 516.884 52.7296 517.033 53.1752 517.033C53.6208 517.033 53.9179 516.884 54.3635 516.586C54.4202 516.529 54.477 516.494 54.5254 516.464C54.6038 516.415 54.6605 516.38 54.6605 516.288C54.8091 516.139 55.1062 515.841 55.2547 515.543L78.426 492.157C80.5055 490.071 81.6938 487.241 81.6938 484.113C81.6938 481.134 80.5055 478.304 78.426 476.069L76.0495 473.686C78.129 469.515 77.5348 464.302 74.1185 460.876L71.4449 458.194C74.7127 453.577 74.2671 447.023 70.1081 442.852L66.9889 439.724C66.2462 438.979 64.9094 438.979 64.1667 439.724L28.5185 475.474C23.6169 480.389 23.0228 487.986 26.7361 493.646L33.2716 503.329C35.054 506.01 34.757 509.734 32.5289 511.968L26.142 518.373C21.0918 515.096 16.7843 510.777 13.368 506.01L11.14 502.584C6.68399 495.136 4.15892 486.496 4.15892 477.261C4.15892 450.002 26.142 427.956 53.0267 427.956C80.0599 427.956 101.894 450.002 101.894 477.261C101.894 504.52 79.9114 526.566 53.0267 526.566H51.9869L47.3824 526.268C40.9954 525.523 35.054 523.587 29.7068 520.608L35.4996 514.798C39.213 511.372 39.6586 505.563 36.8364 501.243ZM56.2944 496.477L55.4032 495.285L73.6729 476.814L75.7524 478.9C77.0892 480.24 77.8319 482.177 77.8319 484.113C77.8319 486.05 77.0892 487.986 75.7524 489.327L59.1166 506.01C59.2651 502.733 58.3739 499.456 56.2944 496.477ZM71.4449 473.686L53.1752 492.008L48.4221 485.305C47.5309 484.113 47.6794 482.475 48.7192 481.581L68.9198 461.174L71.4449 463.706C74.1185 466.387 74.1185 470.856 71.4449 473.686ZM3.86185 427.658H35.2026C20.7948 433.021 9.20909 444.639 3.86185 459.237V427.658ZM3.86185 495.732C9.65469 511.67 22.8742 524.034 39.3615 528.652H3.86185V495.732ZM104.717 635.454H3.86185V628.9H104.717V635.454ZM104.717 625.176H3.86185V618.324H104.717V625.176ZM104.717 614.6H3.86185V607.748H104.717V614.6ZM104.717 604.024H3.86185V597.172H104.717V604.024ZM104.717 593.448H3.86185V586.596H104.717V593.448ZM104.717 582.872H3.86185V559.635H104.717V582.872ZM104.717 555.911H3.86185V532.375H104.717V555.911ZM104.717 528.652H67.1374C86.1498 523.438 100.706 507.797 104.717 488.284V528.652ZM104.717 466.685C101.003 448.661 88.2293 433.914 71.2964 427.658H104.717V466.685ZM104.717 423.934H101.152L5.79278 375.225L104.717 324.728V423.934ZM104.717 318.919L5.49572 268.273L104.717 217.627V318.919ZM267.064 367.777C267.362 367.628 267.51 367.33 267.51 367.032C267.51 366.734 267.362 366.436 267.064 366.287V359.882C267.362 359.733 267.51 359.435 267.51 359.137C267.51 358.839 267.362 358.542 267.064 358.393V351.541C267.362 351.392 267.51 351.094 267.51 350.796C267.51 350.498 267.362 350.2 267.064 350.051V343.646C267.362 343.497 267.51 343.199 267.51 342.901C267.51 342.603 267.362 342.305 267.064 342.156V335.751C267.362 335.602 267.51 335.304 267.51 335.006C267.51 334.708 267.362 334.41 267.064 334.261V327.856C267.362 327.707 267.51 327.409 267.51 327.111C267.51 326.814 267.362 326.516 267.064 326.367V319.961C267.362 319.812 267.51 319.515 267.51 319.217C267.51 318.919 267.362 318.621 267.064 318.472V312.067C267.362 311.918 267.51 311.62 267.51 311.322C267.51 311.024 267.362 310.726 267.064 310.577V304.172C267.362 304.023 267.51 303.725 267.51 303.427C267.51 303.129 267.362 302.831 267.064 302.682V296.277C267.362 296.128 267.51 295.83 267.51 295.532C267.51 295.234 267.362 294.937 267.064 294.788V287.787V287.489V287.191V279.743V279.445V279.147V271.699V271.401V271.103V263.655V263.357V263.06V255.612V255.314V255.016V247.568V247.27V246.972V239.524V239.226V238.928V231.48V231.183V230.885V223.437V223.139V222.841V215.989H318.309H369.256V372.246H267.064V367.777ZM161.605 215.989H263.351V223.586H161.605V215.989ZM353.511 532.375C338.212 537.589 325.884 549.655 320.388 564.997V532.375H353.511ZM330.786 528.652V427.658H337.618V528.652H330.786ZM341.332 528.652V427.658H348.164V528.652H341.332ZM369.85 533.269L380.248 563.806L389.605 589.128C390.051 590.171 389.902 591.214 389.308 592.257C388.714 593.15 387.823 593.895 386.783 594.044L378.762 595.385C378.168 595.534 377.574 595.981 377.277 596.576C377.128 596.874 377.128 597.321 377.277 597.768L378.614 604.024C377.128 605.067 375.346 605.514 373.415 605.663L371.038 605.812C369.999 605.812 369.107 606.854 369.256 607.897C369.256 608.94 370.147 609.685 371.187 609.685H371.335L375.643 609.387L376.683 612.068L373.118 615.196C372.821 615.494 372.672 615.792 372.524 616.09C372.375 616.835 372.524 617.579 373.118 618.175L375.643 620.261C377.128 621.452 377.871 623.24 377.871 625.176C377.871 627.262 376.683 629.347 375.049 630.688L370.296 634.412C342.817 634.263 320.388 611.621 320.388 583.766C320.685 556.209 342.668 533.716 369.85 533.269ZM362.275 528.652V427.658H369.256V528.652H362.275ZM378.465 617.281L377.722 616.537L380.545 614.004C381.139 613.409 381.287 612.515 380.99 611.77L379.505 608.046L382.03 606.408C382.773 605.961 383.07 605.067 382.921 604.322L381.733 598.811L387.674 597.768C389.902 597.47 391.685 596.13 392.873 594.193C393.913 592.257 394.21 589.873 393.319 587.788L383.961 562.465L374.009 533.269C400.3 534.908 421.094 556.954 421.094 583.766C421.094 609.387 402.082 630.688 377.425 633.965L377.574 633.816C380.248 631.879 381.881 628.602 382.03 625.325C382.178 622.197 380.842 619.218 378.465 617.281ZM354.254 635.454H320.388V602.684C326.033 618.175 338.509 630.39 354.254 635.454ZM358.71 528.652H351.877V427.658H358.71V528.652ZM327.072 528.652H320.24V427.658H327.072V528.652ZM369.256 640.221V795.435H267.064V790.966C267.362 790.817 267.51 790.52 267.51 790.222C267.51 789.924 267.362 789.626 267.064 789.477V783.072C267.362 782.923 267.51 782.625 267.51 782.327C267.51 782.029 267.362 781.731 267.064 781.582V775.177C267.362 775.028 267.51 774.73 267.51 774.432C267.51 774.134 267.362 773.836 267.064 773.687V767.282C267.362 767.133 267.51 766.835 267.51 766.537C267.51 766.239 267.362 765.941 267.064 765.792V759.387C267.362 759.238 267.51 758.94 267.51 758.643C267.51 758.345 267.362 758.047 267.064 757.898V751.493C267.362 751.344 267.51 751.046 267.51 750.748C267.51 750.45 267.362 750.152 267.064 750.003V743.598C267.362 743.449 267.51 743.151 267.51 742.853C267.51 742.555 267.362 742.257 267.064 742.108V734.362C267.362 734.213 267.51 733.916 267.51 733.618C267.51 733.32 267.362 733.022 267.064 732.873V726.468C267.362 726.319 267.51 726.021 267.51 725.723C267.51 725.425 267.362 725.127 267.064 724.978V718.573C267.362 718.424 267.51 718.126 267.51 717.828C267.51 717.53 267.362 717.232 267.064 717.083V710.082V709.784V709.486V702.039V701.741V701.443V693.995V693.697V693.399V685.951V685.653V685.355V677.907V677.609V677.312V669.864V669.566V669.268V661.82V661.522V661.224V653.776V653.478V653.18V645.732V645.435V645.137V640.221H318.309H369.256ZM261.717 374.778C261.717 383.715 259.341 392.057 255.182 399.207L252.954 402.633C249.686 407.4 245.527 411.571 240.922 414.997L235.13 409.187C232.753 406.804 232.456 403.229 234.387 400.548L240.922 390.865C244.784 385.205 244.042 377.459 239.14 372.693L203.492 336.943C202.749 336.198 201.412 336.198 200.67 336.943L197.55 340.071C193.391 344.242 192.946 350.796 196.214 355.413L193.54 358.095C190.124 361.521 189.381 366.883 191.609 370.905L189.233 373.288C187.153 375.374 185.965 378.204 185.965 381.332C185.965 384.311 187.153 387.142 189.233 389.376L212.404 412.762C212.478 412.911 212.59 413.023 212.701 413.135C212.812 413.246 212.924 413.358 212.998 413.507C213.026 413.535 213.054 413.558 213.08 413.577C213.108 413.597 213.135 413.613 213.159 413.629L213.16 413.629C213.238 413.678 213.295 413.713 213.295 413.805C213.592 414.103 214.038 414.252 214.483 414.252C214.929 414.252 215.523 414.103 215.82 413.656C216.563 412.911 216.563 411.571 215.82 410.826L215.077 410.081C211.661 406.208 211.364 400.399 214.483 396.228L222.504 384.907C224.435 382.226 224.138 378.353 221.762 375.97L200.224 354.222C197.105 351.094 197.105 346.029 200.224 342.901L201.858 341.113L236.021 375.523C239.586 379.098 240.031 384.609 237.209 388.78L230.674 398.462C227.851 402.782 228.297 408.443 232.01 412.166L237.209 417.38C231.862 420.657 225.772 422.742 219.236 423.785L216.266 424.083H208.096C183.143 421.849 163.536 400.697 163.536 374.927C163.536 347.668 185.519 325.622 212.404 325.622C239.734 325.473 261.717 347.668 261.717 374.778ZM224.435 323.09H263.351V360.031C258.004 341.709 243.15 327.409 224.435 323.09ZM263.351 389.525V423.934H232.753C247.458 417.827 258.895 405.165 263.351 389.525ZM208.691 403.08L192.055 386.397C190.718 385.056 189.975 383.12 189.975 381.183C189.975 379.247 190.718 377.31 192.055 375.97L194.134 373.884L212.404 392.355L211.513 393.547C209.433 396.526 208.542 399.803 208.691 403.08ZM196.511 370.756C193.837 368.075 193.837 363.457 196.511 360.776L199.036 358.244L219.236 378.651C220.276 379.694 220.425 381.183 219.534 382.375L214.78 389.078L196.511 370.756ZM214.335 452.683H316.526V476.367H214.335V452.683ZM247.607 528.652H214.335V494.54C219.831 510.479 232.01 522.991 247.607 528.652ZM214.335 532.375H263.203L214.335 629.645V532.375ZM215.226 480.091H315.932C314.001 506.755 292.167 527.907 265.579 527.907C238.991 528.056 217.008 506.904 215.226 480.091ZM316.675 494.987V528.652H283.552C298.999 523.14 311.179 510.628 316.675 494.987ZM316.675 532.375V628.453L268.401 532.375H316.675ZM316.675 448.959H214.483V427.509H316.675V448.959ZM161.605 227.31H263.351V234.162H161.605V227.31ZM161.605 237.886H263.351V244.738H161.605V237.886ZM161.605 248.462H263.351V255.314H161.605V248.462ZM161.605 259.038H263.351V265.89H161.605V259.038ZM161.605 269.614H263.351V277.062H161.605V269.614ZM161.605 280.786H263.351V287.638H161.605V280.786ZM161.605 291.362H263.351V298.214H161.605V291.362ZM161.605 301.938H263.351V308.79H161.605V301.938ZM161.605 312.514H263.351V319.366H161.605V312.514ZM161.605 323.09H201.115C181.657 327.558 166.21 342.901 161.605 362.414V323.09ZM161.605 387.29C165.616 403.974 177.35 417.529 192.797 423.934H161.605V387.29ZM161.754 427.658H162.793C162.793 428.254 163.239 428.552 163.833 428.552C164.427 428.552 164.873 428.105 164.873 427.658H170.666C170.666 428.254 171.111 428.552 171.706 428.552C172.3 428.552 172.745 428.105 172.745 427.658H178.538C178.538 428.254 178.984 428.552 179.578 428.552C180.172 428.552 180.618 428.105 180.618 427.658H186.262C186.262 428.254 186.707 428.552 187.302 428.552C187.896 428.552 188.341 428.105 188.341 427.658H193.986C193.986 428.254 194.431 428.552 195.025 428.552C195.619 428.552 196.065 428.105 196.065 427.658H201.858C201.858 428.254 202.304 428.552 202.898 428.552C203.492 428.552 203.937 428.105 203.937 427.658H209.73C209.73 428.105 210.176 428.552 210.473 428.552V434.51C210.027 434.659 209.582 435.106 209.582 435.553C209.582 436 209.879 436.447 210.473 436.596V442.554C210.027 442.703 209.582 443.15 209.582 443.597C209.582 444.043 209.879 444.49 210.473 444.639V450.598C210.027 450.746 209.582 451.193 209.582 451.64C209.582 452.087 209.879 452.534 210.473 452.683V458.641C210.027 458.79 209.582 459.237 209.582 459.684C209.582 460.131 209.879 460.578 210.473 460.727V466.685C210.027 466.834 209.582 467.281 209.582 467.728C209.582 468.175 209.879 468.622 210.473 468.77V474.729C210.027 474.878 209.582 475.325 209.582 475.771C209.582 476.218 209.879 476.665 210.473 476.814V482.772C210.027 482.921 209.582 483.368 209.582 483.815C209.582 484.262 209.879 484.709 210.473 484.858V490.816C210.027 490.965 209.582 491.412 209.582 491.859C209.582 492.306 209.879 492.753 210.473 492.902V498.86C210.027 499.009 209.582 499.456 209.582 499.903C209.582 500.35 209.879 500.796 210.473 500.945V506.904C210.027 507.053 209.582 507.5 209.582 507.946C209.582 508.393 209.879 508.84 210.473 508.989V514.947C210.027 515.096 209.582 515.543 209.582 515.99C209.582 516.437 209.879 516.884 210.473 517.033V522.991C210.027 523.14 209.582 523.587 209.582 524.034C209.582 524.481 209.879 524.928 210.473 525.077V527.907H207.799C207.799 527.311 207.354 527.013 206.76 527.013C206.165 527.013 205.72 527.46 205.72 527.907H199.927C199.927 527.311 199.481 527.013 198.887 527.013C198.293 527.013 197.848 527.46 197.848 527.907H192.352C192.352 527.311 191.906 527.013 191.312 527.013C190.718 527.013 190.272 527.46 190.272 527.907H184.777C184.777 527.311 184.331 527.013 183.737 527.013C183.143 527.013 182.697 527.46 182.697 527.907H177.053C177.053 527.311 176.607 527.013 176.013 527.013C175.419 527.013 174.973 527.46 174.973 527.907H169.329C169.329 527.311 168.883 527.013 168.289 527.013C167.695 527.013 167.249 527.46 167.249 527.907H161.754V427.658ZM198.59 532.375C177.498 538.334 161.754 556.656 159.526 578.85C157.298 556.507 141.553 538.334 120.461 532.375H198.59ZM134.721 528.652V427.658H158.04V528.652H134.721ZM209.73 534.163V634.114C183.737 632.177 163.09 610.578 163.09 584.064C162.942 557.847 183.588 536.099 209.73 534.163ZM113.629 215.989C113.777 216.436 114.223 216.734 114.668 216.734C115.114 216.734 115.56 216.436 115.708 215.989H121.501C121.649 216.436 122.095 216.734 122.541 216.734C122.986 216.734 123.432 216.436 123.58 215.989H129.373C129.522 216.436 129.967 216.734 130.413 216.734C130.859 216.734 131.304 216.436 131.453 215.989H137.394C137.543 216.436 137.988 216.734 138.434 216.734C138.879 216.734 139.325 216.436 139.474 215.989H145.118C145.266 216.436 145.712 216.734 146.158 216.734C146.603 216.734 147.049 216.436 147.197 215.989H153.139C153.287 216.436 153.733 216.734 154.178 216.734C154.624 216.734 155.07 216.436 155.218 215.989H158.337V218.67H158.189C157.595 218.67 157.149 219.117 157.149 219.713C157.149 220.309 157.595 220.756 158.189 220.756H158.337V226.714H158.189C157.595 226.714 157.149 227.161 157.149 227.757C157.149 228.352 157.595 228.799 158.189 228.799H158.337V234.758H158.189C157.595 234.758 157.149 235.204 157.149 235.8C157.149 236.396 157.595 236.843 158.189 236.843H158.337V242.801H158.189C157.595 242.801 157.149 243.248 157.149 243.844C157.149 244.44 157.595 244.887 158.189 244.887H158.337V250.845H158.189C157.595 250.845 157.149 251.292 157.149 251.888C157.149 252.484 157.595 252.93 158.189 252.93H158.337V258.889H158.189C157.595 258.889 157.149 259.336 157.149 259.931C157.149 260.527 157.595 260.974 158.189 260.974H158.337V266.932H158.189C157.595 266.932 157.149 267.379 157.149 267.975C157.149 268.571 157.595 269.018 158.189 269.018H158.337V274.976H158.189C157.595 274.976 157.149 275.423 157.149 276.019C157.149 276.615 157.595 277.062 158.189 277.062H158.337V283.02H158.189C157.595 283.02 157.149 283.467 157.149 284.063C157.149 284.658 157.595 285.105 158.189 285.105H158.337V291.064H158.189C157.595 291.064 157.149 291.51 157.149 292.106C157.149 292.702 157.595 293.149 158.189 293.149H158.337V299.107H158.189C157.595 299.107 157.149 299.554 157.149 300.15C157.149 300.746 157.595 301.193 158.189 301.193H158.337V307.151H158.189C157.595 307.151 157.149 307.598 157.149 308.194C157.149 308.79 157.595 309.237 158.189 309.237H158.337V315.195H158.189C157.595 315.195 157.149 315.642 157.149 316.237C157.149 316.833 157.595 317.28 158.189 317.28H158.337V323.239H158.189C157.595 323.239 157.149 323.685 157.149 324.281C157.149 324.877 157.595 325.324 158.189 325.324H158.337V331.282H158.189C157.595 331.282 157.149 331.729 157.149 332.325C157.149 332.921 157.595 333.368 158.189 333.368H158.337V339.326H158.189C157.595 339.326 157.149 339.773 157.149 340.369C157.149 340.965 157.595 341.411 158.189 341.411H158.337V347.37H158.189C157.595 347.37 157.149 347.817 157.149 348.412C157.149 349.008 157.595 349.455 158.189 349.455H158.337V355.413H158.189C157.595 355.413 157.149 355.86 157.149 356.456C157.149 357.052 157.595 357.499 158.189 357.499H158.337V363.457H158.189C157.595 363.457 157.149 363.904 157.149 364.5C157.149 365.096 157.595 365.543 158.189 365.543H158.337V371.501H158.189C157.595 371.501 157.149 371.948 157.149 372.544C157.149 373.139 157.595 373.586 158.189 373.586H158.337V379.545H158.189C157.595 379.545 157.149 379.992 157.149 380.587C157.149 381.183 157.595 381.63 158.189 381.63H158.337V387.588H158.189C157.595 387.588 157.149 388.035 157.149 388.631C157.149 389.227 157.595 389.674 158.189 389.674H158.337V395.632H158.189C157.595 395.632 157.149 396.079 157.149 396.675C157.149 397.271 157.595 397.717 158.189 397.717H158.337V403.676H158.189C157.595 403.676 157.149 404.123 157.149 404.719C157.149 405.314 157.595 405.761 158.189 405.761H158.337V411.72H158.189C157.595 411.72 157.149 412.166 157.149 412.762C157.149 413.358 157.595 413.805 158.189 413.805H158.337V419.763H158.189C157.595 419.763 157.149 420.21 157.149 420.806C157.149 421.402 157.595 421.849 158.189 421.849H158.337V422.594H108.43V214.499H113.629V215.989ZM108.43 427.658H131.007V528.652H108.43V427.658ZM109.47 634.114V534.163C135.463 536.099 156.109 557.698 156.109 584.213C156.109 610.578 135.463 632.326 109.47 634.114ZM122.392 635.454C142.444 629.049 157.446 611.174 159.526 589.575C161.605 611.174 176.607 629.049 196.659 635.454H122.392ZM263.351 742.555H161.605V735.703H263.351V742.555ZM263.351 731.979H161.605V725.127H263.351V731.979ZM263.351 721.403H161.605V714.551H263.351V721.403ZM263.351 710.827H161.605V703.975H263.351V710.827ZM263.351 700.251H161.605V692.803H263.351V700.251ZM263.351 689.079H161.605V682.227H263.351V689.079ZM263.351 678.503H161.605V671.651H263.351V678.503ZM263.351 667.927H161.605V661.075H263.351V667.927ZM263.351 657.351H161.605V650.499H263.351V657.351ZM263.351 646.775H161.605V639.178H263.351V646.775ZM215.523 635.454L265.728 535.504L315.932 635.454H215.523ZM421.986 821.95H267.064V799.159H421.986V821.95ZM421.986 795.435H373.118V639.178H421.986V795.435ZM421.986 635.454H387.526C403.716 630.092 416.49 617.43 421.986 601.194V635.454ZM421.986 566.338C416.638 550.399 404.162 537.738 388.268 532.227H421.986V566.338ZM421.986 434.51C421.54 434.659 421.094 434.957 421.094 435.553C421.094 436.149 421.54 436.596 421.986 436.596V442.554C421.54 442.703 421.094 443.001 421.094 443.597C421.094 444.192 421.54 444.639 421.986 444.639V450.598C421.54 450.746 421.094 451.044 421.094 451.64C421.094 452.236 421.54 452.683 421.986 452.683V458.641C421.54 458.79 421.094 459.088 421.094 459.684C421.094 460.28 421.54 460.727 421.986 460.727V466.685C421.54 466.834 421.094 467.132 421.094 467.728C421.094 468.324 421.54 468.77 421.986 468.77V474.729C421.54 474.878 421.094 475.176 421.094 475.771C421.094 476.367 421.54 476.814 421.986 476.814V482.772C421.54 482.921 421.094 483.219 421.094 483.815C421.094 484.411 421.54 484.858 421.986 484.858V490.816C421.54 490.965 421.094 491.263 421.094 491.859C421.094 492.455 421.54 492.902 421.986 492.902V498.86C421.54 499.009 421.094 499.307 421.094 499.903C421.094 500.498 421.54 500.945 421.986 500.945V506.904C421.54 507.053 421.094 507.351 421.094 507.946C421.094 508.542 421.54 508.989 421.986 508.989V514.947C421.54 515.096 421.094 515.394 421.094 515.99C421.094 516.586 421.54 517.033 421.986 517.033V522.991C421.54 523.14 421.094 523.438 421.094 524.034C421.094 524.63 421.54 525.077 421.986 525.077V527.907H419.312C419.312 527.311 418.866 527.013 418.272 527.013C417.678 527.013 417.233 527.46 417.233 527.907H411.44C411.44 527.311 410.994 527.013 410.4 527.013C409.806 527.013 409.36 527.46 409.36 527.907H403.864C403.864 527.311 403.419 527.013 402.825 527.013C402.231 527.013 401.785 527.46 401.785 527.907H396.289C396.289 527.311 395.844 527.013 395.25 527.013C394.655 527.013 394.21 527.46 394.21 527.907H388.565C388.565 527.311 388.12 527.013 387.526 527.013C386.932 527.013 386.486 527.46 386.486 527.907H380.842C380.842 527.311 380.396 527.013 379.802 527.013C379.208 527.013 378.762 527.46 378.762 527.907H373.564V426.913H374.603C374.603 427.509 375.049 427.807 375.643 427.807C376.237 427.807 376.683 427.36 376.683 426.913H382.476C382.476 427.509 382.921 427.807 383.515 427.807C384.109 427.807 384.555 427.36 384.555 426.913H390.348C390.348 427.509 390.793 427.807 391.388 427.807C391.982 427.807 392.427 427.36 392.427 426.913H398.072C398.072 427.509 398.517 427.807 399.111 427.807C399.706 427.807 400.151 427.36 400.151 426.913H405.795C405.795 427.509 406.241 427.807 406.835 427.807C407.429 427.807 407.875 427.36 407.875 426.913H413.668C413.668 427.509 414.113 427.807 414.707 427.807C415.302 427.807 415.747 427.36 415.747 426.913H421.54C421.54 427.36 421.986 427.807 422.431 427.807V434.51H421.986ZM421.986 423.934H267.064V402.484H421.986V423.934ZM421.986 398.76H267.064V375.97H421.986V398.76ZM421.986 372.097H373.118V215.84H421.986V372.097ZM362.275 4.31961H369.256V105.313H362.275V4.31961ZM351.877 4.31961H358.71V105.313H351.877V4.31961ZM353.511 109.037C338.212 114.251 325.884 126.316 320.388 141.659V109.037H353.511ZM341.332 4.31961H348.164V105.313H341.332V4.31961ZM330.786 4.31961H337.618V105.313H330.786V4.31961ZM327.072 4.31961V105.313H320.24V4.31961H327.072ZM320.388 212.116V179.345C326.033 194.837 338.658 207.051 354.254 212.116H320.388ZM375.346 207.349L370.593 211.073C343.114 210.924 320.685 188.283 320.685 160.428C320.685 132.87 342.668 110.378 369.85 109.782L380.248 140.318L389.605 165.641C390.051 166.684 389.902 167.726 389.308 168.769C388.714 169.663 387.823 170.408 386.783 170.557L378.762 171.897C378.168 172.046 377.574 172.493 377.277 173.089C377.128 173.387 377.128 173.834 377.277 174.281L378.614 180.537C377.128 181.58 375.346 182.026 373.415 182.175L371.038 182.324C369.999 182.324 369.107 183.367 369.256 184.41C369.256 185.452 370.147 186.197 371.187 186.197H371.335L375.643 185.899L376.683 188.581L373.118 191.709C372.821 192.007 372.672 192.305 372.524 192.602C372.375 193.347 372.524 194.092 373.118 194.688L375.643 196.773C377.128 197.965 377.871 199.752 377.871 201.689C378.168 204.072 377.128 206.158 375.346 207.349ZM377.425 210.626L377.574 210.477C380.248 208.541 381.881 205.264 382.03 201.987C382.178 198.859 380.842 195.88 378.465 193.943L377.722 193.198L380.545 190.666C381.139 190.07 381.287 189.176 380.99 188.432L379.505 184.708L382.03 183.069C382.773 182.622 383.07 181.729 382.921 180.984L381.733 175.323L387.674 174.281C389.902 173.983 391.685 172.642 392.873 170.706C393.913 168.769 394.21 166.386 393.319 164.3L383.961 138.978L374.009 109.782C400.3 111.42 421.094 133.466 421.094 160.279C421.094 186.197 401.934 207.498 377.425 210.626ZM421.986 143.148C416.638 127.21 404.162 114.548 388.268 109.037H421.986V143.148ZM421.986 11.3207C421.54 11.4696 421.094 11.7675 421.094 12.3634C421.094 12.9592 421.54 13.4061 421.986 13.4061V19.3644C421.54 19.5133 421.094 19.8112 421.094 20.4071C421.094 21.0029 421.54 21.4498 421.986 21.4498V27.4081C421.54 27.557 421.094 27.855 421.094 28.4508C421.094 29.0466 421.54 29.4935 421.986 29.4935V35.4518C421.54 35.6008 421.094 35.8987 421.094 36.4945C421.094 37.0904 421.54 37.5372 421.986 37.5372V43.4955C421.54 43.6445 421.094 43.9424 421.094 44.5383C421.094 45.1341 421.54 45.581 421.986 45.581V51.5393C421.54 51.6883 421.094 51.9862 421.094 52.582C421.094 53.1778 421.54 53.6247 421.986 53.6247V59.583C421.54 59.732 421.094 60.0299 421.094 60.6257C421.094 61.2215 421.54 61.6684 421.986 61.6684V67.6267C421.54 67.7757 421.094 68.0736 421.094 68.6694C421.094 69.2653 421.54 69.7122 421.986 69.7122V75.6705C421.54 75.8194 421.094 76.1173 421.094 76.7132C421.094 77.309 421.54 77.7559 421.986 77.7559V83.7142C421.54 83.8632 421.094 84.1611 421.094 84.7569C421.094 85.3527 421.54 85.7996 421.986 85.7996V91.7579C421.54 91.9069 421.094 92.2048 421.094 92.8006C421.094 93.3965 421.54 93.8433 421.986 93.8433V99.8017C421.54 99.9506 421.094 100.249 421.094 100.844C421.094 101.44 421.54 101.887 421.986 101.887V104.717H419.312C419.312 104.121 418.866 103.824 418.272 103.824C417.678 103.824 417.233 104.27 417.233 104.717H411.44C411.44 104.121 410.994 103.824 410.4 103.824C409.806 103.824 409.36 104.27 409.36 104.717H403.864C403.864 104.121 403.419 103.824 402.825 103.824C402.231 103.824 401.785 104.27 401.785 104.717H396.289C396.289 104.121 395.844 103.824 395.25 103.824C394.655 103.824 394.21 104.27 394.21 104.717H388.565C388.565 104.121 388.12 103.824 387.526 103.824C386.932 103.824 386.486 104.27 386.486 104.717H380.842C380.842 104.121 380.396 103.824 379.802 103.824C379.208 103.824 378.762 104.27 378.762 104.717H373.564V3.72379H374.603C374.603 4.31962 375.049 4.61754 375.643 4.61754C376.237 4.61754 376.683 4.17066 376.683 3.72379H382.476C382.476 4.31962 382.921 4.61754 383.515 4.61754C384.109 4.61754 384.555 4.17066 384.555 3.72379H390.348C390.348 4.31962 390.793 4.61754 391.388 4.61754C391.982 4.61754 392.427 4.17066 392.427 3.72379H398.072C398.072 4.31962 398.517 4.61754 399.111 4.61754C399.706 4.61754 400.151 4.17066 400.151 3.72379H405.795C405.795 4.31962 406.241 4.61754 406.835 4.61754C407.429 4.61754 407.875 4.17066 407.875 3.72379H413.668C413.668 4.31962 414.113 4.61754 414.707 4.61754C415.302 4.61754 415.747 4.17066 415.747 3.72379H421.54C421.54 4.17066 421.986 4.61754 422.431 4.61754V11.3207H421.986ZM583.442 4.46858H685.188V12.0654H583.442V4.46858ZM583.442 15.7894H685.188V22.6414H583.442V15.7894ZM583.442 26.3654H685.188V33.2175H583.442V26.3654ZM583.442 36.9414H685.188V43.7935H583.442V36.9414ZM583.442 47.5174H685.188V54.3695H583.442V47.5174ZM583.442 58.0934H685.188V65.5413H583.442V58.0934ZM583.442 69.2653H685.188V76.1173H583.442V69.2653ZM583.442 79.8413H685.188V86.6933H583.442V79.8413ZM583.442 90.4173H685.188V97.2694H583.442V90.4173ZM583.442 100.993H685.188V107.845H583.442V100.993ZM627.408 635.454C603.792 631.879 585.67 611.472 585.67 586.745C585.67 559.486 607.653 537.44 634.538 537.44C661.571 537.44 683.406 559.486 683.406 586.745C683.406 595.683 681.029 604.024 676.87 611.174L674.642 614.6C671.375 619.367 667.216 623.538 662.611 626.964L656.818 621.154C654.442 618.771 654.145 615.196 656.076 612.515L662.611 602.833C666.473 597.172 665.73 589.426 660.829 584.66L625.18 548.91C624.438 548.165 623.101 548.165 622.358 548.91L619.239 552.038C615.08 556.209 614.635 562.763 617.902 567.381L615.229 570.062C611.812 573.488 611.07 578.85 613.298 582.872L610.921 585.256C608.842 587.341 607.653 590.171 607.653 593.299C607.653 596.278 608.842 599.109 610.921 601.343L634.093 624.729C634.167 624.878 634.278 624.99 634.39 625.102C634.501 625.214 634.612 625.325 634.687 625.474C634.709 625.496 634.731 625.515 634.753 625.532C634.786 625.558 634.819 625.578 634.849 625.596C634.927 625.645 634.984 625.68 634.984 625.772C635.281 626.07 635.726 626.219 636.172 626.219C636.618 626.219 637.212 626.07 637.509 625.623C638.251 624.878 638.251 623.538 637.509 622.793L636.766 622.048C633.35 618.175 633.053 612.366 636.172 608.195L644.193 596.874C646.124 594.193 645.827 590.32 643.45 587.937L621.913 566.189C618.793 563.061 618.793 557.996 621.913 554.868L623.695 553.081L657.858 587.49C661.423 591.065 661.868 596.576 659.046 600.747L652.511 610.429C649.689 614.749 650.134 620.41 653.848 624.134L659.046 629.347C653.699 632.475 647.758 634.71 641.371 635.603H627.408V635.454ZM636.172 706.06C641.519 721.85 653.848 734.511 669.444 740.023H636.172V706.06ZM620.427 320.557C599.336 326.516 583.591 344.837 581.363 367.032C579.135 344.688 563.39 326.516 542.298 320.557H620.427ZM556.409 215.84H579.729V316.833H556.409V215.84ZM631.419 322.345V422.296C605.425 420.359 584.779 398.76 584.779 372.246C584.779 346.029 605.277 324.281 631.419 322.345ZM577.798 372.395C577.798 398.76 557.152 420.508 531.158 422.445V322.494C557.152 324.281 577.798 346.029 577.798 372.395ZM581.214 377.757C583.294 399.356 598.296 417.231 618.348 423.636H543.932C564.133 417.231 579.135 399.356 581.214 377.757ZM583.442 534.908H622.952C603.494 539.376 588.047 554.719 583.442 574.233V534.908ZM583.442 599.109C587.304 615.494 598.741 628.9 613.892 635.454H583.442V599.109ZM630.528 614.898L613.892 598.215C612.555 596.874 611.812 594.938 611.812 593.001C611.812 591.065 612.555 589.128 613.892 587.788L615.971 585.702L634.241 604.173L633.35 605.365C631.27 608.195 630.379 611.621 630.528 614.898ZM618.199 582.425C615.526 579.744 615.526 575.126 618.199 572.445L620.724 569.913L640.925 590.32C641.965 591.363 642.113 592.852 641.222 594.044L636.469 600.747L618.199 582.425ZM685.04 601.343V635.305H655.184C669.592 629.198 680.732 616.686 685.04 601.343ZM646.124 534.908H685.04V571.849C679.841 553.379 664.839 539.079 646.124 534.908ZM583.442 531.184V524.332H685.188V531.184H583.442ZM583.442 520.608V513.756H685.188V520.608H583.442ZM583.442 510.032V503.18H685.188V510.032H583.442ZM583.442 499.307V492.455H685.188V499.307H583.442ZM583.442 488.731V481.283H685.188V488.731H583.442ZM583.442 477.708V470.856H685.188V477.708H583.442ZM583.442 467.132V460.28H685.188V467.132H583.442ZM583.442 456.556V449.704H685.188V456.556H583.442ZM583.442 445.831V438.979H685.188V445.831H583.442ZM583.442 435.255V427.658H685.188V435.255H583.442ZM684.891 320.557L636.023 417.827V320.557H684.891ZM636.172 316.833V282.871C641.519 298.66 653.848 311.322 669.444 316.833H636.172ZM636.915 268.273H737.621C735.69 294.937 713.855 316.089 687.268 316.089C660.68 316.238 638.846 295.086 636.915 268.273ZM705.24 316.833C720.688 311.322 732.868 298.958 738.363 283.169V316.833H705.24ZM738.363 320.557V416.635L690.09 320.557H738.363ZM636.172 264.549V240.865H738.363V264.549H636.172ZM627.408 212.116C603.792 208.541 585.67 188.134 585.67 163.407C585.67 136.147 607.653 114.102 634.538 114.102C661.571 114.102 683.406 136.147 683.406 163.407C683.406 172.344 681.029 180.686 676.87 187.836L674.642 191.262C671.375 196.028 667.216 200.199 662.611 203.625L656.818 197.816C654.442 195.433 654.145 191.858 656.076 189.176L662.611 179.494C666.473 173.834 665.73 166.088 660.829 161.321L625.18 125.571C624.438 124.827 623.101 124.827 622.358 125.571L619.239 128.699C615.08 132.87 614.635 139.424 617.902 144.042L615.229 146.723C611.812 150.149 611.07 155.512 613.298 159.534L610.921 161.917C608.842 164.003 607.653 166.833 607.653 169.961C607.653 172.94 608.842 175.77 610.921 178.005L634.241 201.093C634.315 201.242 634.427 201.354 634.538 201.465C634.649 201.577 634.761 201.689 634.835 201.838C634.892 201.895 634.949 201.93 634.997 201.96C635.075 202.009 635.132 202.044 635.132 202.136C635.429 202.434 635.875 202.583 636.321 202.583C636.766 202.583 637.36 202.434 637.657 201.987C638.4 201.242 638.4 199.901 637.657 199.157L636.915 198.412C633.498 194.539 633.201 188.73 636.321 184.559L644.341 173.238C646.272 170.557 645.975 166.684 643.599 164.3L622.061 142.553C618.942 139.424 618.942 134.36 622.061 131.232L623.844 129.444L658.006 163.854C661.571 167.429 662.017 172.94 659.195 177.111L652.659 186.793C649.837 191.113 650.283 196.773 653.996 200.497L659.195 205.711C653.848 208.839 647.906 211.073 641.519 211.967H627.408V212.116ZM630.528 191.56L613.892 174.876C612.555 173.536 611.812 171.599 611.812 169.663C611.812 167.726 612.555 165.79 613.892 164.449L615.971 162.364L634.241 180.835L633.35 182.026C631.27 185.006 630.379 188.283 630.528 191.56ZM618.199 159.236C615.526 156.555 615.526 151.937 618.199 149.256L620.724 146.723L640.925 167.131C641.965 168.173 642.113 169.663 641.222 170.855L636.469 177.558L618.199 159.236ZM685.04 178.154V212.116H655.184C669.592 206.009 680.732 193.496 685.04 178.154ZM646.124 111.569H685.04V148.511C679.841 130.189 664.839 115.889 646.124 111.569ZM583.442 111.569H622.952C603.494 116.038 588.047 131.381 583.442 150.894V111.569ZM583.442 175.77C587.304 192.156 598.741 205.562 613.892 212.116H583.442V175.77ZM583.739 215.84H584.631C584.631 216.436 585.076 216.734 585.67 216.734C586.264 216.734 586.71 216.287 586.71 215.84H592.503C592.503 216.436 592.949 216.734 593.543 216.734C594.137 216.734 594.582 216.287 594.582 215.84H600.375C600.375 216.436 600.821 216.734 601.415 216.734C602.009 216.734 602.455 216.287 602.455 215.84H608.099C608.099 216.436 608.545 216.734 609.139 216.734C609.733 216.734 610.178 216.287 610.178 215.84H615.823C615.823 216.436 616.268 216.734 616.863 216.734C617.457 216.734 617.902 216.287 617.902 215.84H623.695C623.695 216.436 624.141 216.734 624.735 216.734C625.329 216.734 625.775 216.287 625.775 215.84H631.567C631.567 216.287 632.013 216.734 632.31 216.734V222.692C631.865 222.841 631.419 223.288 631.419 223.735C631.419 224.182 631.716 224.628 632.31 224.777V230.736C631.865 230.885 631.419 231.331 631.419 231.778C631.419 232.225 631.716 232.672 632.31 232.821V238.779C631.865 238.928 631.419 239.375 631.419 239.822C631.419 240.269 631.716 240.716 632.31 240.865V246.823C631.865 246.972 631.419 247.419 631.419 247.866C631.419 248.313 631.716 248.76 632.31 248.909V254.867C631.865 255.016 631.419 255.463 631.419 255.91C631.419 256.356 631.716 256.803 632.31 256.952V262.911C631.865 263.06 631.419 263.506 631.419 263.953C631.419 264.4 631.716 264.847 632.31 264.996V270.954C631.865 271.103 631.419 271.55 631.419 271.997C631.419 272.444 631.716 272.891 632.31 273.04V278.998C631.865 279.147 631.419 279.594 631.419 280.041C631.419 280.488 631.716 280.935 632.31 281.083V287.042C631.865 287.191 631.419 287.638 631.419 288.084C631.419 288.531 631.716 288.978 632.31 289.127V295.086C631.865 295.234 631.419 295.681 631.419 296.128C631.419 296.575 631.716 297.022 632.31 297.171V303.129C631.865 303.278 631.419 303.725 631.419 304.172C631.419 304.619 631.716 305.066 632.31 305.215V311.173C631.865 311.322 631.419 311.769 631.419 312.216C631.419 312.663 631.716 313.109 632.31 313.258V316.089H629.785C629.785 315.493 629.339 315.195 628.745 315.195C628.151 315.195 627.706 315.642 627.706 316.089H621.913C621.913 315.493 621.467 315.195 620.873 315.195C620.279 315.195 619.833 315.642 619.833 316.089H614.337C614.337 315.493 613.892 315.195 613.298 315.195C612.704 315.195 612.258 315.642 612.258 316.089H606.762C606.762 315.493 606.317 315.195 605.722 315.195C605.128 315.195 604.683 315.642 604.683 316.089H599.038C599.038 315.493 598.593 315.195 597.999 315.195C597.405 315.195 596.959 315.642 596.959 316.089H591.315C591.315 315.493 590.869 315.195 590.275 315.195C589.681 315.195 589.235 315.642 589.235 316.089H583.739V215.84ZM535.466 4.46858C535.614 4.91545 536.06 5.21337 536.505 5.21337C536.951 5.21337 537.397 4.91545 537.545 4.46858H543.338C543.487 4.91545 543.932 5.21337 544.378 5.21337C544.823 5.21337 545.269 4.91545 545.418 4.46858H551.21C551.359 4.91545 551.805 5.21337 552.25 5.21337C552.696 5.21337 553.141 4.91545 553.29 4.46858H559.231C559.38 4.91545 559.825 5.21337 560.271 5.21337C560.717 5.21337 561.162 4.91545 561.311 4.46858H566.955C567.104 4.91545 567.549 5.21337 567.995 5.21337C568.44 5.21337 568.886 4.91545 569.034 4.46858H574.976C575.124 4.91545 575.57 5.21337 576.016 5.21337C576.461 5.21337 576.907 4.91545 577.055 4.46858H580.175V7.14982H580.026C579.432 7.14982 578.986 7.59669 578.986 8.19253C578.986 8.78836 579.432 9.23523 580.026 9.23523H580.175V15.1935H580.026C579.432 15.1935 578.986 15.6404 578.986 16.2362C578.986 16.8321 579.432 17.279 580.026 17.279H580.175V23.2373H580.026C579.432 23.2373 578.986 23.6842 578.986 24.28C578.986 24.8758 579.432 25.3227 580.026 25.3227H580.175V31.281H580.026C579.432 31.281 578.986 31.7279 578.986 32.3237C578.986 32.9195 579.432 33.3664 580.026 33.3664H580.175V39.3247H580.026C579.432 39.3247 578.986 39.7716 578.986 40.3674C578.986 40.9633 579.432 41.4101 580.026 41.4101H580.175V47.3685H580.026C579.432 47.3685 578.986 47.8153 578.986 48.4112C578.986 49.007 579.432 49.4539 580.026 49.4539H580.175V55.4122H580.026C579.432 55.4122 578.986 55.8591 578.986 56.4549C578.986 57.0507 579.432 57.4976 580.026 57.4976H580.175V63.4559H580.026C579.432 63.4559 578.986 63.9028 578.986 64.4986C578.986 65.0945 579.432 65.5413 580.026 65.5413H580.175V71.4996H580.026C579.432 71.4996 578.986 71.9465 578.986 72.5424C578.986 73.1382 579.432 73.585 580.026 73.585H580.175V79.5434H580.026C579.432 79.5434 578.986 79.9902 578.986 80.5861C578.986 81.1819 579.432 81.6288 580.026 81.6288H580.175V87.5871H580.026C579.432 87.5871 578.986 88.034 578.986 88.6298C578.986 89.2256 579.432 89.6725 580.026 89.6725H580.175V95.6308H580.026C579.432 95.6308 578.986 96.0777 578.986 96.6735C578.986 97.2694 579.432 97.7162 580.026 97.7162H580.175V103.675H580.026C579.432 103.675 578.986 104.121 578.986 104.717C578.986 105.313 579.432 105.76 580.026 105.76H580.175V111.718H580.026C579.432 111.718 578.986 112.165 578.986 112.761C578.986 113.357 579.432 113.804 580.026 113.804H580.175V119.762H580.026C579.432 119.762 578.986 120.209 578.986 120.805C578.986 121.401 579.432 121.847 580.026 121.847H580.175V127.806H580.026C579.432 127.806 578.986 128.253 578.986 128.848C578.986 129.444 579.432 129.891 580.026 129.891H580.175V135.849H580.026C579.432 135.849 578.986 136.296 578.986 136.892C578.986 137.488 579.432 137.935 580.026 137.935H580.175V143.893H580.026C579.432 143.893 578.986 144.34 578.986 144.936C578.986 145.532 579.432 145.979 580.026 145.979H580.175V151.937H580.026C579.432 151.937 578.986 152.384 578.986 152.98C578.986 153.575 579.432 154.022 580.026 154.022H580.175V159.981H580.026C579.432 159.981 578.986 160.428 578.986 161.023C578.986 161.619 579.432 162.066 580.026 162.066H580.175V168.024H580.026C579.432 168.024 578.986 168.471 578.986 169.067C578.986 169.663 579.432 170.11 580.026 170.11H580.175V176.068H580.026C579.432 176.068 578.986 176.515 578.986 177.111C578.986 177.707 579.432 178.154 580.026 178.154H580.175V184.112H580.026C579.432 184.112 578.986 184.559 578.986 185.155C578.986 185.75 579.432 186.197 580.026 186.197H580.175V192.156H580.026C579.432 192.156 578.986 192.602 578.986 193.198C578.986 193.794 579.432 194.241 580.026 194.241H580.175V200.199H580.026C579.432 200.199 578.986 200.646 578.986 201.242C578.986 201.838 579.432 202.285 580.026 202.285H580.175V208.243H580.026C579.432 208.243 578.986 208.69 578.986 209.286C578.986 209.882 579.432 210.328 580.026 210.328H580.175V210.775H530.564V3.12796H535.466V4.46858ZM530.119 215.84H552.696V316.833H530.119V215.84ZM535.466 427.658C535.614 428.105 536.06 428.403 536.505 428.403C536.951 428.403 537.397 428.105 537.545 427.658H543.338C543.487 428.105 543.932 428.403 544.378 428.403C544.823 428.403 545.269 428.105 545.418 427.658H551.21C551.359 428.105 551.805 428.403 552.25 428.403C552.696 428.403 553.141 428.105 553.29 427.658H559.231C559.38 428.105 559.825 428.403 560.271 428.403C560.717 428.403 561.162 428.105 561.311 427.658H566.955C567.104 428.105 567.549 428.403 567.995 428.403C568.44 428.403 568.886 428.105 569.034 427.658H574.976C575.124 428.105 575.57 428.403 576.016 428.403C576.461 428.403 576.907 428.105 577.055 427.658H580.175V430.339H580.026C579.432 430.339 578.986 430.786 578.986 431.382C578.986 431.978 579.432 432.425 580.026 432.425H580.175V438.383H580.026C579.432 438.383 578.986 438.83 578.986 439.426C578.986 440.022 579.432 440.468 580.026 440.468H580.175V446.427H580.026C579.432 446.427 578.986 446.874 578.986 447.469C578.986 448.065 579.432 448.512 580.026 448.512H580.175V454.47H580.026C579.432 454.47 578.986 454.917 578.986 455.513C578.986 456.109 579.432 456.556 580.026 456.556H580.175V462.514H580.026C579.432 462.514 578.986 462.961 578.986 463.557C578.986 464.153 579.432 464.6 580.026 464.6H580.175V470.558H580.026C579.432 470.558 578.986 471.005 578.986 471.601C578.986 472.196 579.432 472.643 580.026 472.643H580.175V478.602H580.026C579.432 478.602 578.986 479.048 578.986 479.644C578.986 480.24 579.432 480.687 580.026 480.687H580.175V486.645H580.026C579.432 486.645 578.986 487.092 578.986 487.688C578.986 488.284 579.432 488.731 580.026 488.731H580.175V494.689H580.026C579.432 494.689 578.986 495.136 578.986 495.732C578.986 496.328 579.432 496.775 580.026 496.775H580.175V502.733H580.026C579.432 502.733 578.986 503.18 578.986 503.776C578.986 504.371 579.432 504.818 580.026 504.818H580.175V510.777H580.026C579.432 510.777 578.986 511.223 578.986 511.819C578.986 512.415 579.432 512.862 580.026 512.862H580.175V518.82H580.026C579.432 518.82 578.986 519.267 578.986 519.863C578.986 520.459 579.432 520.906 580.026 520.906H580.175V526.864H580.026C579.432 526.864 578.986 527.311 578.986 527.907C578.986 528.503 579.432 528.949 580.026 528.949H580.175V534.908H580.026C579.432 534.908 578.986 535.355 578.986 535.95C578.986 536.546 579.432 536.993 580.026 536.993H580.175V542.951H580.026C579.432 542.951 578.986 543.398 578.986 543.994C578.986 544.59 579.432 545.037 580.026 545.037H580.175V550.995H580.026C579.432 550.995 578.986 551.442 578.986 552.038C578.986 552.634 579.432 553.081 580.026 553.081H580.175V559.039H580.026C579.432 559.039 578.986 559.486 578.986 560.082C578.986 560.677 579.432 561.124 580.026 561.124H580.175V567.083H580.026C579.432 567.083 578.986 567.53 578.986 568.125C578.986 568.721 579.432 569.168 580.026 569.168H580.175V575.126H580.026C579.432 575.126 578.986 575.573 578.986 576.169C578.986 576.765 579.432 577.212 580.026 577.212H580.175V583.17H580.026C579.432 583.17 578.986 583.617 578.986 584.213C578.986 584.809 579.432 585.256 580.026 585.256H580.175V591.214H580.026C579.432 591.214 578.986 591.661 578.986 592.257C578.986 592.852 579.432 593.299 580.026 593.299H580.175V599.258H580.026C579.432 599.258 578.986 599.705 578.986 600.3C578.986 600.896 579.432 601.343 580.026 601.343H580.175V607.301H580.026C579.432 607.301 578.986 607.748 578.986 608.344C578.986 608.94 579.432 609.387 580.026 609.387H580.175V615.345H580.026C579.432 615.345 578.986 615.792 578.986 616.388C578.986 616.984 579.432 617.43 580.026 617.43H580.175V623.389H580.026C579.432 623.389 578.986 623.836 578.986 624.431C578.986 625.027 579.432 625.474 580.026 625.474H580.175V631.433H580.026C579.432 631.433 578.986 631.879 578.986 632.475C578.986 633.071 579.432 633.518 580.026 633.518H580.175V633.965H530.564V426.317H535.466V427.658ZM579.729 639.029V740.023H556.409V639.029H579.729ZM425.55 60.0299L523.88 110.229L425.55 160.428V60.0299ZM425.55 166.982L514.077 212.116H425.55V166.982ZM458.525 289.425L451.99 279.743C449.167 275.572 449.762 270.061 453.178 266.486L487.341 232.076L488.975 233.864C492.094 236.992 492.094 242.056 488.975 245.185L467.437 266.932C465.061 269.316 464.764 273.04 466.694 275.87L474.715 287.191C477.686 291.511 477.389 297.171 474.121 301.044L473.379 301.789C472.636 302.533 472.636 303.874 473.379 304.619C473.824 305.066 474.27 305.215 474.715 305.215C475.161 305.215 475.458 305.066 475.904 304.768C475.96 304.711 476.017 304.676 476.065 304.646C476.144 304.597 476.201 304.562 476.201 304.47C476.349 304.321 476.646 304.023 476.795 303.725L499.966 280.339C502.046 278.253 503.234 275.423 503.234 272.295C503.234 269.316 502.046 266.486 499.966 264.251L497.59 261.868C499.669 257.697 499.075 252.484 495.659 249.058L492.985 246.376C496.253 241.759 495.807 235.204 491.648 231.034L488.529 227.905C487.786 227.161 486.45 227.161 485.707 227.905L450.059 263.655C445.157 268.571 444.563 276.168 448.276 281.828L454.812 291.511C456.594 294.192 456.297 297.916 454.069 300.15L447.682 306.555C442.632 303.278 438.324 298.958 434.908 294.192L432.68 290.766C428.224 283.318 425.699 274.678 425.699 265.443C425.699 238.184 447.682 216.138 474.567 216.138C501.6 216.138 523.435 238.184 523.435 265.443C523.435 292.702 501.451 314.748 474.567 314.748H473.527L468.922 314.45C462.536 313.705 456.594 311.769 451.247 308.79L457.04 302.98C460.902 299.554 461.496 293.745 458.525 289.425ZM478.132 284.807L477.24 283.616L495.51 265.145L497.59 267.23C498.926 268.571 499.669 270.507 499.669 272.444C499.669 274.38 498.926 276.317 497.59 277.657L480.954 294.341C481.102 290.915 480.063 287.638 478.132 284.807ZM493.134 261.868L474.864 280.19L470.111 273.487C469.22 272.295 469.368 270.656 470.408 269.763L490.608 249.355L493.134 251.888C495.956 254.569 495.956 259.038 493.134 261.868ZM425.55 215.84H456.891C442.483 221.202 430.898 232.821 425.55 247.419V215.84ZM425.55 283.914C431.343 299.852 444.563 312.216 461.05 316.833H425.55V283.914ZM425.55 427.658H521.355L425.55 476.665V427.658ZM425.55 483.368L523.88 533.567L425.55 583.915V483.368ZM425.55 590.171L514.077 635.305H425.55V590.171ZM425.55 639.029H456.891C442.483 644.392 430.898 656.011 425.55 670.608V639.029ZM425.55 740.023V707.103C431.343 723.042 444.563 735.405 461.05 740.023H425.55ZM473.824 738.235L469.22 737.937C462.833 737.193 456.891 735.256 451.544 732.277L457.337 726.468C461.05 722.744 461.496 717.083 458.674 712.764L452.138 703.081C449.316 698.91 449.91 693.399 453.326 689.824L487.489 655.415L489.123 657.202C492.242 660.33 492.242 665.395 489.123 668.523L467.586 690.271C465.209 692.654 464.912 696.378 466.843 699.208L474.864 710.529C477.835 714.849 477.537 720.509 474.27 724.382L473.527 725.127C472.784 725.872 472.784 727.212 473.527 727.957C473.973 728.404 474.418 728.553 474.864 728.553C475.309 728.553 475.606 728.404 476.052 728.106C476.109 728.049 476.166 728.014 476.214 727.984C476.263 727.953 476.304 727.928 476.328 727.891C476.341 727.869 476.349 727.842 476.349 727.808C476.498 727.659 476.795 727.361 476.943 727.063L500.115 703.677C502.194 701.592 503.382 698.761 503.382 695.633C503.382 692.654 502.194 689.824 500.115 687.59L497.738 685.206C499.818 681.035 499.223 675.822 495.807 672.396L493.134 669.715C496.401 665.097 495.956 658.543 491.797 654.372L488.677 651.244C487.935 650.499 486.598 650.499 485.855 651.244L450.207 686.994C445.305 691.909 444.711 699.506 448.425 705.167L454.96 714.849C456.743 717.53 456.446 721.254 454.218 723.489L447.831 729.894C442.78 726.617 438.473 722.297 435.057 717.53L432.829 714.104C428.373 706.656 425.848 698.017 425.848 688.781C425.848 661.522 447.831 639.476 474.715 639.476C501.748 639.476 523.583 661.522 523.583 688.781C523.583 716.041 501.6 738.086 474.715 738.086C474.567 738.235 474.121 738.235 473.824 738.235ZM478.132 707.997L477.24 706.805L495.51 688.334L497.59 690.42C498.926 691.76 499.669 693.697 499.669 695.633C499.669 697.57 498.926 699.506 497.59 700.847L480.954 717.53C481.102 714.253 480.063 710.827 478.132 707.997ZM493.134 685.057L474.864 703.379L470.111 696.676C469.22 695.484 469.368 693.846 470.408 692.952L490.608 672.545L493.134 675.077C495.956 677.907 495.956 682.376 493.134 685.057ZM526.405 740.023H488.826C507.838 734.809 522.395 719.169 526.405 699.655V740.023ZM526.405 678.056C522.692 660.032 509.918 645.286 492.985 639.029H526.405V678.056ZM526.405 635.454H522.246L427.63 587.043L526.554 536.546V635.454H526.405ZM526.405 530.737L427.184 480.091L526.405 429.446V530.737ZM526.405 423.934H487.192H425.55V417.082H526.405V423.934ZM526.405 413.358H425.55V406.506H526.405V413.358ZM526.405 402.782H425.55V395.93H526.405V402.782ZM526.405 392.206H425.55V385.354H526.405V392.206ZM526.405 381.63H425.55V374.778H526.405V381.63ZM526.405 371.054H425.55V347.817H526.405V371.054ZM526.405 344.093H425.55V320.557H526.405V344.093ZM526.405 316.833H488.826C507.838 311.62 522.395 295.979 526.405 276.466V316.833ZM526.405 254.867C522.692 236.843 509.918 222.096 492.985 215.84H526.405V254.867ZM526.405 212.116H522.246L427.63 163.705L526.554 113.208V212.116H526.405ZM526.405 107.399L427.184 56.7528L526.405 6.10712V107.399ZM530.119 639.029H552.696V740.023H530.119V639.029ZM530.119 842L531.158 745.683C557.152 747.62 577.798 769.219 577.798 795.733C577.798 822.099 556.112 840.063 530.119 842ZM620.279 743.747C599.187 749.705 583.442 768.027 581.214 790.222C579.135 768.027 563.242 749.705 542.15 743.747H620.279ZM632.459 646.03C632.013 646.179 631.567 646.626 631.567 647.073C631.567 647.52 631.865 647.967 632.459 648.116V654.074C632.013 654.223 631.567 654.67 631.567 655.117C631.567 655.564 631.865 656.01 632.459 656.159V662.118C632.013 662.267 631.567 662.714 631.567 663.161C631.567 663.607 631.865 664.054 632.459 664.203V670.162C632.013 670.311 631.567 670.757 631.567 671.204C631.567 671.651 631.865 672.098 632.459 672.247V678.205C632.013 678.354 631.567 678.801 631.567 679.248C631.567 679.695 631.865 680.142 632.459 680.291V686.249C632.013 686.398 631.567 686.845 631.567 687.292C631.567 687.739 631.865 688.185 632.459 688.334V694.293C632.013 694.442 631.567 694.889 631.567 695.335C631.567 695.782 631.865 696.229 632.459 696.378V702.336C632.013 702.485 631.567 702.932 631.567 703.379C631.567 703.826 631.865 704.273 632.459 704.422V710.38C632.013 710.529 631.567 710.976 631.567 711.423C631.567 711.87 631.865 712.317 632.459 712.466V718.424C632.013 718.573 631.567 719.02 631.567 719.467C631.567 719.914 631.865 720.36 632.459 720.509V726.468C632.013 726.617 631.567 727.063 631.567 727.51C631.567 727.957 631.865 728.404 632.459 728.553V734.511C632.013 734.66 631.567 735.107 631.567 735.554C631.567 736.001 631.865 736.448 632.459 736.597V739.427H629.785C629.785 738.831 629.339 738.533 628.745 738.533C628.151 738.533 627.706 738.98 627.706 739.427H621.913C621.913 738.831 621.467 738.533 620.873 738.533C620.279 738.533 619.833 738.98 619.833 739.427H614.337C614.337 738.831 613.892 738.533 613.298 738.533C612.704 738.533 612.258 738.98 612.258 739.427H606.762C606.762 738.831 606.317 738.533 605.722 738.533C605.128 738.533 604.683 738.98 604.683 739.427H599.038C599.038 738.831 598.593 738.533 597.999 738.533C597.405 738.533 596.959 738.98 596.959 739.427H591.315C591.315 738.831 590.869 738.533 590.275 738.533C589.681 738.533 589.235 738.98 589.235 739.427H583.739V639.029H584.928C584.928 639.625 585.373 639.923 585.967 639.923C586.562 639.923 587.007 639.476 587.007 639.029H592.8C592.8 639.625 593.246 639.923 593.84 639.923C594.434 639.923 594.879 639.476 594.879 639.029H600.672C600.672 639.625 601.118 639.923 601.712 639.923C602.306 639.923 602.752 639.476 602.752 639.029H608.396C608.396 639.625 608.842 639.923 609.436 639.923C610.03 639.923 610.476 639.476 610.476 639.029H616.12C616.12 639.625 616.565 639.923 617.16 639.923C617.754 639.923 618.199 639.476 618.199 639.029H623.992C623.992 639.625 624.438 639.923 625.032 639.923C625.626 639.923 626.072 639.476 626.072 639.029H631.865C631.865 639.476 632.31 639.923 632.607 639.923V646.03H632.459ZM636.172 841.016V743.747H685.04L636.172 841.016ZM687.268 739.427C660.68 739.427 638.846 718.275 636.915 691.612H737.621C735.838 718.275 713.855 739.427 687.268 739.427ZM738.363 839.825L690.09 743.747H738.363V839.825ZM738.363 740.023H705.24C720.688 734.511 732.868 722.148 738.363 706.358V740.023ZM738.363 687.888H636.172V664.203H738.363V687.888ZM742.077 776.369V743.747H775.2C759.901 749.109 747.721 761.175 742.077 776.369ZM784.112 639.029H791.093V740.023H784.112V639.029ZM773.566 639.029H780.399V740.023H773.566V639.029ZM763.02 639.029H769.853V740.023H763.02V639.029ZM752.623 639.029H759.455V740.023H752.623V639.029ZM748.909 639.029V740.023H742.077V639.029H748.909ZM738.363 639.029V660.479H636.172V639.029H738.363ZM637.36 423.636L687.565 323.685L737.769 423.636H637.36ZM842.783 371.948C842.783 397.569 823.771 418.87 799.114 422.147L799.263 421.998C801.936 420.061 803.57 416.784 803.719 413.507C803.867 410.379 802.53 407.4 800.154 405.463L799.411 404.719L802.233 402.186C802.827 401.59 802.976 400.697 802.679 399.952L801.193 396.228L803.719 394.589C804.461 394.143 804.758 393.249 804.61 392.504L803.422 386.844L809.363 385.801C811.591 385.503 813.373 384.162 814.562 382.226C815.601 380.289 815.898 377.906 815.007 375.821L805.65 350.498L795.698 321.302C821.988 323.09 842.783 345.135 842.783 371.948ZM802.085 351.987L811.442 377.31C811.888 378.353 811.739 379.396 811.145 380.438C810.551 381.332 809.66 382.077 808.62 382.226L800.599 383.566C800.005 383.715 799.411 384.162 799.114 384.758C798.966 385.056 798.966 385.503 799.114 385.95L800.451 392.206C798.966 393.249 797.183 393.696 795.252 393.845L792.875 393.994C791.836 393.994 790.945 395.036 791.093 396.079C791.093 397.122 791.984 397.866 793.024 397.866H793.173L797.48 397.569L798.52 400.25L794.955 403.378C794.658 403.676 794.509 403.974 794.361 404.272C794.212 405.016 794.361 405.761 794.955 406.357L797.48 408.443C798.966 409.634 799.708 411.422 799.708 413.358C799.708 415.444 798.52 417.529 796.886 418.87L796.019 419.549L792.133 422.594C764.654 422.445 742.225 399.803 742.225 371.948C742.225 344.391 764.208 321.898 791.39 321.302L802.085 351.987ZM775.2 423.338L742.077 423.636V390.865C747.721 406.059 759.901 418.125 775.2 423.338ZM742.077 353.179V320.557H775.2C759.901 325.771 747.721 337.836 742.077 353.179ZM784.112 215.84H791.093V316.833H784.112V215.84ZM773.566 215.84H780.399V316.833H773.566V215.84ZM763.02 215.84H769.853V316.833H763.02V215.84ZM752.623 215.84H759.455V316.833H752.623V215.84ZM748.909 215.84V316.833H742.077V215.84H748.909ZM740.146 427.658H791.093V583.915H688.902V579.446C689.199 579.297 689.347 578.999 689.347 578.701C689.347 578.404 689.199 578.106 688.902 577.957V571.551C689.199 571.402 689.347 571.104 689.347 570.807C689.347 570.509 689.199 570.211 688.902 570.062V563.657C689.199 563.508 689.347 563.21 689.347 562.912C689.347 562.614 689.199 562.316 688.902 562.167V555.762C689.199 555.613 689.347 555.315 689.347 555.017C689.347 554.719 689.199 554.421 688.902 554.272V547.867C689.199 547.718 689.347 547.42 689.347 547.122C689.347 546.824 689.199 546.526 688.902 546.378V539.972C689.199 539.823 689.347 539.525 689.347 539.228C689.347 538.93 689.199 538.632 688.902 538.483V532.078C689.199 531.929 689.347 531.631 689.347 531.333C689.347 531.035 689.199 530.737 688.902 530.588V522.842C689.199 522.693 689.347 522.395 689.347 522.097C689.347 521.799 689.199 521.502 688.902 521.353V514.947C689.199 514.798 689.347 514.501 689.347 514.203C689.347 513.905 689.199 513.607 688.902 513.458V507.053C689.199 506.904 689.347 506.606 689.347 506.308C689.347 506.01 689.199 505.712 688.902 505.563V498.562V498.264V497.966V490.518V490.22V489.922V482.475V482.177V481.879V474.431V474.133V473.835V466.387V466.089V465.791V458.343V458.046V457.748V450.3V450.002V449.704V442.256V441.958V441.66V434.212V433.914V433.616V428.701L740.146 427.658ZM738.363 215.84V237.29H636.172V215.84H738.363ZM791.093 160.725H688.902V156.257C689.199 156.108 689.347 155.81 689.347 155.512C689.347 155.214 689.199 154.916 688.902 154.767V148.362C689.199 148.213 689.347 147.915 689.347 147.617C689.347 147.319 689.199 147.021 688.902 146.872V140.02C689.199 139.871 689.347 139.573 689.347 139.275C689.347 138.978 689.199 138.68 688.902 138.531V132.126C689.199 131.977 689.347 131.679 689.347 131.381C689.347 131.083 689.199 130.785 688.902 130.636V124.231C689.199 124.082 689.347 123.784 689.347 123.486C689.347 123.188 689.199 122.89 688.902 122.741V116.336C689.199 116.187 689.347 115.889 689.347 115.591C689.347 115.293 689.199 114.995 688.902 114.846V108.441C689.199 108.292 689.347 107.994 689.347 107.696C689.347 107.398 689.199 107.101 688.902 106.952V100.546C689.199 100.397 689.347 100.1 689.347 99.8017C689.347 99.5037 689.199 99.2058 688.902 99.0569V92.6517C689.199 92.5027 689.347 92.2048 689.347 91.9069C689.347 91.609 689.199 91.311 688.902 91.1621V83.4163C689.199 83.2673 689.347 82.9694 689.347 82.6715C689.347 82.3736 689.199 82.0757 688.902 81.9267V74.9257V74.6278V74.3298V66.8819V66.584V66.2861V58.8382V58.5403V58.2424V50.7945V50.4966V50.1987V42.7508V42.4529V42.1549V34.707V34.4091V34.1112V26.6633V26.3654V26.0675V18.6196V18.3217V18.0238V10.5759V10.2779V9.98002V4.46858H740.146H791.093V160.725ZM584.779 795.584C584.779 769.219 605.425 747.471 631.419 745.534V842.035C624.945 842.32 616.776 840.118 613.5 838.5C613.342 838.412 613.168 838.318 612.98 838.215C606.733 834.802 584.779 822.808 584.779 795.584Z" fill="#BEAFA3"/>
</svg>
