<svg width="16" height="17" viewBox="0 0 16 17" fill="none" xmlns="http://www.w3.org/2000/svg">
<path d="M14.5885 7.83233L8.13873 14.2821C7.34859 15.0723 6.27691 15.5162 5.15948 15.5162C4.04204 15.5162 2.97037 15.0723 2.18022 14.2821C1.39007 13.492 0.946167 12.4203 0.946167 11.3029C0.946167 10.1854 1.39007 9.11376 2.18022 8.32361L8.19488 2.30895C8.72165 1.78125 9.43646 1.48442 10.1821 1.48377C10.9277 1.48311 11.643 1.77867 12.1707 2.30544C12.6984 2.8322 12.9953 3.54702 12.9959 4.29264C12.9966 5.03826 12.701 5.7536 12.1742 6.28129L6.14554 12.296C5.88216 12.5593 5.52494 12.7073 5.15246 12.7073C4.77998 12.7073 4.42275 12.5593 4.15937 12.296C3.89599 12.0326 3.74802 11.6754 3.74802 11.3029C3.74802 10.9304 3.89599 10.5732 4.15937 10.3098L10.1179 4.35828" stroke="#BCBCBC" stroke-width="1.2" stroke-linecap="round" stroke-linejoin="round"/>
</svg>
