<svg width="18" height="15" viewBox="0 0 18 15" fill="none" xmlns="http://www.w3.org/2000/svg">
<path fill-rule="evenodd" clip-rule="evenodd" d="M2.33288 1.45813C1.75759 1.45813 1.29122 1.9245 1.29122 2.4998V12.4998C1.29122 13.0751 1.75759 13.5415 2.33288 13.5415H15.6662C16.2415 13.5415 16.7079 13.0751 16.7079 12.4998V2.4998C16.7079 1.9245 16.2415 1.45813 15.6662 1.45813H2.33288ZM0.041217 2.4998C0.041217 1.23414 1.06723 0.20813 2.33288 0.20813H15.6662C16.9319 0.20813 17.9579 1.23414 17.9579 2.4998V12.4998C17.9579 13.7654 16.9319 14.7915 15.6662 14.7915H2.33288C1.06723 14.7915 0.041217 13.7654 0.041217 12.4998V2.4998Z" fill="#BCBCBC"/>
<path fill-rule="evenodd" clip-rule="evenodd" d="M0.138711 2.99793C0.323839 2.70659 0.710088 2.6205 1.00142 2.80562L8.47451 7.55441C8.63198 7.65269 8.8139 7.70481 8.99955 7.70481C9.1852 7.70481 9.36712 7.65269 9.52459 7.55441L9.52605 7.55349L16.9977 2.80562C17.289 2.6205 17.6753 2.70659 17.8604 2.99793C18.0455 3.28926 17.9594 3.67551 17.6681 3.86064L10.1897 8.61278C9.83298 8.83628 9.42052 8.95481 8.99955 8.95481C8.57858 8.95481 8.16612 8.83627 7.80939 8.61277L7.80601 8.61065L0.331012 3.86064C0.0396786 3.67551 -0.0464177 3.28926 0.138711 2.99793Z" fill="#BCBCBC"/>
</svg>
