<svg width="20" height="21" viewBox="0 0 20 21" fill="none" xmlns="http://www.w3.org/2000/svg">
<path d="M19.4 10.5C19.4 15.6915 15.1915 19.9 10 19.9C4.80852 19.9 0.6 15.6915 0.6 10.5C0.6 5.30852 4.80852 1.1 10 1.1C15.1915 1.1 19.4 5.30852 19.4 10.5Z" stroke="#BCBCBC" stroke-width="1.2"/>
<path d="M4.45535 9.66487L14.5905 5.75712C15.0609 5.58718 15.4717 5.87187 15.3193 6.58317L15.3202 6.58229L13.5945 14.7123C13.4666 15.2887 13.1241 15.4288 12.6449 15.1573L10.017 13.2205L8.74942 14.4416C8.60926 14.5818 8.491 14.7 8.21945 14.7L8.40603 12.0256L13.2765 7.62559C13.4885 7.439 13.2292 7.33388 12.9498 7.51959L6.93088 11.3091L4.33622 10.4997C3.77296 10.321 3.7607 9.93643 4.45535 9.66487Z" fill="#BCBCBC"/>
</svg>
