<svg width="19" height="21" viewBox="0 0 19 21" fill="none" xmlns="http://www.w3.org/2000/svg">
<path d="M18.2958 12.0775C18.8924 7.05502 18.0091 3.88419 16.4158 2.45002L16.4166 2.44919C13.8449 2.05636e-05 5.15994 -0.36248 2.08328 2.55919C0.701611 3.98835 0.214944 6.08585 0.161611 8.68252C0.108277 11.28 0.044944 16.1459 4.57911 17.4659H4.58328L4.57911 19.4817C4.57911 19.4817 4.54828 20.2984 5.06994 20.4625C5.66661 20.6559 5.93661 20.2767 7.79244 18.06C10.8958 18.3292 13.2791 17.7125 13.5499 17.6225C14.1766 17.4125 17.7224 16.9434 18.2958 12.0775ZM8.09828 16.6417C8.09828 16.6417 6.13411 19.0909 5.52328 19.7267C5.32328 19.9334 5.10411 19.9142 5.10744 19.5042C5.10744 19.235 5.12244 16.1575 5.12244 16.1575C1.27828 15.0559 1.50494 10.9125 1.54661 8.74502C1.58828 6.57669 1.98494 4.80085 3.15494 3.60502C5.85411 1.07419 13.4683 1.64002 15.4083 3.46335C17.7799 5.56585 16.9358 11.5059 16.9408 11.7084C16.4533 15.77 13.5799 16.0275 13.0516 16.2034C12.8258 16.2784 10.7299 16.8175 8.09828 16.6417Z" fill="#BCBCBC"/>
<path d="M9.18496 4.08087C8.86413 4.08087 8.86413 4.58087 9.18496 4.58504C11.6741 4.6042 13.7241 6.33921 13.7466 9.52171C13.7466 9.85754 14.2383 9.85337 14.2341 9.51754C14.2075 6.08837 11.9683 4.10004 9.18496 4.08087Z" fill="#BCBCBC"/>
<path d="M12.4591 8.99417C12.4516 9.32584 12.9425 9.34167 12.9466 9.00584C12.9875 7.11501 11.8216 5.55751 9.63081 5.39334C9.30997 5.37001 9.27664 5.87417 9.59664 5.89751C11.4966 6.04167 12.4975 7.33834 12.4591 8.99417ZM11.9341 11.145C11.5225 10.9067 11.1033 11.055 10.93 11.2892L10.5675 11.7583C10.3833 11.9967 10.0391 11.965 10.0391 11.965C7.52747 11.3008 6.85581 8.67251 6.85581 8.67251C6.85581 8.67251 6.82498 8.31667 7.05498 8.12584L7.50831 7.75084C7.73497 7.57084 7.87831 7.13751 7.64747 6.71167C7.03081 5.59751 6.61664 5.21334 6.40581 4.91834C6.18414 4.64084 5.85081 4.57834 5.50414 4.76584H5.49664C4.77581 5.18751 3.98664 5.97667 4.23914 6.78917C4.66997 7.64584 5.46164 10.3767 7.98497 12.44C9.17081 13.4158 11.0475 14.4158 11.8441 14.6467L11.8516 14.6583C12.6366 14.92 13.4 14.1 13.8075 13.3575V13.3517C13.9883 12.9925 13.9283 12.6525 13.6641 12.43C13.1958 11.9733 12.4891 11.4692 11.9341 11.145Z" fill="#BCBCBC"/>
<path d="M9.97412 7.25336C10.775 7.30002 11.1633 7.71836 11.205 8.57752C11.22 8.91336 11.7075 8.89002 11.6925 8.55419C11.6391 7.43252 11.0541 6.80752 10.0008 6.74919C9.67996 6.73002 9.64996 7.23419 9.97412 7.25336Z" fill="#BCBCBC"/>
</svg>
