<svg width="20" height="21" viewBox="0 0 20 21" fill="none" xmlns="http://www.w3.org/2000/svg">
<path d="M14.5892 12.4225L14.5817 12.485C12.7492 11.5717 12.5575 11.45 12.3208 11.805C12.1567 12.0508 11.6783 12.6083 11.5342 12.7733C11.3883 12.9358 11.2433 12.9483 10.9958 12.8358C10.7458 12.7108 9.94333 12.4483 8.99333 11.5983C8.25333 10.9358 7.75666 10.1233 7.60999 9.87333C7.36583 9.45167 7.87666 9.39167 8.34166 8.51167C8.42499 8.33667 8.38249 8.19917 8.32083 8.075C8.25833 7.95 7.76083 6.725 7.55249 6.23667C7.35249 5.75 7.14666 5.81167 6.99249 5.81167C6.51249 5.77 6.16166 5.77667 5.85249 6.09833C4.50749 7.57667 4.84666 9.10167 5.99749 10.7233C8.25916 13.6833 9.46416 14.2283 11.6675 14.985C12.2625 15.1742 12.805 15.1475 13.2342 15.0858C13.7125 15.01 14.7067 14.485 14.9142 13.8975C15.1267 13.31 15.1267 12.8225 15.0642 12.71C15.0025 12.5975 14.8392 12.535 14.5892 12.4225Z" fill="#BCBCBC"/>
<path d="M17.1 3.37386C10.6925 -2.82031 0.0883333 1.67219 0.0841667 10.4105C0.0841667 12.1572 0.541667 13.8605 1.41333 15.3647L0 20.4997L5.27917 19.123C11.8667 22.6814 19.9967 17.9564 20 10.4155C20 7.76886 18.9667 5.27802 17.0875 3.40636L17.1 3.37386ZM18.335 10.388C18.33 16.7489 11.3475 20.7214 5.825 17.4747L5.525 17.2964L2.4 18.1089L3.2375 15.0714L3.03833 14.7589C-0.398333 9.28802 3.55 2.13802 10.06 2.13802C11.1471 2.13529 12.224 2.34821 13.2283 2.76446C14.2326 3.18071 15.1444 3.79203 15.9108 4.56302C16.6815 5.32434 17.2927 6.23153 17.7089 7.23164C18.1251 8.23176 18.338 9.30476 18.335 10.388Z" fill="#BCBCBC"/>
</svg>
