<svg width="32" height="35" viewBox="0 0 32 35" fill="none" xmlns="http://www.w3.org/2000/svg">
<path fill-rule="evenodd" clip-rule="evenodd" d="M0.174675 34.7182C0.320405 34.8966 0.537779 35 0.767191 35H7.47983C7.70924 35 7.92662 34.8966 8.07235 34.7182C8.21808 34.5398 8.27687 34.305 8.23259 34.0784L6.42685 24.8329C6.3561 24.4706 6.04071 24.2094 5.67409 24.2094H2.57287C2.20624 24.2094 1.89085 24.4706 1.8201 24.8329L0.0144263 34.0784C-0.0298439 34.305 0.028946 34.5398 0.174675 34.7182ZM1.69995 33.4549L3.20387 25.7545H5.04309L6.54706 33.4549H1.69995Z" fill="white"/>
<path fill-rule="evenodd" clip-rule="evenodd" d="M1.3995 5.62753C1.3995 7.20416 2.66881 8.48233 4.23449 8.48233C5.80026 8.48233 7.06948 7.20414 7.06948 5.62753V2.38109C7.06948 1.95442 6.726 1.60854 6.30229 1.60854H2.16669C1.74298 1.60854 1.3995 1.95442 1.3995 2.38109V5.62753ZM4.23449 6.93724C3.51622 6.93724 2.93387 6.35082 2.93387 5.62753V3.15363H5.53511V5.62753C5.53511 6.35084 4.95282 6.93724 4.23449 6.93724Z" fill="white"/>
<path fill-rule="evenodd" clip-rule="evenodd" d="M0.165095 2.38109C0.165095 2.80776 0.508575 3.15364 0.932279 3.15364H2.16669C2.59039 3.15364 2.93387 2.80776 2.93387 2.38109C2.93387 1.95442 2.59039 1.60854 2.16669 1.60854L0.932279 1.60854C0.508575 1.60854 0.165095 1.95442 0.165095 2.38109Z" fill="white"/>
<path fill-rule="evenodd" clip-rule="evenodd" d="M5.32832 2.38109C5.32832 2.80776 5.6718 3.15364 6.09551 3.15364H7.53677C7.96047 3.15364 8.30395 2.80776 8.30395 2.38109C8.30395 1.95442 7.96047 1.60854 7.53677 1.60854H6.09551C5.6718 1.60854 5.32832 1.95442 5.32832 2.38109Z" fill="white"/>
<path fill-rule="evenodd" clip-rule="evenodd" d="M4.2345 3.15364C4.6582 3.15364 5.00168 2.80776 5.00168 2.38109V0.772547C5.00168 0.345881 4.6582 0 4.2345 0C3.81079 0 3.46731 0.345881 3.46731 0.772547V2.38109C3.46731 2.80776 3.81079 3.15364 4.2345 3.15364Z" fill="white"/>
<path fill-rule="evenodd" clip-rule="evenodd" d="M4.11862 25.7545C4.54232 25.7572 4.88801 25.4136 4.89075 24.987L5.00166 7.71478C5.0044 7.28813 4.66314 6.94002 4.23945 6.93726C3.81575 6.9345 3.47006 7.27814 3.46732 7.7048L3.35641 24.977C3.35368 25.4036 3.69493 25.7517 4.11862 25.7545Z" fill="white"/>
<path fill-rule="evenodd" clip-rule="evenodd" d="M9.67202 29.3395C9.67202 29.7662 10.0155 30.112 10.4392 30.112H31.2328C31.6565 30.112 32 29.7662 32 29.3395C32 28.9128 31.6565 28.5669 31.2328 28.5669H10.4392C10.0155 28.5669 9.67202 28.9128 9.67202 29.3395Z" fill="white"/>
<path fill-rule="evenodd" clip-rule="evenodd" d="M12.6585 25.1747C12.6585 25.6014 13.002 25.9473 13.4257 25.9473H28.2469C28.6706 25.9473 29.0141 25.6014 29.0141 25.1747C29.0141 24.748 28.6706 24.4022 28.2469 24.4022H13.4257C13.002 24.4022 12.6585 24.748 12.6585 25.1747Z" fill="white"/>
<path fill-rule="evenodd" clip-rule="evenodd" d="M12.6585 21.0102C12.6585 21.4369 13.002 21.7827 13.4257 21.7827H28.2469C28.6706 21.7827 29.0141 21.4369 29.0141 21.0102C29.0141 20.5835 28.6706 20.2376 28.2469 20.2376H13.4257C13.002 20.2376 12.6585 20.5835 12.6585 21.0102Z" fill="white"/>
<path fill-rule="evenodd" clip-rule="evenodd" d="M12.1841 35C12.6078 35 12.9513 34.6541 12.9513 34.2275V29.3395C12.9513 28.9128 12.6078 28.5669 12.1841 28.5669C11.7604 28.5669 11.4169 28.9128 11.4169 29.3395V34.2275C11.4169 34.6541 11.7604 35 12.1841 35Z" fill="white"/>
<path fill-rule="evenodd" clip-rule="evenodd" d="M29.4881 35C29.9118 35 30.2553 34.6541 30.2553 34.2275V29.3395C30.2553 28.9128 29.9118 28.5669 29.4881 28.5669C29.0644 28.5669 28.7209 28.9128 28.7209 29.3395V34.2275C28.7209 34.6541 29.0644 35 29.4881 35Z" fill="white"/>
<path fill-rule="evenodd" clip-rule="evenodd" d="M13.4253 30.112C13.849 30.112 14.1924 29.7662 14.1924 29.3395V19.2045C14.1924 18.7778 13.849 18.4319 13.4253 18.4319C13.0015 18.4319 12.6581 18.7778 12.6581 19.2045V29.3395C12.6581 29.7662 13.0015 30.112 13.4253 30.112Z" fill="white"/>
<path fill-rule="evenodd" clip-rule="evenodd" d="M28.2468 30.112C28.6705 30.112 29.014 29.7662 29.014 29.3395V19.2045C29.014 18.7778 28.6705 18.4319 28.2468 18.4319C27.8231 18.4319 27.4796 18.7778 27.4796 19.2045V29.3395C27.4796 29.7662 27.8231 30.112 28.2468 30.112Z" fill="white"/>
</svg>
