<svg width="34" height="34" viewBox="0 0 34 34" fill="none" xmlns="http://www.w3.org/2000/svg">
<g clip-path="url(#clip0_918_108633)">
<path fill-rule="evenodd" clip-rule="evenodd" d="M16.9999 3.93324C17.4435 3.93324 17.8031 3.57366 17.8031 3.13009V2.94049V1.60647V0.996265C17.8031 0.552697 17.4435 0.193115 16.9999 0.193115C16.5564 0.193115 16.1968 0.552697 16.1968 0.996265V1.60647V2.94049V3.13009C16.1968 3.57366 16.5564 3.93324 16.9999 3.93324Z" fill="white"/>
<path fill-rule="evenodd" clip-rule="evenodd" d="M12.996 25.5355C12.996 27.7453 14.7897 29.5394 17 29.5394C19.2102 29.5394 21.0039 27.7453 21.0039 25.5355C21.0039 23.325 19.2101 21.5316 17 21.5316C14.7898 21.5316 12.996 23.325 12.996 25.5355ZM17 27.9331C15.677 27.9331 14.6023 26.8582 14.6023 25.5355C14.6023 24.2122 15.6769 23.1379 17 23.1379C18.323 23.1379 19.3976 24.2122 19.3976 25.5355C19.3976 26.8582 18.3229 27.9331 17 27.9331Z" fill="white"/>
<path d="M10.3346 32.2008L10.3346 25.5355C10.3346 25.2571 10.1905 24.9986 9.9537 24.8523C9.71691 24.706 9.42124 24.6927 9.17227 24.8171L8.72831 25.0391V26.835V32.2008V32.3938H10.3346L10.3346 32.2008Z" fill="white"/>
<path d="M23.6653 25.5355V32.2008V32.3938H25.2716V32.2008V26.835V25.0391L24.8276 24.8171C24.5787 24.6927 24.283 24.706 24.0462 24.8523C23.8094 24.9986 23.6653 25.2571 23.6653 25.5355Z" fill="white"/>
<path fill-rule="evenodd" clip-rule="evenodd" d="M17 4.92599L11.5756 15.7746L10.3784 14.5774L16.1968 2.94049L16.2816 2.77091C16.4176 2.49882 16.6957 2.32694 17 2.32694C17.3042 2.32694 17.5823 2.49882 17.7183 2.77091L17.8031 2.94049L23.6215 14.5774L23.9005 14.2984C24.1302 14.0687 24.4757 14 24.7758 14.1243C25.0759 14.2486 25.2716 14.5415 25.2716 14.8663V25.0391L24.8276 24.8171C24.5787 24.6927 24.283 24.706 24.0462 24.8523C23.8094 24.9986 23.6653 25.2571 23.6653 25.5355V16.8052L21.3021 19.1684C20.9884 19.4821 20.4799 19.4821 20.1662 19.1684L16.9999 16.0021L13.8336 19.1684C13.5199 19.4821 13.0114 19.4821 12.6978 19.1684L10.3346 16.8053L10.3346 25.5355C10.3346 25.2571 10.1905 24.9986 9.9537 24.8523C9.71691 24.706 9.42124 24.6927 9.17227 24.8171L8.72831 25.0391V14.8663C8.72831 14.5415 8.92399 14.2486 9.22411 14.1243C9.52422 14 9.86967 14.0687 10.0994 14.2984L10.3784 14.5774L9.88005 15.574C9.68168 15.9707 9.84249 16.4532 10.2392 16.6515C10.636 16.8499 11.1184 16.6891 11.3168 16.2924L11.5756 15.7746L13.2657 17.4647L16.432 14.2984C16.7457 13.9847 17.2542 13.9847 17.5679 14.2984L20.7342 17.4647L22.4243 15.7746L17 4.92599ZM8.72831 25.0391L5.26381 26.7714L1.6063 24.9427L1.35527 24.8171C1.10631 24.6927 0.810635 24.706 0.573852 24.8523C0.337069 24.9986 0.192941 25.2571 0.192941 25.5355V33.004C0.192941 33.4476 0.552523 33.8071 0.996091 33.8071H9.53146H24.4684H33.0038C33.4474 33.8071 33.807 33.4476 33.807 33.004V25.5355C33.807 25.2571 33.6628 24.9986 33.426 24.8523C33.1893 24.706 32.8936 24.6927 32.6446 24.8171L32.3936 24.9427L28.7362 26.7714L25.2716 25.0391V26.835L28.377 28.3877C28.6031 28.5008 28.8692 28.5008 29.0953 28.3877L32.2007 26.835V32.2008H25.2716V32.3938H23.6653V32.2008H10.3346L10.3346 32.3938H8.72831V32.2008H1.79924V26.835L4.90462 28.3877C5.13074 28.5008 5.39688 28.5008 5.623 28.3877L8.72831 26.835V25.0391Z" fill="white"/>
<path d="M10.2392 16.6515C10.636 16.8499 11.1184 16.6891 11.3168 16.2924L11.5756 15.7746L10.3784 14.5774L9.88005 15.574C9.68168 15.9707 9.84249 16.4532 10.2392 16.6515Z" fill="white"/>
</g>
<defs>
<clipPath id="clip0_918_108633">
<rect width="34" height="34" fill="white"/>
</clipPath>
</defs>
</svg>
