<svg width="20" height="16" viewBox="0 0 20 16" fill="none" xmlns="http://www.w3.org/2000/svg">
<path fill-rule="evenodd" clip-rule="evenodd" d="M19.0898 4.6289L11.3142 0.830468C10.6439 0.495313 9.50433 0.495313 8.83402 0.830468L0.879657 4.6289C0.321064 4.89702 0.231689 5.27687 0.231689 5.47796C0.231689 5.67905 0.321064 6.03655 0.879657 6.32702L1.52762 6.63983V10.2148C1.12544 10.3712 0.83497 10.7734 0.83497 11.2203C0.83497 11.6672 1.12544 12.0694 1.50528 12.2258C1.67601 12.2961 2.08102 12.2982 2.30965 12.2258C2.71184 12.0694 2.97997 11.6672 2.97997 11.2203C2.97997 10.7511 2.6895 10.3712 2.28731 10.2148V7.01968L3.47153 7.60061V12.2481C3.47153 12.3151 3.49387 12.3822 3.53856 12.4492C3.54261 12.4541 3.54924 12.4625 3.55847 12.4742C3.80376 12.7852 5.88211 15.4209 9.97355 15.4209C14.1009 15.4209 16.1797 12.7176 16.3741 12.4648C16.3797 12.4575 16.3837 12.4523 16.3862 12.4492C16.4309 12.3822 16.4532 12.3151 16.4532 12.2481V7.62296L19.0898 6.32702C19.6484 6.0589 19.7378 5.67905 19.7378 5.47796C19.7154 5.27687 19.6484 4.89702 19.0898 4.6289ZM15.7382 12.1364C15.3807 12.5833 13.4592 14.7283 9.97355 14.7283C6.48793 14.7283 4.56637 12.5833 4.20887 12.1364V7.91342L8.83402 10.1255C9.16918 10.2819 9.61605 10.3712 10.0629 10.3712C10.5321 10.3712 10.979 10.2819 11.3142 10.1031L15.7382 7.93577V12.1364ZM18.777 5.7014L16.0957 7.01968C15.984 7.01968 15.8946 7.06436 15.8499 7.15374L11.0014 9.49983C10.5321 9.74561 9.61605 9.74561 9.12449 9.49983L3.15872 6.63983L10.0182 5.83546C10.2193 5.81312 10.3534 5.63437 10.331 5.45562C10.3087 5.25452 10.13 5.12046 9.95121 5.1428L1.99684 6.08124L1.19247 5.7014C0.991376 5.61202 0.946688 5.5003 0.946688 5.5003C0.946688 5.47796 0.991376 5.38858 1.19247 5.29921L9.14683 1.47844C9.39261 1.36672 9.72777 1.29969 10.0629 1.29969C10.4204 1.29969 10.7779 1.36672 11.0014 1.47844L18.777 5.27687C18.9781 5.36624 19.0228 5.45562 19.0228 5.5003C19.0228 5.5003 18.9557 5.61202 18.777 5.7014ZM1.91245 11.8841C2.26326 11.8841 2.54765 11.5997 2.54765 11.2489C2.54765 10.8981 2.26326 10.6137 1.91245 10.6137C1.56164 10.6137 1.27725 10.8981 1.27725 11.2489C1.27725 11.5997 1.56164 11.8841 1.91245 11.8841Z" fill="#D94625"/>
</svg>
