<svg width="20" height="17" viewBox="0 0 20 17" fill="none" xmlns="http://www.w3.org/2000/svg">
<path fill-rule="evenodd" clip-rule="evenodd" d="M2.61564 1.52299C4.55125 -0.460137 7.68947 -0.460136 9.62508 1.52299L10 1.90715L10.375 1.52299C12.3106 -0.460137 15.4488 -0.460137 17.3844 1.52299C19.0131 3.19156 19.2714 5.73248 18.1593 7.67776H19.2587C19.4709 7.67776 19.6429 7.85398 19.6429 8.07137C19.6429 8.28875 19.4709 8.46498 19.2587 8.46498H17.6038C17.5336 8.54661 17.4605 8.62648 17.3844 8.70445L10.2717 15.9918C10.1217 16.1455 9.87841 16.1455 9.72838 15.9918L2.61564 8.70445C2.53954 8.62648 2.46643 8.54661 2.39631 8.46498H0.741356C0.52918 8.46498 0.357178 8.28875 0.357178 8.07137C0.357178 7.85398 0.52918 7.67776 0.741356 7.67776H1.84075C0.728716 5.73248 0.987013 3.19156 2.61564 1.52299M3.46853 8.46498L10 15.1568L16.5315 8.46498H13.8034C13.6717 8.46498 13.5493 8.39592 13.4788 8.28197L12.3601 6.47212L10.2566 10.235C10.1864 10.3606 10.0546 10.4366 9.91337 10.4329C9.77217 10.4292 9.64434 10.3464 9.5805 10.2173L7.03608 5.07216L5.74411 8.22379C5.68421 8.36992 5.5446 8.46498 5.3899 8.46498H3.46853ZM17.2385 7.67776C18.4637 5.99739 18.3313 3.60635 16.8411 2.07964L17.1128 1.80131L16.8411 2.07964C15.2056 0.403939 12.5538 0.403939 10.9183 2.07964L10.2717 2.74212C10.1217 2.89583 9.87841 2.89583 9.72838 2.74212L9.08177 2.07964C7.44622 0.403939 4.7945 0.403939 3.15895 2.07964L3.15895 2.07964C1.66878 3.60635 1.53632 5.99739 2.76158 7.67776H5.13457L6.64925 3.98287C6.70722 3.84144 6.84012 3.7474 6.98975 3.74193C7.13938 3.73646 7.27848 3.82055 7.34615 3.95739L9.9439 9.21039L12.0101 5.5141C12.0771 5.39436 12.2003 5.31927 12.335 5.31621C12.4696 5.31314 12.596 5.38254 12.6681 5.49912L14.0148 7.67776H17.2385Z" fill="white"/>
</svg>
