<svg width="16" height="16" viewBox="0 0 16 16" fill="none" xmlns="http://www.w3.org/2000/svg">
<path d="M14.949 13.1074H14.2442V11.2988C14.2441 11.2128 14.2099 11.1302 14.149 11.0694C14.0882 11.0085 14.0056 10.9743 13.9195 10.9742H13.8732V7.25651C14.0693 7.18867 14.2395 7.06143 14.36 6.89246C14.4805 6.72348 14.5454 6.52117 14.5456 6.31363C14.5447 6.19465 14.5223 6.07681 14.4794 5.96582H14.9481C15.0186 5.96582 15.0871 5.94289 15.1434 5.90051C15.1997 5.85812 15.2406 5.79857 15.2601 5.73086C15.2796 5.66314 15.2765 5.59093 15.2513 5.52513C15.2261 5.45934 15.1802 5.40352 15.1204 5.36611L8.17232 1.01401C8.12069 0.981566 8.06096 0.964355 7.99999 0.964355C7.93902 0.964355 7.87929 0.981566 7.82767 1.01401L0.878611 5.36611C0.818904 5.40352 0.772989 5.45934 0.747796 5.52513C0.722604 5.59093 0.719503 5.66314 0.738961 5.73086C0.758419 5.79857 0.799379 5.85812 0.855659 5.90051C0.911938 5.94289 0.980481 5.96582 1.05094 5.96582H1.51969C1.4768 6.07681 1.45436 6.19465 1.45346 6.31363C1.4537 6.52117 1.51859 6.72348 1.63909 6.89246C1.7596 7.06143 1.92974 7.18867 2.12589 7.25651V10.9742H2.07951C1.99343 10.9743 1.91089 11.0085 1.85003 11.0694C1.78916 11.1302 1.75494 11.2128 1.75489 11.2988V13.1074H1.05094C0.964842 13.1074 0.882275 13.1416 0.821397 13.2025C0.760519 13.2634 0.726318 13.3459 0.726318 13.432V15.1872C0.726294 15.2298 0.734674 15.2721 0.750979 15.3115C0.767284 15.3509 0.791194 15.3867 0.821342 15.4168C0.851491 15.4469 0.887286 15.4709 0.926682 15.4872C0.966077 15.5035 1.0083 15.5118 1.05094 15.5118H14.949C14.9917 15.5118 15.0339 15.5035 15.0733 15.4872C15.1127 15.4709 15.1485 15.4469 15.1786 15.4168C15.2088 15.3867 15.2327 15.3509 15.249 15.3115C15.2653 15.2721 15.2737 15.2298 15.2737 15.1872V13.432C15.2737 13.3459 15.2395 13.2634 15.1786 13.2025C15.1177 13.1416 15.0351 13.1074 14.949 13.1074ZM12.111 13.1074V11.6235H13.5949V13.1074H12.111ZM9.39029 13.1074V11.2988C9.39024 11.2128 9.35602 11.1302 9.29515 11.0694C9.23429 11.0085 9.15175 10.9743 9.06567 10.9742H9.02022V7.25651C9.21636 7.18867 9.38651 7.06143 9.50702 6.89246C9.62752 6.72348 9.6924 6.52117 9.69264 6.31363C9.6918 6.19466 9.66943 6.07682 9.62661 5.96582H11.2276C11.1848 6.07682 11.1624 6.19466 11.1616 6.31363C11.1618 6.52118 11.2267 6.7235 11.3472 6.89248C11.4677 7.06146 11.6379 7.1887 11.834 7.25651V10.9742H11.7876C11.7015 10.9742 11.619 11.0084 11.5581 11.0693C11.4972 11.1302 11.463 11.2127 11.463 11.2988V13.1074H9.39029ZM7.25708 13.1074V11.6235H8.74105V13.1074H7.25708ZM4.53641 13.1074V11.2988C4.53641 11.2127 4.50221 11.1302 4.44133 11.0693C4.38045 11.0084 4.29788 10.9742 4.21179 10.9742H4.16542V7.25651C4.36158 7.1887 4.53174 7.06146 4.65225 6.89248C4.77275 6.7235 4.83762 6.52118 4.83784 6.31363C4.83717 6.19469 4.81499 6.07686 4.77236 5.96582H6.373C6.33018 6.07682 6.30781 6.19466 6.30697 6.31363C6.30724 6.52122 6.37217 6.72356 6.49275 6.89254C6.61332 7.06152 6.78355 7.18874 6.97976 7.25651V10.9742H6.93339C6.84731 10.9743 6.76477 11.0085 6.7039 11.0694C6.64304 11.1302 6.60882 11.2128 6.60877 11.2988V13.1074H4.53641ZM8.6956 5.96582C8.78785 5.96582 8.87631 6.00247 8.94154 6.06769C9.00676 6.13292 9.04341 6.22139 9.04341 6.31363C9.04341 6.40587 9.00676 6.49434 8.94154 6.55956C8.87631 6.62479 8.78785 6.66143 8.6956 6.66143C8.60952 6.66148 8.52698 6.6957 8.46612 6.75657C8.40525 6.81743 8.37103 6.89997 8.37098 6.98605V10.9742H7.629V6.98605C7.62895 6.89997 7.59473 6.81743 7.53387 6.75657C7.473 6.6957 7.39046 6.66148 7.30438 6.66143C7.21214 6.66143 7.12367 6.62479 7.05845 6.55956C6.99322 6.49434 6.95658 6.40587 6.95658 6.31363C6.95658 6.22139 6.99322 6.13292 7.05845 6.06769C7.12367 6.00247 7.21214 5.96582 7.30438 5.96582H8.6956ZM13.8973 6.31363C13.8971 6.40583 13.8604 6.49421 13.7953 6.5594C13.7301 6.6246 13.6417 6.66129 13.5495 6.66143C13.4634 6.66143 13.3808 6.69563 13.3199 6.75651C13.2591 6.81739 13.2249 6.89996 13.2249 6.98605V10.9742H12.4829V6.98605C12.4828 6.89997 12.4486 6.81743 12.3877 6.75657C12.3269 6.6957 12.2443 6.66148 12.1583 6.66143C12.066 6.66143 11.9775 6.62479 11.9123 6.55956C11.8471 6.49434 11.8105 6.40587 11.8105 6.31363C11.8105 6.22139 11.8471 6.13292 11.9123 6.06769C11.9775 6.00247 12.066 5.96582 12.1583 5.96582H13.5495C13.6417 5.96597 13.7301 6.00266 13.7953 6.06786C13.8604 6.13305 13.8971 6.22143 13.8973 6.31363ZM7.99999 1.67159L13.8192 5.31659H2.18079L7.99999 1.67159ZM2.4505 6.66143C2.35826 6.66143 2.2698 6.62479 2.20457 6.55956C2.13934 6.49434 2.1027 6.40587 2.1027 6.31363C2.1027 6.22139 2.13934 6.13292 2.20457 6.06769C2.2698 6.00247 2.35826 5.96582 2.4505 5.96582H3.84173C3.93397 5.96582 4.02243 6.00247 4.08766 6.06769C4.15289 6.13292 4.18953 6.22139 4.18953 6.31363C4.18953 6.40587 4.15289 6.49434 4.08766 6.55956C4.02243 6.62479 3.93397 6.66143 3.84173 6.66143C3.75565 6.66148 3.67311 6.6957 3.61224 6.75657C3.55137 6.81743 3.51716 6.89997 3.51711 6.98605V10.9742H2.77512V6.98605C2.77512 6.89996 2.74092 6.81739 2.68004 6.75651C2.61917 6.69563 2.5366 6.66143 2.4505 6.66143ZM2.40413 11.6235H3.8881V13.1074H2.40413V11.6235ZM14.6244 14.8626H1.37555V13.7567H14.6244V14.8626Z" fill="white"/>
<path d="M8.00002 4.69059C8.18578 4.69063 8.36739 4.63557 8.52186 4.53239C8.67633 4.42921 8.79674 4.28253 8.86784 4.11091C8.93895 3.93929 8.95756 3.75044 8.92133 3.56825C8.8851 3.38605 8.79565 3.21869 8.66429 3.08733C8.53294 2.95598 8.36558 2.86653 8.18338 2.83029C8.00118 2.79406 7.81233 2.81268 7.64071 2.88378C7.46909 2.95489 7.32242 3.07529 7.21924 3.22977C7.11605 3.38424 7.061 3.56584 7.06104 3.75161C7.06133 4.00055 7.16035 4.23921 7.33638 4.41524C7.51241 4.59127 7.75107 4.69029 8.00002 4.69059ZM8.00002 3.46168C8.05737 3.46164 8.11344 3.47861 8.16114 3.51045C8.20885 3.54229 8.24604 3.58755 8.26801 3.64053C8.28998 3.6935 8.29575 3.7518 8.28458 3.80806C8.27342 3.86431 8.24582 3.91599 8.20528 3.95655C8.16474 3.99712 8.11308 4.02475 8.05683 4.03595C8.00059 4.04716 7.94228 4.04142 7.88929 4.01949C7.8363 3.99755 7.79101 3.96039 7.75915 3.9127C7.72728 3.86502 7.71027 3.80896 7.71027 3.75161C7.71037 3.67478 7.74092 3.60112 7.79523 3.54677C7.84954 3.49242 7.92318 3.46182 8.00002 3.46168Z" fill="white"/>
</svg>
