<svg width="36" height="30" viewBox="0 0 36 30" fill="none" xmlns="http://www.w3.org/2000/svg">
<path fill-rule="evenodd" clip-rule="evenodd" d="M4.2158 2.77637C7.82894 -0.925458 13.6869 -0.925457 17.3001 2.77638L18 3.49347L18.6999 2.77638C22.3131 -0.925458 28.1711 -0.925458 31.7842 2.77638C34.8243 5.89104 35.3065 10.6341 33.2307 14.2653H35.2829C35.6789 14.2653 36 14.5942 36 15C36 15.4058 35.6789 15.7348 35.2829 15.7348H32.1936C32.0627 15.8871 31.9263 16.0362 31.7842 16.1818L18.5071 29.7848C18.227 30.0717 17.773 30.0717 17.4929 29.7848L4.2158 16.1818C4.07374 16.0362 3.93726 15.8871 3.80637 15.7348H0.717134C0.321072 15.7348 0 15.4058 0 15C0 14.5942 0.321072 14.2653 0.717134 14.2653H2.76933C0.693538 10.6341 1.17569 5.89104 4.2158 2.77638M5.80785 15.7348L18 28.2262L30.1922 15.7348H25.0996C24.8539 15.7348 24.6252 15.6058 24.4938 15.3931L22.4054 12.0148L18.4789 19.0388C18.3478 19.2733 18.1018 19.4151 17.8382 19.4082C17.5747 19.4013 17.336 19.2467 17.2169 19.0058L12.4673 9.40149L10.0556 15.2845C9.94379 15.5573 9.68319 15.7348 9.39442 15.7348H5.80785ZM31.5118 14.2653C33.7989 11.1286 33.5517 6.66532 30.77 3.81546L31.2771 3.29591L30.77 3.81545C27.717 0.687482 22.7671 0.687482 19.7141 3.81545L18.5071 5.05208C18.227 5.33902 17.773 5.33902 17.4929 5.05208L16.2859 3.81545C13.2329 0.687482 8.283 0.687482 5.22998 3.81545L5.22997 3.81546C2.44832 6.66532 2.20107 11.1286 4.48822 14.2653H8.9178L11.7452 7.36815C11.8534 7.10415 12.1015 6.92861 12.3808 6.9184C12.6601 6.90819 12.9198 7.06516 13.0461 7.32059L17.8952 17.1262L21.7522 10.2264C21.8772 10.0029 22.1072 9.86277 22.3586 9.85705C22.6099 9.85133 22.8458 9.98087 22.9803 10.1985L25.4943 14.2653H31.5118Z" fill="#D94625"/>
</svg>
