<svg width="18" height="18" viewBox="0 0 18 18" fill="none" xmlns="http://www.w3.org/2000/svg">
<path fill-rule="evenodd" clip-rule="evenodd" d="M8.99994 2.4665C9.23756 2.4665 9.4302 2.28671 9.4302 2.06492V1.97012V1.30311V0.99801C9.4302 0.776227 9.23756 0.596436 8.99994 0.596436C8.76231 0.596436 8.56968 0.776227 8.56968 0.99801V1.30311V1.97013V2.06492C8.56968 2.28671 8.76231 2.4665 8.99994 2.4665Z" fill="white"/>
<path fill-rule="evenodd" clip-rule="evenodd" d="M6.85498 13.2676C6.85498 14.3725 7.81589 15.2696 8.99994 15.2696C10.184 15.2696 11.1449 14.3725 11.1449 13.2676C11.1449 12.1624 10.1839 11.2657 8.99994 11.2657C7.81594 11.2657 6.85498 12.1624 6.85498 13.2676ZM8.99994 14.4664C8.2912 14.4664 7.7155 13.929 7.7155 13.2676C7.7155 12.606 8.29115 12.0688 8.99994 12.0688C9.70873 12.0688 10.2844 12.606 10.2844 13.2676C10.2844 13.929 9.70868 14.4664 8.99994 14.4664Z" fill="white"/>
<path d="M5.42922 16.6003L5.42922 13.2676C5.42922 13.1284 5.35201 12.9992 5.22516 12.926C5.09831 12.8529 4.93991 12.8462 4.80654 12.9084L4.5687 13.0194V13.9174V16.6003V16.6968H5.42922L5.42922 16.6003Z" fill="white"/>
<path d="M12.5707 13.2676V16.6003V16.6968H13.4312V16.6003V13.9174V13.0194L13.1933 12.9084C13.06 12.8462 12.9016 12.8529 12.7747 12.926C12.6479 12.9992 12.5707 13.1284 12.5707 13.2676Z" fill="white"/>
<path fill-rule="evenodd" clip-rule="evenodd" d="M8.99994 2.96287L6.09405 8.3872L5.45266 7.78857L8.56968 1.97013L8.6151 1.88533C8.68798 1.74929 8.83697 1.66335 8.99994 1.66335C9.16291 1.66335 9.31189 1.74929 9.38477 1.88533L9.4302 1.97012L12.5472 7.78856L12.6967 7.64907C12.8197 7.53422 13.0048 7.49987 13.1656 7.56202C13.3263 7.62418 13.4312 7.77061 13.4312 7.93303V13.0194L13.1933 12.9084C13.06 12.8462 12.9016 12.8529 12.7747 12.926C12.6479 12.9992 12.5707 13.1284 12.5707 13.2676V8.9025L11.3046 10.0841C11.1366 10.2409 10.8642 10.2409 10.6962 10.0841L8.99993 8.50094L7.30367 10.0841C7.13564 10.2409 6.86322 10.2409 6.69519 10.0841L5.42922 8.90252L5.42922 13.2676C5.42922 13.1284 5.35201 12.9992 5.22516 12.926C5.09831 12.8529 4.93991 12.8462 4.80654 12.9084L4.5687 13.0194V7.93303C4.5687 7.77061 4.67353 7.62418 4.83431 7.56202C4.99508 7.49987 5.18015 7.53422 5.3032 7.64907L5.45266 7.78857L5.1857 8.28688C5.07943 8.48525 5.16558 8.72646 5.37812 8.82565C5.59066 8.92483 5.84911 8.84443 5.95537 8.64606L6.09405 8.3872L6.99943 9.23222L8.6957 7.64907C8.86373 7.49225 9.13615 7.49225 9.30418 7.64907L11.0004 9.23222L11.9058 8.38719L8.99994 2.96287ZM4.5687 13.0194L2.71272 13.8856L0.75334 12.9712L0.618862 12.9084C0.485487 12.8462 0.327091 12.8529 0.200243 12.926C0.073395 12.9992 -0.00381639 13.1284 -0.00381639 13.2676V17.0019C-0.00381639 17.2237 0.188817 17.4034 0.426442 17.4034H4.99896H13.0009H17.5734C17.8111 17.4034 18.0037 17.2237 18.0037 17.0019V13.2676C18.0037 13.1284 17.9265 12.9992 17.7996 12.926C17.6728 12.8529 17.5144 12.8462 17.381 12.9084L17.2465 12.9712L15.2872 13.8856L13.4312 13.0194V13.9174L15.0948 14.6937C15.2159 14.7503 15.3585 14.7503 15.4796 14.6937L17.1432 13.9174V16.6003H13.4312V16.6968H12.5707V16.6003H5.42922L5.42922 16.6968H4.5687V16.6003H0.856701V13.9174L2.5203 14.6937C2.64143 14.7503 2.78401 14.7503 2.90514 14.6937L4.5687 13.9174V13.0194Z" fill="white"/>
<path d="M5.37812 8.82565C5.59066 8.92483 5.84911 8.84443 5.95537 8.64606L6.09405 8.3872L5.45266 7.78857L5.1857 8.28688C5.07943 8.48525 5.16558 8.72646 5.37812 8.82565Z" fill="white"/>
</svg>
