<svg width="38" height="28" viewBox="0 0 38 28" fill="none" xmlns="http://www.w3.org/2000/svg">
<path fill-rule="evenodd" clip-rule="evenodd" d="M35.9674 7.70733L21.4529 0.616923C20.2017 -0.00870088 18.0746 -0.00870088 16.8233 0.616923L1.97516 7.70733C0.932458 8.20783 0.765625 8.91687 0.765625 9.29224C0.765625 9.66761 0.932458 10.3349 1.97516 10.8772L3.1847 11.4611V18.1344C2.43396 18.4264 1.89175 19.1771 1.89175 20.0113C1.89175 20.8454 2.43396 21.5962 3.143 21.8881C3.4617 22.0194 4.21772 22.0233 4.64449 21.8881C5.39524 21.5962 5.89574 20.8454 5.89574 20.0113C5.89574 19.1354 5.35353 18.4264 4.60279 18.1344V12.1701L6.81332 13.2545V21.9298C6.81332 22.055 6.85503 22.1801 6.93845 22.3052C6.94601 22.3143 6.95839 22.33 6.97561 22.3518C7.43349 22.9325 11.3131 27.8524 18.9504 27.8524C26.6548 27.8524 30.5352 22.8063 30.8982 22.3343C30.9086 22.3208 30.9161 22.311 30.9207 22.3052C31.0041 22.1801 31.0458 22.055 31.0458 21.9298V13.2962L35.9674 10.8772C37.0101 10.3767 37.1769 9.66761 37.1769 9.29224C37.1352 8.91687 37.0101 8.20783 35.9674 7.70733ZM29.7112 21.7213C29.0438 22.5555 25.4569 26.5595 18.9504 26.5595C12.4439 26.5595 8.85703 22.5555 8.1897 21.7213V13.8384L16.8233 17.9676C17.4489 18.2595 18.2831 18.4264 19.1173 18.4264C19.9931 18.4264 20.8273 18.2595 21.4529 17.9258L29.7112 13.8801V21.7213ZM35.3835 9.70932L30.3785 12.1701C30.17 12.1701 30.0031 12.2535 29.9197 12.4204L20.869 16.7997C19.9931 17.2585 18.2831 17.2585 17.3655 16.7997L6.22941 11.4611L19.0338 9.95957C19.4092 9.91787 19.6595 9.5842 19.6178 9.25053C19.5761 8.87516 19.2424 8.62491 18.9087 8.66662L4.06058 10.4184L2.55908 9.70932C2.18371 9.54249 2.10029 9.33395 2.10029 9.33395C2.10029 9.29224 2.18371 9.12541 2.55908 8.95858L17.4072 1.82646C17.866 1.61792 18.4916 1.4928 19.1173 1.4928C19.7846 1.4928 20.4519 1.61792 20.869 1.82646L35.3835 8.91687C35.7589 9.0837 35.8423 9.25053 35.8423 9.33395C35.8423 9.33395 35.7172 9.54249 35.3835 9.70932ZM3.90305 21.2504C4.55789 21.2504 5.08875 20.7196 5.08875 20.0647C5.08875 19.4099 4.55789 18.879 3.90305 18.879C3.2482 18.879 2.71734 19.4099 2.71734 20.0647C2.71734 20.7196 3.2482 21.2504 3.90305 21.2504Z" fill="#D94625"/>
</svg>
