<svg width="18" height="10" viewBox="0 0 18 10" fill="none" xmlns="http://www.w3.org/2000/svg">
<path d="M16.6847 3.86544H16.3892V2.16376C16.3892 1.9381 16.2958 1.72169 16.1295 1.56213C15.9632 1.40256 15.7376 1.31292 15.5025 1.31292H14.9113C14.8107 1.3151 14.7109 1.33233 14.6158 1.36397V1.02931C14.6158 0.80365 14.5224 0.587236 14.3561 0.427672C14.1898 0.268109 13.9642 0.178467 13.7291 0.178467H13.1379C12.9028 0.178467 12.6772 0.268109 12.511 0.427672C12.3447 0.587236 12.2512 0.80365 12.2512 1.02931V3.86544H5.74879V1.02931C5.74879 0.80365 5.65537 0.587236 5.48908 0.427672C5.32279 0.268109 5.09725 0.178467 4.86209 0.178467H4.27095C4.03579 0.178467 3.81025 0.268109 3.64396 0.427672C3.47767 0.587236 3.38425 0.80365 3.38425 1.02931V1.36397C3.28909 1.33233 3.18937 1.3151 3.08869 1.31292H2.49755C2.26239 1.31292 2.03685 1.40256 1.87056 1.56213C1.70427 1.72169 1.61085 1.9381 1.61085 2.16376V3.86544H1.31529C1.08012 3.86544 0.854586 3.95508 0.688297 4.11465C0.522009 4.27421 0.428589 4.49063 0.428589 4.71628V5.28351C0.428589 5.50917 0.522009 5.72558 0.688297 5.88514C0.854586 6.04471 1.08012 6.13435 1.31529 6.13435H1.61085V7.83603C1.61085 8.06169 1.70427 8.2781 1.87056 8.43766C2.03685 8.59723 2.26239 8.68687 2.49755 8.68687H3.08869C3.18937 8.68469 3.28909 8.66746 3.38425 8.63582V8.97048C3.38425 9.19614 3.47767 9.41255 3.64396 9.57212C3.81025 9.73168 4.03579 9.82132 4.27095 9.82132H4.86209C5.09725 9.82132 5.32279 9.73168 5.48908 9.57212C5.65537 9.41255 5.74879 9.19614 5.74879 8.97048V6.13435H12.2512V8.97048C12.2512 9.19614 12.3447 9.41255 12.511 9.57212C12.6772 9.73168 12.9028 9.82132 13.1379 9.82132H13.7291C13.9642 9.82132 14.1898 9.73168 14.3561 9.57212C14.5224 9.41255 14.6158 9.19614 14.6158 8.97048V8.63582C14.7109 8.66746 14.8107 8.68469 14.9113 8.68687H15.5025C15.7376 8.68687 15.9632 8.59723 16.1295 8.43766C16.2958 8.2781 16.3892 8.06169 16.3892 7.83603V6.13435H16.6847C16.9199 6.13435 17.1454 6.04471 17.3117 5.88514C17.478 5.72558 17.5714 5.50917 17.5714 5.28351V4.71628C17.5714 4.49063 17.478 4.27421 17.3117 4.11465C17.1454 3.95508 16.9199 3.86544 16.6847 3.86544ZM1.31529 5.56712C1.2369 5.56712 1.16172 5.53724 1.10629 5.48405C1.05086 5.43087 1.01972 5.35873 1.01972 5.28351V4.71628C1.01972 4.64106 1.05086 4.56892 1.10629 4.51574C1.16172 4.46255 1.2369 4.43267 1.31529 4.43267H1.61085V5.56712H1.31529ZM3.08869 8.11964H2.49755C2.41917 8.11964 2.34399 8.08976 2.28856 8.03657C2.23313 7.98339 2.20199 7.91125 2.20199 7.83603V2.16376C2.20199 2.08854 2.23313 2.0164 2.28856 1.96322C2.34399 1.91003 2.41917 1.88015 2.49755 1.88015H3.08869C3.16708 1.88015 3.24225 1.91003 3.29768 1.96322C3.35311 2.0164 3.38425 2.08854 3.38425 2.16376V7.83603C3.38425 7.91125 3.35311 7.98339 3.29768 8.03657C3.24225 8.08976 3.16708 8.11964 3.08869 8.11964ZM5.15765 8.97048C5.15765 9.0457 5.12651 9.11784 5.07108 9.17103C5.01565 9.22422 4.94048 9.2541 4.86209 9.2541H4.27095C4.19256 9.2541 4.11739 9.22422 4.06196 9.17103C4.00653 9.11784 3.97539 9.0457 3.97539 8.97048V1.02931C3.97539 0.954088 4.00653 0.88195 4.06196 0.828762C4.11739 0.775574 4.19256 0.745694 4.27095 0.745694H4.86209C4.94048 0.745694 5.01565 0.775574 5.07108 0.828762C5.12651 0.88195 5.15765 0.954088 5.15765 1.02931V8.97048ZM5.74879 5.56712V4.43267H12.2512V5.56712H5.74879ZM14.0246 8.97048C14.0246 9.0457 13.9935 9.11784 13.9381 9.17103C13.8826 9.22422 13.8075 9.2541 13.7291 9.2541H13.1379C13.0596 9.2541 12.9844 9.22422 12.929 9.17103C12.8735 9.11784 12.8424 9.0457 12.8424 8.97048V1.02931C12.8424 0.954088 12.8735 0.88195 12.929 0.828762C12.9844 0.775574 13.0596 0.745694 13.1379 0.745694H13.7291C13.8075 0.745694 13.8826 0.775574 13.9381 0.828762C13.9935 0.88195 14.0246 0.954088 14.0246 1.02931V8.97048ZM15.798 7.83603C15.798 7.91125 15.7669 7.98339 15.7115 8.03657C15.656 8.08976 15.5809 8.11964 15.5025 8.11964H14.9113C14.833 8.11964 14.7578 8.08976 14.7024 8.03657C14.6469 7.98339 14.6158 7.91125 14.6158 7.83603V2.16376C14.6158 2.08854 14.6469 2.0164 14.7024 1.96322C14.7578 1.91003 14.833 1.88015 14.9113 1.88015H15.5025C15.5809 1.88015 15.656 1.91003 15.7115 1.96322C15.7669 2.0164 15.798 2.08854 15.798 2.16376V7.83603ZM16.9803 5.28351C16.9803 5.35873 16.9492 5.43087 16.8937 5.48405C16.8383 5.53724 16.7631 5.56712 16.6847 5.56712H16.3892V4.43267H16.6847C16.7631 4.43267 16.8383 4.46255 16.8937 4.51574C16.9492 4.56892 16.9803 4.64106 16.9803 4.71628V5.28351Z" fill="white"/>
</svg>
