<svg width="28" height="33" viewBox="0 0 28 33" fill="none" xmlns="http://www.w3.org/2000/svg">
<path d="M27.9276 26.8982L25.1555 10.457C25.0229 9.67303 24.6164 8.96149 24.0083 8.44897C23.4003 7.93644 22.63 7.65617 21.8346 7.65802H20.541V6.53842C20.541 4.80432 19.8518 3.14125 18.6252 1.91506C17.3985 0.688868 15.7348 0 14 0C12.2652 0 10.6015 0.688868 9.37484 1.91506C8.14817 3.14125 7.45904 4.80432 7.45904 6.53842V7.65802H6.1598C5.36441 7.65617 4.59415 7.93644 3.98606 8.44897C3.37797 8.96149 2.97148 9.67303 2.83892 10.457L0.0724498 26.8982C-0.0537124 27.6484 -0.0147565 28.4171 0.186604 29.1508C0.387965 29.8844 0.746891 30.5653 1.23838 31.1462C1.72988 31.727 2.34213 32.1937 3.03249 32.5139C3.72285 32.8341 4.47474 33 5.23578 33H22.7642C23.5253 33 24.2771 32.8341 24.9675 32.5139C25.6579 32.1937 26.2701 31.727 26.7616 31.1462C27.2531 30.5653 27.612 29.8844 27.8134 29.1508C28.0148 28.4171 28.0537 27.6484 27.9276 26.8982ZM9.13908 6.51043C9.13908 5.22174 9.65121 3.98582 10.5628 3.07458C11.4744 2.16333 12.7108 1.6514 14 1.6514C15.2892 1.6514 16.5256 2.16333 17.4372 3.07458C18.3488 3.98582 18.8609 5.22174 18.8609 6.51043V7.63003H9.13908V6.51043ZM25.4803 30.0611C25.1464 30.4558 24.7304 30.773 24.2613 30.9905C23.7922 31.208 23.2813 31.3207 22.7642 31.3206H5.23578C4.71885 31.3214 4.20799 31.2093 3.7389 30.9922C3.2698 30.7751 2.85379 30.4582 2.51993 30.0637C2.18607 29.6692 1.94242 29.2066 1.80599 28.7082C1.66957 28.2098 1.64366 27.6876 1.73009 27.1781L4.47976 10.7313C4.54537 10.3349 4.75095 9.97522 5.0592 9.71742C5.36744 9.45962 5.75793 9.32082 6.1598 9.32621H7.45344V11.7669C7.45344 11.9896 7.54194 12.2032 7.69947 12.3607C7.85701 12.5181 8.07067 12.6066 8.29346 12.6066C8.51624 12.6066 8.72991 12.5181 8.88744 12.3607C9.04498 12.2032 9.13348 11.9896 9.13348 11.7669V9.32621H18.8609V11.7669C18.8609 11.9896 18.9494 12.2032 19.107 12.3607C19.2645 12.5181 19.4782 12.6066 19.7009 12.6066C19.9237 12.6066 20.1374 12.5181 20.2949 12.3607C20.4525 12.2032 20.541 11.9896 20.541 11.7669V9.32621H21.8402C22.2421 9.32082 22.6326 9.45962 22.9408 9.71742C23.2491 9.97522 23.4546 10.3349 23.5202 10.7313L26.2699 27.1781C26.3552 27.6871 26.3288 28.2086 26.1924 28.7064C26.0561 29.2042 25.8131 29.6665 25.4803 30.0611Z" fill="#D94625"/>
</svg>
