<svg width="19" height="18" viewBox="0 0 19 18" fill="none" xmlns="http://www.w3.org/2000/svg">
<path fill-rule="evenodd" clip-rule="evenodd" d="M1.05781 17.3591C1.13588 17.4483 1.25233 17.5 1.37523 17.5H4.97128C5.09418 17.5 5.21064 17.4483 5.2887 17.3591C5.36677 17.2699 5.39827 17.1525 5.37455 17.0392L4.40719 12.4164C4.36929 12.2353 4.20033 12.1047 4.00392 12.1047H2.34255C2.14615 12.1047 1.97719 12.2353 1.93929 12.4164L0.971962 17.0392C0.948246 17.1525 0.97974 17.2699 1.05781 17.3591ZM1.87492 16.7275L2.68059 12.8773H3.66589L4.47159 16.7275H1.87492Z" fill="white"/>
<path fill-rule="evenodd" clip-rule="evenodd" d="M1.71397 2.81377C1.71397 3.60208 2.39395 4.24117 3.23271 4.24117C4.07151 4.24117 4.75145 3.60207 4.75145 2.81377V1.19054C4.75145 0.97721 4.56745 0.80427 4.34046 0.80427H2.12496C1.89797 0.80427 1.71397 0.97721 1.71397 1.19054V2.81377ZM3.23271 3.46862C2.84792 3.46862 2.53595 3.17541 2.53595 2.81377V1.57682H3.92947V2.81377C3.92947 3.17542 3.61753 3.46862 3.23271 3.46862Z" fill="white"/>
<path fill-rule="evenodd" clip-rule="evenodd" d="M1.05268 1.19054C1.05268 1.40388 1.23668 1.57682 1.46367 1.57682H2.12496C2.35194 1.57682 2.53595 1.40388 2.53595 1.19054C2.53595 0.977212 2.35194 0.80427 2.12496 0.80427L1.46367 0.804271C1.23668 0.804271 1.05268 0.977212 1.05268 1.19054Z" fill="white"/>
<path fill-rule="evenodd" clip-rule="evenodd" d="M3.81869 1.19054C3.81869 1.40388 4.0027 1.57682 4.22968 1.57682H5.00179C5.22877 1.57682 5.41278 1.40388 5.41278 1.19054C5.41278 0.977212 5.22877 0.804271 5.00179 0.804271H4.22968C4.0027 0.804271 3.81869 0.977212 3.81869 1.19054Z" fill="white"/>
<path fill-rule="evenodd" clip-rule="evenodd" d="M3.23271 1.57682C3.4597 1.57682 3.64371 1.40388 3.64371 1.19054V0.386274C3.64371 0.172941 3.4597 0 3.23271 0C3.00573 0 2.82172 0.172941 2.82172 0.386274V1.19054C2.82172 1.40388 3.00573 1.57682 3.23271 1.57682Z" fill="white"/>
<path fill-rule="evenodd" clip-rule="evenodd" d="M3.17064 12.8772C3.39762 12.8786 3.58281 12.7068 3.58428 12.4935L3.64369 3.85739C3.64516 3.64406 3.46235 3.47001 3.23537 3.46863C3.00839 3.46725 2.82319 3.63907 2.82173 3.8524L2.76231 12.4885C2.76085 12.7018 2.94366 12.8759 3.17064 12.8772Z" fill="white"/>
<path fill-rule="evenodd" clip-rule="evenodd" d="M6.14567 14.6697C6.14567 14.8831 6.32968 15.056 6.55666 15.056H17.6961C17.9231 15.056 18.1071 14.8831 18.1071 14.6697C18.1071 14.4564 17.9231 14.2835 17.6961 14.2835H6.55666C6.32968 14.2835 6.14567 14.4564 6.14567 14.6697Z" fill="white"/>
<path fill-rule="evenodd" clip-rule="evenodd" d="M7.74556 12.5874C7.74556 12.8007 7.92957 12.9736 8.15655 12.9736H16.0965C16.3235 12.9736 16.5075 12.8007 16.5075 12.5874C16.5075 12.374 16.3235 12.2011 16.0965 12.2011H8.15655C7.92957 12.2011 7.74556 12.374 7.74556 12.5874Z" fill="white"/>
<path fill-rule="evenodd" clip-rule="evenodd" d="M7.74556 10.5051C7.74556 10.7184 7.92957 10.8914 8.15655 10.8914H16.0965C16.3235 10.8914 16.5075 10.7184 16.5075 10.5051C16.5075 10.2918 16.3235 10.1188 16.0965 10.1188H8.15655C7.92957 10.1188 7.74556 10.2918 7.74556 10.5051Z" fill="white"/>
<path fill-rule="evenodd" clip-rule="evenodd" d="M7.49142 17.5C7.7184 17.5 7.90241 17.3271 7.90241 17.1137V14.6697C7.90241 14.4564 7.7184 14.2835 7.49142 14.2835C7.26444 14.2835 7.08043 14.4564 7.08043 14.6697V17.1137C7.08043 17.3271 7.26444 17.5 7.49142 17.5Z" fill="white"/>
<path fill-rule="evenodd" clip-rule="evenodd" d="M16.7614 17.5C16.9884 17.5 17.1724 17.3271 17.1724 17.1137V14.6697C17.1724 14.4564 16.9884 14.2835 16.7614 14.2835C16.5344 14.2835 16.3504 14.4564 16.3504 14.6697V17.1137C16.3504 17.3271 16.5344 17.5 16.7614 17.5Z" fill="white"/>
<path fill-rule="evenodd" clip-rule="evenodd" d="M8.15633 15.056C8.38332 15.056 8.56733 14.8831 8.56733 14.6697V9.60223C8.56733 9.3889 8.38332 9.21596 8.15633 9.21596C7.92935 9.21596 7.74534 9.3889 7.74534 9.60223V14.6697C7.74534 14.8831 7.92935 15.056 8.15633 15.056Z" fill="white"/>
<path fill-rule="evenodd" clip-rule="evenodd" d="M16.0964 15.056C16.3234 15.056 16.5074 14.8831 16.5074 14.6697V9.60223C16.5074 9.3889 16.3234 9.21596 16.0964 9.21596C15.8694 9.21596 15.6854 9.3889 15.6854 9.60223V14.6697C15.6854 14.8831 15.8694 15.056 16.0964 15.056Z" fill="white"/>
</svg>
