<svg width="32" height="18" viewBox="0 0 32 18" fill="none" xmlns="http://www.w3.org/2000/svg">
<path d="M30.3448 6.88235H29.7931V3.70588C29.7931 3.28466 29.6187 2.88068 29.3083 2.58283C28.9979 2.28498 28.5769 2.11765 28.1379 2.11765H27.0345C26.8465 2.12172 26.6604 2.15387 26.4828 2.21294V1.58824C26.4828 1.16701 26.3084 0.763035 25.998 0.465183C25.6876 0.167331 25.2666 0 24.8276 0H23.7241C23.2852 0 22.8642 0.167331 22.5538 0.465183C22.2433 0.763035 22.069 1.16701 22.069 1.58824V6.88235H9.93103V1.58824C9.93103 1.16701 9.75665 0.763035 9.44625 0.465183C9.13584 0.167331 8.71484 0 8.27586 0H7.17241C6.73343 0 6.31244 0.167331 6.00203 0.465183C5.69163 0.763035 5.51724 1.16701 5.51724 1.58824V2.21294C5.33961 2.15387 5.15347 2.12172 4.96552 2.11765H3.86207C3.42309 2.11765 3.00209 2.28498 2.69169 2.58283C2.38128 2.88068 2.2069 3.28466 2.2069 3.70588V6.88235H1.65517C1.21619 6.88235 0.795194 7.04968 0.484789 7.34754C0.174384 7.64539 0 8.04936 0 8.47059V9.52941C0 9.95064 0.174384 10.3546 0.484789 10.6525C0.795194 10.9503 1.21619 11.1176 1.65517 11.1176H2.2069V14.2941C2.2069 14.7153 2.38128 15.1193 2.69169 15.4172C3.00209 15.715 3.42309 15.8824 3.86207 15.8824H4.96552C5.15347 15.8783 5.33961 15.8461 5.51724 15.7871V16.4118C5.51724 16.833 5.69163 17.237 6.00203 17.5348C6.31244 17.8327 6.73343 18 7.17241 18H8.27586C8.71484 18 9.13584 17.8327 9.44625 17.5348C9.75665 17.237 9.93103 16.833 9.93103 16.4118V11.1176H22.069V16.4118C22.069 16.833 22.2433 17.237 22.5538 17.5348C22.8642 17.8327 23.2852 18 23.7241 18H24.8276C25.2666 18 25.6876 17.8327 25.998 17.5348C26.3084 17.237 26.4828 16.833 26.4828 16.4118V15.7871C26.6604 15.8461 26.8465 15.8783 27.0345 15.8824H28.1379C28.5769 15.8824 28.9979 15.715 29.3083 15.4172C29.6187 15.1193 29.7931 14.7153 29.7931 14.2941V11.1176H30.3448C30.7838 11.1176 31.2048 10.9503 31.5152 10.6525C31.8256 10.3546 32 9.95064 32 9.52941V8.47059C32 8.04936 31.8256 7.64539 31.5152 7.34754C31.2048 7.04968 30.7838 6.88235 30.3448 6.88235ZM1.65517 10.0588C1.50885 10.0588 1.36851 10.003 1.26504 9.90376C1.16158 9.80448 1.10345 9.66982 1.10345 9.52941V8.47059C1.10345 8.33018 1.16158 8.19552 1.26504 8.09624C1.36851 7.99695 1.50885 7.94118 1.65517 7.94118H2.2069V10.0588H1.65517ZM4.96552 14.8235H3.86207C3.71574 14.8235 3.57541 14.7678 3.47194 14.6685C3.36847 14.5692 3.31034 14.4345 3.31034 14.2941V3.70588C3.31034 3.56547 3.36847 3.43082 3.47194 3.33153C3.57541 3.23225 3.71574 3.17647 3.86207 3.17647H4.96552C5.11184 3.17647 5.25218 3.23225 5.35565 3.33153C5.45911 3.43082 5.51724 3.56547 5.51724 3.70588V14.2941C5.51724 14.4345 5.45911 14.5692 5.35565 14.6685C5.25218 14.7678 5.11184 14.8235 4.96552 14.8235ZM8.82759 16.4118C8.82759 16.5522 8.76946 16.6868 8.66599 16.7861C8.56252 16.8854 8.42219 16.9412 8.27586 16.9412H7.17241C7.02609 16.9412 6.88575 16.8854 6.78229 16.7861C6.67882 16.6868 6.62069 16.5522 6.62069 16.4118V1.58824C6.62069 1.44783 6.67882 1.31317 6.78229 1.21388C6.88575 1.1146 7.02609 1.05882 7.17241 1.05882H8.27586C8.42219 1.05882 8.56252 1.1146 8.66599 1.21388C8.76946 1.31317 8.82759 1.44783 8.82759 1.58824V16.4118ZM9.93103 10.0588V7.94118H22.069V10.0588H9.93103ZM25.3793 16.4118C25.3793 16.5522 25.3212 16.6868 25.2177 16.7861C25.1142 16.8854 24.9739 16.9412 24.8276 16.9412H23.7241C23.5778 16.9412 23.4375 16.8854 23.334 16.7861C23.2305 16.6868 23.1724 16.5522 23.1724 16.4118V1.58824C23.1724 1.44783 23.2305 1.31317 23.334 1.21388C23.4375 1.1146 23.5778 1.05882 23.7241 1.05882H24.8276C24.9739 1.05882 25.1142 1.1146 25.2177 1.21388C25.3212 1.31317 25.3793 1.44783 25.3793 1.58824V16.4118ZM28.6897 14.2941C28.6897 14.4345 28.6315 14.5692 28.5281 14.6685C28.4246 14.7678 28.2843 14.8235 28.1379 14.8235H27.0345C26.8882 14.8235 26.7478 14.7678 26.6444 14.6685C26.5409 14.5692 26.4828 14.4345 26.4828 14.2941V3.70588C26.4828 3.56547 26.5409 3.43082 26.6444 3.33153C26.7478 3.23225 26.8882 3.17647 27.0345 3.17647H28.1379C28.2843 3.17647 28.4246 3.23225 28.5281 3.33153C28.6315 3.43082 28.6897 3.56547 28.6897 3.70588V14.2941ZM30.8966 9.52941C30.8966 9.66982 30.8384 9.80448 30.735 9.90376C30.6315 10.003 30.4912 10.0588 30.3448 10.0588H29.7931V7.94118H30.3448C30.4912 7.94118 30.6315 7.99695 30.735 8.09624C30.8384 8.19552 30.8966 8.33018 30.8966 8.47059V9.52941Z" fill="#D94625"/>
</svg>
