<svg width="16" height="19" viewBox="0 0 16 19" fill="none" xmlns="http://www.w3.org/2000/svg">
<path d="M15.4612 14.7669L13.9761 5.95914C13.9051 5.53916 13.6874 5.15798 13.3616 4.88341C13.0358 4.60884 12.6232 4.4587 12.1971 4.45969H11.5041V3.8599C11.5041 2.93092 11.1349 2.03999 10.4778 1.3831C9.82062 0.726214 8.92934 0.357178 8 0.357178C7.07066 0.357178 6.17938 0.726214 5.52224 1.3831C4.86509 2.03999 4.49591 2.93092 4.49591 3.8599V4.45969H3.79989C3.37379 4.4587 2.96115 4.60884 2.63539 4.88341C2.30963 5.15798 2.09187 5.53916 2.02085 5.95914L0.538812 14.7669C0.471226 15.1688 0.492095 15.5806 0.599967 15.9737C0.707838 16.3667 0.90012 16.7315 1.16342 17.0426C1.42672 17.3538 1.75471 17.6038 2.12455 17.7753C2.49439 17.9469 2.89718 18.0357 3.30488 18.0357H12.6951C13.1028 18.0357 13.5056 17.9469 13.8755 17.7753C14.2453 17.6038 14.5733 17.3538 14.8366 17.0426C15.0999 16.7315 15.2922 16.3667 15.4 15.9737C15.5079 15.5806 15.5288 15.1688 15.4612 14.7669ZM5.39593 3.84491C5.39593 3.15454 5.67029 2.49244 6.15865 2.00427C6.647 1.51611 7.30936 1.24186 8 1.24186C8.69064 1.24186 9.353 1.51611 9.84135 2.00427C10.3297 2.49244 10.6041 3.15454 10.6041 3.84491V4.44469H5.39593V3.84491ZM14.1502 16.4613C13.9713 16.6728 13.7484 16.8427 13.4971 16.9592C13.2458 17.0758 12.9721 17.1361 12.6951 17.1361H3.30488C3.02796 17.1365 2.75428 17.0764 2.50298 16.9601C2.25168 16.8438 2.02882 16.6741 1.84996 16.4627C1.67111 16.2514 1.54058 16.0036 1.4675 15.7365C1.39441 15.4695 1.38053 15.1898 1.42683 14.9169L2.89987 6.10609C2.93502 5.89375 3.04515 5.70104 3.21028 5.56294C3.37542 5.42483 3.58461 5.35047 3.79989 5.35336H4.49291V6.66089C4.49291 6.78019 4.54032 6.89461 4.62472 6.97897C4.70911 7.06333 4.82357 7.11072 4.94292 7.11072C5.06227 7.11072 5.17674 7.06333 5.26113 6.97897C5.34552 6.89461 5.39293 6.78019 5.39293 6.66089V5.35336H10.6041V6.66089C10.6041 6.78019 10.6515 6.89461 10.7359 6.97897C10.8203 7.06333 10.9347 7.11072 11.0541 7.11072C11.1734 7.11072 11.2879 7.06333 11.3723 6.97897C11.4567 6.89461 11.5041 6.78019 11.5041 6.66089V5.35336H12.2001C12.4154 5.35047 12.6246 5.42483 12.7897 5.56294C12.9548 5.70104 13.065 5.89375 13.1001 6.10609L14.5732 14.9169C14.6189 15.1896 14.6047 15.4689 14.5317 15.7356C14.4586 16.0023 14.3284 16.2499 14.1502 16.4613Z" fill="#D94625"/>
</svg>
