<svg width="28" height="28" viewBox="0 0 28 28" fill="none" xmlns="http://www.w3.org/2000/svg">
<path d="M26.9715 22.6671H25.6557V19.291C25.6556 19.1304 25.5917 18.9763 25.4781 18.8627C25.3645 18.749 25.2104 18.6852 25.0497 18.6851H24.9632V11.7453C25.3293 11.6187 25.6469 11.3812 25.8718 11.0658C26.0968 10.7504 26.2179 10.3727 26.2183 9.98531C26.2167 9.76321 26.1748 9.54325 26.0947 9.33607H26.9697C27.1012 9.33607 27.2292 9.29327 27.3342 9.21415C27.4393 9.13503 27.5158 9.02387 27.5521 8.89747C27.5884 8.77107 27.5826 8.63628 27.5356 8.51345C27.4886 8.39063 27.4029 8.28644 27.2914 8.21662L14.3216 0.0926818C14.2252 0.0321259 14.1137 0 13.9999 0C13.8861 0 13.7746 0.0321259 13.6782 0.0926818L0.706642 8.21662C0.59519 8.28644 0.509481 8.39063 0.462455 8.51345C0.415429 8.63628 0.40964 8.77107 0.445962 8.89747C0.482284 9.02387 0.558744 9.13503 0.663799 9.21415C0.768854 9.29327 0.896799 9.33607 1.02832 9.33607H1.90331C1.82326 9.54325 1.78138 9.76321 1.7797 9.98531C1.78015 10.3727 1.90126 10.7504 2.12621 11.0658C2.35115 11.3812 2.66875 11.6187 3.03489 11.7453V18.6851H2.94833C2.78764 18.6852 2.63357 18.749 2.51995 18.8627C2.40633 18.9763 2.34246 19.1304 2.34237 19.291V22.6671H1.02832C0.867608 22.6671 0.713482 22.7309 0.599843 22.8445C0.486205 22.9582 0.422363 23.1123 0.422363 23.273V26.5493C0.422318 26.6289 0.43796 26.7077 0.468396 26.7813C0.498832 26.8548 0.543465 26.9216 0.599742 26.9779C0.656019 27.0342 0.722837 27.0788 0.796375 27.1092C0.869913 27.1397 0.948729 27.1553 1.02832 27.1553H26.9715C27.051 27.1553 27.1299 27.1397 27.2034 27.1092C27.2769 27.0788 27.3438 27.0342 27.4 26.9779C27.4563 26.9216 27.5009 26.8548 27.5314 26.7813C27.5618 26.7077 27.5775 26.6289 27.5774 26.5493V23.273C27.5774 23.1123 27.5136 22.9582 27.3999 22.8445C27.2863 22.7309 27.1322 22.6671 26.9715 22.6671ZM21.6737 22.6671V19.897H24.4438V22.6671H21.6737ZM16.5951 22.6671V19.291C16.595 19.1304 16.5311 18.9763 16.4175 18.8627C16.3039 18.749 16.1498 18.6852 15.9891 18.6851H15.9043V11.7453C16.2704 11.6187 16.5881 11.3812 16.813 11.0658C17.0379 10.7504 17.1591 10.3727 17.1595 9.98531C17.1579 9.76323 17.1162 9.54327 17.0362 9.33607H20.0248C19.9449 9.54327 19.9031 9.76323 19.9015 9.98531C19.9019 10.3727 20.023 10.7504 20.248 11.0658C20.4729 11.3813 20.7906 11.6188 21.1567 11.7453V18.6851H21.0702C20.9094 18.6851 20.7553 18.7489 20.6417 18.8626C20.528 18.9762 20.4642 19.1303 20.4642 19.291V22.6671H16.5951ZM12.6131 22.6671V19.897H15.3832V22.6671H12.6131ZM7.53453 22.6671V19.291C7.53453 19.1303 7.47069 18.9762 7.35705 18.8626C7.24341 18.7489 7.08929 18.6851 6.92858 18.6851H6.84201V11.7453C7.20818 11.6188 7.52581 11.3813 7.75076 11.0658C7.97571 10.7504 8.0968 10.3727 8.0972 9.98531C8.09596 9.7633 8.05455 9.54334 7.97497 9.33607H10.9628C10.8829 9.54327 10.8412 9.76323 10.8396 9.98531C10.8401 10.3728 10.9613 10.7505 11.1864 11.0659C11.4114 11.3814 11.7292 11.6188 12.0955 11.7453V18.6851H12.0089C11.8482 18.6852 11.6941 18.749 11.5805 18.8627C11.4669 18.9763 11.403 19.1304 11.4029 19.291V22.6671H7.53453ZM15.2984 9.33607C15.4705 9.33607 15.6357 9.40448 15.7574 9.52623C15.8792 9.64799 15.9476 9.81312 15.9476 9.98531C15.9476 10.1575 15.8792 10.3226 15.7574 10.4444C15.6357 10.5661 15.4705 10.6345 15.2984 10.6345C15.1377 10.6346 14.9836 10.6985 14.87 10.8121C14.7564 10.9257 14.6925 11.0798 14.6924 11.2405V18.6851H13.3074V11.2405C13.3073 11.0798 13.2434 10.9257 13.1298 10.8121C13.0162 10.6985 12.8621 10.6346 12.7014 10.6345C12.5292 10.6345 12.3641 10.5661 12.2423 10.4444C12.1206 10.3226 12.0522 10.1575 12.0522 9.98531C12.0522 9.81312 12.1206 9.64799 12.2423 9.52623C12.3641 9.40448 12.5292 9.33607 12.7014 9.33607H15.2984ZM25.0082 9.98531C25.0079 10.1574 24.9394 10.3224 24.8177 10.4441C24.696 10.5658 24.531 10.6343 24.3589 10.6345C24.1982 10.6345 24.0441 10.6984 23.9305 10.812C23.8168 10.9257 23.753 11.0798 23.753 11.2405V18.6851H22.3679V11.2405C22.3678 11.0798 22.304 10.9257 22.1904 10.8121C22.0767 10.6985 21.9227 10.6346 21.762 10.6345C21.5898 10.6345 21.4247 10.5661 21.3029 10.4444C21.1811 10.3226 21.1127 10.1575 21.1127 9.98531C21.1127 9.81312 21.1811 9.64799 21.3029 9.52623C21.4247 9.40448 21.5898 9.33607 21.762 9.33607H24.3589C24.531 9.33635 24.696 9.40484 24.8177 9.52654C24.9394 9.64823 25.0079 9.81321 25.0082 9.98531ZM13.9999 1.32017L24.8624 8.12417H3.13738L13.9999 1.32017ZM3.64084 10.6345C3.46866 10.6345 3.30352 10.5661 3.18177 10.4444C3.06001 10.3226 2.99161 10.1575 2.99161 9.98531C2.99161 9.81312 3.06001 9.64799 3.18177 9.52623C3.30352 9.40448 3.46866 9.33607 3.64084 9.33607H6.23779C6.40998 9.33607 6.57511 9.40448 6.69687 9.52623C6.81862 9.64799 6.88703 9.81312 6.88703 9.98531C6.88703 10.1575 6.81862 10.3226 6.69687 10.4444C6.57511 10.5661 6.40998 10.6345 6.23779 10.6345C6.07711 10.6346 5.92304 10.6985 5.80942 10.8121C5.6958 10.9257 5.63193 11.0798 5.63184 11.2405V18.6851H4.2468V11.2405C4.2468 11.0798 4.18296 10.9257 4.06932 10.812C3.95568 10.6984 3.80155 10.6345 3.64084 10.6345ZM3.55428 19.897H6.32435V22.6671H3.55428V19.897ZM26.3655 25.9434H1.63427V23.879H26.3655V25.9434Z" fill="#D94625"/>
<path d="M13.9998 6.95569C14.3466 6.95575 14.6856 6.85299 14.9739 6.66038C15.2623 6.46777 15.487 6.19397 15.6198 5.87362C15.7525 5.55327 15.7873 5.20075 15.7196 4.86064C15.652 4.52054 15.485 4.20814 15.2398 3.96294C14.9946 3.71774 14.6822 3.55077 14.3421 3.48313C14.002 3.4155 13.6495 3.45025 13.3291 3.58298C13.0088 3.71571 12.735 3.94046 12.5424 4.22881C12.3498 4.51716 12.247 4.85616 12.2471 5.20292C12.2476 5.66761 12.4325 6.11312 12.7611 6.44171C13.0896 6.77029 13.5351 6.95514 13.9998 6.95569ZM13.9998 4.66172C14.1069 4.66165 14.2116 4.69333 14.3006 4.75276C14.3897 4.81218 14.4591 4.89669 14.5001 4.99557C14.5411 5.09446 14.5519 5.20329 14.531 5.30829C14.5102 5.4133 14.4587 5.50976 14.383 5.58549C14.3073 5.66121 14.2109 5.71279 14.1059 5.7337C14.0009 5.75461 13.8921 5.74391 13.7932 5.70296C13.6942 5.66201 13.6097 5.59264 13.5502 5.50363C13.4907 5.41463 13.459 5.30998 13.459 5.20292C13.4592 5.0595 13.5162 4.922 13.6176 4.82056C13.719 4.71911 13.8564 4.66199 13.9998 4.66172Z" fill="#D94625"/>
</svg>
